<svg width="273" height="288" viewBox="0 0 273 288" fill="none" xmlns="http://www.w3.org/2000/svg">
<path d="M268.012 255.404H9.00391V262.935H268.012V255.404Z" fill="#221C46"/>
<path fill-rule="evenodd" clip-rule="evenodd" d="M267.012 256.404H10.0039V261.935H267.012V256.404ZM268.012 255.404V262.935H9.00391V255.404H268.012Z" fill="#221C46"/>
<path fill-rule="evenodd" clip-rule="evenodd" d="M80.7098 168.771H12.0961L30.9453 229.296H99.5485L80.7098 168.771ZM81.4458 167.771H10.7373L30.2093 230.296H100.907L81.4458 167.771Z" fill="#221C46"/>
<path fill-rule="evenodd" clip-rule="evenodd" d="M101.133 237.826V241.925C101.133 244.076 101.609 246.112 102.449 247.95C102.604 248.29 102.773 248.624 102.953 248.95H38.358C34.4937 248.95 31.3398 245.798 31.3398 241.925V237.826H101.133ZM32.3398 238.826V241.925C32.3398 245.246 35.0464 247.95 38.358 247.95H101.356C100.573 246.097 100.133 244.065 100.133 241.925V238.826H32.3398Z" fill="#221C46"/>
<path fill-rule="evenodd" clip-rule="evenodd" d="M109.668 238.826V241.925C109.668 245.246 112.375 247.95 115.686 247.95H140.293C142.018 247.95 143.711 247.249 144.934 246.028C146.171 244.782 146.86 243.13 146.86 241.387V238.826H109.668ZM108.668 241.925C108.668 245.798 111.822 248.95 115.686 248.95H140.293C142.284 248.95 144.232 248.143 145.642 246.734C147.063 245.303 147.86 243.399 147.86 241.387V237.826H108.668V241.925Z" fill="#221C46"/>
<path d="M108.808 230.296L87.0003 160.24H0.511719L23.805 235.062V241.925C23.805 249.951 30.3387 256.481 38.3579 256.481H140.303C144.275 256.481 148.161 254.867 150.981 252.059C153.834 249.197 155.395 245.411 155.395 241.387V230.296H108.797H108.808ZM81.4568 167.771L100.918 230.296H30.2095L10.7483 167.771H81.4568ZM31.3505 241.925V237.826H101.155V241.925C101.155 244.475 101.812 246.863 102.974 248.95H38.3794C34.5044 248.95 31.3613 245.798 31.3613 241.925H31.3505ZM147.881 241.387C147.881 243.41 147.096 245.314 145.664 246.734C144.254 248.143 142.306 248.95 140.314 248.95H115.708C111.833 248.95 108.69 245.798 108.69 241.925V237.826H147.881V241.387Z" fill="#221C46"/>
<path fill-rule="evenodd" clip-rule="evenodd" d="M108.797 231.296V230.299L107.853 230.593L86.2642 161.24H1.87038L24.805 234.909V241.925C24.805 249.398 30.8909 255.481 38.3579 255.481H140.303C144.008 255.481 147.64 253.974 150.274 251.352C152.939 248.678 154.395 245.146 154.395 241.387V231.296H108.797ZM155.395 230.296V241.387C155.395 245.411 153.834 249.197 150.981 252.059C148.161 254.867 144.275 256.481 140.303 256.481H38.3579C30.3387 256.481 23.805 249.951 23.805 241.925V235.062L0.511719 160.24H87.0003L108.808 230.296H155.395ZM82.1929 166.771L102.277 231.296H29.4735L9.38968 166.771H82.1929ZM30.3505 242.925V236.826H102.155V241.925C102.155 244.3 102.766 246.521 103.848 248.463L104.676 249.95H38.3794C34.2896 249.95 30.9156 246.879 30.4231 242.925H30.3505ZM31.3613 241.925C31.3613 245.798 34.5044 248.95 38.3794 248.95H102.974C102.792 248.624 102.623 248.29 102.467 247.95C101.622 246.113 101.155 244.076 101.155 241.925V237.826H31.3505V241.925H31.3613ZM107.69 236.826H148.881V241.387C148.881 243.673 147.991 245.833 146.369 247.443C144.772 249.038 142.57 249.95 140.314 249.95H115.708C111.279 249.95 107.69 246.349 107.69 241.925V236.826ZM145.664 246.734C147.096 245.314 147.881 243.41 147.881 241.387V237.826H108.69V241.925C108.69 245.798 111.833 248.95 115.708 248.95H140.314C142.306 248.95 144.254 248.143 145.664 246.734ZM81.4568 167.771L100.918 230.296H30.2095L10.7483 167.771H81.4568Z" fill="#221C46"/>
<path d="M0 44.4521V110.604H70.5211V103.073H7.53478V51.9827H71.1669L71.1669 103.073H55.4515V110.604H78.7017L78.7017 44.4521H0Z" fill="#221C46"/>
<path fill-rule="evenodd" clip-rule="evenodd" d="M78.7017 110.604L78.7017 44.4521H0V110.604H78.7017ZM1 109.604H54.4515V104.073H6.53478V50.9827H72.1669L72.1669 104.073H71.5211V109.604H77.7017L77.7017 45.4521H1V109.604ZM69.5211 109.604V104.073H56.4515V109.604H69.5211ZM71.1669 51.9827H7.53478V103.073H71.1669L71.1669 51.9827Z" fill="#221C46"/>
<path d="M57.8335 65.6699H21.7422V73.0963H57.8335V65.6699Z" fill="#221C46"/>
<path fill-rule="evenodd" clip-rule="evenodd" d="M56.8335 66.6699H22.7422V72.0963H56.8335V66.6699ZM57.8335 65.6699V73.0963H21.7422V65.6699H57.8335Z" fill="#221C46"/>
<path d="M57.8335 80.5234H21.7422V87.9498H57.8335V80.5234Z" fill="#221C46"/>
<path fill-rule="evenodd" clip-rule="evenodd" d="M56.8335 81.5234H22.7422V86.9498H56.8335V81.5234ZM57.8335 80.5234V87.9498H21.7422V80.5234H57.8335Z" fill="#221C46"/>
<path d="M229.55 161.035L232.942 167.418L218.952 174.187L216.057 167.798L229.55 161.035Z" stroke="#221C46"/>
<path d="M261.074 153.795L240.634 163.701L237.193 157.231L246.347 152.651L246.871 152.389L246.53 151.913L227.478 125.309L226.848 124.43L226.586 125.479L218.72 156.938L205.33 163.645L204.9 163.86L205.099 164.298L214.593 185.233L214.804 185.7L215.266 185.477L221.702 182.354L223.702 190.099H184.646L185.785 172.569L185.786 172.553V172.537V132.091L191.982 118.942C196.886 121.227 203.836 122.505 211.439 122.528L211.45 122.539H211.657C219.68 122.539 228.433 121.143 236.337 118.025L261.074 153.795Z" stroke="#221C46"/>
<path d="M231.301 110.766C224.95 112.92 217.742 113.928 211.231 113.951C204.761 113.975 199.053 113.025 195.571 111.317L197.335 107.575L229.123 107.617L231.301 110.766Z" stroke="#221C46"/>
<path d="M230.642 144.381L234.106 149.221L228.767 151.894L230.642 144.381Z" stroke="#221C46"/>
<path d="M227.098 79.8033C227.098 90.4234 218.484 99.0333 207.857 99.0333C197.231 99.0333 188.616 90.4234 188.616 79.8033C188.616 69.1831 197.231 60.5732 207.857 60.5732C218.484 60.5732 227.098 69.1831 227.098 79.8033Z" stroke="#221C46"/>
<path d="M229.39 254.98H211.349L207.272 230.501L207.275 230.5L207.234 230.277L207.199 230.063L207.127 229.63L207.118 229.63L205.12 218.557L205.032 218.065L204.54 218.153L197.123 219.487L196.631 219.576L196.72 220.068L198.664 230.819L194.889 254.98H180.437L184.086 198.619H225.898L228.316 207.978L229.39 254.98Z" stroke="#221C46"/>
<path d="M177.25 148.472V160.552L145.43 141.964L149.373 135.147L177.25 148.472Z" stroke="#221C46"/>
<path d="M219.329 54.5143C220.35 53.8481 221.543 53.4834 222.787 53.4834C224.485 53.4834 226.08 54.1409 227.288 55.3488C227.362 55.4219 227.438 55.5074 227.512 55.5925C227.513 55.5928 227.513 55.5931 227.513 55.5934L230.009 58.4746L230.341 58.8576L230.719 58.5207L233.571 55.9827C233.571 55.9826 233.571 55.9824 233.571 55.9823C235.826 53.9857 239.25 54.0933 241.389 56.2309C243.516 58.3562 243.616 61.7895 241.626 64.0453L239.194 66.7991L238.871 67.1648L239.228 67.4967L241.919 69.9925L241.922 69.9946L241.948 70.0187C242.068 70.1285 242.171 70.2227 242.282 70.3344C244.746 72.8071 244.746 76.8261 242.282 79.2988C240.484 81.0962 237.875 81.5795 235.616 80.7501C235.625 80.5054 235.631 80.2583 235.633 80.0108L235.644 79.9992V79.7921C235.644 68.5721 228.934 58.8812 219.329 54.5143Z" stroke="#221C46"/>
<path d="M228.944 178.27L273.001 156.927L233.347 99.587H226.608C229.784 96.564 232.238 92.8095 233.68 88.5817C235.026 88.9797 236.403 89.1949 237.792 89.1949C241.484 89.1949 245.165 87.7748 247.975 84.9777C252.969 79.9646 253.507 72.1651 249.579 66.5602C252.259 61.3641 251.387 54.8556 247.081 50.5524C242.776 46.2385 236.253 45.3671 231.054 48.0458C228.653 46.3568 225.79 45.4424 222.798 45.4424C218.955 45.4424 215.349 46.9377 212.647 49.6487C211.743 50.5524 210.99 51.5636 210.365 52.6502C209.547 52.5749 208.719 52.5319 207.879 52.5319C192.842 52.5319 180.603 64.7636 180.603 79.7924C180.603 88.6139 184.823 96.4672 191.346 101.459L177.772 130.226V130.29L174.112 138.057L156.277 129.537L166.115 126.901L164.166 119.629L129.184 128.999L131.132 136.272L141.002 133.625L134.501 144.867L177.772 170.137V172.16L171.895 263H201.797L203.143 254.404L204.574 263H237.641L236.36 206.865L228.976 178.27H228.944ZM228.008 152.828L230.408 143.21L234.843 149.396L228.008 152.817V152.828ZM229.751 160.38L233.605 167.642L218.697 174.871L215.381 167.577L229.741 160.38H229.751ZM240.397 164.36L236.49 157.013L246.102 152.204L227.05 125.6L219.127 157.282L205.532 164.092L215.026 185.026L222.012 181.638L224.326 190.599H184.091L185.264 172.536V131.979L191.722 118.274C196.598 120.673 203.746 122.028 211.625 122.028C219.504 122.028 228.557 120.586 236.49 117.402L261.785 153.979L240.386 164.35L240.397 164.36ZM232.076 111.033C218.955 115.681 201.98 115.358 194.898 111.55L197.007 107.075L229.375 107.118L232.076 111.023V111.033ZM222.766 53.0052C224.595 53.0052 226.318 53.7152 227.62 55.0169C227.706 55.103 227.792 55.1891 227.868 55.2859L230.365 58.169L233.217 55.6301C235.672 53.457 239.407 53.5754 241.721 55.8991C244.035 58.212 244.154 61.945 241.979 64.3978L239.547 67.1519L242.238 69.6477C242.367 69.766 242.485 69.8736 242.614 70.0027C245.273 72.6707 245.273 77.0061 242.614 79.6741C240.58 81.6966 237.598 82.1807 235.08 81.1049C235.101 80.6853 235.112 80.255 235.112 79.8247C235.112 68.5074 228.169 58.7714 218.309 54.6619C219.547 53.5969 221.097 53.016 222.755 53.016L222.766 53.0052ZM188.106 79.8247C188.106 68.9484 196.964 60.0947 207.847 60.0947C218.729 60.0947 227.588 68.9484 227.588 79.8247C227.588 90.701 218.729 99.5547 207.847 99.5547C196.964 99.5547 188.106 90.701 188.106 79.8247ZM144.738 142.178L149.162 134.529L177.675 148.148L177.74 148.008V161.456L144.738 142.178ZM210.914 255.502L206.695 230.177H206.404L206.684 230.124L204.617 218.666L197.201 220L199.16 230.834L195.307 255.502H179.893L183.606 198.14H226.275L228.804 207.93L229.891 255.502H210.925H210.914Z" fill="#221C46"/>
<path fill-rule="evenodd" clip-rule="evenodd" d="M228.729 178.334L228.508 177.37L271.515 156.536L232.822 100.587H224.108L225.919 98.8627C228.981 95.9473 231.345 92.3292 232.734 88.2588L233.044 87.3505L233.964 87.6227C235.225 87.9959 236.507 88.1949 237.792 88.1949C241.227 88.1949 244.652 86.8745 247.268 84.2704C251.913 79.6062 252.414 72.348 248.76 67.1342L248.413 66.6391L248.69 66.1018C251.175 61.2833 250.365 55.248 246.374 51.2597L246.374 51.2588C242.383 47.2606 236.334 46.4503 231.512 48.9347L230.974 49.2121L230.478 48.8636C228.247 47.2933 225.584 46.4424 222.798 46.4424C219.22 46.4424 215.869 47.8325 213.356 50.3546L213.354 50.356C212.518 51.1918 211.817 52.1312 211.233 53.1484L210.913 53.7048L210.274 53.646C209.482 53.5731 208.684 53.5319 207.879 53.5319C193.393 53.5319 181.603 65.3164 181.603 79.7924C181.603 88.2874 185.665 95.8529 191.953 100.665L192.594 101.155L178.772 130.45V130.514L174.589 139.393L153.402 129.272L164.89 126.194L163.459 120.854L130.408 129.706L131.839 135.047L143.078 132.033L135.865 144.506L178.772 169.563V172.192L172.962 262H200.942L202.155 254.25L204.129 254.24L205.422 262H236.618L235.363 207.003L228.008 178.52L228.729 178.334ZM236.36 206.865L237.641 263H204.574L203.143 254.404L201.797 263H171.895L177.772 172.16V170.137L134.501 144.867L141.002 133.625L131.132 136.272L129.184 128.999L164.166 119.629L166.115 126.901L156.277 129.537L174.112 138.057L177.772 130.29V130.226L191.346 101.459C184.823 96.4672 180.603 88.6139 180.603 79.7924C180.603 64.7636 192.842 52.5319 207.879 52.5319C208.719 52.5319 209.547 52.5749 210.365 52.6502C210.99 51.5636 211.743 50.5524 212.647 49.6487C215.349 46.9377 218.955 45.4424 222.798 45.4424C225.79 45.4424 228.653 46.3568 231.054 48.0458C236.253 45.3671 242.776 46.2385 247.081 50.5524C251.387 54.8556 252.259 61.3641 249.579 66.5602C253.507 72.1651 252.969 79.9646 247.975 84.9777C245.165 87.7748 241.484 89.1949 237.792 89.1949C236.403 89.1949 235.026 88.9797 233.68 88.5817C233.68 88.5816 233.68 88.5817 233.68 88.5817C232.393 92.355 230.3 95.7513 227.607 98.587C227.283 98.9286 226.95 99.262 226.608 99.587H233.347L273.001 156.927L228.944 178.27H228.976L236.36 206.865ZM228.079 152.96L227.008 152.828V152.199L227.152 152.127L229.961 140.871L236.338 149.766L228.455 153.711L228.079 152.96ZM228.011 152.816L234.843 149.396L230.408 143.21L228.011 152.816ZM230.353 159.38L234.974 168.089L218.211 176.218L214.073 167.114L229.504 159.38H230.353ZM240.458 164.499L239.689 165.067L238.686 164.063L239.02 163.901L235.125 156.577L244.607 151.834L227.495 127.94L219.986 157.97L206.841 164.555L215.513 183.679L222.675 180.205L225.617 191.599H183.024L184.264 172.504V131.755L191.251 116.927L192.164 117.376C196.856 119.685 203.836 121.028 211.625 121.028C219.396 121.028 228.319 119.604 236.117 116.474L236.858 116.177L263.271 154.37L240.822 165.25L240.458 164.499ZM261.785 153.979L236.49 117.402C228.557 120.586 219.504 122.028 211.625 122.028C204.125 122.028 197.287 120.8 192.441 118.612C192.196 118.502 191.957 118.389 191.722 118.274L185.264 131.979V172.536L184.091 190.599H224.326L222.012 181.638L215.026 185.026L205.532 164.092L219.127 157.282L227.05 125.6L246.102 152.204L236.49 157.013L240.39 164.348L261.785 153.979ZM233.076 111.74L232.41 111.976C225.726 114.344 218.088 115.438 211.226 115.463C204.4 115.487 198.185 114.453 194.424 112.431L193.589 111.981L196.374 106.074L229.899 106.118L233.076 110.71V111.74ZM222.351 52.0052H222.766C224.86 52.0052 226.837 52.8203 228.327 54.3096L228.338 54.3208C228.414 54.3962 228.529 54.5116 228.639 54.6484L230.457 56.7481L232.554 54.8814C235.405 52.357 239.742 52.4949 242.429 55.1934C245.115 57.8793 245.253 62.2109 242.729 65.0599M242.728 65.0612L240.942 67.0824L242.913 68.9104L242.918 68.9145L242.943 68.9373C243.059 69.0441 243.185 69.1594 243.321 69.2954L243.323 69.2968C246.37 72.355 246.37 77.3218 243.323 80.38L243.319 80.3833C240.986 82.7034 237.566 83.2544 234.687 82.0245L234.045 81.7505L234.081 81.0536C234.101 80.6518 234.112 80.2386 234.112 79.8247C234.112 68.9262 227.426 59.5451 217.925 55.585L216.428 54.9612L217.657 53.9039C218.969 52.7748 220.592 52.1193 222.329 52.0272L222.351 52.0052M222.755 53.016C221.496 53.016 220.299 53.3512 219.253 53.9791C218.922 54.1779 218.607 54.4059 218.309 54.6619C218.657 54.807 219.002 54.9592 219.343 55.1181C228.651 59.461 235.112 68.907 235.112 79.8247C235.112 80.255 235.101 80.6853 235.08 81.1049C237.598 82.1807 240.58 81.6966 242.614 79.6741C245.273 77.0061 245.273 72.6707 242.614 70.0027C242.494 69.8828 242.384 69.7815 242.265 69.6729L242.238 69.6477L239.547 67.1519L241.979 64.3978C244.154 61.945 244.035 58.212 241.721 55.8991C239.407 53.5754 235.672 53.457 233.217 55.6301L230.365 58.169L227.868 55.2859C227.792 55.1891 227.706 55.1031 227.62 55.017C226.318 53.7153 224.595 53.0052 222.766 53.0052L222.755 53.016ZM143.373 142.539L148.759 133.228L178.106 147.246L177.837 147.81L178.74 148.008V163.198L143.373 142.539ZM149.162 134.529L144.738 142.178L177.74 161.456V148.008L177.675 148.148L149.162 134.529ZM210.067 256.502L205.709 230.342L206.315 230.241L206.31 230.191L205.7 230.301L203.811 219.828L198.363 220.807L200.174 230.822L196.163 256.502H178.826L182.669 197.14H227.049L229.801 207.792L230.914 256.502H210.067ZM197.201 220L204.617 218.666L206.684 230.124L206.404 230.177L206.695 230.178L210.914 255.502H229.891L228.804 207.93L226.275 198.14H183.606L179.893 255.502H195.307L199.16 230.834L197.201 220ZM215.381 167.577L229.741 160.38H229.751L233.605 167.641L218.697 174.871L215.381 167.577ZM229.375 107.118L197.007 107.075L194.898 111.55C201.806 115.264 218.124 115.663 231.099 111.368C231.416 111.263 231.732 111.155 232.045 111.045C232.055 111.041 232.066 111.037 232.076 111.033V111.023L229.375 107.118ZM187.106 79.8247C187.106 68.3956 196.413 59.0947 207.847 59.0947C219.281 59.0947 228.588 68.3956 228.588 79.8247C228.588 91.2538 219.281 100.555 207.847 100.555C196.413 100.555 187.106 91.2538 187.106 79.8247ZM207.847 60.0947C196.964 60.0947 188.106 68.9484 188.106 79.8247C188.106 90.701 196.964 99.5547 207.847 99.5547C218.729 99.5547 227.588 90.701 227.588 79.8247C227.588 68.9484 218.729 60.0947 207.847 60.0947Z" fill="#221C46"/>
<path d="M98.9153 159.742L113.838 159.742L113.838 166.169L98.9153 166.169L98.9153 159.742Z" fill="#221C46" stroke="#221C46"/>
<path d="M79.2784 131.629L85.709 131.629L85.709 146.543L79.2784 146.543L79.2784 131.629Z" fill="#221C46" stroke="#221C46"/>
<path d="M91.8445 149.067L102.389 138.529L106.936 143.074L96.3914 153.612L91.8445 149.067Z" fill="#221C46" stroke="#221C46"/>
<path d="M157.201 14.2799C153.549 10.5455 151.522 5.60161 151.437 0.328882C151.437 0.212182 151.437 0.106091 151.437 0H143.985C143.985 0.1167 143.985 0.222791 143.985 0.328882C143.9 5.60161 141.873 10.5455 138.221 14.2799C134.516 18.0673 129.602 20.1573 124.379 20.1573H123.816V27.5837H124.379C129.602 27.5837 134.516 29.6737 138.221 33.4611C141.873 37.1955 143.9 42.1394 143.985 47.4121C143.985 47.5288 143.985 47.6349 143.985 47.741H151.437C151.437 47.6243 151.437 47.5182 151.437 47.4121C151.522 42.1394 153.549 37.1955 157.201 33.4611C160.895 29.6737 165.81 27.5943 171.043 27.5943H171.605V20.1679H171.043C165.82 20.1679 160.905 18.0779 157.201 14.2905V14.2799ZM151.883 28.2627C150.248 29.9283 148.857 31.7743 147.711 33.7476C146.565 31.7743 145.174 29.9283 143.55 28.2627C141.862 26.5334 139.973 25.0587 137.956 23.8599C139.973 22.6611 141.851 21.197 143.55 19.4677C145.185 17.8021 146.575 15.9561 147.722 13.9828C148.868 15.9561 150.259 17.8021 151.883 19.4677C153.57 21.197 155.46 22.6717 157.477 23.8705C155.46 25.0693 153.581 26.5334 151.883 28.2627Z" fill="#221C46"/>
</svg>
