<svg width="273" height="288" viewBox="0 0 273 288" fill="none" xmlns="http://www.w3.org/2000/svg">
<path d="M232.635 36.4086C236.66 42.2368 243.303 46.0493 250.8 46.0493C263.037 46.0493 273.002 35.8903 273.002 23.3932H264.928C264.928 31.4328 258.585 37.9866 250.8 37.9866C243.015 37.9866 236.671 31.4443 236.671 23.3932H228.598C228.598 31.4328 222.254 37.9866 214.469 37.9866C206.684 37.9866 200.341 31.4443 200.341 23.3932H192.267C192.267 31.4328 185.924 37.9866 178.139 37.9866C170.354 37.9866 164.01 31.4443 164.01 23.3932H155.937C155.937 31.4328 149.594 37.9866 141.809 37.9866C134.542 37.9866 128.534 32.2852 127.761 24.9827L147.045 5.70145L141.336 0L119.607 21.7231V23.3932C119.607 35.8788 129.572 46.0493 141.809 46.0493C149.305 46.0493 155.949 42.2368 159.974 36.4086C163.999 42.2368 170.642 46.0493 178.139 46.0493C185.636 46.0493 192.279 42.2368 196.304 36.4086C199.257 40.6818 203.616 43.8608 208.68 45.2545C201.471 48.6523 196.454 55.9663 196.454 64.4551C196.454 75.3743 204.747 84.3814 215.369 85.5563L198.173 110.62L186.593 81.4098H152.281L164.506 112.232L159.997 119.627L193.225 138.01H147.864V133.287C152.8 131.917 156.445 127.39 156.445 122.034V112.635H114.209V122.034C114.209 127.471 117.946 132.032 122.974 133.333V137.998H114.209V161.023H161.704V280.937H105.201L105.224 262.75H118.061V254.688H105.236L105.294 199.896H124.9V176.872H77.6133V199.896H97.2086L97.1164 280.937H82.0652V289H259.992V280.937H242.115V199.896H261.722V176.872H251.999L253.118 174.775V161.057L259.392 167.323L265.101 161.622L254.79 151.324L265.009 141.119L259.3 135.418L253.118 141.592V133.852C253.118 116.655 249.174 99.3779 241.723 83.8746L240.627 81.594H230.247C235.541 77.724 239.001 71.4927 239.001 64.4551C239.001 54.7684 232.473 46.6021 223.581 44.0566C227.225 42.375 230.363 39.7143 232.635 36.4086ZM131.048 133.736H139.79V138.01H131.048V133.736ZM122.282 120.698H148.371V122.034C148.371 124.038 146.745 125.662 144.738 125.662H125.915C123.909 125.662 122.282 124.038 122.282 122.034V120.698ZM85.6867 184.934H116.816V191.834H85.6867V184.934ZM181.115 89.4724L190.065 112.048L170.55 105.575L164.16 89.4609H181.103L181.115 89.4724ZM172.453 114.709L193.455 121.677V128.922L171.277 116.655L172.453 114.72V114.709ZM215.427 123.313V138.01H200.941L215.427 123.313ZM245.045 156.577V172.771L242.127 178.254V157.348L245.045 156.577ZM234.053 195.876V208.926L208.876 201.255L223.512 164.029V132.043L234.053 155.137V195.888V195.876ZM207.007 267.576H203.697L207.007 261.368V267.576ZM194.551 267.576H186.985L209.741 209.951L223.085 214.017L194.551 267.576ZM122.294 146.084H209.199V152.983H122.282V146.084H122.294ZM215.438 161.046V162.497L198.173 206.415L202.002 207.579L177.666 269.2L169.789 276.042V161.034H215.438V161.046ZM176.444 280.96L182.568 275.639H190.261L187.423 280.96H176.432H176.444ZM199.407 275.639H207.007V280.96H196.569L199.407 275.639ZM234.053 254.699H220.305V262.762H234.053V280.949H215.081V246.199L230.951 216.402L234.053 217.346V254.688V254.699ZM253.66 184.946V191.845H244.041L247.72 184.946H253.66ZM245.056 133.863V148.238L240.35 149.482L220.709 106.473L201.54 125.927V120.03L222.358 89.6797H235.518C241.758 103.501 245.045 118.728 245.045 133.875L245.056 133.863ZM230.951 64.4667C230.951 71.7346 225.034 77.6433 217.756 77.6433C210.479 77.6433 204.562 71.7346 204.562 64.4667C204.562 57.1988 210.479 51.29 217.756 51.29C225.034 51.29 230.951 57.1988 230.951 64.4667Z" fill="#221C46"/>
<path d="M161.124 50.0801H153.051V67.3572H161.124V50.0801Z" fill="#221C46"/>
<path d="M139.788 80.6035H122.488V88.6662H139.788V80.6035Z" fill="#221C46"/>
<path d="M135.478 57.3594L129.77 63.0605L142.003 75.2773L147.711 69.5762L135.478 57.3594Z" fill="#221C46"/>
<path d="M86.987 65.894C86.987 60.112 89.2706 54.4681 93.2612 50.3907C97.2864 46.2788 102.615 44.0212 108.289 44.0212H108.901V35.9586H108.289C102.615 35.9586 97.2749 33.6895 93.2612 29.5775C89.213 25.4426 86.987 19.9369 86.987 14.0742H78.9136C78.9136 19.9369 76.6876 25.4426 72.6394 29.5775C68.6142 33.6895 63.2857 35.9586 57.6113 35.9586H57V44.0212H57.6113C63.2857 44.0212 68.6257 46.2903 72.6394 50.3907C76.63 54.4681 78.9136 60.1235 78.9136 65.894H86.987ZM78.4176 44.7584C76.5838 42.8924 74.5193 41.2914 72.2934 39.9899C74.5193 38.6883 76.5954 37.0873 78.4176 35.2214C80.1938 33.4015 81.7047 31.3974 82.9503 29.2435C84.1959 31.3974 85.7068 33.4015 87.483 35.2214C89.3168 37.0873 91.3813 38.6883 93.6072 39.9899C91.3813 41.2914 89.3052 42.8924 87.483 44.7584C85.7068 46.5782 84.1959 48.5824 82.9503 50.7363C81.7047 48.5824 80.1938 46.5782 78.4176 44.7584Z" fill="#221C46"/>
</svg>
