<svg width="200" height="211" viewBox="0 0 200 211" fill="none" xmlns="http://www.w3.org/2000/svg">
<path d="M197.411 144.006C197.411 138.849 195.785 133.942 192.706 129.808L183.091 114.51C194.005 102.04 200 86.1748 200 69.5449C199.991 31.8419 169.287 1.16043 131.549 1.16043C93.8098 1.16043 63.1061 31.8419 63.1061 69.5535C63.1061 77.5462 64.4822 85.3412 67.1742 92.7752L56.9912 126.284H67.3548L65.4971 133.899H77.1593L79.7308 126.284H85.4243L73.5901 204.973H58.8317V210.989H189.559V210.551L194.676 175.71H176.598V167.597C188.312 166.11 197.394 156.106 197.394 144.006H197.411ZM187.821 133.323C190.161 136.425 191.391 140.112 191.391 144.006C191.391 153.803 183.409 161.778 173.605 161.778C163.8 161.778 155.819 153.803 155.819 144.006C155.819 140.121 157.058 136.425 159.388 133.323L173.605 110.729L187.675 133.108L187.821 133.314V133.323ZM131.549 7.17641C165.968 7.17641 193.971 35.1593 193.971 69.5535C193.971 84.1036 188.931 98.0177 179.728 109.173L173.605 99.4271L156.43 126.748C148.569 130.169 140.209 131.922 131.557 131.922C125.373 131.922 119.293 131.011 113.445 129.241L113.333 128.338V95.3878L112.696 92.801L119.706 98.7568H127.661L138.076 72.1576H152.31V52.6744H127.885V68.3675L121.409 79.944L111.535 70.4215H103.485C109.996 68.4277 114.735 62.3687 114.735 55.2183C114.735 46.4522 107.596 39.3189 98.8238 39.3189C95.4352 39.3189 92.3047 40.3846 89.7245 42.198C88.2109 39.74 85.5017 38.0899 82.4056 38.0899C79.9802 38.0899 77.7957 39.1041 76.2304 40.7198C86.6628 20.8069 107.536 7.17641 131.549 7.17641ZM91.8747 126.284H106.702L104.32 118.455H107.295V128.527L115.483 195.829H113.255L91.8661 126.284H91.8747ZM82.612 195.519H81.1069L89.5697 139.27L95.7879 159.484L82.612 195.519ZM85.5963 76.893L85.7081 76.4375H102.488L107.295 96.1184V112.439H102.488L96.0201 91.1337H91.6166L93.3023 86.149L85.5877 76.893H85.5963ZM82.397 49.2625C80.9779 49.2625 79.8168 48.1108 79.8168 46.6842C79.8168 45.2576 80.9693 44.1059 82.397 44.1059C83.8246 44.1059 84.9771 45.2576 84.9771 46.6842C84.9771 48.1108 83.8246 49.2625 82.397 49.2625ZM98.8238 45.3435C104.277 45.3435 108.714 49.7781 108.714 55.2269C108.714 60.6756 104.277 65.1103 98.8238 65.1103C93.3711 65.1103 88.9333 60.6756 88.9333 55.2269C88.9333 49.7781 93.3711 45.3435 98.8238 45.3435ZM129.175 78.397L123.559 92.7494H121.925L110.262 82.8316L108.697 76.4461H109.101L122.845 89.707L129.166 78.397H129.175ZM133.905 66.1502V58.699H146.29V66.1502H133.905ZM73.8567 45.7818C73.8223 46.0826 73.8051 46.3834 73.8051 46.6842C73.8051 51.4196 77.6581 55.2785 82.4056 55.2785C82.5776 55.2785 82.7496 55.2613 82.9216 55.2527C82.9302 62.3859 87.669 68.4363 94.171 70.4301H81.0209L80.8317 71.1778L80.7973 71.1349L75.9208 91.1423H72.9881C70.4337 84.2411 69.1265 76.9961 69.1265 69.5535C69.1265 61.1397 70.8121 53.1127 73.8481 45.7818H73.8567ZM65.1186 120.268L72.1452 97.1497H74.4673L68.834 120.268H65.1186ZM73.9943 124.522L83.8246 84.1637L86.5338 87.4124L73.9943 124.522ZM89.5955 97.1497H91.5736L98.6002 120.268H81.7863L89.5955 97.1497ZM79.6964 204.973L80.2124 201.535H80.7973L81.6831 204.973H79.6964ZM87.9012 204.973L86.938 201.243L98.7292 169.006L109.789 204.973H87.9012ZM116.085 204.973L115.122 201.845H116.223L116.403 203.332L117.401 204.965H116.076L116.085 204.973ZM124.462 204.973L122.226 201.312L114.227 135.712C118.897 136.932 123.688 137.663 128.538 137.869V204.965H124.462V204.973ZM184.304 204.973H162.906L159.491 181.734H187.727L184.312 204.973H184.304ZM152.516 175.718L156.817 204.973H134.559V137.869C140.381 137.62 146.083 136.632 151.588 134.947C150.409 137.792 149.79 140.851 149.79 144.014C149.79 156.115 158.881 166.119 170.586 167.605V175.718H152.508H152.516Z" fill="#221C46"/>
<path d="M164.083 36.3688L154.959 45.4828L159.216 49.7375L168.339 40.6235L164.083 36.3688Z" fill="#221C46"/>
<path d="M150.969 30.9391H144.949V43.8305H150.969V30.9391Z" fill="#221C46"/>
<path d="M173.761 53.7142H160.86V59.7301H173.761V53.7142Z" fill="#221C46"/>
<path d="M72.6785 22.3451H73.1343V16.3291H72.6785C68.4471 16.3291 64.465 14.636 61.4721 11.5679C58.4963 8.5255 56.7934 4.30572 56.7934 0H50.7731C50.7731 4.31432 49.0702 8.5255 46.0945 11.5679C43.0929 14.636 39.1195 16.3291 34.8881 16.3291H34.4323V22.3451H34.8881C39.1195 22.3451 43.1015 24.0381 46.0945 27.1063C49.0702 30.1486 50.7731 34.3684 50.7731 38.6741H56.7934C56.7934 34.3598 58.4963 30.1486 61.4721 27.1063C64.4736 24.0381 68.4471 22.3451 72.6785 22.3451ZM53.7833 27.3555C52.8544 25.7484 51.7278 24.253 50.4033 22.8951C49.0358 21.5028 47.4963 20.3082 45.8365 19.3371C47.4963 18.3659 49.0444 17.1713 50.4033 15.7705C51.7278 14.4126 52.8544 12.9172 53.7833 11.31C54.7121 12.9172 55.8388 14.4126 57.1633 15.7705C58.5307 17.1627 60.0702 18.3573 61.7301 19.3371C60.0702 20.3082 58.5221 21.5028 57.1633 22.8951C55.8388 24.253 54.7121 25.7484 53.7833 27.3555Z" fill="#221C46"/>
</svg>
