<svg width="200" height="211" viewBox="0 0 200 211" fill="none" xmlns="http://www.w3.org/2000/svg">
<path d="M196.482 0H3.51759C1.57789 0 0 1.57905 0 3.52017V154.385C0 156.326 1.57789 157.905 3.51759 157.905H57.1457V203.949H21.2663V210.989H178.975L170.784 157.905H196.482C198.422 157.905 200 156.326 200 154.385V3.52017C200 1.57905 198.422 0 196.482 0ZM64.1809 157.905H100.864L92.2412 191.628L76.7337 203.949H64.1709V157.905H64.1809ZM100.161 125.479H138.322V134.45H106.07V137.528L102.663 150.864H64.1809V125.479H100.161ZM100.161 118.439H90.0503L92.5528 113.581H100.171V118.439H100.161ZM122.332 151.035L120.573 193.438H113.106V141.491H140.774L155.085 151.046H122.322L122.332 151.035ZM106.07 165.931V192.493L99.6583 191.015L106.07 165.921V165.931ZM163.186 147.978L145.357 136.08V109.588L153.869 89.8147C154.271 88.8793 154.553 87.9037 154.724 86.9281C155.075 87.7528 155.347 88.6178 155.518 89.523L163.176 130.769V147.968L163.186 147.978ZM142.121 67.2252C136.03 67.2252 131.065 62.2668 131.065 56.1618C131.065 50.0568 136.02 45.0984 142.121 45.0984C148.221 45.0984 153.176 50.0568 153.176 56.1618C153.176 62.2668 148.221 67.2252 142.121 67.2252ZM144.02 78.9625C145.186 79.4151 146.201 80.2197 146.915 81.2958C148.04 83.0056 148.231 85.158 147.417 87.0388L133.889 118.439H107.196V113.581H129.618L144.02 78.9625ZM88.0503 203.949L96.2111 197.462L102.965 199.02L98.4925 203.949H88.0402H88.0503ZM108 203.949L111.146 200.479H120.281L120.141 203.949H108ZM127.176 203.949L129.075 158.086H163.688L170.774 203.949H127.186H127.176ZM192.965 150.864H170.221V131.051L189.407 76.2067L182.764 73.8834L167.749 116.819L162.442 88.2557C161.126 81.155 155.869 75.3518 149.146 72.8575C155.638 70.1118 160.211 63.6648 160.211 56.1819C160.211 46.2048 152.101 38.0782 142.121 38.0782C132.141 38.0782 124.03 46.1947 124.03 56.1819C124.03 64.922 130.251 72.2339 138.503 73.9135L124.925 106.551H88.2613L82.1407 118.449H80.2915L63.8794 80.2096L57.4171 82.9855L72.6432 118.449H51.608L52.6131 98.7056H32.4724L33.4774 118.449H21.2864V125.489H57.1658V150.875H7.03518V7.04034H192.965V150.864ZM39.8593 105.736H45.196L44.5528 118.439H40.5126L39.8693 105.736H39.8593Z" fill="#221C46"/>
<path d="M32.2208 51.8271C35.6982 55.3875 37.6881 60.3258 37.6881 65.3647H44.7233C44.7233 60.3158 46.7133 55.3875 50.1906 51.8271C53.6982 48.2365 58.3414 46.2652 63.2861 46.2652H63.8188V39.2249H63.2861C58.3414 39.2249 53.6881 37.2436 50.1906 33.653C46.663 30.0423 44.7233 25.2347 44.7233 20.1154H37.6881C37.6881 25.2347 35.7484 30.0423 32.2208 33.653C28.7133 37.2436 24.07 39.2249 19.1253 39.2249H18.5927V46.2652H19.1253C24.07 46.2652 28.7233 48.2466 32.2208 51.8271ZM37.256 38.5712C38.8037 36.9821 40.1203 35.232 41.2057 33.3512C42.2911 35.232 43.6077 36.9821 45.1555 38.5712C46.7535 40.2005 48.5525 41.5985 50.4922 42.735C48.5525 43.8715 46.7434 45.2695 45.1555 46.8989C43.6077 48.488 42.2911 50.238 41.2057 52.1188C40.1203 50.238 38.8037 48.488 37.256 46.8989C35.658 45.2695 33.859 43.8715 31.9193 42.735C33.859 41.5985 35.668 40.2005 37.256 38.5712Z" fill="#221C46"/>
<path d="M82.4129 65.3649H75.3777V80.4514H82.4129V65.3649Z" fill="#221C46"/>
<path d="M97.7268 71.7245L87.0651 82.3904L92.0388 87.3695L102.701 76.7037L97.7268 71.7245Z" fill="#221C46"/>
<path d="M109.046 92.0176H93.9703V99.0579H109.046V92.0176Z" fill="#221C46"/>
</svg>
