<svg width="321" height="321" viewBox="0 0 321 321" fill="none" xmlns="http://www.w3.org/2000/svg">
<path fill-rule="evenodd" clip-rule="evenodd" d="M54.0898 41.2471H127.14L160.59 74.6973L194.04 41.2471H267.09V114.297L233.64 147.747L267.09 181.197V254.247H194.04L160.59 220.797L127.14 254.247H54.0898V181.197L87.5401 147.747L54.0898 114.297V41.2471ZM61.0898 48.2471V111.397L97.4396 147.747L61.0898 184.097V247.247H124.24L160.59 210.897L196.94 247.247H260.09V184.097L223.74 147.747L260.09 111.397V48.2471H196.94L160.59 84.5968L124.24 48.2471H61.0898Z" fill="#221C46"/>
<path fill-rule="evenodd" clip-rule="evenodd" d="M114.59 270.247H214.59V277.247H114.59V270.247Z" fill="#221C46"/>
<path fill-rule="evenodd" clip-rule="evenodd" d="M194.745 92.9868H210.675L203.292 125.996L178.988 138.402L175.604 161.564L202.157 175.811L215.965 202.923L230.962 203.111L208.071 226.001L188.727 191.454L150.369 174.719L146.106 137.666L110.324 111.972L119.966 98.2085L140.233 112.233L156.503 118.357H174.776L189.62 112.268L194.745 92.9868ZM200.127 99.9868L195.492 117.425L176.156 125.357H155.229L136.959 118.48L121.706 107.925L120.027 110.322L152.706 133.788L156.862 169.915L193.684 185.98L209.661 214.512L214.27 209.903L211.647 209.87L196.915 180.942L167.968 165.41L172.584 133.812L197.179 121.257L201.937 99.9868H200.127Z" fill="#221C46"/>
<path fill-rule="evenodd" clip-rule="evenodd" d="M155.625 168.017L133.114 196.507H102.059V205.007L105.669 201.397H135.299L162.084 174.612L167.033 179.562L138.198 208.397H108.568L95.0586 221.907V189.507H129.723L150.132 163.677L155.625 168.017Z" fill="#221C46"/>
<path fill-rule="evenodd" clip-rule="evenodd" d="M152.66 159.987H171.79V166.987H152.66V159.987Z" fill="#221C46"/>
<path fill-rule="evenodd" clip-rule="evenodd" d="M198.32 74.457H217.49V99.997H198.32V74.457ZM205.32 81.457V92.997H210.49V81.457H205.32Z" fill="#221C46"/>
<path fill-rule="evenodd" clip-rule="evenodd" d="M164.56 98.7871C160.753 98.7871 157.66 101.88 157.66 105.687C157.66 109.494 160.753 112.587 164.56 112.587C168.367 112.587 171.46 109.494 171.46 105.687C171.46 101.88 168.367 98.7871 164.56 98.7871ZM150.66 105.687C150.66 98.0141 156.887 91.7871 164.56 91.7871C172.233 91.7871 178.46 98.0141 178.46 105.687C178.46 113.36 172.233 119.587 164.56 119.587C156.887 119.587 150.66 113.36 150.66 105.687Z" fill="#221C46"/>
</svg>
