<svg width="320" height="320" viewBox="0 0 320 320" fill="none" xmlns="http://www.w3.org/2000/svg">
<path d="M125.222 68.6405L113.922 57.3405M136.522 63.9605V47.9805M147.822 68.6505L159.122 57.3505M123.31 126.631L118.5 137.681M71.8438 169.261H103.674M86.7703 207.991L81.3203 223.451M231.05 187.771L262.64 264.951H44.8203M215.949 99.7207L102.289 213.371M233.822 138.021L177.172 194.671M190.152 264.951C197.722 264.951 206.032 258.801 208.702 251.231L261.812 100.421C264.482 92.8507 260.492 86.7007 252.922 86.7007H143.192C135.622 86.7007 127.312 92.8507 124.642 100.421L116.992 122.131M101.852 228.131H199.932C201.122 228.131 202.422 227.171 202.842 225.981L246.552 101.871C246.972 100.681 246.342 99.7207 245.152 99.7207H141.802C140.612 99.7207 139.312 100.681 138.892 101.871L128.812 130.491M112.592 134.671L103.672 160.001M125.092 141.051L102.562 205.021M262.638 162.141C269.708 162.141 275.448 167.881 275.448 174.951C275.448 182.021 269.708 187.761 262.638 187.761C255.568 187.761 249.828 182.021 249.828 174.951C249.828 167.881 255.568 162.141 262.638 162.141ZM92.0194 76.5405C100.799 76.5405 107.929 83.6705 107.929 92.4505C107.929 101.231 100.799 108.361 92.0194 108.361C83.2394 108.361 76.1094 101.231 76.1094 92.4505C76.1094 83.6705 83.2394 76.5405 92.0194 76.5405ZM84.5982 72.7504C85.062 77.4385 81.6375 81.6149 76.9494 82.0787C72.2613 82.5425 68.0848 79.1181 67.621 74.43C67.1572 69.7419 70.5817 65.5654 75.2698 65.1016C79.9579 64.6378 84.1344 68.0623 84.5982 72.7504ZM100.71 264.951L103.67 169.261V138.691L100.71 128.641L142.75 150.001L146.31 142.861L100.67 110.581H66.7703L44.8203 145.891L73.9803 163.921L77.4803 153.961L60.4403 143.291L70.4603 131.501L79.2003 149.071L68.9803 178.161V264.951H76.4303L84.4003 197.341H85.5903L93.0503 264.951H100.71ZM146.304 246.871C146.304 250.913 143.027 254.191 138.984 254.191C134.941 254.191 131.664 250.913 131.664 246.871C131.664 242.828 134.941 239.551 138.984 239.551C143.027 239.551 146.304 242.828 146.304 246.871Z" stroke="#221C46" stroke-width="7" stroke-miterlimit="5"/>
</svg>
