<svg width="120" height="120" viewBox="0 0 120 120" fill="none" xmlns="http://www.w3.org/2000/svg">
<rect width="119.161" height="120" fill="#DEF3FB"/>
<path d="M70.843 51.1092C72.7982 51.1092 74.3888 49.5187 74.3888 47.5634C74.3888 45.6082 72.7982 44.0173 70.843 44.0173C68.8877 44.0173 67.2969 45.6082 67.2969 47.5634C67.2969 49.5187 68.8877 51.1092 70.843 51.1092ZM70.843 46.1173C71.6401 46.1173 72.2888 46.766 72.2888 47.5634C72.2888 48.3606 71.6401 49.0092 70.843 49.0092C70.0455 49.0092 69.3969 48.3606 69.3969 47.5634C69.3969 46.766 70.0455 46.1173 70.843 46.1173Z" fill="#221C46"/>
<path d="M50.6738 48.7984H52.7738C52.7738 47.7668 52.9666 47.3045 53.2106 46.7192C53.491 46.0462 53.8089 45.2836 53.8089 43.832C53.8089 42.3803 53.491 41.6177 53.2106 40.9448C52.9666 40.3594 52.7738 39.8971 52.7738 38.8656C52.7738 37.8343 52.9666 37.372 53.2106 36.7866C53.491 36.114 53.8089 35.3514 53.8089 33.9H51.7089C51.7089 34.9313 51.5161 35.3933 51.2724 35.9786C50.9917 36.6513 50.6738 37.4139 50.6738 38.8656C50.6738 40.3172 50.9917 41.0798 51.2721 41.7528C51.5161 42.3381 51.7089 42.8004 51.7089 43.832C51.7089 44.8635 51.5161 45.3258 51.2721 45.9112C50.9917 46.5841 50.6738 47.3467 50.6738 48.7984Z" fill="#221C46"/>
<path d="M45.9043 48.7984H48.0043C48.0043 47.7668 48.1971 47.3045 48.4411 46.7192C48.7215 46.0462 49.0394 45.2836 49.0394 43.832C49.0394 42.3803 48.7215 41.6177 48.4411 40.9448C48.1971 40.3594 48.0043 39.8971 48.0043 38.8656C48.0043 37.8343 48.1971 37.372 48.4411 36.7866C48.7215 36.114 49.0394 35.3514 49.0394 33.9H46.9394C46.9394 34.9313 46.7466 35.3933 46.5028 35.9786C46.2222 36.6513 45.9043 37.4139 45.9043 38.8656C45.9043 40.3172 46.2222 41.0798 46.5025 41.7528C46.7466 42.3381 46.9394 42.8004 46.9394 43.832C46.9394 44.8635 46.7466 45.3258 46.5025 45.9112C46.2222 46.5841 45.9043 47.3467 45.9043 48.7984Z" fill="#221C46"/>
<path d="M41.3672 48.7984H43.4672C43.4672 47.7668 43.66 47.3045 43.904 46.7192C44.1844 46.0462 44.5022 45.2836 44.5022 43.832C44.5022 42.3803 44.1844 41.6177 43.904 40.9448C43.66 40.3594 43.4672 39.8971 43.4672 38.8656C43.4672 37.8343 43.66 37.372 43.904 36.7866C44.1844 36.114 44.5022 35.3514 44.5022 33.9H42.4022C42.4022 34.9313 42.2095 35.3933 41.9657 35.9786C41.6851 36.6513 41.3672 37.4139 41.3672 38.8656C41.3672 40.3172 41.6851 41.0798 41.9654 41.7528C42.2095 42.3381 42.4022 42.8004 42.4022 43.832C42.4022 44.8635 42.2095 45.3258 41.9654 45.9112C41.6851 46.5841 41.3672 47.3467 41.3672 48.7984Z" fill="#221C46"/>
<path d="M87.055 84.0184V80.3185H75.8331C79.2603 78.6894 81.6359 75.1944 81.6359 71.1542C81.6359 65.562 77.0864 61.0125 71.4945 61.0125H70.4445V70.1042H61.3531V71.1542C61.3531 75.1944 63.7287 78.6894 67.156 80.3185H57.3777L58.8729 64.1689H61.0959V57.6656H58.7026L57.1379 52.0717H38.036L36.4713 57.6656H34.078V64.1689H36.3351L38.4794 84.0184H26.0762V86.1184H93.923V84.0184H87.055ZM63.5214 72.2042H72.5445V63.1807C76.4841 63.6969 79.5359 67.0758 79.5359 71.1542C79.5359 75.5883 75.9286 79.1956 71.4945 79.1956C67.4164 79.1956 64.0376 76.1437 63.5214 72.2042ZM84.955 84.0184H54.3143V82.4185H84.955V84.0184ZM36.178 59.7656H58.9959V62.0689H36.178V59.7656ZM39.6292 54.1717H55.5447L56.5221 57.6656H38.6519L39.6292 54.1717ZM56.7641 64.1689L56.5208 66.7968H38.7313L38.4474 64.1689H56.7641ZM38.9581 68.8968H56.3262L55.2685 80.3185H52.2143V84.0184H40.5915L38.9581 68.8968Z" fill="#221C46"/>
<path d="M75.3243 76.1098C76.062 76.1098 76.6623 75.5095 76.6623 74.7718C76.6623 74.0341 76.062 73.4338 75.3243 73.4338C74.5866 73.4338 73.9863 74.0341 73.9863 74.7718C73.9863 75.5095 74.5866 76.1098 75.3243 76.1098Z" fill="#221C46"/>
<path d="M75.3243 72.2935C76.062 72.2935 76.6623 71.6932 76.6623 70.9555C76.6623 70.2178 76.062 69.6176 75.3243 69.6176C74.5866 69.6176 73.9863 70.2178 73.9863 70.9555C73.9863 71.6932 74.5866 72.2935 75.3243 72.2935Z" fill="#221C46"/>
<path d="M67.4356 73.4338C66.6979 73.4338 66.0977 74.0341 66.0977 74.7718C66.0977 75.5095 66.6979 76.1098 67.4356 76.1098C68.1733 76.1098 68.7736 75.5095 68.7736 74.7718C68.7736 74.0341 68.1733 73.4338 67.4356 73.4338Z" fill="#221C46"/>
<path d="M72.7189 74.7718C72.7189 74.0341 72.1187 73.4338 71.381 73.4338C70.6433 73.4338 70.043 74.0341 70.043 74.7718C70.043 75.5095 70.6433 76.1098 71.381 76.1098C72.1187 76.1098 72.7189 75.5095 72.7189 74.7718Z" fill="#221C46"/>
<path d="M75.3243 68.4774C76.062 68.4774 76.6623 67.8771 76.6623 67.1394C76.6623 66.4017 76.062 65.8014 75.3243 65.8014C74.5866 65.8014 73.9863 66.4017 73.9863 67.1394C73.9863 67.8771 74.5866 68.4774 75.3243 68.4774Z" fill="#221C46"/>
</svg>
