<svg width="204" height="204" viewBox="0 0 204 204" fill="none" xmlns="http://www.w3.org/2000/svg">
<path d="M66.8229 87.4035C70.9779 87.4035 74.3584 84.0233 74.3584 79.8684C74.3584 75.7134 70.9779 72.3333 66.8229 72.3333C62.668 72.3333 59.2875 75.7134 59.2875 79.8684C59.2875 84.0233 62.668 87.4035 66.8229 87.4035ZM66.8229 76.7958C68.5175 76.7958 69.8959 78.1741 69.8959 79.8684C69.8959 81.5627 68.5175 82.941 66.8229 82.941C65.1283 82.941 63.75 81.5627 63.75 79.8684C63.75 78.1741 65.1283 76.7958 66.8229 76.7958Z" fill="#221C46"/>
<path d="M106.756 84.3371C106.756 88.8845 110.456 92.5841 115.004 92.5841C119.551 92.5841 123.251 88.8845 123.251 84.3371C123.251 79.7896 119.551 76.0897 115.004 76.0897C110.456 76.0897 106.756 79.7896 106.756 84.3371ZM118.789 84.3371C118.789 86.4239 117.091 88.1216 115.004 88.1216C112.917 88.1216 111.219 86.4239 111.219 84.3371C111.219 82.2502 112.917 80.5522 115.004 80.5522C117.091 80.5522 118.789 82.2502 118.789 84.3371Z" fill="#221C46"/>
<path d="M124.325 125.454C120.556 125.454 117.489 128.521 117.489 132.29C117.489 136.059 120.556 139.126 124.325 139.126C128.094 139.126 131.161 136.059 131.161 132.29C131.161 128.521 128.094 125.454 124.325 125.454ZM124.325 134.663C123.016 134.663 121.952 133.599 121.952 132.29C121.952 130.981 123.016 129.917 124.325 129.917C125.634 129.917 126.698 130.981 126.698 132.29C126.698 133.599 125.634 134.663 124.325 134.663Z" fill="#221C46"/>
<path d="M105.683 120.483C109.452 120.483 112.519 117.417 112.519 113.647C112.519 109.878 109.452 106.812 105.683 106.812C101.914 106.812 98.8474 109.878 98.8474 113.647C98.8474 117.417 101.914 120.483 105.683 120.483ZM105.683 111.274C106.992 111.274 108.056 112.339 108.056 113.647C108.056 114.956 106.992 116.021 105.683 116.021C104.374 116.021 103.31 114.956 103.31 113.647C103.31 112.339 104.374 111.274 105.683 111.274Z" fill="#221C46"/>
<path d="M128.006 106.812L98.8474 135.971L102.003 139.126L131.162 109.968L128.006 106.812Z" fill="#221C46"/>
<path d="M117.236 35.7H112.773V59.6837L84.8597 87.5974V168.742H145.149V87.5974L117.236 59.6837V35.7ZM89.3222 164.279V157.273H140.686V164.279H89.3222ZM140.686 152.81H89.3222V89.4458L115.005 63.7633L140.686 89.4458V152.81Z" fill="#221C46"/>
</svg>
