<svg width="204" height="204" viewBox="0 0 204 204" fill="none" xmlns="http://www.w3.org/2000/svg">
<path d="M130.688 171.487H73.3125V175.95H130.688V171.487Z" fill="#221C46"/>
<path d="M187.106 43.9875H131.644V59.3895C122.923 53.5436 112.551 50.3625 102 50.3625C91.4494 50.3625 81.1155 53.4926 72.3562 59.3895V28.05H16.8937V73.95H51.9881L55.5645 77.5264C51.1147 85.4951 48.7687 94.4711 48.7687 103.6C48.7687 132.951 72.6495 156.831 102 156.831C131.35 156.831 155.231 132.951 155.231 103.6C155.231 98.9464 154.626 94.35 153.44 89.8939H187.106V43.9875ZM182.644 48.45V54.825H136.106V48.45H182.644ZM159.375 71.0812C157.093 71.0812 155.231 69.2197 155.231 66.9375C155.231 64.6552 157.093 62.7937 159.375 62.7937C161.657 62.7937 163.519 64.6552 163.519 66.9375C163.519 69.2197 161.657 71.0812 159.375 71.0812ZM150.769 66.9375C150.769 70.2716 152.675 73.1595 155.448 74.5875H136.106V59.2875H155.448C152.675 60.7155 150.769 63.6034 150.769 66.9375ZM167.981 66.9375C167.981 63.6034 166.075 60.7155 163.302 59.2875H182.644V74.5875H163.302C166.075 73.1595 167.981 70.2716 167.981 66.9375ZM136.106 89.8875V105.793L149.481 92.4184C150.335 96.0649 150.769 99.807 150.769 103.594C150.769 106.609 150.482 109.561 149.953 112.429L147.052 108.298L138.286 114.686L135.883 106.392L130.636 103.983L126.263 106.373L117.083 98.4045L110.919 103.205L120.481 120.806L109.497 143.794H106.622L102.083 121.501L92.6287 121.858L87.21 116.439L90.1935 103.823L97.7925 103.587L99.7879 92.8646L101.968 92.8519L105.608 89.2819L106.003 86.0115L105.468 84.3094L119.295 77.5837L114.763 72.063L127.589 62.067C128.979 62.9276 130.33 63.8711 131.644 64.8847V89.8811H136.106V89.8875ZM46.8562 49.0875H67.8937V52.9125H46.8562V49.0875ZM67.8937 44.625H46.8562V40.8H67.8937V44.625ZM46.8562 57.375H67.8937V61.2H21.3562V57.375H46.8562ZM67.8937 36.3375H46.8562V32.5125H67.8937V36.3375ZM42.3937 32.5125V52.9125H21.3562V32.5125H42.3937ZM21.3562 69.4875V65.6625H67.8937V69.4875H63.4312V79.0819L53.8369 69.4875H21.3562ZM53.2312 103.594C53.2312 95.6569 55.1692 87.8411 58.854 80.8159L67.8937 89.8556V73.95H72.3562V72.6877L79.9616 76.9207L83.3977 77.2522L82.9897 78.693L77.8451 80.58L72.1267 90.6844V95.1851L69.1369 93.6105L68.748 93.5595C68.6715 93.5467 61.0534 92.6224 59.4405 101.127C58.1846 107.744 62.7045 110.702 62.9021 110.823L70.992 115.572L70.5202 125.434L70.8454 139.045H68.5504C59.1281 130.146 53.2312 117.555 53.2312 103.6V103.594ZM102 152.362C91.5896 152.362 81.9442 149.073 74.0137 143.501H75.4099L74.9827 125.485L75.5756 113.086L65.2736 107.049C65.0887 106.915 63.1635 105.423 63.8201 101.955C64.5022 98.3599 66.7526 97.9455 67.8172 97.9646L76.5829 102.58V91.8637L80.9115 84.2137L86.6554 82.11L89.148 73.338L81.3195 72.573L72.3562 67.5877V64.7955C72.9619 64.362 73.6695 63.8711 74.6576 63.2209C82.7411 57.732 92.1952 54.8314 102 54.8314C109.529 54.8314 116.758 56.508 123.337 59.7337L108.407 71.3745L112.251 76.0537L105.634 79.254L100.068 82.0399L101.464 86.4577L101.375 87.2164L100.145 88.4212L96.084 88.4404L94.0695 99.2587L86.6426 99.4882L82.2949 117.855L90.8565 126.41L98.4746 126.123L102.982 148.276H112.321L125.498 120.691L116.656 104.416L116.943 104.193L125.689 111.786L130.815 108.987L132.173 109.612L135.781 122.056L146.019 114.597L148.55 118.205C142.335 137.987 123.822 152.382 102.013 152.382L102 152.362ZM150.163 85.425L140.569 95.0194V85.425H136.106V79.05H182.644V85.425H150.163Z" fill="#221C46"/>
</svg>
