<svg width="317" height="155" viewBox="0 0 317 155" fill="none" xmlns="http://www.w3.org/2000/svg">
<path d="M131.348 109.681H149.686V106.509H131.348V109.681Z" fill="#221C46"/>
<path fill-rule="evenodd" clip-rule="evenodd" d="M195.18 71.668C195.18 79.5519 193.049 86.9457 189.334 93.304L196.103 96.9889V112.803H205.841V106.142C201.647 105.392 198.46 101.723 198.46 97.3149C198.46 95.3194 199.117 93.4728 200.218 91.9819L207.428 80.5093L214.637 91.9819C215.738 93.4727 216.395 95.3194 216.395 97.3149C216.395 101.723 213.207 105.393 209.013 106.142V112.803H213.3V127.122H109.032V112.803H123.376V103.787C114.519 95.9061 108.933 84.4314 108.933 71.668C108.933 47.9193 128.261 28.6438 152.057 28.6438C175.852 28.6438 195.18 47.9193 195.18 71.668ZM140.633 80.9333C133.377 74.2 123.656 70.0822 112.977 70.0822H112.136C112.521 60.2797 116.465 51.3802 122.713 44.6355L149.889 71.7063L140.633 80.9333ZM152.135 69.4669L124.959 42.3955C131.72 36.1635 140.642 32.2299 150.471 31.8465V32.586C150.471 43.2834 154.601 53.0162 161.354 60.2771L152.135 69.4669ZM163.601 58.0362C157.42 51.3503 153.643 42.4092 153.643 32.586V31.8466C163.506 32.2317 172.456 36.1913 179.225 42.4608L163.601 58.0362ZM165.851 60.2727L181.465 44.7061C187.677 51.4433 191.594 60.3165 191.978 70.0866H191.144C181.397 70.0866 172.519 66.3683 165.851 60.2727ZM163.602 62.5144C170.847 69.1849 180.52 73.2585 191.144 73.2585H191.977C191.712 79.9989 189.765 86.3088 186.547 91.7866L160.071 77.3723L154.382 71.7055L163.602 62.5144ZM192.931 101.752V112.658H126.548V102.621H152.843L165.105 109.88H184.806L192.931 101.752ZM162.539 89.5289L152.618 99.4494H126.548V93.9554L132.709 87.7903H150.985L153.937 84.8377L162.539 89.5289ZM129.834 86.1797L126.548 89.4683V82.7462L129.834 86.1797ZM177.508 94.0806L156.275 82.4999L158.595 80.1801L179.842 91.7474L177.508 94.0806ZM152.136 73.9449L156.248 78.0412L149.671 84.6184H144.139C143.728 84.1288 143.306 83.649 142.873 83.1794L152.136 73.9449ZM136.937 84.6184L138.385 83.1744C131.703 77.0136 122.778 73.254 112.977 73.254H112.136C112.535 83.397 116.742 92.5737 123.376 99.3994V74.8453L132.731 84.6184H136.937ZM169.366 106.708L182.746 93.3287L191.89 98.3067L183.492 106.708H169.366ZM155.843 100.711L165.287 106.302L175.171 96.4184L165.441 91.112L155.843 100.711ZM207.428 86.4708L212.019 93.7784L212.059 93.8311C212.79 94.8048 213.223 96.0093 213.223 97.3149C213.223 100.512 210.625 103.11 207.427 103.11C204.23 103.11 201.632 100.513 201.632 97.3149C201.632 96.0093 202.065 94.8048 202.796 93.8311L202.836 93.7784L207.428 86.4708ZM112.204 123.95V115.975H210.128V123.95H112.204Z" fill="#221C46"/>
<path fill-rule="evenodd" clip-rule="evenodd" d="M207.43 34.915C203.35 34.915 200.039 38.226 200.039 42.3054C200.039 46.3849 203.35 49.6959 207.43 49.6959C211.509 49.6959 214.82 46.3849 214.82 42.3054C214.82 38.226 211.509 34.915 207.43 34.915ZM203.211 42.3054C203.211 39.9777 205.102 38.0869 207.43 38.0869C209.757 38.0869 211.648 39.9777 211.648 42.3054C211.648 44.6332 209.757 46.524 207.43 46.524C205.102 46.524 203.211 44.6331 203.211 42.3054Z" fill="#221C46"/>
</svg>
