<svg width="314" height="153" viewBox="0 0 314 153" fill="none" xmlns="http://www.w3.org/2000/svg">
<g clip-path="url(#clip0_3661_2978)">
<path fill-rule="evenodd" clip-rule="evenodd" d="M173.299 105.655C189.664 105.655 202.945 118.512 202.945 134.356V136.073H115.782V134.356C115.782 125.96 122.819 119.147 131.491 119.147C137.118 119.147 142.057 122.015 144.832 126.323C146.736 119.993 150.833 114.567 156.27 110.864L158.311 113.673C152.041 117.943 147.804 124.802 147.26 132.639H199.338C198.426 119.492 187.109 109.089 173.299 109.089V105.655ZM143.525 132.639H119.458C120.317 126.952 125.381 122.581 131.491 122.581C137.602 122.581 142.666 126.952 143.525 132.639Z" fill="#221C46"/>
<path fill-rule="evenodd" clip-rule="evenodd" d="M185.715 11.4546H196.864V27.1546H185.715V11.4546ZM189.263 14.889V23.7202H193.317V14.889H189.263Z" fill="#221C46"/>
<path fill-rule="evenodd" clip-rule="evenodd" d="M155.039 94.5655L153.012 100.566L149.641 99.4982L151.668 93.4979L155.039 94.5655Z" fill="#221C46"/>
<path fill-rule="evenodd" clip-rule="evenodd" d="M164.824 95.1481L162.668 88.7026L166.043 87.6447L170.191 100.049L147.818 94.4127L145.577 100.801L151.179 98.1955L166.484 102.666L165.46 105.954L151.474 101.869L139.502 107.437L145.52 90.2851L164.824 95.1481Z" fill="#221C46"/>
<path fill-rule="evenodd" clip-rule="evenodd" d="M163.418 36.1968C160.199 36.1968 157.59 38.7229 157.59 41.839C157.59 44.9551 160.199 47.4812 163.418 47.4812C166.636 47.4812 169.245 44.9551 169.245 41.839C169.245 38.7229 166.636 36.1968 163.418 36.1968ZM154.042 41.839C154.042 36.8261 158.24 32.7624 163.418 32.7624C168.595 32.7624 172.793 36.8261 172.793 41.839C172.793 46.8518 168.595 50.9156 163.418 50.9156C158.24 50.9156 154.042 46.8518 154.042 41.839Z" fill="#221C46"/>
<path fill-rule="evenodd" clip-rule="evenodd" d="M185.915 31.1189H193.515L189.162 50.1362L171.025 59.5954L169.342 56.5718L186.05 47.8583L189.096 34.5533H188.264L182.941 46.7122L171.03 52.9695L169.338 49.9509L180.159 44.2663L185.915 31.1189Z" fill="#221C46"/>
<path fill-rule="evenodd" clip-rule="evenodd" d="M156.877 79.2397L169.592 74.8829L170.776 78.1205L158.061 82.4772L156.877 79.2397Z" fill="#221C46"/>
<path fill-rule="evenodd" clip-rule="evenodd" d="M162.143 51.2479C162.143 51.2467 162.143 51.2456 163.903 51.4602C165.663 51.6748 165.663 51.6737 165.663 51.6727L165.663 51.6709L165.664 51.6678L165.664 51.6645C165.664 51.6634 165.664 51.6643 165.664 51.6678C165.663 51.6749 165.661 51.6913 165.659 51.7157C165.655 51.7646 165.649 51.8466 165.646 51.9568C165.639 52.1779 165.641 52.5079 165.68 52.9093C165.761 53.7194 165.99 54.7719 166.566 55.8063C167.635 57.7254 170.172 60.0657 176.749 60.0657C180.476 60.0657 183.65 61.1242 185.912 63.1168C188.188 65.1219 189.383 67.9359 189.383 71.1195H185.836C185.836 68.7983 184.986 66.944 183.525 65.6571C182.049 64.3575 179.793 63.5001 176.749 63.5001C169.137 63.5001 165.251 60.6791 163.444 57.4368C162.583 55.8905 162.261 54.3623 162.149 53.2369C162.093 52.6706 162.089 52.1941 162.1 51.8507C162.106 51.6786 162.115 51.5388 162.124 51.4365C162.128 51.3853 162.132 51.3433 162.135 51.3113C162.137 51.2953 162.139 51.2818 162.14 51.2708L162.142 51.2563L162.143 51.2504L162.143 51.2479Z" fill="#221C46"/>
<path fill-rule="evenodd" clip-rule="evenodd" d="M141.974 47.1369L155.454 49.743H171.957V75.7877L190.12 93.2811L169.397 113.237V124.911L154.717 112.386L173.531 94.9077L155.694 85.3698V73.4493L154.289 59.3668L144.342 56.2191L135.682 63.2339L128.804 59.4802L141.974 47.1369ZM143.104 50.8576L134.686 58.7476L135.287 59.0759L143.574 52.363L157.597 56.8004L159.242 73.2838V83.3433L179.463 94.1565L159.956 112.278L165.85 117.307V111.809L185.09 93.281L168.409 77.2156V53.1773H155.104L143.104 50.8576Z" fill="#221C46"/>
<path fill-rule="evenodd" clip-rule="evenodd" d="M112.488 29.6077C110.669 29.6077 109.194 31.0355 109.194 32.7968C109.194 34.558 110.669 35.9858 112.488 35.9858C114.307 35.9858 115.782 34.558 115.782 32.7968C115.782 31.0355 114.307 29.6077 112.488 29.6077ZM105.646 32.7968C105.646 29.1388 108.709 26.1733 112.488 26.1733C116.266 26.1733 119.329 29.1388 119.329 32.7968C119.329 36.4548 116.266 39.4202 112.488 39.4202C108.709 39.4202 105.646 36.4548 105.646 32.7968Z" fill="#221C46"/>
</g>
<defs>
<clipPath id="clip0_3661_2978">
<path d="M0 16C0 7.16344 7.16344 0 16 0H298C306.837 0 314 7.16344 314 16V153H0V16Z" fill="white"/>
</clipPath>
</defs>
</svg>
