<svg width="304" height="153" viewBox="0 0 304 153" fill="none" xmlns="http://www.w3.org/2000/svg">
<g filter="url(#filter0_d_3654_1728)">
<g clip-path="url(#clip0_3654_1728)">
<mask id="mask0_3654_1728" style="mask-type:luminance" maskUnits="userSpaceOnUse" x="29" y="62" width="91" height="28">
<path d="M119.51 62.9995H29.001V89.0299H119.51V62.9995Z" fill="white"/>
</mask>
<g mask="url(#mask0_3654_1728)">
<path d="M111.716 71.9134C113.777 71.9134 114.61 73.3696 114.61 74.3712H108.819C108.819 73.3575 109.66 71.9134 111.714 71.9134M114.143 78.8685C113.757 79.6288 112.876 80.1437 111.736 80.1437C109.584 80.1437 108.733 78.5849 108.709 77.1991H119.401C119.431 77.004 119.509 76.4489 119.509 76.0165C119.509 71.1149 116.187 68.3494 111.698 68.3494C106.965 68.3494 103.654 71.1169 103.654 76.0165C103.654 80.916 106.965 83.6836 111.726 83.6836C116.486 83.6836 118.606 81.0669 119.194 78.8705H114.143V78.8685Z" fill="#221C46"/>
<path d="M37.2232 79.2788C35.3024 79.2788 33.9408 77.8809 33.9408 76.0265C33.9408 74.1721 35.222 72.7742 37.2232 72.7742C39.2245 72.7742 40.5057 74.2666 40.5057 76.0265C40.5057 77.7864 39.2084 79.2788 37.2232 79.2788ZM38.6593 68.4941C36.5535 68.4941 34.7453 69.4374 33.814 70.5457L33.81 68.7838H29.001V89.0296H33.9589V81.7809C35.1214 83.052 36.7405 83.5347 38.3797 83.5347C43.2914 83.5347 45.5702 79.7675 45.5702 76.0144C45.5702 71.3844 42.6437 68.4941 38.6593 68.4941Z" fill="#221C46"/>
<path d="M52.1811 62.9995H47.2031V83.2454H52.1811V62.9995Z" fill="#221C46"/>
<path d="M64.1932 68.7839V76.3042C64.1932 77.4446 64.0383 77.9978 63.5777 78.5509C63.1332 79.0839 62.4353 79.3373 61.663 79.3373C60.8906 79.3373 60.1927 79.0859 59.7462 78.5509C59.2856 77.9978 59.1327 77.4446 59.1327 76.3042V68.7839H54.1729V76.7507C54.1729 78.9913 54.5108 80.4516 55.5707 81.6945C56.691 83.0079 58.4026 83.5309 60.0781 83.5309C62.0411 83.5309 63.4008 82.7827 64.34 81.6805L64.3441 83.2453H69.1531V68.7839H64.1932Z" fill="#221C46"/>
<path d="M85.3224 68.7839H81.9333L78.1983 72.6436L74.4633 68.7839H71.0742V72.2233L74.8756 76.0146L71.0742 79.8059V83.2453H74.4633L78.1983 79.3876L81.9333 83.2453H85.3224V79.8059L81.521 76.0146L85.3224 72.2233V68.7839Z" fill="#221C46"/>
<path d="M94.4811 71.9134C96.5427 71.9134 97.3754 73.3696 97.3754 74.3712H91.5849C91.5849 73.3575 92.4256 71.9134 94.4791 71.9134M96.9108 78.8685C96.5246 79.6288 95.6437 80.1437 94.5033 80.1437C92.3512 80.1437 91.5004 78.5849 91.4783 77.1991H102.17C102.201 77.004 102.279 76.4489 102.279 76.0165C102.279 71.1149 98.9563 68.3494 94.4671 68.3494C89.7344 68.3494 86.4238 71.1169 86.4238 76.0165C86.4238 80.916 89.7344 83.6836 94.4952 83.6836C99.256 83.6836 101.376 81.0669 101.963 78.8705H96.9128L96.9108 78.8685Z" fill="#221C46"/>
</g>
<path d="M130.772 63.0161V89.0324" stroke="#221C46" stroke-width="0.905091"/>
<path d="M148.764 84.6777L148.31 83.8732C146.465 80.5907 142.622 73.708 142.563 73.6034C142.125 72.827 142.044 71.9461 142.266 71.1496C142.489 70.3551 143.014 69.6431 143.792 69.2047L154.651 63.0842L156.584 66.5155L153.776 68.0984C152.224 68.9734 151.674 70.9424 152.549 72.4972C152.988 73.2735 153.698 73.7985 154.494 74.0217C155.291 74.243 156.17 74.1625 156.948 73.7241L159.756 72.1412L161.771 75.7153L150.91 81.8377C149.79 82.4693 149.046 83.5172 148.764 84.6777ZM157.499 86.9565L154.329 81.3309L151.518 82.9158C149.965 83.7907 149.414 85.7598 150.291 87.3145C151.166 88.8672 153.135 89.4183 154.689 88.5414L157.501 86.9565H157.499ZM173.916 71.4493C172.437 71.3467 171.707 71.93 171.709 73.2212V73.3258H173.918V75.9084H171.709L171.713 83.7424H169.026L169.022 75.9124H167.522V73.3299H169.022V73.2253C169.022 70.2888 170.665 68.6837 173.914 68.8688V71.4513L173.916 71.4493ZM178.001 75.1139C178.499 73.7804 179.75 73.1126 181.166 73.1126V76.1115C180.356 76.0089 179.606 76.1739 178.96 76.6123C178.314 77.0508 178.003 77.7588 178.003 78.7584V83.7364H175.319L175.313 73.3218H178.001V75.1119V75.1139ZM190.095 73.3138H192.782L192.788 83.7283H190.101V82.5014C189.288 83.5232 188.164 84.024 186.705 84.024C185.31 84.024 184.123 83.5051 183.121 82.4431C182.142 81.3811 181.641 80.0698 181.641 78.5271C181.641 76.9844 182.14 75.6931 183.117 74.6312C184.117 73.5672 185.304 73.0261 186.699 73.0241C188.158 73.0241 189.282 73.5229 190.097 74.5427V73.3138H190.095ZM187.204 81.4616C188.037 81.4616 188.725 81.1901 189.266 80.647C189.827 80.0838 190.099 79.3759 190.099 78.5231C190.099 77.6683 189.827 76.9603 189.264 76.4192C188.721 75.8581 188.035 75.5865 187.2 75.5886C186.368 75.5886 185.68 75.8601 185.139 76.4233C184.598 76.9663 184.326 77.6743 184.328 78.5271C184.328 79.3819 184.6 80.0899 185.141 80.651C185.682 81.1921 186.37 81.4636 187.202 81.4616H187.204ZM203.534 74.1605C204.284 74.9309 204.66 75.9727 204.66 77.3263L204.664 83.7203H201.977L201.973 77.6602C201.973 76.2644 201.161 75.5162 199.91 75.5162C198.514 75.5162 197.619 76.371 197.621 78.1007L197.625 83.7243H194.938L194.932 73.3118H197.619V74.4763C198.264 73.4968 199.306 73.0161 200.722 73.0161C201.869 73.0161 202.806 73.3902 203.534 74.1605ZM207.691 82.427C206.65 81.365 206.127 80.0738 206.127 78.511C206.127 76.9482 206.646 75.6569 207.687 74.593C208.749 73.531 210.061 73.008 211.624 73.008C213.645 73.008 215.437 74.0479 216.292 75.6931L213.981 77.0488C213.565 76.196 212.667 75.6549 211.606 75.6549C210 75.6549 208.814 76.8436 208.816 78.511C208.816 79.3236 209.087 80.0094 209.608 80.5525C210.129 81.0714 210.795 81.3429 211.61 81.3429C212.692 81.3429 213.589 80.822 214.003 79.9672L216.336 81.2987C215.421 82.9459 213.651 84.0079 211.63 84.0099C210.067 84.0099 208.755 83.491 207.691 82.429V82.427ZM219.81 79.6072C220.166 80.9185 221.143 81.5642 222.748 81.5642C223.77 81.5642 224.56 81.2102 225.081 80.5203L227.249 81.7693C226.23 83.2496 224.709 83.9999 222.71 84.0019C220.98 84.0019 219.607 83.483 218.565 82.4411C217.523 81.4013 217.002 80.0879 217 78.505C217 76.9422 217.519 75.6308 218.539 74.5869C219.558 73.525 220.892 73.002 222.495 73.002C224.015 73.002 225.286 73.5209 226.266 74.5829C227.266 75.6449 227.768 76.9361 227.768 78.4989C227.768 78.8529 227.726 79.2069 227.664 79.6031L219.81 79.6072ZM225.077 77.5214C224.766 76.1055 223.722 75.4196 222.493 75.4196C221.055 75.4196 220.077 76.192 219.765 77.5255L225.077 77.5214ZM240.983 74.595C241.982 75.6569 242.485 76.9482 242.485 78.4889C242.485 80.0295 241.986 81.3429 240.987 82.4069C240.009 83.4689 238.8 83.9918 237.405 83.9918C235.946 83.9918 234.822 83.493 234.03 82.4733V83.7022H231.343L231.334 69.1202H234.022L234.026 74.5145C234.816 73.4928 235.94 72.992 237.399 72.992C238.794 72.992 240.003 73.531 240.983 74.593V74.595ZM236.904 81.4294C237.736 81.4294 238.424 81.1579 238.965 80.6168C239.527 80.0537 239.798 79.3457 239.798 78.4929C239.798 77.6381 239.527 76.9301 238.963 76.3891C238.422 75.8279 237.734 75.5564 236.902 75.5564C236.069 75.5564 235.381 75.8279 234.84 76.3911C234.299 76.9341 234.028 77.6421 234.03 78.4949C234.03 79.3497 234.301 80.0577 234.842 80.6189C235.385 81.1599 236.071 81.4294 236.906 81.4294H236.904ZM243.666 70.3853C243.666 69.4903 244.414 68.7179 245.311 68.7179C246.228 68.7179 246.978 69.4882 246.978 70.3833C246.978 71.2783 246.23 72.0305 245.313 72.0305C244.418 72.0305 243.666 71.2823 243.666 70.3853ZM243.988 83.6962L243.982 73.2816H246.669L246.675 83.6962H243.988ZM248.827 83.6921L248.817 68.4866H251.504L251.514 83.6921H248.827ZM253.658 83.6901L253.648 68.4846H256.335L256.345 83.6901H253.658ZM260.547 79.581C260.903 80.8924 261.88 81.538 263.485 81.538C264.507 81.538 265.298 81.184 265.818 80.4942L267.987 81.7432C266.967 83.2235 265.446 83.9737 263.447 83.9757C261.717 83.9757 260.344 83.4568 259.302 82.415C258.26 81.3731 257.739 80.0617 257.737 78.4788C257.737 76.916 258.256 75.6026 259.276 74.5608C260.295 73.4988 261.629 72.9759 263.232 72.9759C264.752 72.9759 266.024 73.4948 267.003 74.5568C268.003 75.6187 268.506 76.91 268.506 78.4728C268.506 78.8268 268.463 79.1808 268.401 79.577L260.547 79.581ZM265.816 77.4953C265.505 76.0793 264.461 75.3935 263.232 75.3935C261.794 75.3935 260.816 76.1658 260.505 77.4993L265.816 77.4953ZM275.77 75.844H273.417L273.419 80.1784C273.419 81.3027 274.232 81.3248 275.772 81.2403V83.6781C272.088 84.0964 270.732 83.0344 270.73 80.1804V75.848H268.914V73.2655H270.724V71.1617L273.409 70.3471V73.2635H275.764V75.846L275.77 75.844Z" fill="#221C46"/>
</g>
</g>
<defs>
<filter id="filter0_d_3654_1728" x="-4" y="0" width="312" height="161" filterUnits="userSpaceOnUse" color-interpolation-filters="sRGB">
<feFlood flood-opacity="0" result="BackgroundImageFix"/>
<feColorMatrix in="SourceAlpha" type="matrix" values="0 0 0 0 0 0 0 0 0 0 0 0 0 0 0 0 0 0 127 0" result="hardAlpha"/>
<feOffset dy="4"/>
<feGaussianBlur stdDeviation="2"/>
<feComposite in2="hardAlpha" operator="out"/>
<feColorMatrix type="matrix" values="0 0 0 0 0 0 0 0 0 0 0 0 0 0 0 0 0 0 0.25 0"/>
<feBlend mode="normal" in2="BackgroundImageFix" result="effect1_dropShadow_3654_1728"/>
<feBlend mode="normal" in="SourceGraphic" in2="effect1_dropShadow_3654_1728" result="shape"/>
</filter>
<clipPath id="clip0_3654_1728">
<rect width="246.776" height="26.0324" fill="white" transform="translate(29 63)"/>
</clipPath>
</defs>
</svg>
