<svg width="304" height="157" viewBox="0 0 304 157" fill="none" xmlns="http://www.w3.org/2000/svg">
<path fill-rule="evenodd" clip-rule="evenodd" d="M141.806 72.9412H176.111V102.143H141.806V72.9412ZM145.241 76.3756V98.7088H172.676V76.3756H145.241Z" fill="#221C46"/>
<path fill-rule="evenodd" clip-rule="evenodd" d="M140.369 67.3039H177.544V76.3756H140.369V67.3039ZM143.803 70.7383V72.9412H174.109V70.7383H143.803Z" fill="#221C46"/>
<path fill-rule="evenodd" clip-rule="evenodd" d="M160.676 69.0269L160.573 100.432L157.138 100.421L157.241 69.0156L160.676 69.0269Z" fill="#221C46"/>
<path fill-rule="evenodd" clip-rule="evenodd" d="M172.171 62.5728C170.649 58.3755 165.084 57.8016 162.215 61.4847ZM162.215 61.4847C160.511 63.6722 157.93 67.0397 157.274 68.1463L160.23 69.896C160.742 69.0303 163.135 65.8921 164.925 63.5953C166.374 61.7345 168.472 62.4459 168.942 63.7434C169.212 64.4878 169.113 65.3618 168.632 66.0407C168.182 66.675 167.275 67.3039 165.601 67.3039V70.7383C168.226 70.7383 170.252 69.6943 171.434 68.0263C172.584 66.4029 172.813 64.3453 172.171 62.5728" fill="#221C46"/>
<path fill-rule="evenodd" clip-rule="evenodd" d="M145.54 62.5718C147.061 58.3834 152.625 57.7991 155.496 61.4849L155.497 61.4865C157.196 63.6741 159.775 67.0389 160.433 68.1409L157.484 69.9014C156.965 69.0312 154.569 65.891 152.785 63.5943C151.338 61.737 149.239 62.4479 148.768 63.7443C148.499 64.485 148.598 65.359 149.079 66.0392C149.529 66.6744 150.437 67.3039 152.11 67.3039V70.7383C149.484 70.7383 147.458 69.6923 146.277 68.0241C145.127 66.4009 144.897 64.3431 145.54 62.5718Z" fill="#221C46"/>
<path fill-rule="evenodd" clip-rule="evenodd" d="M174.394 86.7082H143.523V83.2738H174.394V86.7082Z" fill="#221C46"/>
<path fill-rule="evenodd" clip-rule="evenodd" d="M174.849 45.5104C174.849 50.3887 170.896 54.3417 166.018 54.3417V50.9073C168.999 50.9073 171.414 48.4919 171.414 45.5104H174.849Z" fill="#221C46"/>
<path fill-rule="evenodd" clip-rule="evenodd" d="M166.018 50.9122C170.896 50.9122 174.849 54.8652 174.849 59.7434H171.414C171.414 56.7619 168.999 54.3466 166.018 54.3466V50.9122Z" fill="#221C46"/>
<path fill-rule="evenodd" clip-rule="evenodd" d="M180.246 54.3417C175.367 54.3417 171.414 50.3887 171.414 45.5104H174.849C174.849 48.4919 177.264 50.9073 180.246 50.9073V54.3417Z" fill="#221C46"/>
<path fill-rule="evenodd" clip-rule="evenodd" d="M171.42 59.7385C171.42 54.8602 175.373 50.9073 180.251 50.9073V54.3417C177.27 54.3417 174.855 56.757 174.855 59.7385H171.42Z" fill="#221C46"/>
<path fill-rule="evenodd" clip-rule="evenodd" d="M131.821 30.2568H186.094V132.67H131.821V30.2568ZM135.256 33.6912V129.236H182.66V33.6912H135.256Z" fill="#221C46"/>
<path fill-rule="evenodd" clip-rule="evenodd" d="M131.821 30.2568H186.094V132.67H131.821V30.2568ZM135.256 33.6912V129.236H182.66V33.6912H135.256Z" fill="#221C46"/>
<path fill-rule="evenodd" clip-rule="evenodd" d="M167.362 38.4257H152.201V34.9913H167.362V38.4257Z" fill="#221C46"/>
<path fill-rule="evenodd" clip-rule="evenodd" d="M184.377 121.587H133.539V118.152H184.377V121.587Z" fill="#221C46"/>
<path fill-rule="evenodd" clip-rule="evenodd" d="M184.377 43.0229H133.539V39.5885H184.377V43.0229Z" fill="#221C46"/>
<path fill-rule="evenodd" clip-rule="evenodd" d="M156.418 125.193C156.418 123.788 157.555 122.651 158.959 122.651C160.364 122.651 161.501 123.788 161.501 125.193C161.501 126.597 160.364 127.734 158.959 127.734C157.554 127.734 156.418 126.597 156.418 125.193ZM158.959 126.086C159.451 126.086 159.852 125.685 159.852 125.193C159.852 124.701 159.451 124.3 158.959 124.3C158.467 124.3 158.066 124.701 158.066 125.193C158.066 125.685 158.467 126.086 158.959 126.086Z" fill="#221C46"/>
<path fill-rule="evenodd" clip-rule="evenodd" d="M93.7188 87.4638H101.172V90.8981H96.0949L86.7472 115.709H101.177V119.143H81.7832L93.7188 87.4638Z" fill="#221C46"/>
<path fill-rule="evenodd" clip-rule="evenodd" d="M99.4554 87.4638H119.802V119.143H99.4554V87.4638ZM102.89 90.8981V115.709H116.367V90.8981H102.89Z" fill="#221C46"/>
<path fill-rule="evenodd" clip-rule="evenodd" d="M113.091 96.6826H106.163V93.2482H113.091V96.6826Z" fill="#221C46"/>
<path fill-rule="evenodd" clip-rule="evenodd" d="M113.091 102.585H106.163V99.1504H113.091V102.585Z" fill="#221C46"/>
<path fill-rule="evenodd" clip-rule="evenodd" d="M97.4977 94.1854H101.173V97.6198H99.8929L92.3831 118.015L89.1603 116.828L97.4977 94.1854Z" fill="#221C46"/>
<path fill-rule="evenodd" clip-rule="evenodd" d="M125.512 62.8884C125.512 67.2936 128.992 70.7973 133.186 70.7973V74.2317C127.017 74.2317 122.078 69.1102 122.078 62.8884H125.512Z" fill="#221C46"/>
<path fill-rule="evenodd" clip-rule="evenodd" d="M200.637 62.8834C200.637 69.1052 195.698 74.2267 189.529 74.2267C187.272 74.2267 185.168 73.5388 183.417 72.3582L185.338 69.5109C186.541 70.3223 187.979 70.7923 189.529 70.7923C193.722 70.7923 197.203 67.2886 197.203 62.8834H200.637Z" fill="#221C46"/>
<path fill-rule="evenodd" clip-rule="evenodd" d="M105.025 61.1712H133.187V64.6056H105.025V61.1712Z" fill="#221C46"/>
<path fill-rule="evenodd" clip-rule="evenodd" d="M124.163 41.3155H133.539V44.7499H125.586L106.764 63.5715C107.102 67.6502 110.436 70.7972 114.41 70.7972C118.603 70.7972 122.083 67.2935 122.083 62.8883H125.517C125.517 69.1101 120.579 74.2316 114.41 74.2316C108.241 74.2316 103.302 69.1101 103.302 62.8883V62.177L124.163 41.3155Z" fill="#221C46"/>
<path fill-rule="evenodd" clip-rule="evenodd" d="M184.378 41.345H220.458V119.138H184.378V115.704H217.024V44.7794H184.378V41.345Z" fill="#221C46"/>
<path fill-rule="evenodd" clip-rule="evenodd" d="M116.74 72.5143V89.1808H113.306V72.5143H116.74Z" fill="#221C46"/>
<path fill-rule="evenodd" clip-rule="evenodd" d="M118.08 115.704H133.54V119.139H118.08V115.704Z" fill="#221C46"/>
<path fill-rule="evenodd" clip-rule="evenodd" d="M219.955 44.2764L199.626 64.6055H184.378V61.1711H198.204L217.527 41.8479L219.955 44.2764Z" fill="#221C46"/>
<path fill-rule="evenodd" clip-rule="evenodd" d="M182.66 70.7972H210.548V119.138H182.66V70.7972ZM186.095 74.2316V115.704H207.113V74.2316H186.095Z" fill="#221C46"/>
<path fill-rule="evenodd" clip-rule="evenodd" d="M122.565 77.6021H133.54V81.0365H125.999V97.3204H133.54V100.755H122.565V77.6021Z" fill="#221C46"/>
<path fill-rule="evenodd" clip-rule="evenodd" d="M194.265 87.4638H204.627V105.018H194.265V87.4638ZM197.699 90.8981V101.584H201.192V90.8981H197.699Z" fill="#221C46"/>
<path fill-rule="evenodd" clip-rule="evenodd" d="M194.265 87.4638H204.627V105.018H194.265V87.4638ZM197.699 90.8981V101.584H201.192V90.8981H197.699Z" fill="#221C46"/>
</svg>
