<svg width="304" height="153" viewBox="0 0 304 153" fill="none" xmlns="http://www.w3.org/2000/svg">
<g filter="url(#filter0_d_3677_1858)">
<g clip-path="url(#clip0_3677_1858)">
<rect x="58.916" y="29" width="186" height="95.9817" fill="white"/>
<path d="M91.7485 53.7651C89.6439 53.7651 88.0285 52.8209 88.0285 50.7846V45.6881H89.8259V50.6708C89.8259 51.7971 90.7701 52.1725 91.7485 52.1725C92.7268 52.1725 93.6711 51.7971 93.6711 50.6708V45.6881H95.4685V50.7846C95.4685 52.8209 93.8531 53.7651 91.7485 53.7651ZM97.1148 53.6514V47.9633H98.7529V48.9075H98.8439C98.8439 48.9075 99.2876 47.8495 100.892 47.8495C102.234 47.8495 103.281 48.6004 103.281 50.3295V53.6514H101.642V50.7846C101.642 49.7949 101.062 49.3057 100.198 49.3057C99.2421 49.3057 98.7529 49.9314 98.7529 50.7846V53.6514H97.1148ZM107.602 53.6514V47.9633H109.24V48.9075H109.331C109.331 48.9075 109.775 47.8495 111.379 47.8495C112.721 47.8495 113.768 48.6004 113.768 50.3295V53.6514H112.13V50.7846C112.13 49.7949 111.55 49.3057 110.685 49.3057C109.729 49.3057 109.24 49.9314 109.24 50.7846V53.6514H107.602ZM118.316 53.7651C116.439 53.7651 115.074 52.6958 115.074 50.8073C115.074 48.9189 116.439 47.8495 118.316 47.8495C120.193 47.8495 121.558 48.9189 121.558 50.8073C121.558 52.6958 120.193 53.7651 118.316 53.7651ZM118.316 52.3545C119.317 52.3545 119.874 51.6833 119.874 50.8073C119.874 49.9314 119.317 49.2602 118.316 49.2602C117.315 49.2602 116.757 49.9314 116.757 50.8073C116.757 51.6833 117.315 52.3545 118.316 52.3545ZM125.311 53.7651C123.969 53.7651 122.922 53.0143 122.922 51.2851V47.9633H124.56V50.8301C124.56 51.8198 125.141 52.309 126.005 52.309C126.961 52.309 127.45 51.6833 127.45 50.8301V47.9633H129.088V53.6514H127.45V52.7071H127.359C127.359 52.7071 126.915 53.7651 125.311 53.7651ZM132.019 53.6514L129.937 47.9633H131.689L133.179 52.2635H133.259L134.749 47.9633H136.501L134.419 53.6514H132.019ZM140.391 53.7651C138.491 53.7651 137.126 52.7071 137.126 50.8073C137.126 48.9075 138.491 47.8495 140.368 47.8495C142.234 47.8495 143.599 48.9075 143.599 50.8073C143.599 51.0121 143.565 51.2396 143.565 51.2396H138.844C138.844 51.8653 139.344 52.491 140.391 52.491C141.358 52.491 141.665 51.9222 141.665 51.9222H143.462C143.462 51.9222 143.121 53.7651 140.391 53.7651ZM138.866 50.2385H141.858C141.858 49.7835 141.415 49.1237 140.368 49.1237C139.344 49.1237 138.866 49.7835 138.866 50.2385ZM147.091 53.7651C145.828 53.7651 144.736 53.2304 144.736 52.0473C144.736 50.8073 145.919 50.2954 147.284 50.2954C148.57 50.2954 149.127 50.7732 149.127 50.7732V49.9427C149.127 49.5218 148.865 49.0782 147.921 49.0782C147.432 49.0782 146.704 49.2488 146.704 49.7949H145.02C145.032 48.4525 146.215 47.8495 147.921 47.8495C149.662 47.8495 150.765 48.5093 150.765 49.9427V51.7174C150.765 52.1952 150.879 52.3317 151.141 52.3317C151.3 52.3317 151.38 52.2862 151.38 52.2862V53.6514C151.38 53.6514 151.175 53.7651 150.674 53.7651C149.559 53.7651 149.298 52.9688 149.298 52.9688H149.218C149.218 53.0029 148.774 53.7651 147.091 53.7651ZM147.762 52.5251C148.763 52.5251 149.127 52.0928 149.127 52.0928V51.7516C149.127 51.7516 148.797 51.4103 147.762 51.4103C147.034 51.4103 146.42 51.524 146.42 51.9677C146.42 52.4227 147.034 52.5251 147.762 52.5251ZM154.907 53.7651C153.565 53.7651 152.518 53.0143 152.518 51.2851V47.9633H154.156V50.8301C154.156 51.8198 154.736 52.309 155.601 52.309C156.556 52.309 157.046 51.6833 157.046 50.8301V47.9633H158.684V53.6514H157.046V52.7071H156.955C156.955 52.7071 156.511 53.7651 154.907 53.7651ZM167.68 55.9266V52.9574H167.611C167.611 52.9574 167.02 53.7651 165.586 53.7651C164.085 53.7651 162.833 52.6958 162.833 50.8073C162.833 48.9189 164.085 47.8495 165.586 47.8495C167.065 47.8495 167.6 48.8961 167.6 48.8961H167.68V47.9633H169.318V55.9266H167.68ZM166.098 52.309C167.054 52.309 167.68 51.6947 167.68 50.8073C167.68 49.9541 167.088 49.3057 166.098 49.3057C165.109 49.3057 164.517 49.9541 164.517 50.8073C164.517 51.6605 165.109 52.309 166.098 52.309ZM173.304 53.7651C171.962 53.7651 170.915 53.0143 170.915 51.2851V47.9633H172.553V50.8301C172.553 51.8198 173.134 52.309 173.998 52.309C174.954 52.309 175.443 51.6833 175.443 50.8301V47.9633H177.081V53.6514H175.443V52.7071H175.352C175.352 52.7071 174.908 53.7651 173.304 53.7651ZM178.67 53.6514V47.9633H180.308V53.6514H178.67ZM179.489 47.076C178.931 47.076 178.579 46.7802 178.579 46.3251C178.579 45.8701 178.931 45.5743 179.489 45.5743C180.046 45.5743 180.399 45.8701 180.399 46.3251C180.399 46.7802 180.046 47.076 179.489 47.076ZM181.618 53.6514V52.2862L184.883 49.3512V49.3284H181.777V47.9633H187.17V49.3284L183.905 52.2635V52.2862H187.284V53.6514H181.618ZM188.306 53.6514V52.2862L191.571 49.3512V49.3284H188.465V47.9633H193.858V49.3284L190.593 52.2635V52.2862H193.971V53.6514H188.306ZM201.104 53.7651C199.205 53.7651 197.839 52.7071 197.839 50.8073C197.839 48.9075 199.205 47.8495 201.082 47.8495C202.947 47.8495 204.312 48.9075 204.312 50.8073C204.312 51.0121 204.278 51.2396 204.278 51.2396H199.557C199.557 51.8653 200.058 52.491 201.104 52.491C202.071 52.491 202.379 51.9222 202.379 51.9222H204.176C204.176 51.9222 203.835 53.7651 201.104 53.7651ZM199.58 50.2385H202.572C202.572 49.7835 202.128 49.1237 201.082 49.1237C200.058 49.1237 199.58 49.7835 199.58 50.2385ZM208.293 53.7651C206.519 53.7651 205.336 53.2532 205.336 51.8312V51.6492H207.019V51.8312C207.019 52.3545 207.418 52.5479 208.293 52.5479C209.215 52.5479 209.59 52.3545 209.59 51.9677C209.59 50.8756 205.449 52.036 205.449 49.5787C205.449 48.4297 206.53 47.8495 208.225 47.8495C209.943 47.8495 211.012 48.4183 211.012 49.7266H209.329C209.329 49.4536 209.295 49.0668 208.191 49.0668C207.406 49.0668 207.133 49.2943 207.133 49.5901C207.133 50.5457 211.274 49.4536 211.274 51.9449C211.274 53.2532 210.091 53.7651 208.293 53.7651ZM215.131 53.7651C213.504 53.7651 212.617 53.0939 212.617 51.5013V49.2829H211.786V48.3387L213.368 46.8257H214.255V47.9633H216.03V49.2829H214.255V51.2851C214.255 52.1952 214.733 52.4 215.37 52.4C215.882 52.4 216.2 52.1952 216.2 52.1952V53.5604C216.2 53.5604 215.779 53.7651 215.131 53.7651ZM123.72 68.7651C122.218 68.7651 120.967 67.6958 120.967 65.8073C120.967 63.9189 122.218 62.8495 123.72 62.8495C125.154 62.8495 125.745 63.6572 125.745 63.6572H125.813V60.6881H127.452V68.6514H125.813V67.7185H125.734C125.734 67.7185 125.199 68.7651 123.72 68.7651ZM124.232 67.309C125.222 67.309 125.813 66.6605 125.813 65.8073C125.813 64.92 125.188 64.3057 124.232 64.3057C123.242 64.3057 122.651 64.9541 122.651 65.8073C122.651 66.6605 123.242 67.309 124.232 67.309ZM129.049 68.6514V62.9633H130.687V68.6514H129.049ZM129.868 62.076C129.311 62.076 128.958 61.7802 128.958 61.3251C128.958 60.8701 129.311 60.5743 129.868 60.5743C130.426 60.5743 130.778 60.8701 130.778 61.3251C130.778 61.7802 130.426 62.076 129.868 62.076ZM134.898 68.7651C133.124 68.7651 131.941 68.2532 131.941 66.8312V66.6492H133.624V66.8312C133.624 67.3545 134.022 67.5479 134.898 67.5479C135.82 67.5479 136.195 67.3545 136.195 66.9677C136.195 65.8756 132.054 67.036 132.054 64.5787C132.054 63.4297 133.135 62.8495 134.83 62.8495C136.548 62.8495 137.617 63.4183 137.617 64.7266H135.934C135.934 64.4536 135.9 64.0668 134.796 64.0668C134.011 64.0668 133.738 64.2943 133.738 64.5901C133.738 65.5457 137.879 64.4536 137.879 66.9449C137.879 68.2532 136.696 68.7651 134.898 68.7651ZM139.125 70.9266V62.9633H140.764V63.8961H140.843C140.843 63.8961 141.378 62.8495 142.857 62.8495C144.358 62.8495 145.61 63.9189 145.61 65.8073C145.61 67.6958 144.358 68.7651 142.857 68.7651C141.423 68.7651 140.832 67.9574 140.832 67.9574H140.764V70.9266H139.125ZM142.345 67.309C143.335 67.309 143.926 66.6605 143.926 65.8073C143.926 64.9541 143.335 64.3057 142.345 64.3057C141.355 64.3057 140.764 64.9541 140.764 65.8073C140.764 66.6947 141.389 67.309 142.345 67.309ZM149.995 68.7651C148.117 68.7651 146.752 67.6958 146.752 65.8073C146.752 63.9189 148.117 62.8495 149.995 62.8495C151.872 62.8495 153.237 63.9189 153.237 65.8073C153.237 67.6958 151.872 68.7651 149.995 68.7651ZM149.995 67.3545C150.996 67.3545 151.553 66.6833 151.553 65.8073C151.553 64.9314 150.996 64.2602 149.995 64.2602C148.993 64.2602 148.436 64.9314 148.436 65.8073C148.436 66.6833 148.993 67.3545 149.995 67.3545ZM154.601 68.6514V62.9633H156.239V63.9075H156.33C156.33 63.9075 156.774 62.8495 158.378 62.8495C159.72 62.8495 160.767 63.6004 160.767 65.3295V68.6514H159.129V65.7846C159.129 64.7949 158.548 64.3057 157.684 64.3057C156.728 64.3057 156.239 64.9314 156.239 65.7846V68.6514H154.601ZM162.3 68.6514V62.9633H163.938V68.6514H162.3ZM163.119 62.076C162.562 62.076 162.209 61.7802 162.209 61.3251C162.209 60.8701 162.562 60.5743 163.119 60.5743C163.676 60.5743 164.029 60.8701 164.029 61.3251C164.029 61.7802 163.676 62.076 163.119 62.076ZM169.264 68.7651C167.785 68.7651 167.251 67.7185 167.251 67.7185H167.171V68.6514H165.533V60.6881H167.171V63.6572H167.239C167.239 63.6572 167.831 62.8495 169.264 62.8495C170.766 62.8495 172.017 63.9189 172.017 65.8073C172.017 67.6958 170.766 68.7651 169.264 68.7651ZM168.752 67.309C169.742 67.309 170.333 66.6605 170.333 65.8073C170.333 64.9541 169.742 64.3057 168.752 64.3057C167.797 64.3057 167.171 64.92 167.171 65.8073C167.171 66.6605 167.762 67.309 168.752 67.309ZM173.387 68.6514V60.6881H175.025V68.6514H173.387ZM179.657 68.7651C177.758 68.7651 176.393 67.7071 176.393 65.8073C176.393 63.9075 177.758 62.8495 179.635 62.8495C181.5 62.8495 182.866 63.9075 182.866 65.8073C182.866 66.0121 182.831 66.2396 182.831 66.2396H178.11C178.11 66.8653 178.611 67.491 179.657 67.491C180.624 67.491 180.932 66.9222 180.932 66.9222H182.729C182.729 66.9222 182.388 68.7651 179.657 68.7651ZM178.133 65.2385H181.125C181.125 64.7835 180.681 64.1237 179.635 64.1237C178.611 64.1237 178.133 64.7835 178.133 65.2385Z" fill="#221C46"/>
<rect x="78.7646" y="81.7524" width="146.303" height="29.578" fill="#00EB5E"/>
<rect x="78.7646" y="81.7524" width="146.303" height="29.578" stroke="#221C46" stroke-width="1.54803"/>
<path d="M92.7392 94.0764V92.9227H98.1752V94.0764H96.1488V99.5415H94.7656V94.0764H92.7392ZM100.587 99.6385C100.076 99.6385 99.6368 99.535 99.2684 99.3282C98.9021 99.1192 98.6198 98.824 98.4216 98.4427C98.2234 98.0592 98.1243 97.6056 98.1243 97.0821C98.1243 96.5714 98.2234 96.1233 98.4216 95.7376C98.6198 95.3519 98.8989 95.0514 99.2587 94.8359C99.6206 94.6205 100.045 94.5127 100.532 94.5127C100.86 94.5127 101.164 94.5655 101.447 94.6711C101.731 94.7745 101.979 94.9307 102.19 95.1397C102.403 95.3487 102.569 95.6116 102.688 95.9283C102.806 96.2429 102.865 96.6113 102.865 97.0336V97.4117H98.6737V96.5585H101.569C101.569 96.3603 101.526 96.1847 101.44 96.0317C101.354 95.8787 101.234 95.7591 101.081 95.673C100.931 95.5846 100.755 95.5405 100.555 95.5405C100.346 95.5405 100.16 95.5889 99.9988 95.6859C99.8393 95.7807 99.7144 95.9089 99.6239 96.0705C99.5334 96.2299 99.4871 96.4077 99.4849 96.6037V97.4149C99.4849 97.6606 99.5301 97.8728 99.6206 98.0516C99.7133 98.2304 99.8436 98.3683 100.012 98.4653C100.18 98.5623 100.379 98.6107 100.61 98.6107C100.763 98.6107 100.903 98.5892 101.03 98.5461C101.157 98.503 101.266 98.4384 101.356 98.3522C101.447 98.266 101.516 98.1604 101.563 98.0355L102.836 98.1195C102.772 98.4254 102.639 98.6926 102.439 98.921C102.241 99.1472 101.984 99.3239 101.67 99.451C101.357 99.576 100.996 99.6385 100.587 99.6385ZM107.894 95.9929L106.634 96.0705C106.612 95.9628 106.566 95.8658 106.495 95.7796C106.424 95.6913 106.33 95.6213 106.214 95.5695C106.099 95.5157 105.963 95.4888 105.803 95.4888C105.59 95.4888 105.41 95.534 105.263 95.6245C105.117 95.7128 105.044 95.8313 105.044 95.98C105.044 96.0985 105.091 96.1987 105.186 96.2806C105.281 96.3624 105.443 96.4281 105.674 96.4777L106.572 96.6587C107.055 96.7578 107.415 96.9172 107.652 97.137C107.889 97.3568 108.007 97.6455 108.007 98.0031C108.007 98.3285 107.911 98.614 107.72 98.8596C107.53 99.1052 107.269 99.297 106.938 99.4349C106.608 99.5706 106.228 99.6385 105.797 99.6385C105.14 99.6385 104.616 99.5016 104.226 99.228C103.838 98.9522 103.611 98.5773 103.544 98.1033L104.898 98.0322C104.939 98.2326 105.038 98.3856 105.196 98.4911C105.353 98.5946 105.554 98.6463 105.8 98.6463C106.041 98.6463 106.235 98.6 106.382 98.5073C106.53 98.4125 106.606 98.2908 106.608 98.1421C106.606 98.0171 106.553 97.9148 106.45 97.8351C106.346 97.7532 106.187 97.6907 105.971 97.6476L105.112 97.4763C104.627 97.3794 104.266 97.2113 104.029 96.9722C103.794 96.733 103.677 96.4281 103.677 96.0576C103.677 95.7387 103.763 95.464 103.935 95.2334C104.11 95.0029 104.354 94.8251 104.669 94.7002C104.986 94.5752 105.356 94.5127 105.781 94.5127C106.408 94.5127 106.901 94.6452 107.261 94.9102C107.623 95.1753 107.834 95.5362 107.894 95.9929ZM111.515 94.5774V95.6116H108.525V94.5774H111.515ZM109.204 93.388H110.581V98.0161C110.581 98.1432 110.6 98.2423 110.639 98.3134C110.678 98.3823 110.732 98.4308 110.8 98.4588C110.872 98.4868 110.953 98.5008 111.046 98.5008C111.111 98.5008 111.175 98.4955 111.24 98.4847C111.305 98.4718 111.354 98.4621 111.389 98.4556L111.605 99.4801C111.536 99.5016 111.439 99.5264 111.314 99.5544C111.189 99.5846 111.037 99.6029 110.859 99.6094C110.527 99.6223 110.236 99.5781 109.986 99.4769C109.738 99.3756 109.545 99.2183 109.408 99.005C109.27 98.7917 109.202 98.5224 109.204 98.197V93.388ZM114.621 99.6385C114.11 99.6385 113.67 99.535 113.302 99.3282C112.936 99.1192 112.653 98.824 112.455 98.4427C112.257 98.0592 112.158 97.6056 112.158 97.0821C112.158 96.5714 112.257 96.1233 112.455 95.7376C112.653 95.3519 112.932 95.0514 113.292 94.8359C113.654 94.6205 114.079 94.5127 114.566 94.5127C114.893 94.5127 115.198 94.5655 115.48 94.6711C115.765 94.7745 116.012 94.9307 116.224 95.1397C116.437 95.3487 116.603 95.6116 116.721 95.9283C116.84 96.2429 116.899 96.6113 116.899 97.0336V97.4117H112.707V96.5585H115.603C115.603 96.3603 115.56 96.1847 115.474 96.0317C115.388 95.8787 115.268 95.7591 115.115 95.673C114.964 95.5846 114.789 95.5405 114.588 95.5405C114.379 95.5405 114.194 95.5889 114.032 95.6859C113.873 95.7807 113.748 95.9089 113.657 96.0705C113.567 96.2299 113.521 96.4077 113.518 96.6037V97.4149C113.518 97.6606 113.564 97.8728 113.654 98.0516C113.747 98.2304 113.877 98.3683 114.045 98.4653C114.213 98.5623 114.413 98.6107 114.643 98.6107C114.796 98.6107 114.936 98.5892 115.063 98.5461C115.19 98.503 115.299 98.4384 115.39 98.3522C115.48 98.266 115.549 98.1604 115.597 98.0355L116.87 98.1195C116.805 98.4254 116.673 98.6926 116.472 98.921C116.274 99.1472 116.018 99.3239 115.703 99.451C115.391 99.576 115.03 99.6385 114.621 99.6385ZM117.797 99.5415V94.5774H119.132V95.4435H119.184C119.274 95.1354 119.426 94.9027 119.64 94.7454C119.853 94.586 120.099 94.5063 120.376 94.5063C120.445 94.5063 120.52 94.5106 120.599 94.5192C120.679 94.5278 120.749 94.5397 120.81 94.5547V95.7764C120.745 95.757 120.655 95.7398 120.541 95.7247C120.427 95.7096 120.323 95.7021 120.228 95.7021C120.025 95.7021 119.844 95.7462 119.685 95.8346C119.528 95.9207 119.403 96.0414 119.31 96.1965C119.219 96.3517 119.174 96.5305 119.174 96.733V99.5415H117.797ZM123.628 99.5415V94.5774H124.94V95.4532H124.998C125.101 95.1623 125.274 94.9329 125.515 94.7648C125.756 94.5968 126.045 94.5127 126.381 94.5127C126.722 94.5127 127.011 94.5978 127.251 94.768C127.49 94.9361 127.649 95.1645 127.729 95.4532H127.781C127.882 95.1688 128.065 94.9415 128.33 94.7713C128.597 94.5989 128.913 94.5127 129.277 94.5127C129.74 94.5127 130.116 94.6603 130.405 94.9555C130.696 95.2485 130.841 95.6643 130.841 96.203V99.5415H129.468V96.4745C129.468 96.1987 129.394 95.9918 129.248 95.854C129.101 95.7161 128.918 95.6471 128.698 95.6471C128.449 95.6471 128.254 95.7268 128.114 95.8863C127.973 96.0436 127.903 96.2515 127.903 96.51V99.5415H126.569V96.4454C126.569 96.2019 126.499 96.008 126.359 95.8636C126.221 95.7193 126.039 95.6471 125.812 95.6471C125.659 95.6471 125.522 95.6859 125.399 95.7635C125.278 95.8389 125.182 95.9455 125.111 96.0834C125.04 96.2192 125.004 96.3786 125.004 96.5617V99.5415H123.628ZM134.191 99.6385C133.68 99.6385 133.241 99.535 132.872 99.3282C132.506 99.1192 132.224 98.824 132.026 98.4427C131.827 98.0592 131.728 97.6056 131.728 97.0821C131.728 96.5714 131.827 96.1233 132.026 95.7376C132.224 95.3519 132.503 95.0514 132.863 94.8359C133.225 94.6205 133.649 94.5127 134.136 94.5127C134.464 94.5127 134.768 94.5655 135.051 94.6711C135.335 94.7745 135.583 94.9307 135.794 95.1397C136.007 95.3487 136.173 95.6116 136.292 95.9283C136.41 96.2429 136.47 96.6113 136.47 97.0336V97.4117H132.278V96.5585H135.174C135.174 96.3603 135.13 96.1847 135.044 96.0317C134.958 95.8787 134.838 95.7591 134.686 95.673C134.535 95.5846 134.359 95.5405 134.159 95.5405C133.95 95.5405 133.764 95.5889 133.603 95.6859C133.443 95.7807 133.318 95.9089 133.228 96.0705C133.137 96.2299 133.091 96.4077 133.089 96.6037V97.4149C133.089 97.6606 133.134 97.8728 133.225 98.0516C133.317 98.2304 133.448 98.3683 133.616 98.4653C133.784 98.5623 133.983 98.6107 134.214 98.6107C134.367 98.6107 134.507 98.5892 134.634 98.5461C134.761 98.503 134.87 98.4384 134.96 98.3522C135.051 98.266 135.12 98.1604 135.167 98.0355L136.44 98.1195C136.376 98.4254 136.243 98.6926 136.043 98.921C135.845 99.1472 135.588 99.3239 135.274 99.451C134.961 99.576 134.6 99.6385 134.191 99.6385ZM141.498 95.9929L140.238 96.0705C140.216 95.9628 140.17 95.8658 140.099 95.7796C140.028 95.6913 139.934 95.6213 139.818 95.5695C139.704 95.5157 139.567 95.4888 139.407 95.4888C139.194 95.4888 139.014 95.534 138.868 95.6245C138.721 95.7128 138.648 95.8313 138.648 95.98C138.648 96.0985 138.695 96.1987 138.79 96.2806C138.885 96.3624 139.047 96.4281 139.278 96.4777L140.176 96.6587C140.659 96.7578 141.019 96.9172 141.256 97.137C141.493 97.3568 141.611 97.6455 141.611 98.0031C141.611 98.3285 141.516 98.614 141.324 98.8596C141.134 99.1052 140.873 99.297 140.542 99.4349C140.212 99.5706 139.832 99.6385 139.401 99.6385C138.744 99.6385 138.22 99.5016 137.83 99.228C137.442 98.9522 137.215 98.5773 137.148 98.1033L138.502 98.0322C138.543 98.2326 138.642 98.3856 138.8 98.4911C138.957 98.5946 139.158 98.6463 139.404 98.6463C139.645 98.6463 139.839 98.6 139.986 98.5073C140.134 98.4125 140.21 98.2908 140.212 98.1421C140.21 98.0171 140.157 97.9148 140.054 97.8351C139.95 97.7532 139.791 97.6907 139.575 97.6476L138.716 97.4763C138.231 97.3794 137.87 97.2113 137.633 96.9722C137.398 96.733 137.281 96.4281 137.281 96.0576C137.281 95.7387 137.367 95.464 137.539 95.2334C137.714 95.0029 137.958 94.8251 138.273 94.7002C138.59 94.5752 138.96 94.5127 139.385 94.5127C140.012 94.5127 140.505 94.6452 140.865 94.9102C141.227 95.1753 141.438 95.5362 141.498 95.9929ZM146.828 99.6385C146.319 99.6385 145.882 99.5307 145.515 99.3153C145.151 99.0977 144.871 98.796 144.675 98.4104C144.481 98.0247 144.384 97.5808 144.384 97.0788C144.384 96.5703 144.482 96.1243 144.678 95.7408C144.877 95.3552 145.158 95.0546 145.522 94.8391C145.886 94.6215 146.319 94.5127 146.821 94.5127C147.254 94.5127 147.633 94.5914 147.959 94.7487C148.284 94.9059 148.542 95.1268 148.731 95.4112C148.921 95.6956 149.025 96.0295 149.045 96.4131H147.745C147.709 96.1653 147.612 95.966 147.455 95.8152C147.299 95.6622 147.096 95.5857 146.844 95.5857C146.63 95.5857 146.444 95.6439 146.285 95.7602C146.127 95.8744 146.005 96.0414 145.916 96.2612C145.828 96.4809 145.784 96.747 145.784 97.0594C145.784 97.3762 145.827 97.6455 145.913 97.8674C146.001 98.0893 146.125 98.2585 146.285 98.3748C146.444 98.4911 146.63 98.5493 146.844 98.5493C147.001 98.5493 147.142 98.517 147.267 98.4524C147.394 98.3877 147.499 98.294 147.581 98.1712C147.665 98.0462 147.72 97.8965 147.745 97.722H149.045C149.023 98.1012 148.92 98.4351 148.734 98.7238C148.551 99.0104 148.298 99.2345 147.975 99.3961C147.652 99.5577 147.269 99.6385 146.828 99.6385ZM152.169 99.6385C151.667 99.6385 151.233 99.5318 150.867 99.3185C150.503 99.103 150.221 98.8036 150.023 98.42C149.825 98.0344 149.726 97.5873 149.726 97.0788C149.726 96.566 149.825 96.1179 150.023 95.7344C150.221 95.3487 150.503 95.0492 150.867 94.8359C151.233 94.6205 151.667 94.5127 152.169 94.5127C152.671 94.5127 153.104 94.6205 153.468 94.8359C153.835 95.0492 154.117 95.3487 154.315 95.7344C154.513 96.1179 154.612 96.566 154.612 97.0788C154.612 97.5873 154.513 98.0344 154.315 98.42C154.117 98.8036 153.835 99.103 153.468 99.3185C153.104 99.5318 152.671 99.6385 152.169 99.6385ZM152.176 98.5719C152.404 98.5719 152.595 98.5073 152.748 98.378C152.901 98.2466 153.016 98.0678 153.093 97.8415C153.173 97.6153 153.213 97.3578 153.213 97.0691C153.213 96.7804 153.173 96.5229 153.093 96.2967C153.016 96.0705 152.901 95.8917 152.748 95.7602C152.595 95.6288 152.404 95.5631 152.176 95.5631C151.945 95.5631 151.751 95.6288 151.594 95.7602C151.439 95.8917 151.321 96.0705 151.242 96.2967C151.164 96.5229 151.125 96.7804 151.125 97.0691C151.125 97.3578 151.164 97.6153 151.242 97.8415C151.321 98.0678 151.439 98.2466 151.594 98.378C151.751 98.5073 151.945 98.5719 152.176 98.5719ZM156.884 96.6716V99.5415H155.508V94.5774H156.82V95.4532H156.878C156.988 95.1645 157.172 94.9361 157.431 94.768C157.689 94.5978 158.003 94.5127 158.371 94.5127C158.716 94.5127 159.016 94.5881 159.273 94.739C159.529 94.8898 159.728 95.1052 159.871 95.3853C160.013 95.6633 160.084 95.9951 160.084 96.3807V99.5415H158.707V96.6264C158.709 96.3226 158.632 96.0856 158.474 95.9154C158.317 95.743 158.101 95.6568 157.825 95.6568C157.64 95.6568 157.476 95.6967 157.334 95.7764C157.194 95.8561 157.084 95.9725 157.004 96.1254C156.926 96.2762 156.887 96.4583 156.884 96.6716ZM162.546 96.6716V99.5415H161.169V94.5774H162.481V95.4532H162.539C162.649 95.1645 162.833 94.9361 163.092 94.768C163.351 94.5978 163.664 94.5127 164.032 94.5127C164.377 94.5127 164.678 94.5881 164.934 94.739C165.191 94.8898 165.39 95.1052 165.532 95.3853C165.674 95.6633 165.745 95.9951 165.745 96.3807V99.5415H164.369V96.6264C164.371 96.3226 164.293 96.0856 164.136 95.9154C163.979 95.743 163.762 95.6568 163.486 95.6568C163.301 95.6568 163.137 95.6967 162.995 95.7764C162.855 95.8561 162.745 95.9725 162.665 96.1254C162.588 96.2762 162.548 96.4583 162.546 96.6716ZM168.246 99.6352C167.929 99.6352 167.647 99.5803 167.399 99.4704C167.151 99.3584 166.955 99.1935 166.811 98.9759C166.669 98.7562 166.598 98.4825 166.598 98.155C166.598 97.8793 166.648 97.6476 166.75 97.4602C166.851 97.2727 166.989 97.1219 167.163 97.0077C167.338 96.8935 167.536 96.8073 167.758 96.7492C167.982 96.691 168.217 96.6501 168.463 96.6264C168.751 96.5962 168.984 96.5682 169.161 96.5423C169.337 96.5143 169.465 96.4734 169.545 96.4195C169.625 96.3657 169.665 96.2859 169.665 96.1804V96.161C169.665 95.9563 169.6 95.7979 169.471 95.6859C169.344 95.5739 169.163 95.5178 168.928 95.5178C168.68 95.5178 168.483 95.5728 168.336 95.6827C168.19 95.7904 168.093 95.9261 168.046 96.0899L166.772 95.9865C166.837 95.6848 166.964 95.4241 167.154 95.2043C167.343 94.9824 167.588 94.8122 167.887 94.6937C168.189 94.5731 168.538 94.5127 168.934 94.5127C169.21 94.5127 169.474 94.545 169.726 94.6097C169.98 94.6743 170.206 94.7745 170.402 94.9102C170.6 95.046 170.756 95.2205 170.87 95.4338C170.984 95.645 171.042 95.8981 171.042 96.1933V99.5415H169.736V98.8531H169.697C169.617 99.0082 169.511 99.1451 169.377 99.2636C169.244 99.3799 169.083 99.4715 168.896 99.5383C168.708 99.6029 168.492 99.6352 168.246 99.6352ZM168.64 98.6851C168.843 98.6851 169.022 98.6452 169.177 98.5655C169.332 98.4836 169.454 98.3737 169.542 98.2358C169.63 98.0979 169.674 97.9417 169.674 97.7672V97.2404C169.631 97.2684 169.572 97.2943 169.497 97.318C169.423 97.3395 169.34 97.36 169.248 97.3794C169.155 97.3966 169.063 97.4128 168.97 97.4279C168.877 97.4408 168.793 97.4526 168.718 97.4634C168.556 97.4871 168.415 97.5248 168.294 97.5765C168.174 97.6282 168.08 97.6983 168.013 97.7866C167.946 97.8728 167.913 97.9805 167.913 98.1098C167.913 98.2972 167.981 98.4405 168.117 98.5396C168.255 98.6366 168.429 98.6851 168.64 98.6851ZM172.11 99.5415V94.5774H173.486V99.5415H172.11ZM172.801 93.9375C172.597 93.9375 172.421 93.8696 172.274 93.7338C172.13 93.596 172.058 93.4311 172.058 93.2394C172.058 93.0498 172.13 92.8871 172.274 92.7514C172.421 92.6135 172.597 92.5445 172.801 92.5445C173.006 92.5445 173.18 92.6135 173.325 92.7514C173.471 92.8871 173.545 93.0498 173.545 93.2394C173.545 93.4311 173.471 93.596 173.325 93.7338C173.18 93.8696 173.006 93.9375 172.801 93.9375ZM178.72 95.9929L177.459 96.0705C177.438 95.9628 177.391 95.8658 177.32 95.7796C177.249 95.6913 177.155 95.6213 177.039 95.5695C176.925 95.5157 176.788 95.4888 176.629 95.4888C176.415 95.4888 176.235 95.534 176.089 95.6245C175.942 95.7128 175.869 95.8313 175.869 95.98C175.869 96.0985 175.917 96.1987 176.011 96.2806C176.106 96.3624 176.269 96.4281 176.499 96.4777L177.398 96.6587C177.88 96.7578 178.24 96.9172 178.477 97.137C178.714 97.3568 178.833 97.6455 178.833 98.0031C178.833 98.3285 178.737 98.614 178.545 98.8596C178.355 99.1052 178.095 99.297 177.763 99.4349C177.433 99.5706 177.053 99.6385 176.622 99.6385C175.965 99.6385 175.441 99.5016 175.051 99.228C174.664 98.9522 174.436 98.5773 174.37 98.1033L175.724 98.0322C175.765 98.2326 175.864 98.3856 176.021 98.4911C176.178 98.5946 176.38 98.6463 176.625 98.6463C176.867 98.6463 177.061 98.6 177.207 98.5073C177.356 98.4125 177.431 98.2908 177.433 98.1421C177.431 98.0171 177.378 97.9148 177.275 97.8351C177.172 97.7532 177.012 97.6907 176.797 97.6476L175.937 97.4763C175.452 97.3794 175.091 97.2113 174.854 96.9722C174.619 96.733 174.502 96.4281 174.502 96.0576C174.502 95.7387 174.588 95.464 174.761 95.2334C174.935 95.0029 175.18 94.8251 175.494 94.7002C175.811 94.5752 176.182 94.5127 176.606 94.5127C177.233 94.5127 177.726 94.6452 178.086 94.9102C178.448 95.1753 178.659 95.5362 178.72 95.9929ZM183.83 95.9929L182.57 96.0705C182.548 95.9628 182.502 95.8658 182.431 95.7796C182.36 95.6913 182.266 95.6213 182.149 95.5695C182.035 95.5157 181.898 95.4888 181.739 95.4888C181.526 95.4888 181.346 95.534 181.199 95.6245C181.053 95.7128 180.98 95.8313 180.98 95.98C180.98 96.0985 181.027 96.1987 181.122 96.2806C181.217 96.3624 181.379 96.4281 181.61 96.4777L182.508 96.6587C182.991 96.7578 183.351 96.9172 183.588 97.137C183.825 97.3568 183.943 97.6455 183.943 98.0031C183.943 98.3285 183.847 98.614 183.655 98.8596C183.466 99.1052 183.205 99.297 182.873 99.4349C182.544 99.5706 182.163 99.6385 181.733 99.6385C181.075 99.6385 180.552 99.5016 180.162 99.228C179.774 98.9522 179.547 98.5773 179.48 98.1033L180.834 98.0322C180.875 98.2326 180.974 98.3856 181.131 98.4911C181.289 98.5946 181.49 98.6463 181.736 98.6463C181.977 98.6463 182.171 98.6 182.317 98.5073C182.466 98.4125 182.542 98.2908 182.544 98.1421C182.542 98.0171 182.489 97.9148 182.385 97.8351C182.282 97.7532 182.123 97.6907 181.907 97.6476L181.047 97.4763C180.563 97.3794 180.202 97.2113 179.965 96.9722C179.73 96.733 179.612 96.4281 179.612 96.0576C179.612 95.7387 179.699 95.464 179.871 95.2334C180.045 95.0029 180.29 94.8251 180.605 94.7002C180.921 94.5752 181.292 94.5127 181.716 94.5127C182.343 94.5127 182.837 94.6452 183.197 94.9102C183.559 95.1753 183.77 95.5362 183.83 95.9929ZM186.226 99.6352C185.909 99.6352 185.627 99.5803 185.379 99.4704C185.131 99.3584 184.935 99.1935 184.791 98.9759C184.648 98.7562 184.577 98.4825 184.577 98.155C184.577 97.8793 184.628 97.6476 184.729 97.4602C184.831 97.2727 184.968 97.1219 185.143 97.0077C185.317 96.8935 185.516 96.8073 185.738 96.7492C185.962 96.691 186.197 96.6501 186.442 96.6264C186.731 96.5962 186.964 96.5682 187.14 96.5423C187.317 96.5143 187.445 96.4734 187.525 96.4195C187.605 96.3657 187.644 96.2859 187.644 96.1804V96.161C187.644 95.9563 187.58 95.7979 187.45 95.6859C187.323 95.5739 187.142 95.5178 186.908 95.5178C186.66 95.5178 186.463 95.5728 186.316 95.6827C186.17 95.7904 186.073 95.9261 186.025 96.0899L184.752 95.9865C184.817 95.6848 184.944 95.4241 185.133 95.2043C185.323 94.9824 185.567 94.8122 185.867 94.6937C186.169 94.5731 186.518 94.5127 186.914 94.5127C187.19 94.5127 187.454 94.545 187.706 94.6097C187.96 94.6743 188.185 94.7745 188.381 94.9102C188.579 95.046 188.736 95.2205 188.85 95.4338C188.964 95.645 189.021 95.8981 189.021 96.1933V99.5415H187.716V98.8531H187.677C187.597 99.0082 187.49 99.1451 187.357 99.2636C187.223 99.3799 187.063 99.4715 186.875 99.5383C186.688 99.6029 186.471 99.6352 186.226 99.6352ZM186.62 98.6851C186.822 98.6851 187.001 98.6452 187.156 98.5655C187.312 98.4836 187.433 98.3737 187.522 98.2358C187.61 98.0979 187.654 97.9417 187.654 97.7672V97.2404C187.611 97.2684 187.552 97.2943 187.476 97.318C187.403 97.3395 187.32 97.36 187.227 97.3794C187.135 97.3966 187.042 97.4128 186.95 97.4279C186.857 97.4408 186.773 97.4526 186.697 97.4634C186.536 97.4871 186.395 97.5248 186.274 97.5765C186.153 97.6282 186.06 97.6983 185.993 97.7866C185.926 97.8728 185.893 97.9805 185.893 98.1098C185.893 98.2972 185.961 98.4405 186.096 98.5396C186.234 98.6366 186.409 98.6851 186.62 98.6851ZM191.466 96.6716V99.5415H190.089V94.5774H191.401V95.4532H191.46C191.57 95.1645 191.754 94.9361 192.012 94.768C192.271 94.5978 192.584 94.5127 192.953 94.5127C193.297 94.5127 193.598 94.5881 193.854 94.739C194.111 94.8898 194.31 95.1052 194.452 95.3853C194.595 95.6633 194.666 95.9951 194.666 96.3807V99.5415H193.289V96.6264C193.291 96.3226 193.213 96.0856 193.056 95.9154C192.899 95.743 192.682 95.6568 192.407 95.6568C192.221 95.6568 192.058 95.6967 191.915 95.7764C191.775 95.8561 191.665 95.9725 191.586 96.1254C191.508 96.2762 191.468 96.4583 191.466 96.6716ZM197.994 99.6385C197.485 99.6385 197.048 99.5307 196.681 99.3153C196.317 99.0977 196.037 98.796 195.841 98.4104C195.647 98.0247 195.55 97.5808 195.55 97.0788C195.55 96.5703 195.648 96.1243 195.844 95.7408C196.043 95.3552 196.324 95.0546 196.688 94.8391C197.052 94.6215 197.485 94.5127 197.987 94.5127C198.42 94.5127 198.799 94.5914 199.125 94.7487C199.45 94.9059 199.708 95.1268 199.897 95.4112C200.087 95.6956 200.191 96.0295 200.211 96.4131H198.911C198.875 96.1653 198.778 95.966 198.621 95.8152C198.465 95.6622 198.262 95.5857 198.01 95.5857C197.796 95.5857 197.61 95.6439 197.451 95.7602C197.293 95.8744 197.171 96.0414 197.082 96.2612C196.994 96.4809 196.95 96.747 196.95 97.0594C196.95 97.3762 196.993 97.6455 197.079 97.8674C197.167 98.0893 197.291 98.2585 197.451 98.3748C197.61 98.4911 197.796 98.5493 198.01 98.5493C198.167 98.5493 198.308 98.517 198.433 98.4524C198.56 98.3877 198.665 98.294 198.747 98.1712C198.831 98.0462 198.886 97.8965 198.911 97.722H200.211C200.189 98.1012 200.086 98.4351 199.9 98.7238C199.717 99.0104 199.464 99.2345 199.141 99.3961C198.818 99.5577 198.435 99.6385 197.994 99.6385ZM203.354 99.6385C202.844 99.6385 202.404 99.535 202.036 99.3282C201.67 99.1192 201.387 98.824 201.189 98.4427C200.991 98.0592 200.892 97.6056 200.892 97.0821C200.892 96.5714 200.991 96.1233 201.189 95.7376C201.387 95.3519 201.666 95.0514 202.026 94.8359C202.388 94.6205 202.813 94.5127 203.3 94.5127C203.627 94.5127 203.932 94.5655 204.214 94.6711C204.499 94.7745 204.746 94.9307 204.957 95.1397C205.171 95.3487 205.337 95.6116 205.455 95.9283C205.574 96.2429 205.633 96.6113 205.633 97.0336V97.4117H201.441V96.5585H204.337C204.337 96.3603 204.294 96.1847 204.208 96.0317C204.122 95.8787 204.002 95.7591 203.849 95.673C203.698 95.5846 203.523 95.5405 203.322 95.5405C203.113 95.5405 202.928 95.5889 202.766 95.6859C202.607 95.7807 202.482 95.9089 202.391 96.0705C202.301 96.2299 202.255 96.4077 202.252 96.6037V97.4149C202.252 97.6606 202.298 97.8728 202.388 98.0516C202.481 98.2304 202.611 98.3683 202.779 98.4653C202.947 98.5623 203.147 98.6107 203.377 98.6107C203.53 98.6107 203.67 98.5892 203.797 98.5461C203.924 98.503 204.033 98.4384 204.124 98.3522C204.214 98.266 204.283 98.1604 204.331 98.0355L205.604 98.1195C205.539 98.4254 205.407 98.6926 205.206 98.921C205.008 99.1472 204.752 99.3239 204.437 99.451C204.125 99.576 203.764 99.6385 203.354 99.6385ZM210.662 95.9929L209.401 96.0705C209.38 95.9628 209.333 95.8658 209.262 95.7796C209.191 95.6913 209.097 95.6213 208.981 95.5695C208.867 95.5157 208.73 95.4888 208.571 95.4888C208.357 95.4888 208.177 95.534 208.031 95.6245C207.884 95.7128 207.811 95.8313 207.811 95.98C207.811 96.0985 207.859 96.1987 207.953 96.2806C208.048 96.3624 208.211 96.4281 208.441 96.4777L209.34 96.6587C209.823 96.7578 210.182 96.9172 210.419 97.137C210.656 97.3568 210.775 97.6455 210.775 98.0031C210.775 98.3285 210.679 98.614 210.487 98.8596C210.298 99.1052 210.037 99.297 209.705 99.4349C209.375 99.5706 208.995 99.6385 208.564 99.6385C207.907 99.6385 207.384 99.5016 206.994 99.228C206.606 98.9522 206.378 98.5773 206.312 98.1033L207.666 98.0322C207.707 98.2326 207.806 98.3856 207.963 98.4911C208.12 98.5946 208.322 98.6463 208.567 98.6463C208.809 98.6463 209.003 98.6 209.149 98.5073C209.298 98.4125 209.373 98.2908 209.375 98.1421C209.373 98.0171 209.32 97.9148 209.217 97.8351C209.114 97.7532 208.954 97.6907 208.739 97.6476L207.879 97.4763C207.394 97.3794 207.033 97.2113 206.796 96.9722C206.562 96.733 206.444 96.4281 206.444 96.0576C206.444 95.7387 206.53 95.464 206.703 95.2334C206.877 95.0029 207.122 94.8251 207.436 94.7002C207.753 94.5752 208.124 94.5127 208.548 94.5127C209.175 94.5127 209.668 94.6452 210.028 94.9102C210.39 95.1753 210.601 95.5362 210.662 95.9929Z" fill="#221C46"/>
</g>
<rect x="58.5059" y="28.5899" width="186.82" height="96.8019" stroke="#E5E5E5" stroke-width="0.820226"/>
</g>
<defs>
<filter id="filter0_d_3677_1858" x="58.0957" y="28.1797" width="189.189" height="99.1701" filterUnits="userSpaceOnUse" color-interpolation-filters="sRGB">
<feFlood flood-opacity="0" result="BackgroundImageFix"/>
<feColorMatrix in="SourceAlpha" type="matrix" values="0 0 0 0 0 0 0 0 0 0 0 0 0 0 0 0 0 0 127 0" result="hardAlpha"/>
<feOffset dx="1.54803" dy="1.54803"/>
<feComposite in2="hardAlpha" operator="out"/>
<feColorMatrix type="matrix" values="0 0 0 0 0.133333 0 0 0 0 0.109804 0 0 0 0 0.27451 0 0 0 0.2 0"/>
<feBlend mode="normal" in2="BackgroundImageFix" result="effect1_dropShadow_3677_1858"/>
<feBlend mode="normal" in="SourceGraphic" in2="effect1_dropShadow_3677_1858" result="shape"/>
</filter>
<clipPath id="clip0_3677_1858">
<rect x="58.916" y="29" width="186" height="95.9817" fill="white"/>
</clipPath>
</defs>
</svg>
