<svg width="314" height="153" viewBox="0 0 314 153" fill="none" xmlns="http://www.w3.org/2000/svg">
<g clip-path="url(#clip0_3661_2874)">
<g clip-path="url(#clip1_3661_2874)">
<rect width="271.28" height="117.593" transform="translate(21.6914 51.2671)" fill="white"/>
<path d="M31.3627 76.5835V70.9589H33.5402C35.324 70.9589 36.4007 72.0436 36.4007 73.7712C36.4007 75.5068 35.324 76.5835 33.5402 76.5835H31.3627ZM32.359 75.7157H33.5402C34.7133 75.7157 35.3562 74.9041 35.3562 73.7712C35.3562 72.6463 34.7133 71.8267 33.5402 71.8267H32.359V75.7157ZM37.5124 76.5835V72.6463H38.4123V76.5835H37.5124ZM37.9623 71.8106C37.6409 71.8106 37.432 71.6258 37.432 71.3446C37.432 71.0633 37.6409 70.8785 37.9623 70.8785C38.2837 70.8785 38.4926 71.0633 38.4926 71.3446C38.4926 71.6258 38.2837 71.8106 37.9623 71.8106ZM41.3911 76.6638C40.2742 76.6638 39.3984 76.3023 39.3984 75.2979V75.1693H40.3304V75.2979C40.3304 75.7639 40.7643 75.9246 41.3911 75.9246C42.1384 75.9246 42.4678 75.7398 42.4678 75.4104C42.4678 74.5024 39.4787 75.4987 39.4787 73.7712C39.4787 72.9436 40.2662 72.5659 41.3589 72.5659C42.4598 72.5659 43.2472 72.9516 43.2472 73.9158H42.3151C42.3151 73.5703 42.1464 73.3051 41.3509 73.3051C40.6438 73.3051 40.4108 73.5141 40.4108 73.7551C40.4108 74.5908 43.3999 73.6426 43.3999 75.4023C43.3999 76.3264 42.516 76.6638 41.3911 76.6638ZM46.1087 76.6638C45.0963 76.6638 44.4776 76.1898 44.4776 75.1131V73.4176H43.8267V72.8471L44.791 71.7624H45.3775V72.6463H46.7516V73.4176H45.3775V74.9925C45.3775 75.6675 45.7713 75.8443 46.2293 75.8443C46.6391 75.8443 46.8721 75.6755 46.8721 75.6755V76.5112C46.8721 76.5112 46.5748 76.6638 46.1087 76.6638ZM47.7435 76.5835V72.6463H48.6435V73.4016H48.6997C48.6997 73.4016 49.0291 72.5659 50.1219 72.5659C50.363 72.5659 50.5639 72.6141 50.5639 72.6141V73.6105C50.5639 73.6105 50.3228 73.5141 49.9211 73.5141C49.0934 73.5141 48.6435 74.0846 48.6435 74.7997V76.5835H47.7435ZM51.3919 76.5835V72.6463H52.2919V76.5835H51.3919ZM51.8419 71.8106C51.5205 71.8106 51.3116 71.6258 51.3116 71.3446C51.3116 71.0633 51.5205 70.8785 51.8419 70.8785C52.1633 70.8785 52.3722 71.0633 52.3722 71.3446C52.3722 71.6258 52.1633 71.8106 51.8419 71.8106ZM55.7849 76.6638C54.8207 76.6638 54.4189 76.0692 54.4189 76.0692H54.3788V76.5835H53.4788V70.9589H54.3788V73.1605H54.4189C54.4189 73.1605 54.8207 72.5659 55.7849 72.5659C56.9098 72.5659 57.8821 73.3212 57.8821 74.6149C57.8821 75.9085 56.9098 76.6638 55.7849 76.6638ZM55.6644 75.8443C56.4358 75.8443 56.95 75.338 56.95 74.6149C56.95 73.8917 56.4358 73.3855 55.6644 73.3855C54.893 73.3855 54.3788 73.8917 54.3788 74.6149C54.3788 75.338 54.893 75.8443 55.6644 75.8443ZM60.6441 76.6638C59.7039 76.6638 58.9085 76.1255 58.9085 74.872V72.6463H59.8084V74.639C59.8084 75.4746 60.3066 75.8443 60.9815 75.8443C61.7529 75.8443 62.1466 75.33 62.1466 74.639V72.6463H63.0466V76.5835H62.1466V75.9487H62.0904C62.0904 75.9487 61.761 76.6638 60.6441 76.6638ZM66.2931 76.6638C65.0155 76.6638 64.0754 75.9085 64.0754 74.6149C64.0754 73.3212 65.0155 72.5659 66.2931 72.5659C67.5707 72.5659 68.5108 73.3212 68.5108 74.6149C68.5108 74.7997 68.4867 74.9363 68.4867 74.9363H65.0396C65.0396 74.9363 65.1682 75.8844 66.2931 75.8844C67.0163 75.8844 67.2895 75.4586 67.2895 75.4586H68.3501C68.3501 75.4586 67.9725 76.6638 66.2931 76.6638ZM65.0477 74.2292H67.5225C67.5225 74.2292 67.4341 73.3453 66.2931 73.3453C65.1843 73.3453 65.0477 74.2292 65.0477 74.2292ZM69.259 76.5835V75.796L71.79 73.4498V73.4337H69.3875V72.6463H73.0355V73.4337L70.5044 75.78V75.796H73.1159V76.5835H69.259ZM76.7199 76.5835L75.1691 72.6463H76.1172L77.3627 75.8925H77.4029L78.6483 72.6463H79.5965L78.0457 76.5835H76.7199ZM82.3227 76.6638C81.0451 76.6638 80.105 75.9085 80.105 74.6149C80.105 73.3212 81.0451 72.5659 82.3227 72.5659C83.6003 72.5659 84.5404 73.3212 84.5404 74.6149C84.5404 75.9085 83.6003 76.6638 82.3227 76.6638ZM82.3227 75.8443C83.0941 75.8443 83.6084 75.338 83.6084 74.6149C83.6084 73.8917 83.0941 73.3855 82.3227 73.3855C81.5513 73.3855 81.0371 73.8917 81.0371 74.6149C81.0371 75.338 81.5513 75.8443 82.3227 75.8443ZM87.3617 76.6638C86.2448 76.6638 85.3689 76.3023 85.3689 75.2979V75.1693H86.301V75.2979C86.301 75.7639 86.7349 75.9246 87.3617 75.9246C88.1089 75.9246 88.4384 75.7398 88.4384 75.4104C88.4384 74.5024 85.4493 75.4987 85.4493 73.7712C85.4493 72.9436 86.2367 72.5659 87.3295 72.5659C88.4303 72.5659 89.2178 72.9516 89.2178 73.9158H88.2857C88.2857 73.5703 88.117 73.3051 87.3215 73.3051C86.6144 73.3051 86.3814 73.5141 86.3814 73.7551C86.3814 74.5908 89.3705 73.6426 89.3705 75.4023C89.3705 76.3264 88.4866 76.6638 87.3617 76.6638ZM94.3273 76.6638C93.0497 76.6638 92.1096 75.9085 92.1096 74.6149C92.1096 73.3212 93.0497 72.5659 94.3273 72.5659C95.8861 72.5659 96.4887 73.6667 96.4887 74.1729H95.5406C95.5406 74.1729 95.3236 73.3855 94.3273 73.3855C93.5559 73.3855 93.0417 73.8917 93.0417 74.6149C93.0417 75.338 93.5559 75.8443 94.3273 75.8443C95.3236 75.8443 95.5406 75.0568 95.5406 75.0568H96.4887C96.4887 75.563 95.8861 76.6638 94.3273 76.6638ZM97.4802 76.5835V70.9589H98.3801V73.281H98.4364C98.4364 73.281 98.7658 72.5659 99.8827 72.5659C100.823 72.5659 101.618 73.1043 101.618 74.3578V76.5835H100.718V74.5908C100.718 73.7551 100.22 73.3855 99.5453 73.3855C98.7739 73.3855 98.3801 73.8997 98.3801 74.5908V76.5835H97.4802ZM104.826 76.6638C103.548 76.6638 102.608 75.9085 102.608 74.6149C102.608 73.3212 103.548 72.5659 104.826 72.5659C106.103 72.5659 107.043 73.3212 107.043 74.6149C107.043 74.7997 107.019 74.9363 107.019 74.9363H103.572C103.572 74.9363 103.701 75.8844 104.826 75.8844C105.549 75.8844 105.822 75.4586 105.822 75.4586H106.883C106.883 75.4586 106.505 76.6638 104.826 76.6638ZM103.58 74.2292H106.055C106.055 74.2292 105.967 73.3453 104.826 73.3453C103.717 73.3453 103.58 74.2292 103.58 74.2292ZM104.48 71.8427L102.921 70.5571H104.086L105.292 71.8427H104.48ZM111.415 78.1905V76.0692H111.375C111.375 76.0692 110.973 76.6638 110.009 76.6638C108.884 76.6638 107.912 75.9085 107.912 74.6149C107.912 73.3212 108.884 72.5659 110.009 72.5659C110.973 72.5659 111.375 73.1605 111.375 73.1605H111.415V72.6463H112.315V78.1905H111.415ZM110.13 75.8443C110.901 75.8443 111.415 75.338 111.415 74.6149C111.415 73.8917 110.901 73.3855 110.13 73.3855C109.358 73.3855 108.844 73.8917 108.844 74.6149C108.844 75.338 109.358 75.8443 110.13 75.8443ZM115.238 76.6638C114.298 76.6638 113.502 76.1255 113.502 74.872V72.6463H114.402V74.639C114.402 75.4746 114.9 75.8443 115.575 75.8443C116.347 75.8443 116.741 75.33 116.741 74.639V72.6463H117.64V76.5835H116.741V75.9487H116.684C116.684 75.9487 116.355 76.6638 115.238 76.6638ZM120.887 76.6638C119.609 76.6638 118.669 75.9085 118.669 74.6149C118.669 73.3212 119.609 72.5659 120.887 72.5659C122.165 72.5659 123.105 73.3212 123.105 74.6149C123.105 74.7997 123.081 74.9363 123.081 74.9363H119.634C119.634 74.9363 119.762 75.8844 120.887 75.8844C121.61 75.8844 121.883 75.4586 121.883 75.4586H122.944C122.944 75.4586 122.566 76.6638 120.887 76.6638ZM119.642 74.2292H122.116C122.116 74.2292 122.028 73.3453 120.887 73.3453C119.778 73.3453 119.642 74.2292 119.642 74.2292ZM125.926 76.6638C124.809 76.6638 123.933 76.3023 123.933 75.2979V75.1693H124.865V75.2979C124.865 75.7639 125.299 75.9246 125.926 75.9246C126.673 75.9246 127.003 75.7398 127.003 75.4104C127.003 74.5024 124.014 75.4987 124.014 73.7712C124.014 72.9436 124.801 72.5659 125.894 72.5659C126.995 72.5659 127.782 72.9516 127.782 73.9158H126.85C126.85 73.5703 126.681 73.3051 125.886 73.3051C125.179 73.3051 124.946 73.5141 124.946 73.7551C124.946 74.5908 127.935 73.6426 127.935 75.4023C127.935 76.3264 127.051 76.6638 125.926 76.6638ZM132.892 76.6638C131.614 76.6638 130.674 75.9085 130.674 74.6149C130.674 73.3212 131.614 72.5659 132.892 72.5659C134.45 72.5659 135.053 73.6667 135.053 74.1729H134.105C134.105 74.1729 133.888 73.3855 132.892 73.3855C132.12 73.3855 131.606 73.8917 131.606 74.6149C131.606 75.338 132.12 75.8443 132.892 75.8443C133.888 75.8443 134.105 75.0568 134.105 75.0568H135.053C135.053 75.563 134.45 76.6638 132.892 76.6638ZM137.78 76.6638C136.84 76.6638 136.044 76.1255 136.044 74.872V72.6463H136.944V74.639C136.944 75.4746 137.443 75.8443 138.118 75.8443C138.889 75.8443 139.283 75.33 139.283 74.639V72.6463H140.183V76.5835H139.283V75.9487H139.226C139.226 75.9487 138.897 76.6638 137.78 76.6638ZM141.372 76.5835V70.9589H142.272V76.5835H141.372ZM145.339 76.6638C144.327 76.6638 143.708 76.1898 143.708 75.1131V73.4176H143.057V72.8471L144.021 71.7624H144.608V72.6463H145.982V73.4176H144.608V74.9925C144.608 75.6675 145.002 75.8443 145.46 75.8443C145.87 75.8443 146.103 75.6755 146.103 75.6755V76.5112C146.103 76.5112 145.805 76.6638 145.339 76.6638ZM148.553 76.6638C147.613 76.6638 146.817 76.1255 146.817 74.872V72.6463H147.717V74.639C147.717 75.4746 148.215 75.8443 148.89 75.8443C149.662 75.8443 150.055 75.33 150.055 74.639V72.6463H150.955V76.5835H150.055V75.9487H149.999C149.999 75.9487 149.67 76.6638 148.553 76.6638ZM152.145 76.5835V72.6463H153.045V73.4016H153.101C153.101 73.4016 153.43 72.5659 154.523 72.5659C154.764 72.5659 154.965 72.6141 154.965 72.6141V73.6105C154.965 73.6105 154.724 73.5141 154.322 73.5141C153.495 73.5141 153.045 74.0846 153.045 74.7997V76.5835H152.145ZM157.693 76.6638C156.416 76.6638 155.475 75.9085 155.475 74.6149C155.475 73.3212 156.416 72.5659 157.693 72.5659C158.971 72.5659 159.911 73.3212 159.911 74.6149C159.911 74.7997 159.887 74.9363 159.887 74.9363H156.44C156.44 74.9363 156.568 75.8844 157.693 75.8844C158.416 75.8844 158.69 75.4586 158.69 75.4586H159.75C159.75 75.4586 159.373 76.6638 157.693 76.6638ZM156.448 74.2292H158.923C158.923 74.2292 158.834 73.3453 157.693 73.3453C156.584 73.3453 156.448 74.2292 156.448 74.2292Z" fill="#221C46"/>
<g clip-path="url(#clip2_3661_2874)">
<mask id="path-3-inside-1_3661_2874" fill="white">
<path d="M30.6797 104.059H274.571V179.684H30.6797V104.059Z"/>
</mask>
<path d="M30.6797 104.059H274.571V179.684H30.6797V104.059Z" fill="white"/>
<rect width="243.891" height="75.6252" transform="translate(30.6797 104.059)" fill="white"/>
<mask id="path-5-inside-2_3661_2874" fill="white">
<path d="M30.6797 104.059H274.571V119.184H30.6797V104.059Z"/>
</mask>
<path d="M274.571 119.184V118.948H30.6797V119.184V119.42H274.571V119.184Z" fill="#E5E3EA" mask="url(#path-5-inside-2_3661_2874)"/>
<rect x="35.7207" y="109.101" width="5.04168" height="5.04168" rx="0.945315" fill="white"/>
<path fill-rule="evenodd" clip-rule="evenodd" d="M36.9824 111.892L37.2918 111.568L37.8074 112.108L39.3543 110.487L39.6637 110.811L37.8074 112.756L36.9824 111.892V111.892Z" fill="#221C46"/>
<rect x="35.8389" y="109.219" width="4.80535" height="4.80535" stroke="#E5E3EA" stroke-width="0.236329"/>
<g clip-path="url(#clip3_3661_2874)">
<path d="M51.5522 113.258L52.6374 110.611H52.9815L54.0667 113.258H53.8058L53.5449 112.623H52.074L51.8131 113.258H51.5522ZM52.1685 112.396H53.4504L52.8151 110.831H52.8038L52.1685 112.396ZM55.2864 113.296C54.7343 113.296 54.3146 112.903 54.3146 112.332C54.3146 111.761 54.7343 111.368 55.2864 111.368C55.8384 111.368 56.0351 111.723 56.0388 111.723H56.054V110.611H56.2884V113.258H56.054V112.941H56.0388C56.0351 112.941 55.8384 113.296 55.2864 113.296ZM55.3053 113.069C55.7439 113.069 56.054 112.767 56.054 112.332C56.054 111.897 55.7439 111.595 55.3053 111.595C54.8553 111.595 54.5566 111.92 54.5566 112.332C54.5566 112.744 54.8553 113.069 55.3053 113.069ZM57.7059 113.296C57.237 113.296 56.8362 113.141 56.8362 112.752C56.8362 112.366 57.237 112.2 57.6908 112.2C58.1332 112.2 58.3903 112.392 58.3903 112.392V112.052C58.3903 111.734 58.1067 111.587 57.7891 111.587C57.4526 111.587 57.169 111.746 57.169 111.946H56.9345C56.9421 111.678 57.203 111.368 57.7815 111.368C58.2239 111.368 58.6247 111.579 58.6247 112.052V112.835C58.6247 113.016 58.6777 113.077 58.8062 113.077C58.8856 113.077 58.9197 113.054 58.9197 113.054V113.258C58.9197 113.258 58.8705 113.285 58.7684 113.285C58.4659 113.285 58.4206 113.062 58.4206 113.062H58.4092C58.4092 113.062 58.1786 113.296 57.7059 113.296ZM57.7361 113.077C58.1672 113.077 58.3827 112.873 58.3903 112.865V112.604C58.3827 112.593 58.171 112.419 57.7361 112.419C57.3996 112.419 57.0782 112.498 57.0782 112.752C57.0782 113.001 57.3996 113.077 57.7361 113.077ZM59.3162 113.258V111.405H59.5506V111.678H59.562C59.562 111.678 59.6641 111.368 60.1367 111.368C60.5791 111.368 60.7152 111.75 60.7152 111.75H60.7304C60.7304 111.75 60.8665 111.368 61.3845 111.368C61.8458 111.368 62.1294 111.636 62.1294 112.211V113.258H61.895V112.256C61.895 111.787 61.7059 111.583 61.3694 111.583C61.0102 111.583 60.84 111.84 60.84 112.245V113.258H60.6056V112.241C60.6056 111.825 60.4392 111.583 60.0762 111.583C59.717 111.583 59.5506 111.84 59.5506 112.245V113.258H59.3162ZM63.5519 113.296C63.0868 113.296 62.6784 113.115 62.6784 112.665V112.593H62.9128V112.665C62.9128 112.944 63.1662 113.077 63.5519 113.077C63.93 113.077 64.1909 112.986 64.1909 112.74C64.1909 112.211 62.7238 112.684 62.7238 111.905C62.7238 111.542 63.0754 111.368 63.5405 111.368C64.0056 111.368 64.3611 111.553 64.3611 111.976H64.1266C64.1266 111.719 63.9262 111.587 63.5405 111.587C63.1511 111.587 62.9582 111.704 62.9582 111.905C62.9582 112.411 64.4253 111.961 64.4253 112.74C64.4253 113.152 64.017 113.296 63.5519 113.296ZM65.6544 113.258L66.7396 110.611H67.0837L68.1689 113.258H67.908L67.6471 112.623H66.1762L65.9153 113.258H65.6544ZM66.2707 112.396H67.5526L66.9173 110.831H66.906L66.2707 112.396ZM68.5662 113.258V110.611H68.8007V113.258H68.5662ZM69.4451 113.258V111.405H69.6795V113.258H69.4451ZM69.5623 110.861C69.4678 110.861 69.4073 110.8 69.4073 110.717C69.4073 110.634 69.4678 110.574 69.5623 110.574C69.6568 110.574 69.7173 110.634 69.7173 110.717C69.7173 110.8 69.6568 110.861 69.5623 110.861ZM71.2314 113.296C70.6605 113.296 70.2483 112.903 70.2483 112.332C70.2483 111.761 70.6605 111.368 71.2314 111.368C71.9234 111.368 72.1994 111.916 72.1994 112.124H71.9537C71.9537 112.048 71.7797 111.595 71.2314 111.595C70.7815 111.595 70.4903 111.92 70.4903 112.332C70.4903 112.744 70.7815 113.069 71.2314 113.069C71.7797 113.069 71.9537 112.615 71.9537 112.54H72.1994C72.1994 112.748 71.9234 113.296 71.2314 113.296ZM73.6689 113.296C73.0828 113.296 72.6707 112.903 72.6707 112.332C72.6707 111.761 73.0904 111.368 73.6614 111.368C74.2323 111.368 74.6521 111.761 74.6521 112.332C74.6521 112.411 74.6407 112.476 74.6407 112.476H72.924C72.924 112.551 73.0639 113.069 73.6689 113.069C74.1076 113.069 74.2777 112.789 74.2777 112.789H74.5613C74.5613 112.789 74.342 113.296 73.6689 113.296ZM72.9165 112.256H74.4063C74.4063 112.018 74.1832 111.595 73.6614 111.595C73.1396 111.595 72.9165 112.018 72.9165 112.256Z" fill="#221C46"/>
</g>
<path d="M114.964 113.296C114.495 113.296 114.094 113.141 114.094 112.752C114.094 112.366 114.495 112.2 114.949 112.2C115.391 112.2 115.648 112.392 115.648 112.392V112.052C115.648 111.734 115.365 111.587 115.047 111.587C114.71 111.587 114.427 111.746 114.427 111.946H114.192C114.2 111.678 114.461 111.368 115.039 111.368C115.482 111.368 115.883 111.579 115.883 112.052V112.835C115.883 113.016 115.936 113.077 116.064 113.077C116.144 113.077 116.178 113.054 116.178 113.054V113.258C116.178 113.258 116.128 113.285 116.026 113.285C115.724 113.285 115.678 113.062 115.678 113.062H115.667C115.667 113.062 115.436 113.296 114.964 113.296ZM114.994 113.077C115.425 113.077 115.641 112.873 115.648 112.865V112.604C115.641 112.593 115.429 112.419 114.994 112.419C114.657 112.419 114.336 112.498 114.336 112.752C114.336 113.001 114.657 113.077 114.994 113.077ZM116.574 113.258V110.611H116.808V113.258H116.574ZM117.453 113.258V111.405H117.687V113.258H117.453ZM117.57 110.861C117.476 110.861 117.415 110.8 117.415 110.717C117.415 110.634 117.476 110.574 117.57 110.574C117.665 110.574 117.725 110.634 117.725 110.717C117.725 110.8 117.665 110.861 117.57 110.861ZM119.239 113.296C118.668 113.296 118.256 112.903 118.256 112.332C118.256 111.761 118.668 111.368 119.239 111.368C119.931 111.368 120.207 111.916 120.207 112.124H119.961C119.961 112.048 119.788 111.595 119.239 111.595C118.789 111.595 118.498 111.92 118.498 112.332C118.498 112.744 118.789 113.069 119.239 113.069C119.788 113.069 119.961 112.615 119.961 112.54H120.207C120.207 112.748 119.931 113.296 119.239 113.296ZM121.677 113.296C121.091 113.296 120.678 112.903 120.678 112.332C120.678 111.761 121.098 111.368 121.669 111.368C122.24 111.368 122.66 111.761 122.66 112.332C122.66 112.411 122.649 112.476 122.649 112.476H120.932C120.932 112.551 121.072 113.069 121.677 113.069C122.115 113.069 122.286 112.789 122.286 112.789H122.569C122.569 112.789 122.35 113.296 121.677 113.296ZM120.924 112.256H122.414C122.414 112.018 122.191 111.595 121.669 111.595C121.147 111.595 120.924 112.018 120.924 112.256ZM123.258 113.296C123.164 113.296 123.096 113.236 123.096 113.141C123.096 113.047 123.164 112.986 123.258 112.986C123.353 112.986 123.421 113.047 123.421 113.141C123.421 113.236 123.353 113.296 123.258 113.296ZM124.705 113.296C124.236 113.296 123.835 113.141 123.835 112.752C123.835 112.366 124.236 112.2 124.69 112.2C125.132 112.2 125.389 112.392 125.389 112.392V112.052C125.389 111.734 125.106 111.587 124.788 111.587C124.452 111.587 124.168 111.746 124.168 111.946H123.934C123.941 111.678 124.202 111.368 124.781 111.368C125.223 111.368 125.624 111.579 125.624 112.052V112.835C125.624 113.016 125.677 113.077 125.805 113.077C125.885 113.077 125.919 113.054 125.919 113.054V113.258C125.919 113.258 125.87 113.285 125.767 113.285C125.465 113.285 125.42 113.062 125.42 113.062H125.408C125.408 113.062 125.178 113.296 124.705 113.296ZM124.735 113.077C125.166 113.077 125.382 112.873 125.389 112.865V112.604C125.382 112.593 125.17 112.419 124.735 112.419C124.399 112.419 124.077 112.498 124.077 112.752C124.077 113.001 124.399 113.077 124.735 113.077ZM127.211 113.296C126.659 113.296 126.24 112.903 126.24 112.332C126.24 111.761 126.659 111.368 127.211 111.368C127.763 111.368 127.96 111.723 127.964 111.723H127.979V110.611H128.213V113.258H127.979V112.941H127.964C127.96 112.941 127.763 113.296 127.211 113.296ZM127.23 113.069C127.669 113.069 127.979 112.767 127.979 112.332C127.979 111.897 127.669 111.595 127.23 111.595C126.78 111.595 126.482 111.92 126.482 112.332C126.482 112.744 126.78 113.069 127.23 113.069ZM129.631 113.296C129.162 113.296 128.761 113.141 128.761 112.752C128.761 112.366 129.162 112.2 129.616 112.2C130.058 112.2 130.315 112.392 130.315 112.392V112.052C130.315 111.734 130.032 111.587 129.714 111.587C129.378 111.587 129.094 111.746 129.094 111.946H128.86C128.867 111.678 129.128 111.368 129.707 111.368C130.149 111.368 130.55 111.579 130.55 112.052V112.835C130.55 113.016 130.603 113.077 130.731 113.077C130.811 113.077 130.845 113.054 130.845 113.054V113.258C130.845 113.258 130.796 113.285 130.693 113.285C130.391 113.285 130.346 113.062 130.346 113.062H130.334C130.334 113.062 130.104 113.296 129.631 113.296ZM129.661 113.077C130.092 113.077 130.308 112.873 130.315 112.865V112.604C130.308 112.593 130.096 112.419 129.661 112.419C129.325 112.419 129.003 112.498 129.003 112.752C129.003 113.001 129.325 113.077 129.661 113.077ZM131.241 113.258V111.405H131.476V111.678H131.487C131.487 111.678 131.589 111.368 132.062 111.368C132.504 111.368 132.64 111.75 132.64 111.75H132.655C132.655 111.75 132.792 111.368 133.31 111.368C133.771 111.368 134.054 111.636 134.054 112.211V113.258H133.82V112.256C133.82 111.787 133.631 111.583 133.294 111.583C132.935 111.583 132.765 111.84 132.765 112.245V113.258H132.531V112.241C132.531 111.825 132.364 111.583 132.001 111.583C131.642 111.583 131.476 111.84 131.476 112.245V113.258H131.241ZM135.477 113.296C135.012 113.296 134.603 113.115 134.603 112.665V112.593H134.838V112.665C134.838 112.944 135.091 113.077 135.477 113.077C135.855 113.077 136.116 112.986 136.116 112.74C136.116 112.211 134.649 112.684 134.649 111.905C134.649 111.542 135 111.368 135.466 111.368C135.931 111.368 136.286 111.553 136.286 111.976H136.052C136.052 111.719 135.851 111.587 135.466 111.587C135.076 111.587 134.883 111.704 134.883 111.905C134.883 112.411 136.35 111.961 136.35 112.74C136.35 113.152 135.942 113.296 135.477 113.296ZM138.422 113.924C137.48 113.924 136.86 113.258 136.86 112.287C136.86 111.311 137.503 110.634 138.448 110.634C139.458 110.634 140.04 111.319 140.04 112.271C140.04 112.895 139.76 113.103 139.473 113.103C139.068 113.103 139.015 112.774 139.015 112.774H139.004C139.004 112.774 138.864 113.103 138.41 113.103C137.949 113.103 137.65 112.759 137.65 112.302C137.65 111.833 137.968 111.5 138.388 111.5C138.804 111.5 138.94 111.765 138.94 111.765H138.951V111.538H139.186V112.574C139.186 112.786 139.299 112.884 139.473 112.884C139.768 112.861 139.806 112.615 139.806 112.271C139.806 111.424 139.322 110.853 138.448 110.853C137.601 110.853 137.094 111.466 137.094 112.287C137.094 113.084 137.601 113.704 138.422 113.704C138.838 113.704 139.057 113.568 139.057 113.568L139.144 113.761C139.144 113.761 138.875 113.924 138.422 113.924ZM138.41 112.884C138.751 112.884 138.951 112.627 138.951 112.302C138.951 111.98 138.754 111.719 138.41 111.719C138.07 111.719 137.885 111.98 137.885 112.302C137.885 112.627 138.07 112.884 138.41 112.884ZM141.324 114.052C140.783 114.052 140.417 113.844 140.417 113.5C140.417 113.156 140.81 113.028 140.81 113.028V113.02C140.81 113.02 140.583 112.967 140.583 112.759C140.583 112.559 140.848 112.483 140.848 112.483V112.476C140.848 112.476 140.526 112.366 140.523 111.976C140.523 111.583 140.859 111.368 141.324 111.368H142.345V111.595H141.941V111.606C141.941 111.606 142.122 111.697 142.122 111.976C142.122 112.366 141.785 112.578 141.324 112.578C141.078 112.578 140.825 112.615 140.825 112.759C140.825 112.892 141.056 112.948 141.324 112.948C141.861 112.948 142.232 113.168 142.232 113.5C142.232 113.844 141.861 114.052 141.324 114.052ZM141.324 113.825C141.721 113.825 141.99 113.701 141.99 113.5C141.99 113.307 141.721 113.175 141.324 113.175C140.912 113.175 140.659 113.311 140.659 113.5C140.659 113.701 140.923 113.825 141.324 113.825ZM141.324 112.351C141.646 112.351 141.88 112.23 141.88 111.976C141.88 111.723 141.646 111.595 141.324 111.595C140.999 111.595 140.765 111.723 140.765 111.976C140.765 112.226 140.991 112.351 141.324 112.351ZM142.762 113.258V111.405H142.997V111.678H143.008C143.008 111.678 143.11 111.368 143.583 111.368C144.025 111.368 144.161 111.75 144.161 111.75H144.176C144.176 111.75 144.313 111.368 144.831 111.368C145.292 111.368 145.575 111.636 145.575 112.211V113.258H145.341V112.256C145.341 111.787 145.152 111.583 144.815 111.583C144.456 111.583 144.286 111.84 144.286 112.245V113.258H144.052V112.241C144.052 111.825 143.885 111.583 143.522 111.583C143.163 111.583 142.997 111.84 142.997 112.245V113.258H142.762ZM146.975 113.296C146.506 113.296 146.106 113.141 146.106 112.752C146.106 112.366 146.506 112.2 146.96 112.2C147.403 112.2 147.66 112.392 147.66 112.392V112.052C147.66 111.734 147.376 111.587 147.058 111.587C146.722 111.587 146.438 111.746 146.438 111.946H146.204C146.211 111.678 146.472 111.368 147.051 111.368C147.493 111.368 147.894 111.579 147.894 112.052V112.835C147.894 113.016 147.947 113.077 148.076 113.077C148.155 113.077 148.189 113.054 148.189 113.054V113.258C148.189 113.258 148.14 113.285 148.038 113.285C147.735 113.285 147.69 113.062 147.69 113.062H147.679C147.679 113.062 147.448 113.296 146.975 113.296ZM147.005 113.077C147.437 113.077 147.652 112.873 147.66 112.865V112.604C147.652 112.593 147.44 112.419 147.005 112.419C146.669 112.419 146.348 112.498 146.348 112.752C146.348 113.001 146.669 113.077 147.005 113.077ZM148.586 113.258V111.405H148.82V113.258H148.586ZM148.703 110.861C148.608 110.861 148.548 110.8 148.548 110.717C148.548 110.634 148.608 110.574 148.703 110.574C148.797 110.574 148.858 110.634 148.858 110.717C148.858 110.8 148.797 110.861 148.703 110.861ZM149.464 113.258V110.611H149.699V113.258H149.464ZM150.373 113.296C150.279 113.296 150.211 113.236 150.211 113.141C150.211 113.047 150.279 112.986 150.373 112.986C150.468 112.986 150.536 113.047 150.536 113.141C150.536 113.236 150.468 113.296 150.373 113.296ZM151.952 113.296C151.381 113.296 150.969 112.903 150.969 112.332C150.969 111.761 151.381 111.368 151.952 111.368C152.644 111.368 152.92 111.916 152.92 112.124H152.675C152.675 112.048 152.501 111.595 151.952 111.595C151.502 111.595 151.211 111.92 151.211 112.332C151.211 112.744 151.502 113.069 151.952 113.069C152.501 113.069 152.675 112.615 152.675 112.54H152.92C152.92 112.748 152.644 113.296 151.952 113.296ZM154.382 113.296C153.811 113.296 153.392 112.903 153.392 112.332C153.392 111.761 153.811 111.368 154.382 111.368C154.953 111.368 155.373 111.761 155.373 112.332C155.373 112.903 154.953 113.296 154.382 113.296ZM154.382 113.069C154.832 113.069 155.131 112.744 155.131 112.332C155.131 111.92 154.832 111.595 154.382 111.595C153.932 111.595 153.634 111.92 153.634 112.332C153.634 112.744 153.932 113.069 154.382 113.069ZM155.941 113.258V111.405H156.176V111.678H156.187C156.187 111.678 156.289 111.368 156.762 111.368C157.204 111.368 157.34 111.75 157.34 111.75H157.355C157.355 111.75 157.492 111.368 158.01 111.368C158.471 111.368 158.755 111.636 158.755 112.211V113.258H158.52V112.256C158.52 111.787 158.331 111.583 157.994 111.583C157.635 111.583 157.465 111.84 157.465 112.245V113.258H157.231V112.241C157.231 111.825 157.064 111.583 156.701 111.583C156.342 111.583 156.176 111.84 156.176 112.245V113.258H155.941Z" fill="#221C46"/>
<g clip-path="url(#clip4_3661_2874)">
<rect x="217.97" y="107.958" width="21.0333" height="7.32619" fill="white" stroke="#E5E3EA" stroke-width="0.236329"/>
<path d="M220.374 112.258V110.213L219.875 110.656V110.395L220.377 109.942H220.592V112.258H220.374ZM222.109 112.291C221.448 112.291 221.223 111.877 221.223 111.609H221.441C221.441 111.775 221.586 112.092 222.109 112.092C222.506 112.092 222.781 111.887 222.781 111.507C222.781 111.126 222.506 110.921 222.099 110.921C221.577 110.921 221.464 111.245 221.464 111.245H221.246V109.942H222.84V110.14H221.464V110.948H221.471C221.471 110.948 221.646 110.723 222.119 110.723C222.629 110.723 222.999 111.014 222.999 111.507C222.999 112 222.632 112.291 222.109 112.291ZM224.467 112.291C223.808 112.291 223.428 111.765 223.428 111.1C223.428 110.435 223.808 109.909 224.467 109.909C225.125 109.909 225.506 110.435 225.506 111.1C225.506 111.765 225.125 112.291 224.467 112.291ZM224.467 112.086C224.993 112.086 225.281 111.646 225.281 111.1C225.281 110.554 224.993 110.114 224.467 110.114C223.941 110.114 223.653 110.554 223.653 111.1C223.653 111.646 223.941 112.086 224.467 112.086Z" fill="#221C46"/>
</g>
<mask id="path-14-inside-3_3661_2874" fill="white">
<path d="M30.6797 119.184H274.571V134.309H30.6797V119.184Z"/>
</mask>
<path d="M274.571 134.309V134.073H30.6797V134.309V134.545H274.571V134.309Z" fill="#E5E3EA" mask="url(#path-14-inside-3_3661_2874)"/>
<rect x="35.7207" y="124.226" width="5.04168" height="5.04168" rx="0.945315" fill="white"/>
<rect x="35.8389" y="124.344" width="4.80535" height="4.80535" stroke="#E5E3EA" stroke-width="0.236329"/>
<g clip-path="url(#clip5_3661_2874)">
<rect x="51.4766" y="125.997" width="30.7332" height="1.49918" fill="#F0EEF5"/>
</g>
<g clip-path="url(#clip6_3661_2874)">
<rect x="113.867" y="125.997" width="48.7233" height="1.49918" fill="#F0EEF5"/>
</g>
<g clip-path="url(#clip7_3661_2874)">
<rect x="217.97" y="123.083" width="21.0333" height="7.32619" fill="white" stroke="#E5E3EA" stroke-width="0.236329"/>
<rect x="220.016" y="126.226" width="8.99507" height="1.49918" fill="#F0EEF5"/>
</g>
<mask id="path-22-inside-4_3661_2874" fill="white">
<path d="M30.6797 134.309H274.571V149.434H30.6797V134.309Z"/>
</mask>
<path d="M274.571 149.434V149.198H30.6797V149.434V149.67H274.571V149.434Z" fill="#E5E3EA" mask="url(#path-22-inside-4_3661_2874)"/>
<rect x="35.7207" y="139.351" width="5.04168" height="5.04168" rx="0.945315" fill="white"/>
<rect x="35.8389" y="139.469" width="4.80535" height="4.80535" stroke="#E5E3EA" stroke-width="0.236329"/>
<rect x="51.4766" y="141.122" width="29.9836" height="1.49918" fill="#F0EEF5"/>
<rect x="113.867" y="141.122" width="48.7233" height="1.49918" fill="#F0EEF5"/>
<g clip-path="url(#clip8_3661_2874)">
<rect x="217.97" y="138.208" width="21.0333" height="7.32619" fill="white" stroke="#E5E3EA" stroke-width="0.236329"/>
<rect x="220.016" y="141.35" width="8.99507" height="1.49918" fill="#F0EEF5"/>
</g>
<mask id="path-30-inside-5_3661_2874" fill="white">
<path d="M30.6797 149.434H274.571V164.559H30.6797V149.434Z"/>
</mask>
<path d="M274.571 164.559V164.323H30.6797V164.559V164.795H274.571V164.559Z" fill="#E5E3EA" mask="url(#path-30-inside-5_3661_2874)"/>
</g>
<path d="M274.571 179.684V179.921H274.807V179.684H274.571ZM30.6797 179.684H30.4434V179.921H30.6797V179.684ZM274.571 104.059H274.335V179.684H274.571H274.807V104.059H274.571ZM274.571 179.684V179.448H30.6797V179.684V179.921H274.571V179.684ZM30.6797 179.684H30.916V104.059H30.6797H30.4434V179.684H30.6797Z" fill="#E5E3EA" mask="url(#path-3-inside-1_3661_2874)"/>
<g clip-path="url(#clip9_3661_2874)">
<mask id="path-32-inside-6_3661_2874" fill="white">
<path d="M30.6797 90.8237H274.571V104.058H30.6797V90.8237Z"/>
</mask>
<path d="M30.6797 90.8237H274.571V104.058H30.6797V90.8237Z" fill="#FAF8FF"/>
<rect x="35.7207" y="94.9199" width="5.04168" height="5.04168" rx="0.945315" fill="white"/>
<rect x="35.8389" y="95.0381" width="4.80535" height="4.80535" stroke="#E5E3EA" stroke-width="0.236329"/>
<g clip-path="url(#clip10_3661_2874)">
<path d="M51.8169 97.9409V95.294H52.3463L53.768 97.5439H53.7794V95.294H54.1348V97.9409H53.6054L52.1837 95.6911H52.1723V97.9409H51.8169ZM55.7001 97.9787C55.1178 97.9787 54.683 97.6044 54.683 97.0145C54.683 96.4246 55.1178 96.0503 55.7001 96.0503C56.2824 96.0503 56.7173 96.4246 56.7173 97.0145C56.7173 97.6044 56.2824 97.9787 55.7001 97.9787ZM55.7001 97.6762C56.1236 97.6762 56.3845 97.3926 56.3845 97.0145C56.3845 96.6364 56.1236 96.3528 55.7001 96.3528C55.2766 96.3528 55.0157 96.6364 55.0157 97.0145C55.0157 97.3926 55.2766 97.6762 55.7001 97.6762ZM57.2105 97.9409V96.0881H57.5357V96.3717H57.5546C57.5546 96.3717 57.6302 96.0503 58.1104 96.0503C58.36 96.0503 58.5755 96.1524 58.7003 96.3717H58.723C58.723 96.3717 58.8402 96.0503 59.3204 96.0503C59.8007 96.0503 60.1069 96.3074 60.1069 96.9086V97.9409H59.7817V96.9843C59.7817 96.5305 59.6078 96.3528 59.3015 96.3528C58.9385 96.3528 58.8213 96.6175 58.8213 96.9843V97.9409H58.4961V96.9843C58.4961 96.5305 58.3222 96.3528 58.0159 96.3528C57.6529 96.3528 57.5357 96.6175 57.5357 96.9843V97.9409H57.2105ZM62.5056 97.9749C61.9233 97.9749 61.4885 97.6006 61.4885 97.0107C61.4885 96.4246 61.9233 96.0503 62.5056 96.0503C63.2203 96.0503 63.4888 96.5797 63.4888 96.8065H63.1522C63.1522 96.8065 63.0804 96.3528 62.5056 96.3528C62.0821 96.3528 61.8212 96.6364 61.8212 97.0107C61.8212 97.3889 62.0821 97.6724 62.5056 97.6724C63.0804 97.6724 63.1522 97.2187 63.1522 97.2187H63.4888C63.4888 97.4456 63.2203 97.9749 62.5056 97.9749ZM64.9206 97.9787C64.3383 97.9787 63.9035 97.6044 63.9035 97.0145C63.9035 96.4246 64.3383 96.0503 64.9206 96.0503C65.5029 96.0503 65.9378 96.4246 65.9378 97.0145C65.9378 97.6044 65.5029 97.9787 64.9206 97.9787ZM64.9206 97.6762C65.3441 97.6762 65.605 97.3926 65.605 97.0145C65.605 96.6364 65.3441 96.3528 64.9206 96.3528C64.4971 96.3528 64.2362 96.6364 64.2362 97.0145C64.2362 97.3926 64.4971 97.6762 64.9206 97.6762ZM66.431 97.9409V96.0881H66.7562V96.3717H66.7751C66.7751 96.3717 66.8507 96.0503 67.3309 96.0503C67.5805 96.0503 67.796 96.1524 67.9208 96.3717H67.9435C67.9435 96.3717 68.0607 96.0503 68.5409 96.0503C69.0212 96.0503 69.3275 96.3074 69.3275 96.9086V97.9409H69.0023V96.9843C69.0023 96.5305 68.8283 96.3528 68.522 96.3528C68.159 96.3528 68.0418 96.6175 68.0418 96.9843V97.9409H67.7166V96.9843C67.7166 96.5305 67.5427 96.3528 67.2364 96.3528C66.8734 96.3528 66.7562 96.6175 66.7562 96.9843V97.9409H66.431ZM69.8762 98.6972V96.0881H70.2014V96.3641H70.2166C70.2166 96.3641 70.4245 96.0503 70.9274 96.0503C71.4719 96.0503 71.9106 96.4246 71.9106 97.0145C71.9106 97.6044 71.4719 97.9787 70.9274 97.9787C70.4245 97.9787 70.2166 97.6649 70.2166 97.6649H70.2014V98.6972H69.8762ZM70.8896 97.6762C71.3131 97.6762 71.5778 97.3926 71.5778 97.0145C71.5778 96.6364 71.3131 96.3528 70.8896 96.3528C70.4661 96.3528 70.2014 96.6364 70.2014 97.0145C70.2014 97.404 70.4775 97.6762 70.8896 97.6762ZM72.402 97.9409V95.294H72.7272V97.9409H72.402ZM74.2561 97.9787C73.6548 97.9787 73.22 97.6044 73.22 97.0145C73.22 96.4246 73.6548 96.0503 74.2372 96.0503C74.8195 96.0503 75.2543 96.4246 75.2543 97.0145C75.2543 97.1053 75.243 97.1695 75.243 97.1695H73.5679C73.5679 97.3359 73.7872 97.6762 74.2561 97.6762C74.672 97.6762 74.8195 97.4304 74.8195 97.4304H75.2014C75.2014 97.4304 75.0199 97.9787 74.2561 97.9787ZM73.5641 96.8746H74.9102C74.9102 96.6931 74.6947 96.3528 74.2372 96.3528C73.7796 96.3528 73.5641 96.6931 73.5641 96.8746ZM76.6097 97.9787C76.1937 97.9787 75.9063 97.7556 75.9063 97.2641V96.383H75.5963V96.0881H75.9063V95.6722H76.2315V96.0881H76.9197V96.383H76.2315V97.2225C76.2315 97.5893 76.413 97.6951 76.6475 97.6951C76.863 97.6951 76.9764 97.6082 76.9764 97.6082V97.9031C76.9764 97.9031 76.8328 97.9787 76.6097 97.9787Z" fill="#221C46"/>
</g>
<path d="M114.094 97.9409V97.6233H114.794V95.6117H114.094V95.294H115.849V95.6117H115.149V97.6233H115.849V97.9409H114.094ZM117.152 97.9787C116.608 97.9787 116.169 97.6044 116.169 97.0145C116.169 96.4246 116.608 96.0503 117.152 96.0503C117.655 96.0503 117.863 96.3641 117.863 96.3641H117.878V95.294H118.203V97.9409H117.878V97.6649H117.863C117.863 97.6649 117.655 97.9787 117.152 97.9787ZM117.19 97.6762C117.613 97.6762 117.878 97.3926 117.878 97.0145C117.878 96.625 117.602 96.3528 117.19 96.3528C116.766 96.3528 116.502 96.6364 116.502 97.0145C116.502 97.3926 116.766 97.6762 117.19 97.6762ZM119.731 97.9787C119.129 97.9787 118.695 97.6044 118.695 97.0145C118.695 96.4246 119.129 96.0503 119.712 96.0503C120.294 96.0503 120.729 96.4246 120.729 97.0145C120.729 97.1053 120.718 97.1695 120.718 97.1695H119.043C119.043 97.3359 119.262 97.6762 119.731 97.6762C120.147 97.6762 120.294 97.4304 120.294 97.4304H120.676C120.676 97.4304 120.495 97.9787 119.731 97.9787ZM119.039 96.8746H120.385C120.385 96.6931 120.169 96.3528 119.712 96.3528C119.254 96.3528 119.039 96.6931 119.039 96.8746ZM121.222 97.9409V96.0881H121.547V96.3717H121.566C121.566 96.3717 121.729 96.0503 122.247 96.0503C122.689 96.0503 123.083 96.3074 123.083 96.9086V97.9409H122.757V96.9843C122.757 96.5305 122.496 96.3528 122.152 96.3528C121.752 96.3528 121.547 96.6175 121.547 96.9843V97.9409H121.222ZM124.492 97.9787C124.076 97.9787 123.789 97.7556 123.789 97.2641V96.383H123.479V96.0881H123.789V95.6722H124.114V96.0881H124.802V96.383H124.114V97.2225C124.114 97.5893 124.295 97.6951 124.53 97.6951C124.745 97.6951 124.859 97.6082 124.859 97.6082V97.9031C124.859 97.9031 124.715 97.9787 124.492 97.9787ZM125.273 97.9409V96.0881H125.598V97.9409H125.273ZM125.436 95.6192C125.315 95.6192 125.235 95.5436 125.235 95.4377C125.235 95.3318 125.315 95.2562 125.436 95.2562C125.557 95.2562 125.636 95.3318 125.636 95.4377C125.636 95.5436 125.557 95.6192 125.436 95.6192ZM126.307 97.9409V96.383H125.996V96.2015L126.307 96.0881V95.9709C126.307 95.4793 126.609 95.2562 127.04 95.2562C127.501 95.2562 127.774 95.5247 127.774 95.899H127.448C127.448 95.899 127.452 95.5398 127.051 95.5398C126.809 95.5398 126.632 95.657 126.632 96.0125V96.0881H127.774V97.9409H127.448V96.383H126.632V97.9409H126.307ZM129.151 97.9787C128.671 97.9787 128.266 97.8313 128.266 97.4229C128.266 97.0221 128.671 96.867 129.124 96.867C129.548 96.867 129.79 97.0485 129.79 97.0485V96.7574C129.79 96.5343 129.639 96.3528 129.234 96.3528C128.856 96.3528 128.678 96.47 128.678 96.6553H128.353C128.36 96.2204 128.761 96.0503 129.234 96.0503C129.733 96.0503 130.107 96.2847 130.115 96.7574V97.4304C130.115 97.6309 130.168 97.68 130.274 97.68C130.349 97.68 130.38 97.6573 130.38 97.6573V97.9485C130.38 97.9485 130.323 97.9787 130.213 97.9787C129.892 97.9787 129.828 97.7519 129.828 97.7519H129.812C129.812 97.7519 129.631 97.9787 129.151 97.9787ZM129.2 97.6762C129.597 97.6762 129.775 97.5401 129.79 97.525V97.3132C129.775 97.2981 129.597 97.1695 129.2 97.1695C128.901 97.1695 128.599 97.2149 128.599 97.4229C128.599 97.6309 128.901 97.6762 129.2 97.6762ZM130.738 97.9409V96.0881H131.063V96.3717H131.082C131.082 96.3717 131.245 96.0503 131.763 96.0503C132.205 96.0503 132.598 96.3074 132.598 96.9086V97.9409H132.273V96.9843C132.273 96.5305 132.012 96.3528 131.668 96.3528C131.267 96.3528 131.063 96.6175 131.063 96.9843V97.9409H130.738ZM134.008 97.9787C133.592 97.9787 133.305 97.7556 133.305 97.2641V96.383H132.994V96.0881H133.305V95.6722H133.63V96.0881H134.318V96.383H133.63V97.2225C133.63 97.5893 133.811 97.6951 134.046 97.6951C134.261 97.6951 134.375 97.6082 134.375 97.6082V97.9031C134.375 97.9031 134.231 97.9787 134.008 97.9787Z" fill="#221C46"/>
<g clip-path="url(#clip11_3661_2874)">
<path d="M218.192 97.9409V95.294H218.736L219.557 96.9011H219.572L220.393 95.294H220.937V97.9409H220.582V95.71H220.567L219.788 97.2338H219.341L218.562 95.71H218.547V97.9409H218.192ZM222.503 97.9787C221.921 97.9787 221.486 97.6044 221.486 97.0145C221.486 96.4246 221.921 96.0503 222.503 96.0503C223.086 96.0503 223.521 96.4246 223.521 97.0145C223.521 97.6044 223.086 97.9787 222.503 97.9787ZM222.503 97.6762C222.927 97.6762 223.188 97.3926 223.188 97.0145C223.188 96.6364 222.927 96.3528 222.503 96.3528C222.08 96.3528 221.819 96.6364 221.819 97.0145C221.819 97.3926 222.08 97.6762 222.503 97.6762ZM224.014 97.9409V96.0881H224.339V96.3717H224.358C224.358 96.3717 224.521 96.0503 225.039 96.0503C225.481 96.0503 225.874 96.3074 225.874 96.9086V97.9409H225.549V96.9843C225.549 96.5305 225.288 96.3528 224.944 96.3528C224.543 96.3528 224.339 96.6175 224.339 96.9843V97.9409H224.014ZM227.284 97.9787C226.868 97.9787 226.58 97.7556 226.58 97.2641V96.383H226.27V96.0881H226.58V95.6722H226.905V96.0881H227.594V96.383H226.905V97.2225C226.905 97.5893 227.087 97.6951 227.321 97.6951C227.537 97.6951 227.65 97.6082 227.65 97.6082V97.9031C227.65 97.9031 227.507 97.9787 227.284 97.9787ZM228.8 97.9787C228.32 97.9787 227.915 97.8313 227.915 97.4229C227.915 97.0221 228.32 96.867 228.774 96.867C229.197 96.867 229.439 97.0485 229.439 97.0485V96.7574C229.439 96.5343 229.288 96.3528 228.883 96.3528C228.505 96.3528 228.327 96.47 228.327 96.6553H228.002C228.01 96.2204 228.411 96.0503 228.883 96.0503C229.382 96.0503 229.757 96.2847 229.764 96.7574V97.4304C229.764 97.6309 229.817 97.68 229.923 97.68C229.999 97.68 230.029 97.6573 230.029 97.6573V97.9485C230.029 97.9485 229.972 97.9787 229.863 97.9787C229.541 97.9787 229.477 97.7519 229.477 97.7519H229.462C229.462 97.7519 229.28 97.9787 228.8 97.9787ZM228.849 97.6762C229.246 97.6762 229.424 97.5401 229.439 97.525V97.3132C229.424 97.2981 229.246 97.1695 228.849 97.1695C228.55 97.1695 228.248 97.2149 228.248 97.4229C228.248 97.6309 228.55 97.6762 228.849 97.6762ZM230.387 97.9409V96.0881H230.713V96.3717H230.731C230.731 96.3717 230.894 96.0503 231.412 96.0503C231.854 96.0503 232.248 96.3074 232.248 96.9086V97.9409H231.923V96.9843C231.923 96.5305 231.662 96.3528 231.318 96.3528C230.917 96.3528 230.713 96.6175 230.713 96.9843V97.9409H230.387ZM233.657 97.9787C233.241 97.9787 232.954 97.7556 232.954 97.2641V96.383H232.644V96.0881H232.954V95.6722H233.279V96.0881H233.967V96.383H233.279V97.2225C233.279 97.5893 233.46 97.6951 233.695 97.6951C233.91 97.6951 234.024 97.6082 234.024 97.6082V97.9031C234.024 97.9031 233.88 97.9787 233.657 97.9787Z" fill="#221C46"/>
</g>
</g>
<path d="M30.6797 90.8237V90.5874H30.4434V90.8237H30.6797ZM274.571 90.8237H274.807V90.5874H274.571V90.8237ZM30.6797 90.8237V91.0601H274.571V90.8237V90.5874H30.6797V90.8237ZM274.571 90.8237H274.335V104.058H274.571H274.807V90.8237H274.571ZM30.6797 104.058H30.916V90.8237H30.6797H30.4434V104.058H30.6797Z" fill="#E5E3EA" mask="url(#path-32-inside-6_3661_2874)"/>
</g>
<g filter="url(#filter0_d_3661_2874)">
<rect x="21.7812" y="7.62109" width="271.12" height="37.84" fill="white" shape-rendering="crispEdges"/>
<rect x="22.0312" y="7.87109" width="270.62" height="37.34" stroke="#E5E3EA" stroke-width="0.5" shape-rendering="crispEdges"/>
<rect x="34.0352" y="19.8745" width="13.3333" height="13.3333" rx="6.66667" fill="#01AD43"/>
<path fill-rule="evenodd" clip-rule="evenodd" d="M37.3691 27.5888L38.168 26.7317L39.4993 28.1602L43.4934 23.8745L44.2922 24.7317L39.4993 29.8745L37.3691 27.5888V27.5888Z" fill="white"/>
<path d="M58.465 28.541L56.1249 21.8H57.7235L59.4473 27.0195H59.5821L61.3059 21.8H62.9044L60.5643 28.541H58.465ZM65.5822 28.6373C63.9932 28.6373 62.8376 27.7321 62.8376 26.1335C62.8376 24.5349 63.9932 23.6297 65.5822 23.6297C67.1711 23.6297 68.3267 24.5349 68.3267 26.1335C68.3267 27.7321 67.1711 28.6373 65.5822 28.6373ZM65.5822 27.4432C66.4296 27.4432 66.9015 26.875 66.9015 26.1335C66.9015 25.392 66.4296 24.8238 65.5822 24.8238C64.7347 24.8238 64.2629 25.392 64.2629 26.1335C64.2629 26.875 64.7347 27.4432 65.5822 27.4432ZM71.8602 28.6373C70.4831 28.6373 69.732 28.0691 69.732 26.7209V24.8431H69.029V24.0438L70.3675 22.763H71.1187V23.726H72.621V24.8431H71.1187V26.538C71.1187 27.3084 71.5231 27.4817 72.0624 27.4817C72.4958 27.4817 72.7654 27.3084 72.7654 27.3084V28.464C72.7654 28.464 72.4091 28.6373 71.8602 28.6373ZM73.8067 28.541V23.726H75.1934V24.612H75.2704C75.2704 24.612 75.646 23.6297 76.946 23.6297C77.1772 23.6297 77.4275 23.6779 77.4275 23.6779V25.209C77.4275 25.209 77.1194 25.0646 76.5897 25.0646C75.6556 25.0646 75.1934 25.6616 75.1934 26.4128V28.541H73.8067ZM80.8068 28.6373C79.1986 28.6373 78.043 27.7417 78.043 26.1335C78.043 24.5253 79.1986 23.6297 80.7876 23.6297C82.3669 23.6297 83.5225 24.5253 83.5225 26.1335C83.5225 26.3069 83.4936 26.4995 83.4936 26.4995H79.4972C79.4972 27.0291 79.9209 27.5588 80.8068 27.5588C81.6254 27.5588 81.8854 27.0773 81.8854 27.0773H83.4069C83.4069 27.0773 83.118 28.6373 80.8068 28.6373ZM79.5164 25.652H82.0491C82.0491 25.2668 81.6735 24.7083 80.7876 24.7083C79.9209 24.7083 79.5164 25.2668 79.5164 25.652ZM89.1374 28.6373C87.8662 28.6373 86.8069 27.7321 86.8069 26.1335C86.8069 24.5349 87.8662 23.6297 89.1374 23.6297C90.3508 23.6297 90.8515 24.3134 90.8515 24.3134H90.9093V21.8H92.296V28.541H90.9093V27.7514H90.8419C90.8419 27.7514 90.3893 28.6373 89.1374 28.6373ZM89.5707 27.4047C90.4085 27.4047 90.9093 26.8558 90.9093 26.1335C90.9093 25.3824 90.3797 24.8624 89.5707 24.8624C88.7329 24.8624 88.2322 25.4113 88.2322 26.1335C88.2322 26.8558 88.7329 27.4047 89.5707 27.4047ZM93.6291 28.541V23.726H95.0158V28.541H93.6291ZM94.3225 22.9749C93.8506 22.9749 93.5521 22.7245 93.5521 22.3393C93.5521 21.9541 93.8506 21.7037 94.3225 21.7037C94.7943 21.7037 95.0929 21.9541 95.0929 22.3393C95.0929 22.7245 94.7943 22.9749 94.3225 22.9749ZM98.5614 28.6373C97.0591 28.6373 96.0576 28.204 96.0576 27.0002V26.8461H97.4828V27.0002C97.4828 27.4432 97.8199 27.6069 98.5614 27.6069C99.3414 27.6069 99.6592 27.4432 99.6592 27.1158C99.6592 26.1913 96.1539 27.1736 96.1539 25.0935C96.1539 24.1208 97.0687 23.6297 98.5036 23.6297C99.9577 23.6297 100.863 24.1112 100.863 25.2187H99.4377C99.4377 24.9875 99.4088 24.6601 98.4747 24.6601C97.8103 24.6601 97.5791 24.8527 97.5791 25.1031C97.5791 25.912 101.084 24.9875 101.084 27.0965C101.084 28.204 100.083 28.6373 98.5614 28.6373ZM104.33 28.6373C102.953 28.6373 102.202 28.0691 102.202 26.7209V24.8431H101.499V24.0438L102.837 22.763H103.589V23.726H105.091V24.8431H103.589V26.538C103.589 27.3084 103.993 27.4817 104.532 27.4817C104.966 27.4817 105.235 27.3084 105.235 27.3084V28.464C105.235 28.464 104.879 28.6373 104.33 28.6373ZM106.277 28.541V23.726H107.663V24.612H107.74C107.74 24.612 108.116 23.6297 109.416 23.6297C109.647 23.6297 109.897 23.6779 109.897 23.6779V25.209C109.897 25.209 109.589 25.0646 109.06 25.0646C108.125 25.0646 107.663 25.6616 107.663 26.4128V28.541H106.277ZM110.894 28.541V23.726H112.28V28.541H110.894ZM111.587 22.9749C111.115 22.9749 110.817 22.7245 110.817 22.3393C110.817 21.9541 111.115 21.7037 111.587 21.7037C112.059 21.7037 112.357 21.9541 112.357 22.3393C112.357 22.7245 112.059 22.9749 111.587 22.9749ZM116.77 28.6373C115.518 28.6373 115.065 27.7514 115.065 27.7514H114.998V28.541H113.611V21.8H114.998V24.3134H115.055C115.055 24.3134 115.556 23.6297 116.77 23.6297C118.041 23.6297 119.1 24.5349 119.1 26.1335C119.1 27.7321 118.041 28.6373 116.77 28.6373ZM116.336 27.4047C117.174 27.4047 117.675 26.8558 117.675 26.1335C117.675 25.4113 117.174 24.8624 116.336 24.8624C115.527 24.8624 114.998 25.3824 114.998 26.1335C114.998 26.8558 115.498 27.4047 116.336 27.4047ZM122.263 28.6373C121.127 28.6373 120.241 28.0017 120.241 26.538V23.726H121.627V26.1528C121.627 26.9906 122.118 27.4047 122.85 27.4047C123.659 27.4047 124.073 26.875 124.073 26.1528V23.726H125.46V28.541H124.073V27.7417H123.996C123.996 27.7417 123.621 28.6373 122.263 28.6373ZM129.183 28.6373C127.806 28.6373 127.055 28.0691 127.055 26.7209V24.8431H126.352V24.0438L127.691 22.763H128.442V23.726H129.944V24.8431H128.442V26.538C128.442 27.3084 128.846 27.4817 129.386 27.4817C129.819 27.4817 130.089 27.3084 130.089 27.3084V28.464C130.089 28.464 129.732 28.6373 129.183 28.6373ZM131.13 28.541V23.726H132.517V28.541H131.13ZM131.823 22.9749C131.351 22.9749 131.053 22.7245 131.053 22.3393C131.053 21.9541 131.351 21.7037 131.823 21.7037C132.295 21.7037 132.594 21.9541 132.594 22.3393C132.594 22.7245 132.295 22.9749 131.823 22.9749ZM136.399 28.6373C134.81 28.6373 133.655 27.7321 133.655 26.1335C133.655 24.5349 134.81 23.6297 136.399 23.6297C137.988 23.6297 139.144 24.5349 139.144 26.1335C139.144 27.7321 137.988 28.6373 136.399 28.6373ZM136.399 27.4432C137.247 27.4432 137.718 26.875 137.718 26.1335C137.718 25.392 137.247 24.8238 136.399 24.8238C135.552 24.8238 135.08 25.392 135.08 26.1335C135.08 26.875 135.552 27.4432 136.399 27.4432ZM140.279 28.541V23.726H141.666V24.5253H141.743C141.743 24.5253 142.119 23.6297 143.476 23.6297C144.613 23.6297 145.499 24.2653 145.499 25.7291V28.541H144.112V26.1143C144.112 25.2764 143.621 24.8624 142.889 24.8624C142.08 24.8624 141.666 25.392 141.666 26.1143V28.541H140.279ZM151.256 28.6373C149.985 28.6373 148.926 27.7321 148.926 26.1335C148.926 24.5349 149.985 23.6297 151.256 23.6297C152.47 23.6297 152.97 24.3134 152.97 24.3134H153.028V21.8H154.415V28.541H153.028V27.7514H152.961C152.961 27.7514 152.508 28.6373 151.256 28.6373ZM151.69 27.4047C152.527 27.4047 153.028 26.8558 153.028 26.1335C153.028 25.3824 152.499 24.8624 151.69 24.8624C150.852 24.8624 150.351 25.4113 150.351 26.1335C150.351 26.8558 150.852 27.4047 151.69 27.4047ZM158.319 28.6373C156.711 28.6373 155.555 27.7417 155.555 26.1335C155.555 24.5253 156.711 23.6297 158.3 23.6297C159.879 23.6297 161.035 24.5253 161.035 26.1335C161.035 26.3069 161.006 26.4995 161.006 26.4995H157.01C157.01 27.0291 157.433 27.5588 158.319 27.5588C159.138 27.5588 159.398 27.0773 159.398 27.0773H160.919C160.919 27.0773 160.63 28.6373 158.319 28.6373ZM157.029 25.652H159.562C159.562 25.2668 159.186 24.7083 158.3 24.7083C157.433 24.7083 157.029 25.2668 157.029 25.652ZM165.494 28.541V24.0823H164.127V23.1386L165.725 21.8H167.016V28.541H165.494ZM173.673 28.6373C171.843 28.6373 170.832 27.838 170.832 26.5187H172.353C172.353 26.8943 172.681 27.3565 173.673 27.3565C174.53 27.3565 175.002 26.9713 175.002 26.278C175.002 25.5268 174.462 25.1994 173.653 25.1994C172.536 25.1994 172.363 25.7483 172.363 25.7483H170.832V21.8H176.061V23.0327H172.353V24.4386H172.382C172.382 24.4386 172.71 24.0245 173.942 24.0245C175.454 24.0245 176.523 24.7757 176.523 26.278C176.523 27.7899 175.483 28.6373 173.673 28.6373ZM180.768 28.6373C178.736 28.6373 177.561 27.2121 177.561 25.1705C177.561 23.129 178.736 21.7037 180.768 21.7037C182.8 21.7037 183.975 23.129 183.975 25.1705C183.975 27.2121 182.8 28.6373 180.768 28.6373ZM180.768 27.2891C181.837 27.2891 182.386 26.3839 182.386 25.1705C182.386 23.9571 181.837 23.0519 180.768 23.0519C179.699 23.0519 179.15 23.9571 179.15 25.1705C179.15 26.3839 179.699 27.2891 180.768 27.2891ZM188.319 28.6373C186.288 28.6373 185.113 27.2121 185.113 25.1705C185.113 23.129 186.288 21.7037 188.319 21.7037C190.351 21.7037 191.526 23.129 191.526 25.1705C191.526 27.2121 190.351 28.6373 188.319 28.6373ZM188.319 27.2891C189.388 27.2891 189.937 26.3839 189.937 25.1705C189.937 23.9571 189.388 23.0519 188.319 23.0519C187.251 23.0519 186.702 23.9571 186.702 25.1705C186.702 26.3839 187.251 27.2891 188.319 27.2891ZM198.838 28.6373C195.92 28.6373 195.477 26.2876 195.477 26.2876H194.668V25.4594H195.352C195.352 25.4594 195.342 25.3631 195.342 25.1705C195.342 24.9779 195.352 24.8816 195.352 24.8816H194.668V24.0534H195.477C195.477 24.0534 195.93 21.7037 198.838 21.7037C200.928 21.7037 202.256 22.9171 202.256 24.4772H200.629C200.629 24.4772 200.475 23.0519 198.838 23.0519C197.557 23.0519 197.162 24.0534 197.162 24.0534H199.002V24.8816H196.941C196.941 24.8816 196.931 24.9779 196.931 25.1705C196.931 25.3727 196.941 25.4594 196.941 25.4594H199.002V26.2876H197.162C197.162 26.2876 197.547 27.2891 198.838 27.2891C200.475 27.2891 200.629 25.8639 200.629 25.8639H202.256C202.256 27.4239 200.928 28.6373 198.838 28.6373ZM208.261 28.6373C206.653 28.6373 205.497 27.7417 205.497 26.1335C205.497 24.5253 206.653 23.6297 208.242 23.6297C209.821 23.6297 210.977 24.5253 210.977 26.1335C210.977 26.3069 210.948 26.4995 210.948 26.4995H206.951C206.951 27.0291 207.375 27.5588 208.261 27.5588C209.079 27.5588 209.339 27.0773 209.339 27.0773H210.861C210.861 27.0773 210.572 28.6373 208.261 28.6373ZM206.971 25.652H209.503C209.503 25.2668 209.128 24.7083 208.242 24.7083C207.375 24.7083 206.971 25.2668 206.971 25.652ZM214.327 28.6373C212.825 28.6373 211.824 28.204 211.824 27.0002V26.8461H213.249V27.0002C213.249 27.4432 213.586 27.6069 214.327 27.6069C215.107 27.6069 215.425 27.4432 215.425 27.1158C215.425 26.1913 211.92 27.1736 211.92 25.0935C211.92 24.1208 212.835 23.6297 214.27 23.6297C215.724 23.6297 216.629 24.1112 216.629 25.2187H215.204C215.204 24.9875 215.175 24.6601 214.241 24.6601C213.576 24.6601 213.345 24.8527 213.345 25.1031C213.345 25.912 216.85 24.9875 216.85 27.0965C216.85 28.204 215.849 28.6373 214.327 28.6373ZM220.096 28.6373C218.719 28.6373 217.968 28.0691 217.968 26.7209V24.8431H217.265V24.0438L218.603 22.763H219.354V23.726H220.857V24.8431H219.354V26.538C219.354 27.3084 219.759 27.4817 220.298 27.4817C220.732 27.4817 221.001 27.3084 221.001 27.3084V28.464C221.001 28.464 220.645 28.6373 220.096 28.6373ZM226.936 28.6373C225.347 28.6373 224.191 27.7321 224.191 26.1335C224.191 24.5349 225.347 23.6297 226.936 23.6297C228.842 23.6297 229.622 24.9298 229.622 25.7002H228.197C228.197 25.7002 228.014 24.8238 226.936 24.8238C226.088 24.8238 225.616 25.392 225.616 26.1335C225.616 26.875 226.088 27.4432 226.936 27.4432C228.014 27.4432 228.197 26.5669 228.197 26.5669H229.622C229.622 27.3373 228.842 28.6373 226.936 28.6373ZM233.264 28.6373C231.675 28.6373 230.52 27.7321 230.52 26.1335C230.52 24.5349 231.675 23.6297 233.264 23.6297C234.853 23.6297 236.009 24.5349 236.009 26.1335C236.009 27.7321 234.853 28.6373 233.264 28.6373ZM233.264 27.4432C234.112 27.4432 234.584 26.875 234.584 26.1335C234.584 25.392 234.112 24.8238 233.264 24.8238C232.417 24.8238 231.945 25.392 231.945 26.1335C231.945 26.875 232.417 27.4432 233.264 27.4432ZM237.144 28.541V23.726H238.531V24.5253H238.608C238.608 24.5253 238.984 23.6297 240.342 23.6297C241.478 23.6297 242.364 24.2653 242.364 25.7291V28.541H240.977V26.1143C240.977 25.2764 240.486 24.8624 239.754 24.8624C238.945 24.8624 238.531 25.392 238.531 26.1143V28.541H237.144ZM243.95 28.541V24.9394H243.113V24.1594L243.95 23.8223V23.6682C243.95 22.3297 244.923 21.7037 246.233 21.7037C247.639 21.7037 248.457 22.3586 248.457 23.3986H247.071C247.071 23.3986 247.022 22.8593 246.233 22.8593C245.713 22.8593 245.337 23.1193 245.337 23.7645V23.8223H248.457V28.541H247.071V24.9394H245.337V28.541H243.95ZM249.783 28.541V23.726H251.17V24.612H251.247C251.247 24.612 251.622 23.6297 252.922 23.6297C253.153 23.6297 253.404 23.6779 253.404 23.6779V25.209C253.404 25.209 253.096 25.0646 252.566 25.0646C251.632 25.0646 251.17 25.6616 251.17 26.4128V28.541H249.783ZM254.4 28.541V23.726H255.787V24.5253H255.854C255.854 24.5253 256.114 23.6297 257.299 23.6297C258.531 23.6297 258.83 24.5253 258.83 24.5253H258.897C258.897 24.5253 259.176 23.6297 260.332 23.6297C261.536 23.6297 262.239 24.2749 262.239 25.7387V28.541H260.852V26.0468C260.852 25.392 260.631 24.8624 259.937 24.8624C259.263 24.8624 259.013 25.3246 259.013 26.0083V28.541H257.626V26.0468C257.626 25.4016 257.433 24.8624 256.711 24.8624C256.027 24.8624 255.787 25.3439 255.787 26.0468V28.541H254.4ZM266.093 28.6373C264.485 28.6373 263.329 27.7417 263.329 26.1335C263.329 24.5253 264.485 23.6297 266.074 23.6297C267.653 23.6297 268.809 24.5253 268.809 26.1335C268.809 26.3069 268.78 26.4995 268.78 26.4995H264.783C264.783 27.0291 265.207 27.5588 266.093 27.5588C266.911 27.5588 267.171 27.0773 267.171 27.0773H268.693C268.693 27.0773 268.404 28.6373 266.093 28.6373ZM264.802 25.652H267.335C267.335 25.2668 266.96 24.7083 266.074 24.7083C265.207 24.7083 264.802 25.2668 264.802 25.652ZM265.371 22.8593L266.815 21.3185H268.558L266.545 22.8593H265.371ZM272.516 28.6373C270.907 28.6373 269.752 27.7417 269.752 26.1335C269.752 24.5253 270.907 23.6297 272.496 23.6297C274.076 23.6297 275.231 24.5253 275.231 26.1335C275.231 26.3069 275.202 26.4995 275.202 26.4995H271.206C271.206 27.0291 271.63 27.5588 272.516 27.5588C273.334 27.5588 273.594 27.0773 273.594 27.0773H275.116C275.116 27.0773 274.827 28.6373 272.516 28.6373ZM271.225 25.652H273.758C273.758 25.2668 273.382 24.7083 272.496 24.7083C271.63 24.7083 271.225 25.2668 271.225 25.652ZM279.585 28.6373C279.093 28.6373 278.766 28.3388 278.766 27.8669C278.766 27.395 279.093 27.0965 279.585 27.0965C280.076 27.0965 280.403 27.395 280.403 27.8669C280.403 28.3388 280.076 28.6373 279.585 28.6373ZM278.997 26.3743L278.756 23.1482V21.8H280.374V23.1482L280.172 26.3743H278.997Z" fill="#221C46"/>
</g>
</g>
<defs>
<filter id="filter0_d_3661_2874" x="21.7812" y="7.62109" width="273.119" height="39.8398" filterUnits="userSpaceOnUse" color-interpolation-filters="sRGB">
<feFlood flood-opacity="0" result="BackgroundImageFix"/>
<feColorMatrix in="SourceAlpha" type="matrix" values="0 0 0 0 0 0 0 0 0 0 0 0 0 0 0 0 0 0 127 0" result="hardAlpha"/>
<feOffset dx="2" dy="2"/>
<feComposite in2="hardAlpha" operator="out"/>
<feColorMatrix type="matrix" values="0 0 0 0 0.133333 0 0 0 0 0.109804 0 0 0 0 0.27451 0 0 0 0.2 0"/>
<feBlend mode="normal" in2="BackgroundImageFix" result="effect1_dropShadow_3661_2874"/>
<feBlend mode="normal" in="SourceGraphic" in2="effect1_dropShadow_3661_2874" result="shape"/>
</filter>
<clipPath id="clip0_3661_2874">
<path d="M0 16C0 7.16344 7.16344 0 16 0H298C306.837 0 314 7.16344 314 16V153H0V16Z" fill="white"/>
</clipPath>
<clipPath id="clip1_3661_2874">
<rect width="271.28" height="117.593" fill="white" transform="translate(21.6914 51.2671)"/>
</clipPath>
<clipPath id="clip2_3661_2874">
<path d="M30.6797 104.059H274.571V179.684H30.6797V104.059Z" fill="white"/>
</clipPath>
<clipPath id="clip3_3661_2874">
<rect width="56.7189" height="11.3438" fill="white" transform="translate(51.4766 105.95)"/>
</clipPath>
<clipPath id="clip4_3661_2874">
<rect width="29.5411" height="11.3438" fill="white" transform="translate(217.852 105.95)"/>
</clipPath>
<clipPath id="clip5_3661_2874">
<rect width="56.7189" height="11.3438" fill="white" transform="translate(51.4766 121.075)"/>
</clipPath>
<clipPath id="clip6_3661_2874">
<rect width="98.3128" height="11.3438" fill="white" transform="translate(113.867 121.075)"/>
</clipPath>
<clipPath id="clip7_3661_2874">
<rect width="29.5411" height="11.3438" fill="white" transform="translate(217.852 121.075)"/>
</clipPath>
<clipPath id="clip8_3661_2874">
<rect width="29.5411" height="11.3438" fill="white" transform="translate(217.852 136.2)"/>
</clipPath>
<clipPath id="clip9_3661_2874">
<path d="M30.6797 90.8237H274.571V104.058H30.6797V90.8237Z" fill="white"/>
</clipPath>
<clipPath id="clip10_3661_2874">
<rect width="56.7189" height="12.5625" fill="white" transform="translate(51.4766 91.1597)"/>
</clipPath>
<clipPath id="clip11_3661_2874">
<rect width="29.5411" height="12.5625" fill="white" transform="translate(217.852 91.1597)"/>
</clipPath>
</defs>
</svg>
