<svg width="416" height="208" viewBox="0 0 416 208" fill="none" xmlns="http://www.w3.org/2000/svg">
<path fill-rule="evenodd" clip-rule="evenodd" d="M170.973 37.0186C170.973 42.066 166.878 46.1637 161.831 46.1637V50.7347C166.874 50.7347 170.973 54.8285 170.973 59.8734H175.544C175.544 54.8276 179.637 50.7347 184.686 50.7347V46.1637C179.644 46.1637 175.544 42.0651 175.544 37.0186H170.973ZM177.106 48.4473C175.581 49.4603 174.271 50.7701 173.257 52.2943C172.244 50.7711 170.934 49.4619 169.411 48.4492C170.935 47.4353 172.246 46.1245 173.259 44.5996C174.272 46.1236 175.582 47.4337 177.106 48.4473Z" fill="#221C46"/>
<path fill-rule="evenodd" clip-rule="evenodd" d="M218.174 55.9487C221.73 55.9487 224.928 57.4982 227.129 59.9583C230.302 51.8925 238.129 46.1603 247.33 46.1603C259.351 46.1603 269.107 55.9507 269.107 67.9638V70.2492H206.159V67.9638C206.159 61.3339 211.544 55.9487 218.174 55.9487ZM247.33 50.7312C256.044 50.7312 263.265 57.2567 264.385 65.6783H230.338C231.45 57.2493 238.624 50.7312 247.33 50.7312ZM218.174 60.5196C214.865 60.5196 212.055 62.6879 211.088 65.6783H225.259C224.293 62.6879 221.482 60.5196 218.174 60.5196Z" fill="#221C46"/>
<path fill-rule="evenodd" clip-rule="evenodd" d="M129.693 86.45L128.054 90.7168L147.799 98.3044L148.441 107.586H133.442L137.023 155.214H137.019L137.731 164.638H124.938V169.209H272.616V164.638H245.431L244.264 162.271C248.535 161.722 252.535 159.775 255.611 156.694C259.284 153.021 261.347 148.045 261.347 142.854V133.901H257.539C259.716 131.471 261.041 128.26 261.041 124.74V114.501H248.841C248.401 111.626 247.055 108.946 244.973 106.864L239.609 101.5L239.455 101.346L239.432 101.323L239.41 101.301L239.319 101.21L239.313 101.203L239.3 101.19L239.293 101.184L239.274 101.165L239.225 101.116L239.22 101.11L239.197 101.088L239.175 101.066L239.165 101.055L239.149 101.04L239.101 100.992L239.055 100.946L239.044 100.934L239.04 100.931L239.037 100.927L238.992 100.883L238.987 100.878L238.975 100.866L238.973 100.863L238.97 100.861L238.968 100.859L238.966 100.857L238.962 100.853L238.96 100.851L238.958 100.849L238.957 100.847L238.955 100.846L238.953 100.844L238.952 100.842L238.949 100.839L238.947 100.838L238.946 100.837L238.945 100.835L238.941 100.832L238.94 100.831L238.939 100.83L238.939 100.829L238.938 100.828L238.937 100.828L238.936 100.826L238.935 100.826L238.935 100.825L238.934 100.824L238.933 100.824C238.933 100.824 238.933 100.824 237.317 102.44L238.933 100.824L237.317 99.2076L235.701 100.824L237.317 102.44C235.701 100.824 235.701 100.824 235.701 100.824L235.7 100.825L224.189 112.336C221.612 114.912 220.163 118.406 220.163 122.049C220.163 123.129 220.289 124.195 220.536 125.229H218.019C215.133 121.778 210.789 119.574 205.935 119.574C203.952 119.574 202.054 119.942 200.306 120.612C198.56 119.943 196.663 119.574 194.683 119.574C186.472 119.574 179.722 125.874 179.008 133.901H178.946V142.854C178.946 148.043 181.008 153.026 184.683 156.694C187.762 159.773 191.757 161.721 196.026 162.271L194.856 164.638H172.633L173.345 155.214H173.341L176.922 107.586H153.023L152.158 95.0827L129.693 86.45ZM139.22 123.473L138.369 112.156H148.757L149.54 123.473H139.22ZM151.355 149.711L149.856 128.044H139.564L141.607 155.214H168.757L170.8 128.044H154.438L155.915 149.396L151.355 149.711ZM141.951 159.785L142.316 164.638H168.048L168.413 159.785H141.951ZM153.339 112.156L154.122 123.473H171.144L171.995 112.156H153.339ZM239.246 162.43L240.334 164.637H199.955L201.046 162.43H239.246ZM252.377 153.463C249.594 156.251 245.822 157.829 241.884 157.859H198.409C194.473 157.829 190.705 156.252 187.915 153.462L187.913 153.46C185.098 150.651 183.517 146.832 183.517 142.854V138.472H206.159V145.433H217.423V138.472H222.867V145.433H234.131V138.479H247.302C247.443 138.479 247.585 138.476 247.725 138.472H256.776V142.854C256.776 146.831 255.196 150.644 252.378 153.462L252.377 153.463ZM205.934 130.44C203.736 130.44 201.876 131.9 201.27 133.901H206.159V130.597C206.159 130.546 206.159 130.496 206.161 130.445C206.086 130.442 206.01 130.44 205.934 130.44ZM210.831 125.274C209.947 125.388 209.13 125.717 208.436 126.206C207.64 125.988 206.802 125.869 205.934 125.869C201.2 125.869 197.278 129.357 196.596 133.901H194.857C195.551 128.403 200.25 124.145 205.935 124.145C207.689 124.145 209.351 124.551 210.831 125.274ZM194.848 124.146C192.289 126.687 190.598 130.101 190.26 133.901H183.605C184.3 128.403 188.998 124.145 194.683 124.145C194.738 124.145 194.793 124.146 194.848 124.146ZM210.73 138.472L212.852 138.472V140.862H210.73V138.472ZM210.73 133.901L229.56 133.901V130.538C229.53 130.124 229.188 129.8 228.765 129.8H211.526C211.084 129.8 210.73 130.155 210.73 130.597V133.901ZM256.47 124.74C256.47 129.688 252.547 133.719 247.648 133.901H237.369L242.486 128.785L239.254 125.552L234.133 130.674V130.597C234.133 130.546 234.132 130.496 234.131 130.445V128.24C234.131 123.174 238.234 119.072 243.299 119.072H256.47V124.74ZM243.299 114.501C236.703 114.501 231.195 119.145 229.866 125.342C229.511 125.268 229.142 125.229 228.765 125.229H225.303C224.929 124.221 224.734 123.147 224.734 122.049C224.734 119.62 225.7 117.289 227.421 115.568L237.317 105.672L237.319 105.674L241.741 110.096C242.963 111.318 243.804 112.847 244.189 114.501H243.299ZM229.56 138.472H227.438V140.862H229.56V138.479L229.56 138.472Z" fill="#221C46"/>
<path fill-rule="evenodd" clip-rule="evenodd" d="M274.51 121.448C270.185 121.448 266.675 124.959 266.675 129.284C266.675 133.61 270.185 137.12 274.51 137.12C278.836 137.12 282.346 133.61 282.346 129.284C282.346 124.959 278.836 121.448 274.51 121.448ZM271.245 129.284C271.245 127.483 272.709 126.019 274.51 126.019C276.312 126.019 277.775 127.483 277.775 129.284C277.775 131.085 276.312 132.549 274.51 132.549C272.709 132.549 271.245 131.085 271.245 129.284Z" fill="#221C46"/>
</svg>
