<svg width="416" height="153" viewBox="0 0 416 153" fill="none" xmlns="http://www.w3.org/2000/svg">
<path fill-rule="evenodd" clip-rule="evenodd" d="M202.632 35.5007C202.632 32.3941 205.15 29.8757 208.257 29.8757C211.363 29.8757 213.882 32.3941 213.882 35.5007C213.882 38.6073 211.363 41.1257 208.257 41.1257C205.15 41.1257 202.632 38.6073 202.632 35.5007ZM208.257 33.0257C206.89 33.0257 205.782 34.1338 205.782 35.5007C205.782 36.8676 206.89 37.9757 208.257 37.9757C209.624 37.9757 210.732 36.8676 210.732 35.5007C210.732 34.1338 209.624 33.0257 208.257 33.0257Z" fill="#221C46"/>
<path fill-rule="evenodd" clip-rule="evenodd" d="M208.925 17.4913L208.128 17.0239L207.332 17.4913C198.976 22.3921 193.375 33.2641 193.375 45.6343C193.375 52.3001 194.995 58.4974 197.776 63.5674L194.082 67.2614L194.082 85.2026L206.212 73.074C206.579 73.3204 206.952 73.555 207.332 73.7774L208.128 74.2448L208.925 73.7774C209.362 73.5213 209.791 73.249 210.211 72.961L222.432 85.2089V67.2625L218.574 63.3957C221.298 58.3579 222.882 52.2253 222.882 45.6343C222.882 33.2641 217.28 22.3921 208.925 17.4913ZM196.525 45.6343C196.525 34.5335 201.369 25.1428 208.128 20.7035C214.887 25.1428 219.732 34.5335 219.732 45.6343C219.732 52.1681 218.047 58.1462 215.259 62.8596L214.637 63.91L219.282 68.5652V77.5921L210.505 68.7953L209.406 69.6502C208.988 69.9752 208.562 70.2805 208.128 70.5653C207.746 70.314 207.369 70.0467 206.998 69.764L205.903 68.9282L197.232 77.5985L197.232 68.5663L201.726 64.0729L201.093 63.0182C198.248 58.2808 196.525 52.2418 196.525 45.6343Z" fill="#221C46"/>
<path fill-rule="evenodd" clip-rule="evenodd" d="M209.646 97.8288L208.225 100.803L206.804 97.8288L206.788 97.7953L206.743 97.7016C206.705 97.6199 206.648 97.5003 206.576 97.3474C206.433 97.0418 206.229 96.603 205.984 96.0678C205.495 94.9983 204.841 93.5395 204.186 91.9872C203.533 90.439 202.87 88.7778 202.368 87.3088C201.893 85.9203 201.475 84.4655 201.475 83.4474C201.475 79.7135 204.49 76.6749 208.225 76.6749C211.959 76.6749 214.975 79.7135 214.975 83.4474C214.975 84.4655 214.556 85.9203 214.082 87.3088C213.579 88.7778 212.917 90.439 212.263 91.9872C211.609 93.5395 210.955 94.9984 210.466 96.0678C210.221 96.603 210.016 97.0418 209.873 97.3474C209.802 97.5003 209.745 97.6199 209.706 97.7016L209.662 97.7953L209.646 97.8288ZM208.225 93.3773C208.58 92.5823 208.971 91.6887 209.361 90.7629C210.002 89.2443 210.633 87.6592 211.101 86.2899C211.596 84.8402 211.825 83.8644 211.825 83.4474C211.825 82.0116 210.997 80.7762 209.8 80.1893V85.4499H206.65V80.1893C205.453 80.7762 204.625 82.0116 204.625 83.4474C204.625 83.8644 204.853 84.8402 205.349 86.2899C205.817 87.6592 206.448 89.2443 207.088 90.7629C207.479 91.6887 207.87 92.5823 208.225 93.3773Z" fill="#221C46"/>
<path fill-rule="evenodd" clip-rule="evenodd" d="M219.475 101.875L209.92 101.875L207.957 103.837L205.995 101.875H196.975V111.162L198.937 113.125L196.975 115.088V124.375H205.459L207.957 121.877L210.455 124.375H219.475V115.623L216.977 113.125L219.475 110.628V101.875ZM207.957 108.292L211.225 105.025L216.325 105.025V109.323L212.522 113.125L216.325 116.928V121.225H211.76L207.957 117.422L204.154 121.225H200.125V116.393L203.392 113.125L200.125 109.858V105.025H204.69L207.957 108.292Z" fill="#221C46"/>
<path d="M200.917 91.1687L201.068 91.1285L201.882 94.1714L201.581 94.2518L201.504 94.2645C191.831 95.8482 183.411 101.173 177.783 108.711L177.059 109.68L175.936 109.231C174.234 108.55 172.375 108.175 170.425 108.175C162.223 108.175 155.575 114.823 155.575 123.025C155.575 124.763 155.873 126.428 156.419 127.975H260.03C260.577 126.428 260.875 124.763 260.875 123.025C260.875 114.823 254.226 108.175 246.025 108.175C243.717 108.175 241.537 108.7 239.592 109.636L238.406 110.207L237.634 109.141C232.131 101.547 223.826 96.1207 214.243 94.3764L214.092 94.3488L213.499 94.1158L214.651 91.1841L214.959 91.3054C224.867 93.1483 233.496 98.6156 239.422 106.275C241.468 105.468 243.696 105.025 246.025 105.025C255.966 105.025 264.025 113.084 264.025 123.025C264.025 125.563 263.499 127.982 262.548 130.176L262.137 131.125H154.313L153.902 130.176C152.951 127.982 152.425 125.563 152.425 123.025C152.425 113.084 160.484 105.025 170.425 105.025C172.359 105.025 174.224 105.331 175.974 105.897C182.046 98.2382 190.849 92.8373 200.917 91.1687Z" fill="#221C46"/>
<path fill-rule="evenodd" clip-rule="evenodd" d="M249.004 51.2499C249.004 55.1101 246.069 58.0819 242.65 58.0819V61.2319C246.072 61.2319 249.004 64.2074 249.004 68.064H252.154C252.154 64.2038 255.089 61.2319 258.508 61.2319V58.0819C255.085 58.0819 252.154 55.1065 252.154 51.2499H249.004ZM250.579 62.5646C249.85 61.4062 248.897 60.4123 247.779 59.6568C248.897 58.9015 249.85 57.9078 250.579 56.7493C251.307 57.9077 252.261 58.9016 253.378 59.657C252.261 60.4123 251.307 61.4061 250.579 62.5646Z" fill="#221C46"/>
<path d="M252.156 101.875V72.8641H249.006V101.875H252.156Z" fill="#221C46"/>
<path fill-rule="evenodd" clip-rule="evenodd" d="M225.55 36.0319C228.969 36.0319 231.904 33.0601 231.904 29.1999H235.054C235.054 33.0565 237.985 36.0319 241.408 36.0319V39.1819C237.989 39.1819 235.054 42.1538 235.054 46.014H231.904C231.904 42.1574 228.972 39.1819 225.55 39.1819V36.0319ZM230.679 37.6068C231.797 38.3623 232.75 39.3562 233.479 40.5146C234.207 39.3561 235.161 38.3623 236.278 37.607C235.161 36.8516 234.207 35.8577 233.479 34.6993C232.75 35.8578 231.797 36.8515 230.679 37.6068Z" fill="#221C46"/>
<path d="M235.056 50.8141V71.9499H231.906V50.8141H235.056Z" fill="#221C46"/>
<path fill-rule="evenodd" clip-rule="evenodd" d="M177.904 37.7499C177.904 41.6101 174.969 44.5819 171.55 44.5819V47.7319C174.972 47.7319 177.904 50.7074 177.904 54.564H181.054C181.054 50.7038 183.989 47.7319 187.408 47.7319V44.5819C183.985 44.5819 181.054 41.6065 181.054 37.7499H177.904ZM179.479 49.0646C178.75 47.9062 177.797 46.9123 176.679 46.1568C177.797 45.4015 178.75 44.4078 179.479 43.2493C180.207 44.4077 181.161 45.4016 182.278 46.157C181.161 46.9123 180.207 47.9061 179.479 49.0646Z" fill="#221C46"/>
<path d="M181.056 97.5999V59.3641H177.906V97.5999H181.056Z" fill="#221C46"/>
<path fill-rule="evenodd" clip-rule="evenodd" d="M156.025 59.6212C156.025 56.2044 158.659 53.2749 162.1 53.2749C165.541 53.2749 168.175 56.2044 168.175 59.6212C168.175 63.038 165.541 65.9675 162.1 65.9675C158.659 65.9675 156.025 63.038 156.025 59.6212ZM162.1 56.4249C160.57 56.4249 159.175 57.7678 159.175 59.6212C159.175 61.4746 160.57 62.8175 162.1 62.8175C163.63 62.8175 165.025 61.4746 165.025 59.6212C165.025 57.7678 163.63 56.4249 162.1 56.4249Z" fill="#221C46"/>
<path d="M163.847 70.476V90.7401H160.697V70.476H163.847Z" fill="#221C46"/>
<path fill-rule="evenodd" clip-rule="evenodd" d="M233.65 75.7749C230.209 75.7749 227.575 78.7044 227.575 82.1212C227.575 85.538 230.209 88.4675 233.65 88.4675C237.091 88.4675 239.725 85.538 239.725 82.1212C239.725 78.7044 237.091 75.7749 233.65 75.7749ZM230.725 82.1212C230.725 80.2678 232.12 78.9249 233.65 78.9249C235.18 78.9249 236.575 80.2678 236.575 82.1212C236.575 83.9746 235.18 85.3175 233.65 85.3175C232.12 85.3175 230.725 83.9746 230.725 82.1212Z" fill="#221C46"/>
</svg>
