<svg width="304" height="153" viewBox="0 0 304 153" fill="none" xmlns="http://www.w3.org/2000/svg">
<g clip-path="url(#clip0_3676_2630)">
<rect width="226.8" height="113.182" transform="translate(38.5996 32.3457)" fill="white"/>
<path d="M58.0222 49.454C56.8749 49.454 56.0889 48.9976 56.0889 48.1038V47.8946H56.9003V48.1102C56.9003 48.6363 57.3947 48.7821 58.0222 48.7821C58.6498 48.7821 59.1379 48.6236 59.1379 48.1228C59.1379 47.1466 56.2093 47.9644 56.2093 46.1578C56.2093 45.3781 56.9003 44.89 57.9969 44.89C59.0872 44.89 59.7845 45.3591 59.7845 46.2085V46.3289H58.9731V46.2085C58.9731 45.7711 58.6118 45.5619 57.9969 45.5619C57.42 45.5619 57.0207 45.7457 57.0207 46.1578C57.0207 47.191 59.9493 46.3733 59.9493 48.1292C59.9493 48.9976 59.1442 49.454 58.0222 49.454ZM62.1283 49.454C61.3866 49.454 60.7591 49.0293 60.7591 48.0404V46.2846H61.469V47.8566C61.469 48.5159 61.862 48.8074 62.3945 48.8074C63.003 48.8074 63.3137 48.4018 63.3137 47.8566V46.2846H64.0236V49.3906H63.3137V48.8899H63.2693C63.2693 48.8899 63.0094 49.454 62.1283 49.454ZM64.962 49.3906V46.2846H65.672V49.3906H64.962ZM65.317 45.6253C65.0634 45.6253 64.8986 45.4795 64.8986 45.2577C64.8986 45.0358 65.0634 44.89 65.317 44.89C65.5706 44.89 65.7354 45.0358 65.7354 45.2577C65.7354 45.4795 65.5706 45.6253 65.317 45.6253ZM67.4197 49.3906L66.1963 46.2846H66.9443L67.9268 48.8455H67.9585L68.9411 46.2846H69.6891L68.4657 49.3906H67.4197ZM70.217 49.3906V46.2846H70.927V49.3906H70.217ZM70.572 45.6253C70.3184 45.6253 70.1536 45.4795 70.1536 45.2577C70.1536 45.0358 70.3184 44.89 70.572 44.89C70.8256 44.89 70.9904 45.0358 70.9904 45.2577C70.9904 45.4795 70.8256 45.6253 70.572 45.6253ZM74.9012 49.454C74.0137 49.454 73.2467 48.8582 73.2467 47.8376C73.2467 46.817 74.0137 46.2212 74.9012 46.2212C75.6619 46.2212 75.9788 46.6902 75.9788 46.6902H76.0105V44.9534H76.7205V49.3906H76.0105V48.9849H75.9788C75.9788 48.9849 75.6619 49.454 74.9012 49.454ZM74.9963 48.8074C75.6048 48.8074 76.0105 48.4081 76.0105 47.8376C76.0105 47.2671 75.6048 46.8677 74.9963 46.8677C74.3877 46.8677 73.982 47.2671 73.982 47.8376C73.982 48.4081 74.3877 48.8074 74.9963 48.8074ZM79.2797 49.454C78.2718 49.454 77.5301 48.8582 77.5301 47.8376C77.5301 46.817 78.2718 46.2212 79.2797 46.2212C80.2876 46.2212 81.0292 46.817 81.0292 47.8376C81.0292 47.9834 81.0102 48.0911 81.0102 48.0911H78.2908C78.2908 48.0911 78.3922 48.8391 79.2797 48.8391C79.8502 48.8391 80.0657 48.5032 80.0657 48.5032H80.9025C80.9025 48.5032 80.6045 49.454 79.2797 49.454ZM78.2972 47.5333H80.2495C80.2495 47.5333 80.1798 46.836 79.2797 46.836C78.4049 46.836 78.2972 47.5333 78.2972 47.5333ZM83.2549 49.454C82.3738 49.454 81.6828 49.1688 81.6828 48.3764V48.275H82.4181V48.3764C82.4181 48.7441 82.7604 48.8708 83.2549 48.8708C83.8444 48.8708 84.1043 48.725 84.1043 48.4651C84.1043 47.7488 81.7462 48.5349 81.7462 47.172C81.7462 46.5191 82.3674 46.2212 83.2295 46.2212C84.098 46.2212 84.7192 46.5254 84.7192 47.2861H83.9839C83.9839 47.0135 83.8507 46.8043 83.2232 46.8043C82.6654 46.8043 82.4815 46.9692 82.4815 47.1593C82.4815 47.8186 84.8396 47.0706 84.8396 48.4588C84.8396 49.1878 84.1423 49.454 83.2549 49.454ZM88.6549 49.454C87.7675 49.454 87.0005 48.8582 87.0005 47.8376C87.0005 46.817 87.7675 46.2212 88.6549 46.2212C89.4156 46.2212 89.7326 46.6902 89.7326 46.6902H89.7643V44.9534H90.4742V49.3906H89.7643V48.9849H89.7326C89.7326 48.9849 89.4156 49.454 88.6549 49.454ZM88.75 48.8074C89.3586 48.8074 89.7643 48.4081 89.7643 47.8376C89.7643 47.2671 89.3586 46.8677 88.75 46.8677C88.1415 46.8677 87.7358 47.2671 87.7358 47.8376C87.7358 48.4081 88.1415 48.8074 88.75 48.8074ZM91.4107 49.3906V46.2846H92.1206V49.3906H91.4107ZM91.7657 45.6253C91.5121 45.6253 91.3473 45.4795 91.3473 45.2577C91.3473 45.0358 91.5121 44.89 91.7657 44.89C92.0192 44.89 92.184 45.0358 92.184 45.2577C92.184 45.4795 92.0192 45.6253 91.7657 45.6253ZM94.4706 49.454C93.5895 49.454 92.8985 49.1688 92.8985 48.3764V48.275H93.6339V48.3764C93.6339 48.7441 93.9762 48.8708 94.4706 48.8708C95.0601 48.8708 95.32 48.725 95.32 48.4651C95.32 47.7488 92.9619 48.5349 92.9619 47.172C92.9619 46.5191 93.5831 46.2212 94.4452 46.2212C95.3137 46.2212 95.9349 46.5254 95.9349 47.2861H95.1996C95.1996 47.0135 95.0665 46.8043 94.4389 46.8043C93.8811 46.8043 93.6972 46.9692 93.6972 47.1593C93.6972 47.8186 96.0553 47.0706 96.0553 48.4588C96.0553 49.1878 95.358 49.454 94.4706 49.454ZM98.1923 49.454C97.3936 49.454 96.9055 49.08 96.9055 48.2306V46.8931H96.3921V46.443L97.1528 45.5873H97.6155V46.2846H98.6994V46.8931H97.6155V48.1355C97.6155 48.668 97.9261 48.8074 98.2874 48.8074C98.6107 48.8074 98.7945 48.6743 98.7945 48.6743V49.3336C98.7945 49.3336 98.56 49.454 98.1923 49.454ZM99.482 49.3906V46.2846H100.192V46.8804H100.236C100.236 46.8804 100.496 46.2212 101.358 46.2212C101.548 46.2212 101.707 46.2592 101.707 46.2592V47.0452C101.707 47.0452 101.517 46.9692 101.2 46.9692C100.547 46.9692 100.192 47.4192 100.192 47.9834V49.3906H99.482ZM102.36 49.3906V46.2846H103.07V49.3906H102.36ZM102.715 45.6253C102.462 45.6253 102.297 45.4795 102.297 45.2577C102.297 45.0358 102.462 44.89 102.715 44.89C102.969 44.89 103.134 45.0358 103.134 45.2577C103.134 45.4795 102.969 45.6253 102.715 45.6253ZM105.826 49.454C105.065 49.454 104.748 48.9849 104.748 48.9849H104.717V49.3906H104.007V44.9534H104.717V46.6902H104.748C104.748 46.6902 105.065 46.2212 105.826 46.2212C106.713 46.2212 107.48 46.817 107.48 47.8376C107.48 48.8582 106.713 49.454 105.826 49.454ZM105.731 48.8074C106.339 48.8074 106.745 48.4081 106.745 47.8376C106.745 47.2671 106.339 46.8677 105.731 46.8677C105.122 46.8677 104.717 47.2671 104.717 47.8376C104.717 48.4081 105.122 48.8074 105.731 48.8074ZM109.659 49.454C108.918 49.454 108.29 49.0293 108.29 48.0404V46.2846H109V47.8566C109 48.5159 109.393 48.8074 109.925 48.8074C110.534 48.8074 110.845 48.4018 110.845 47.8566V46.2846H111.555V49.3906H110.845V48.8899H110.8C110.8 48.8899 110.54 49.454 109.659 49.454ZM113.976 49.454C113.178 49.454 112.689 49.08 112.689 48.2306V46.8931H112.176V46.443L112.937 45.5873H113.399V46.2846H114.483V46.8931H113.399V48.1355C113.399 48.668 113.71 48.8074 114.071 48.8074C114.395 48.8074 114.578 48.6743 114.578 48.6743V49.3336C114.578 49.3336 114.344 49.454 113.976 49.454ZM115.266 49.3906V46.2846H115.976V49.3906H115.266ZM115.621 45.6253C115.367 45.6253 115.203 45.4795 115.203 45.2577C115.203 45.0358 115.367 44.89 115.621 44.89C115.874 44.89 116.039 45.0358 116.039 45.2577C116.039 45.4795 115.874 45.6253 115.621 45.6253ZM118.535 49.454C117.527 49.454 116.785 48.8582 116.785 47.8376C116.785 46.817 117.527 46.2212 118.535 46.2212C119.543 46.2212 120.285 46.817 120.285 47.8376C120.285 48.8582 119.543 49.454 118.535 49.454ZM118.535 48.8074C119.144 48.8074 119.549 48.4081 119.549 47.8376C119.549 47.2671 119.144 46.8677 118.535 46.8677C117.926 46.8677 117.521 47.2671 117.521 47.8376C117.521 48.4081 117.926 48.8074 118.535 48.8074ZM121.097 49.3906V46.2846H121.807V46.7853H121.851C121.851 46.7853 122.111 46.2212 122.992 46.2212C123.734 46.2212 124.361 46.6459 124.361 47.6347V49.3906H123.651V47.8186C123.651 47.1593 123.258 46.8677 122.726 46.8677C122.117 46.8677 121.807 47.2734 121.807 47.8186V49.3906H121.097ZM126.682 49.454C125.801 49.454 125.11 49.1688 125.11 48.3764V48.275H125.845V48.3764C125.845 48.7441 126.188 48.8708 126.682 48.8708C127.272 48.8708 127.532 48.725 127.532 48.4651C127.532 47.7488 125.174 48.5349 125.174 47.172C125.174 46.5191 125.795 46.2212 126.657 46.2212C127.525 46.2212 128.146 46.5254 128.146 47.2861H127.411C127.411 47.0135 127.278 46.8043 126.65 46.8043C126.093 46.8043 125.909 46.9692 125.909 47.1593C125.909 47.8186 128.267 47.0706 128.267 48.4588C128.267 49.1878 127.57 49.454 126.682 49.454Z" fill="#221C46"/>
<rect width="192.181" height="99.5598" transform="translate(55.8086 61.6855)" fill="white"/>
<rect width="192.181" height="100.428" transform="translate(55.8086 61.6855)" fill="white"/>
<g clip-path="url(#clip1_3676_2630)">
<rect width="192.181" height="10.4284" transform="translate(55.8086 61.6855)" fill="#FAF8FF"/>
<path d="M60.5465 67.665V65.5794H61.4314C61.8903 65.5794 62.1376 65.7641 62.1376 66.1544C62.1376 66.4822 61.8396 66.5656 61.8396 66.5656V66.5775C61.8396 66.5775 62.2508 66.6311 62.2508 67.0721C62.2508 67.4624 62.0035 67.665 61.485 67.665H60.5465ZM60.8266 67.4148H61.485C61.7979 67.4148 61.9588 67.3135 61.9588 67.0721C61.9588 66.8308 61.7979 66.7265 61.485 66.7265H60.8266V67.4148ZM60.8266 66.4822H61.4314C61.6847 66.4822 61.8456 66.3957 61.8456 66.1544C61.8456 65.9131 61.6847 65.8296 61.4314 65.8296H60.8266V66.4822ZM63.4089 67.6948C62.9351 67.6948 62.5925 67.3999 62.5925 66.935C62.5925 66.4702 62.9351 66.1753 63.394 66.1753C63.8528 66.1753 64.1955 66.4702 64.1955 66.935C64.1955 67.0066 64.1865 67.0572 64.1865 67.0572H62.8666C62.8666 67.1883 63.0394 67.4565 63.4089 67.4565C63.7366 67.4565 63.8528 67.2628 63.8528 67.2628H64.1538C64.1538 67.2628 64.0107 67.6948 63.4089 67.6948ZM62.8636 66.8248H63.9243C63.9243 66.6818 63.7545 66.4136 63.394 66.4136C63.0335 66.4136 62.8636 66.6818 62.8636 66.8248ZM63.248 65.9071L63.6949 65.4304H64.0256L63.4863 65.9071H63.248ZM64.5841 67.665V66.2051H64.8404V66.4285H64.8553C64.8553 66.4285 64.9834 66.1753 65.3916 66.1753C65.7402 66.1753 66.0501 66.3779 66.0501 66.8516V67.665H65.7938V66.9112C65.7938 66.5537 65.5882 66.4136 65.3171 66.4136C65.0013 66.4136 64.8404 66.6222 64.8404 66.9112V67.665H64.5841ZM67.2381 67.6948C66.7643 67.6948 66.4217 67.3999 66.4217 66.935C66.4217 66.4702 66.7643 66.1753 67.2232 66.1753C67.682 66.1753 68.0247 66.4702 68.0247 66.935C68.0247 67.0066 68.0157 67.0572 68.0157 67.0572H66.6958C66.6958 67.1883 66.8686 67.4565 67.2381 67.4565C67.5658 67.4565 67.682 67.2628 67.682 67.2628H67.983C67.983 67.2628 67.8399 67.6948 67.2381 67.6948ZM66.6928 66.8248H67.7535C67.7535 66.6818 67.5837 66.4136 67.2232 66.4136C66.8626 66.4136 66.6928 66.6818 66.6928 66.8248ZM67.0772 65.9071L67.5241 65.4304H67.8548L67.3155 65.9071H67.0772ZM68.5236 67.665V66.4375H68.2792V66.2944L68.5236 66.2051V66.1127C68.5236 65.7254 68.7619 65.5496 69.1016 65.5496C69.4651 65.5496 69.6796 65.7611 69.6796 66.0561H69.4234C69.4234 66.0561 69.4264 65.773 69.1105 65.773C68.9198 65.773 68.7798 65.8654 68.7798 66.1455V66.2051H69.6796V67.665H69.4234V66.4375H68.7798V67.665H68.5236ZM70.869 67.6919C70.4102 67.6919 70.0675 67.3969 70.0675 66.9321C70.0675 66.4702 70.4102 66.1753 70.869 66.1753C71.4322 66.1753 71.6437 66.5924 71.6437 66.7712H71.3785C71.3785 66.7712 71.3219 66.4136 70.869 66.4136C70.5353 66.4136 70.3297 66.6371 70.3297 66.9321C70.3297 67.23 70.5353 67.4535 70.869 67.4535C71.3219 67.4535 71.3785 67.0959 71.3785 67.0959H71.6437C71.6437 67.2747 71.4322 67.6919 70.869 67.6919ZM72.0301 67.665V66.2051H72.2863V67.665H72.0301ZM72.1582 65.8356C72.0629 65.8356 72.0003 65.776 72.0003 65.6926C72.0003 65.6091 72.0629 65.5496 72.1582 65.5496C72.2536 65.5496 72.3161 65.6091 72.3161 65.6926C72.3161 65.776 72.2536 65.8356 72.1582 65.8356ZM73.3719 67.6948C72.9935 67.6948 72.6747 67.5786 72.6747 67.2568C72.6747 66.941 72.9935 66.8188 73.351 66.8188C73.6847 66.8188 73.8754 66.9619 73.8754 66.9619V66.7324C73.8754 66.5566 73.7562 66.4136 73.4374 66.4136C73.1395 66.4136 72.9994 66.506 72.9994 66.652H72.7432C72.7491 66.3093 73.065 66.1753 73.4374 66.1753C73.8307 66.1753 74.1257 66.36 74.1317 66.7324V67.2628C74.1317 67.4207 74.1734 67.4594 74.2568 67.4594C74.3164 67.4594 74.3402 67.4416 74.3402 67.4416V67.671C74.3402 67.671 74.2955 67.6948 74.2091 67.6948C73.9559 67.6948 73.9052 67.5161 73.9052 67.5161H73.8933C73.8933 67.5161 73.7503 67.6948 73.3719 67.6948ZM73.4106 67.4565C73.7235 67.4565 73.8635 67.3492 73.8754 67.3373V67.1704C73.8635 67.1585 73.7235 67.0572 73.4106 67.0572C73.1752 67.0572 72.9369 67.093 72.9369 67.2568C72.9369 67.4207 73.1752 67.4565 73.4106 67.4565ZM74.6227 67.665V66.2051H74.8789V67.665H74.6227ZM74.7508 65.8356C74.6554 65.8356 74.5929 65.776 74.5929 65.6926C74.5929 65.6091 74.6554 65.5496 74.7508 65.5496C74.8461 65.5496 74.9087 65.6091 74.9087 65.6926C74.9087 65.776 74.8461 65.8356 74.7508 65.8356ZM75.3268 67.665V66.2051H75.583V66.4881H75.5979C75.5979 66.4881 75.7261 66.1753 76.1343 66.1753C76.2385 66.1753 76.3101 66.1961 76.3101 66.1961V66.4762C76.3101 66.4762 76.2266 66.4464 76.0896 66.4464C75.7678 66.4464 75.583 66.6818 75.583 66.9708V67.665H75.3268ZM77.3202 67.6948C76.8465 67.6948 76.5038 67.3999 76.5038 66.935C76.5038 66.4702 76.8465 66.1753 77.3053 66.1753C77.7642 66.1753 78.1068 66.4702 78.1068 66.935C78.1068 67.0066 78.0979 67.0572 78.0979 67.0572H76.778C76.778 67.1883 76.9508 67.4565 77.3202 67.4565C77.648 67.4565 77.7642 67.2628 77.7642 67.2628H78.0651C78.0651 67.2628 77.9221 67.6948 77.3202 67.6948ZM76.775 66.8248H77.8357C77.8357 66.6818 77.6659 66.4136 77.3053 66.4136C76.9448 66.4136 76.775 66.6818 76.775 66.8248Z" fill="#221C46"/>
<path d="M112.746 67.665V65.5794H113.175L113.821 66.8457H113.833L114.48 65.5794H114.909V67.665H114.629V65.9071H114.617L114.003 67.1079H113.651L113.038 65.9071H113.026V67.665H112.746ZM116.143 67.6948C115.684 67.6948 115.342 67.3999 115.342 66.935C115.342 66.4702 115.684 66.1753 116.143 66.1753C116.602 66.1753 116.945 66.4702 116.945 66.935C116.945 67.3999 116.602 67.6948 116.143 67.6948ZM116.143 67.4565C116.477 67.4565 116.682 67.233 116.682 66.935C116.682 66.6371 116.477 66.4136 116.143 66.4136C115.809 66.4136 115.604 66.6371 115.604 66.935C115.604 67.233 115.809 67.4565 116.143 67.4565ZM117.333 67.665V66.2051H117.59V66.4285H117.604C117.604 66.4285 117.733 66.1753 118.141 66.1753C118.489 66.1753 118.799 66.3779 118.799 66.8516V67.665H118.543V66.9112C118.543 66.5537 118.337 66.4136 118.066 66.4136C117.75 66.4136 117.59 66.6222 117.59 66.9112V67.665H117.333ZM119.91 67.6948C119.582 67.6948 119.356 67.519 119.356 67.1317V66.4375H119.111V66.2051H119.356V65.8773H119.612V66.2051H120.154V66.4375H119.612V67.0989C119.612 67.3879 119.755 67.4714 119.94 67.4714C120.109 67.4714 120.199 67.4028 120.199 67.4028V67.6352C120.199 67.6352 120.086 67.6948 119.91 67.6948ZM121.105 67.6948C120.726 67.6948 120.407 67.5786 120.407 67.2568C120.407 66.941 120.726 66.8188 121.084 66.8188C121.418 66.8188 121.608 66.9619 121.608 66.9619V66.7324C121.608 66.5566 121.489 66.4136 121.17 66.4136C120.872 66.4136 120.732 66.506 120.732 66.652H120.476C120.482 66.3093 120.798 66.1753 121.17 66.1753C121.564 66.1753 121.858 66.36 121.864 66.7324V67.2628C121.864 67.4207 121.906 67.4594 121.99 67.4594C122.049 67.4594 122.073 67.4416 122.073 67.4416V67.671C122.073 67.671 122.028 67.6948 121.942 67.6948C121.689 67.6948 121.638 67.5161 121.638 67.5161H121.626C121.626 67.5161 121.483 67.6948 121.105 67.6948ZM121.143 67.4565C121.456 67.4565 121.596 67.3492 121.608 67.3373V67.1704C121.596 67.1585 121.456 67.0572 121.143 67.0572C120.908 67.0572 120.67 67.093 120.67 67.2568C120.67 67.4207 120.908 67.4565 121.143 67.4565ZM122.355 67.665V66.2051H122.612V66.4285H122.627C122.627 66.4285 122.755 66.1753 123.163 66.1753C123.512 66.1753 123.821 66.3779 123.821 66.8516V67.665H123.565V66.9112C123.565 66.5537 123.36 66.4136 123.088 66.4136C122.773 66.4136 122.612 66.6222 122.612 66.9112V67.665H122.355ZM124.932 67.6948C124.604 67.6948 124.378 67.519 124.378 67.1317V66.4375H124.133V66.2051H124.378V65.8773H124.634V66.2051H125.176V66.4375H124.634V67.0989C124.634 67.3879 124.777 67.4714 124.962 67.4714C125.132 67.4714 125.221 67.4028 125.221 67.4028V67.6352C125.221 67.6352 125.108 67.6948 124.932 67.6948Z" fill="#221C46"/>
<path d="M134.346 67.665V65.5794H135.231C135.69 65.5794 135.937 65.7641 135.937 66.1544C135.937 66.4822 135.639 66.5656 135.639 66.5656V66.5775C135.639 66.5775 136.051 66.6311 136.051 67.0721C136.051 67.4624 135.803 67.665 135.285 67.665H134.346ZM134.626 67.4148H135.285C135.598 67.4148 135.759 67.3135 135.759 67.0721C135.759 66.8308 135.598 66.7265 135.285 66.7265H134.626V67.4148ZM134.626 66.4822H135.231C135.484 66.4822 135.645 66.3957 135.645 66.1544C135.645 65.9131 135.484 65.8296 135.231 65.8296H134.626V66.4822ZM137.209 67.6948C136.735 67.6948 136.392 67.3999 136.392 66.935C136.392 66.4702 136.735 66.1753 137.194 66.1753C137.653 66.1753 137.995 66.4702 137.995 66.935C137.995 67.0066 137.986 67.0572 137.986 67.0572H136.666C136.666 67.1883 136.839 67.4565 137.209 67.4565C137.536 67.4565 137.653 67.2628 137.653 67.2628H137.954C137.954 67.2628 137.811 67.6948 137.209 67.6948ZM136.663 66.8248H137.724C137.724 66.6818 137.554 66.4136 137.194 66.4136C136.833 66.4136 136.663 66.6818 136.663 66.8248ZM137.048 65.9071L137.495 65.4304H137.825L137.286 65.9071H137.048ZM138.384 67.665V66.2051H138.64V66.4285H138.655C138.655 66.4285 138.783 66.1753 139.191 66.1753C139.54 66.1753 139.85 66.3779 139.85 66.8516V67.665H139.594V66.9112C139.594 66.5537 139.388 66.4136 139.117 66.4136C138.801 66.4136 138.64 66.6222 138.64 66.9112V67.665H138.384ZM141.038 67.6948C140.564 67.6948 140.221 67.3999 140.221 66.935C140.221 66.4702 140.564 66.1753 141.023 66.1753C141.482 66.1753 141.824 66.4702 141.824 66.935C141.824 67.0066 141.816 67.0572 141.816 67.0572H140.496C140.496 67.1883 140.668 67.4565 141.038 67.4565C141.366 67.4565 141.482 67.2628 141.482 67.2628H141.783C141.783 67.2628 141.64 67.6948 141.038 67.6948ZM140.493 66.8248H141.553C141.553 66.6818 141.383 66.4136 141.023 66.4136C140.662 66.4136 140.493 66.6818 140.493 66.8248ZM140.877 65.9071L141.324 65.4304H141.655L141.115 65.9071H140.877ZM142.323 67.665V66.4375H142.079V66.2944L142.323 66.2051V66.1127C142.323 65.7254 142.562 65.5496 142.901 65.5496C143.265 65.5496 143.479 65.7611 143.479 66.0561H143.223C143.223 66.0561 143.226 65.773 142.91 65.773C142.72 65.773 142.58 65.8654 142.58 66.1455V66.2051H143.479V67.665H143.223V66.4375H142.58V67.665H142.323ZM144.669 67.6919C144.21 67.6919 143.867 67.3969 143.867 66.9321C143.867 66.4702 144.21 66.1753 144.669 66.1753C145.232 66.1753 145.444 66.5924 145.444 66.7712H145.178C145.178 66.7712 145.122 66.4136 144.669 66.4136C144.335 66.4136 144.13 66.6371 144.13 66.9321C144.13 67.23 144.335 67.4535 144.669 67.4535C145.122 67.4535 145.178 67.0959 145.178 67.0959H145.444C145.444 67.2747 145.232 67.6919 144.669 67.6919ZM145.83 67.665V66.2051H146.086V67.665H145.83ZM145.958 65.8356C145.863 65.8356 145.8 65.776 145.8 65.6926C145.8 65.6091 145.863 65.5496 145.958 65.5496C146.053 65.5496 146.116 65.6091 146.116 65.6926C146.116 65.776 146.053 65.8356 145.958 65.8356ZM147.172 67.6948C146.793 67.6948 146.474 67.5786 146.474 67.2568C146.474 66.941 146.793 66.8188 147.151 66.8188C147.485 66.8188 147.675 66.9619 147.675 66.9619V66.7324C147.675 66.5566 147.556 66.4136 147.237 66.4136C146.939 66.4136 146.799 66.506 146.799 66.652H146.543C146.549 66.3093 146.865 66.1753 147.237 66.1753C147.631 66.1753 147.925 66.36 147.931 66.7324V67.2628C147.931 67.4207 147.973 67.4594 148.057 67.4594C148.116 67.4594 148.14 67.4416 148.14 67.4416V67.671C148.14 67.671 148.095 67.6948 148.009 67.6948C147.756 67.6948 147.705 67.5161 147.705 67.5161H147.693C147.693 67.5161 147.55 67.6948 147.172 67.6948ZM147.21 67.4565C147.523 67.4565 147.663 67.3492 147.675 67.3373V67.1704C147.663 67.1585 147.523 67.0572 147.21 67.0572C146.975 67.0572 146.737 67.093 146.737 67.2568C146.737 67.4207 146.975 67.4565 147.21 67.4565ZM148.422 67.665V66.2051H148.679V67.665H148.422ZM148.551 65.8356C148.455 65.8356 148.393 65.776 148.393 65.6926C148.393 65.6091 148.455 65.5496 148.551 65.5496C148.646 65.5496 148.708 65.6091 148.708 65.6926C148.708 65.776 148.646 65.8356 148.551 65.8356ZM149.127 67.665V66.2051H149.383V66.4881H149.398C149.398 66.4881 149.526 66.1753 149.934 66.1753C150.038 66.1753 150.11 66.1961 150.11 66.1961V66.4762C150.11 66.4762 150.026 66.4464 149.889 66.4464C149.568 66.4464 149.383 66.6818 149.383 66.9708V67.665H149.127ZM151.12 67.6948C150.646 67.6948 150.304 67.3999 150.304 66.935C150.304 66.4702 150.646 66.1753 151.105 66.1753C151.564 66.1753 151.907 66.4702 151.907 66.935C151.907 67.0066 151.898 67.0572 151.898 67.0572H150.578C150.578 67.1883 150.751 67.4565 151.12 67.4565C151.448 67.4565 151.564 67.2628 151.564 67.2628H151.865C151.865 67.2628 151.722 67.6948 151.12 67.6948ZM150.575 66.8248H151.636C151.636 66.6818 151.466 66.4136 151.105 66.4136C150.745 66.4136 150.575 66.6818 150.575 66.8248ZM152.948 67.6948C152.575 67.6948 152.236 67.5608 152.236 67.1883V67.1406H152.498V67.1883C152.498 67.3641 152.65 67.4565 152.948 67.4565C153.246 67.4565 153.398 67.379 153.398 67.233C153.398 66.8546 152.268 67.2568 152.268 66.6162C152.268 66.3064 152.569 66.1753 152.942 66.1753C153.314 66.1753 153.615 66.3123 153.615 66.6818H153.353C153.353 66.506 153.24 66.4136 152.942 66.4136C152.638 66.4136 152.531 66.4971 152.531 66.6162C152.531 66.9768 153.66 66.5894 153.66 67.233C153.66 67.5757 153.32 67.6948 152.948 67.6948Z" fill="#221C46"/>
<path d="M161.346 67.665V65.5794H162.914V65.8296H161.626V66.4673H162.735V66.7175H161.626V67.4148H162.914V67.665H161.346ZM162.002 65.3112L162.449 64.8345H162.779L162.24 65.3112H162.002ZM163.732 67.665L163.136 66.2051H163.405L163.917 67.4624H163.929L164.441 66.2051H164.71L164.114 67.665H163.732ZM165.733 67.6948C165.26 67.6948 164.917 67.3999 164.917 66.935C164.917 66.4702 165.26 66.1753 165.718 66.1753C166.177 66.1753 166.52 66.4702 166.52 66.935C166.52 67.0066 166.511 67.0572 166.511 67.0572H165.191C165.191 67.1883 165.364 67.4565 165.733 67.4565C166.061 67.4565 166.177 67.2628 166.177 67.2628H166.478C166.478 67.2628 166.335 67.6948 165.733 67.6948ZM165.188 66.8248H166.249C166.249 66.6818 166.079 66.4136 165.718 66.4136C165.358 66.4136 165.188 66.6818 165.188 66.8248ZM165.626 65.9101L165.087 65.4334H165.418L165.864 65.9101H165.626ZM166.909 67.665V66.2051H167.165V66.4285H167.18C167.18 66.4285 167.308 66.1753 167.716 66.1753C168.065 66.1753 168.375 66.3779 168.375 66.8516V67.665H168.118V66.9112C168.118 66.5537 167.913 66.4136 167.642 66.4136C167.326 66.4136 167.165 66.6222 167.165 66.9112V67.665H166.909ZM169.563 67.6948C169.089 67.6948 168.746 67.3999 168.746 66.935C168.746 66.4702 169.089 66.1753 169.548 66.1753C170.007 66.1753 170.349 66.4702 170.349 66.935C170.349 67.0066 170.34 67.0572 170.34 67.0572H169.02C169.02 67.1883 169.193 67.4565 169.563 67.4565C169.89 67.4565 170.007 67.2628 170.007 67.2628H170.307C170.307 67.2628 170.164 67.6948 169.563 67.6948ZM169.017 66.8248H170.078C170.078 66.6818 169.908 66.4136 169.548 66.4136C169.187 66.4136 169.017 66.6818 169.017 66.8248ZM170.738 67.665V66.2051H170.994V66.4285H171.009C171.009 66.4285 171.069 66.1753 171.447 66.1753C171.644 66.1753 171.813 66.2557 171.912 66.4285H171.93C171.93 66.4285 172.022 66.1753 172.4 66.1753C172.779 66.1753 173.02 66.3779 173.02 66.8516V67.665H172.764V66.9112C172.764 66.5537 172.627 66.4136 172.386 66.4136C172.099 66.4136 172.007 66.6222 172.007 66.9112V67.665H171.751V66.9112C171.751 66.5537 171.614 66.4136 171.372 66.4136C171.086 66.4136 170.994 66.6222 170.994 66.9112V67.665H170.738ZM174.209 67.6948C173.736 67.6948 173.393 67.3999 173.393 66.935C173.393 66.4702 173.736 66.1753 174.194 66.1753C174.653 66.1753 174.996 66.4702 174.996 66.935C174.996 67.0066 174.987 67.0572 174.987 67.0572H173.667C173.667 67.1883 173.84 67.4565 174.209 67.4565C174.537 67.4565 174.653 67.2628 174.653 67.2628H174.954C174.954 67.2628 174.811 67.6948 174.209 67.6948ZM173.664 66.8248H174.725C174.725 66.6818 174.555 66.4136 174.194 66.4136C173.834 66.4136 173.664 66.6818 173.664 66.8248ZM175.385 67.665V66.2051H175.641V66.4285H175.656C175.656 66.4285 175.784 66.1753 176.192 66.1753C176.541 66.1753 176.851 66.3779 176.851 66.8516V67.665H176.594V66.9112C176.594 66.5537 176.389 66.4136 176.118 66.4136C175.802 66.4136 175.641 66.6222 175.641 66.9112V67.665H175.385ZM177.961 67.6948C177.633 67.6948 177.407 67.519 177.407 67.1317V66.4375H177.163V66.2051H177.407V65.8773H177.663V66.2051H178.205V66.4375H177.663V67.0989C177.663 67.3879 177.806 67.4714 177.991 67.4714C178.161 67.4714 178.25 67.4028 178.25 67.4028V67.6352C178.25 67.6352 178.137 67.6948 177.961 67.6948Z" fill="#221C46"/>
<path d="M217.08 67.6948C216.604 67.6948 216.207 67.4922 216.207 67.087V66.9678H216.487V67.087C216.487 67.3581 216.765 67.4386 217.08 67.4386C217.396 67.4386 217.673 67.3552 217.673 67.087C217.673 66.5328 216.267 66.9857 216.267 66.1276C216.267 65.7671 216.598 65.5496 217.074 65.5496C217.551 65.5496 217.882 65.7671 217.882 66.1574V66.217H217.602V66.1574C217.602 65.9041 217.39 65.8058 217.074 65.8058C216.759 65.8058 216.547 65.9041 216.547 66.1276C216.547 66.6788 217.953 66.2795 217.953 67.087C217.953 67.4952 217.557 67.6948 217.08 67.6948ZM219.035 67.6948C218.707 67.6948 218.481 67.519 218.481 67.1317V66.4375H218.236V66.2051H218.481V65.8773H218.737V66.2051H219.279V66.4375H218.737V67.0989C218.737 67.3879 218.88 67.4714 219.065 67.4714C219.234 67.4714 219.324 67.4028 219.324 67.4028V67.6352C219.324 67.6352 219.211 67.6948 219.035 67.6948ZM220.23 67.6948C219.851 67.6948 219.532 67.5786 219.532 67.2568C219.532 66.941 219.851 66.8188 220.209 66.8188C220.543 66.8188 220.733 66.9619 220.733 66.9619V66.7324C220.733 66.5566 220.614 66.4136 220.295 66.4136C219.997 66.4136 219.857 66.506 219.857 66.652H219.601C219.607 66.3093 219.923 66.1753 220.295 66.1753C220.689 66.1753 220.983 66.36 220.989 66.7324V67.2628C220.989 67.4207 221.031 67.4594 221.115 67.4594C221.174 67.4594 221.198 67.4416 221.198 67.4416V67.671C221.198 67.671 221.153 67.6948 221.067 67.6948C220.814 67.6948 220.763 67.5161 220.763 67.5161H220.751C220.751 67.5161 220.608 67.6948 220.23 67.6948ZM220.268 67.4565C220.581 67.4565 220.721 67.3492 220.733 67.3373V67.1704C220.721 67.1585 220.581 67.0572 220.268 67.0572C220.033 67.0572 219.795 67.093 219.795 67.2568C219.795 67.4207 220.033 67.4565 220.268 67.4565ZM222.131 67.6948C221.803 67.6948 221.576 67.519 221.576 67.1317V66.4375H221.332V66.2051H221.576V65.8773H221.833V66.2051H222.375V66.4375H221.833V67.0989C221.833 67.3879 221.976 67.4714 222.16 67.4714C222.33 67.4714 222.42 67.4028 222.42 67.4028V67.6352C222.42 67.6352 222.306 67.6948 222.131 67.6948ZM223.346 67.6948C222.998 67.6948 222.688 67.4922 222.688 67.0185V66.2051H222.944V66.9589C222.944 67.3164 223.15 67.4565 223.421 67.4565C223.737 67.4565 223.898 67.2479 223.898 66.9589V66.2051H224.154V67.665H223.898V67.4416H223.883C223.883 67.4416 223.755 67.6948 223.346 67.6948ZM225.279 67.6948C224.951 67.6948 224.725 67.519 224.725 67.1317V66.4375H224.48V66.2051H224.725V65.8773H224.981V66.2051H225.523V66.4375H224.981V67.0989C224.981 67.3879 225.124 67.4714 225.309 67.4714C225.479 67.4714 225.568 67.4028 225.568 67.4028V67.6352C225.568 67.6352 225.455 67.6948 225.279 67.6948Z" fill="#221C46"/>
</g>
<rect width="192.181" height="9" transform="translate(55.8086 72.1138)" fill="white"/>
<path d="M60.539 77.7207V75.8957H61.2664C61.6653 75.8957 61.8973 76.1043 61.8973 76.4484C61.8973 76.8734 61.5349 76.9699 61.4984 76.9699L61.986 77.7207H61.7904L61.3159 77.0011H60.7111V77.7207H60.539ZM60.7111 76.8447H61.2664C61.548 76.8447 61.7201 76.6987 61.7201 76.4484C61.7201 76.2008 61.548 76.0522 61.2664 76.0522H60.7111V76.8447ZM62.9488 77.7468C62.5447 77.7468 62.2605 77.4756 62.2605 77.082C62.2605 76.6883 62.5499 76.4171 62.9436 76.4171C63.3373 76.4171 63.6267 76.6883 63.6267 77.082C63.6267 77.1367 63.6188 77.181 63.6188 77.181H62.4352C62.4352 77.2332 62.5317 77.5903 62.9488 77.5903C63.2512 77.5903 63.3686 77.3974 63.3686 77.3974H63.5641C63.5641 77.3974 63.4129 77.7468 62.9488 77.7468ZM62.43 77.0298H63.4572C63.4572 76.8656 63.3034 76.5736 62.9436 76.5736C62.5838 76.5736 62.43 76.8656 62.43 77.0298ZM62.8445 76.1825L63.2356 75.7654H63.4494L63.0062 76.1825H62.8445ZM64.6442 77.7468C64.2505 77.7468 63.9664 77.4756 63.9664 77.082C63.9664 76.6883 64.2505 76.4171 64.6442 76.4171C65.1213 76.4171 65.3116 76.7952 65.3116 76.9386H65.1422C65.1422 76.8864 65.0222 76.5736 64.6442 76.5736C64.334 76.5736 64.1332 76.7978 64.1332 77.082C64.1332 77.3661 64.334 77.5903 64.6442 77.5903C65.0222 77.5903 65.1422 77.2775 65.1422 77.2254H65.3116C65.3116 77.3687 65.1213 77.7468 64.6442 77.7468ZM66.3196 77.7468C65.9259 77.7468 65.6365 77.4756 65.6365 77.082C65.6365 76.6883 65.9259 76.4171 66.3196 76.4171C66.7133 76.4171 67.0027 76.6883 67.0027 77.082C67.0027 77.4756 66.7133 77.7468 66.3196 77.7468ZM66.3196 77.5903C66.6298 77.5903 66.8358 77.3661 66.8358 77.082C66.8358 76.7978 66.6298 76.5736 66.3196 76.5736C66.0094 76.5736 65.8034 76.7978 65.8034 77.082C65.8034 77.3661 66.0094 77.5903 66.3196 77.5903ZM67.3945 77.7207V76.4432H67.5561V76.6309H67.564C67.564 76.6309 67.6344 76.4171 67.9602 76.4171C68.2653 76.4171 68.3591 76.6805 68.3591 76.6805H68.3696C68.3696 76.6805 68.4634 76.4171 68.8206 76.4171C69.1387 76.4171 69.3342 76.6023 69.3342 76.9985V77.7207H69.1725V77.0298C69.1725 76.7065 69.0422 76.5658 68.8102 76.5658C68.5625 76.5658 68.4452 76.743 68.4452 77.022V77.7207H68.2835V77.0194C68.2835 76.7326 68.1688 76.5658 67.9185 76.5658C67.6709 76.5658 67.5561 76.743 67.5561 77.022V77.7207H67.3945ZM69.7648 78.2421V76.4432H69.9265V76.6622H69.9369C69.9395 76.6622 70.0751 76.4171 70.4557 76.4171C70.8364 76.4171 71.1257 76.6883 71.1257 77.082C71.1257 77.4756 70.8364 77.7468 70.4557 77.7468C70.0751 77.7468 69.9395 77.5017 69.9369 77.5017H69.9265V78.2421H69.7648ZM70.4427 77.5903C70.7529 77.5903 70.9589 77.3661 70.9589 77.082C70.9589 76.7978 70.7529 76.5736 70.4427 76.5736C70.1403 76.5736 69.9265 76.7821 69.9265 77.082C69.9265 77.3818 70.1403 77.5903 70.4427 77.5903ZM72.1526 77.7468C71.7485 77.7468 71.4643 77.4756 71.4643 77.082C71.4643 76.6883 71.7537 76.4171 72.1474 76.4171C72.5411 76.4171 72.8305 76.6883 72.8305 77.082C72.8305 77.1367 72.8226 77.181 72.8226 77.181H71.639C71.639 77.2332 71.7355 77.5903 72.1526 77.5903C72.455 77.5903 72.5724 77.3974 72.5724 77.3974H72.7679C72.7679 77.3974 72.6167 77.7468 72.1526 77.7468ZM71.6338 77.0298H72.661C72.661 76.8656 72.5072 76.5736 72.1474 76.5736C71.7876 76.5736 71.6338 76.8656 71.6338 77.0298ZM73.2223 77.7207V76.4432H73.3839V76.644H73.3944C73.3944 76.644 73.5091 76.4171 73.8767 76.4171C74.1843 76.4171 74.4476 76.5918 74.4476 77.0064V77.7207H74.286V77.0376C74.286 76.6961 74.0853 76.5684 73.835 76.5684C73.5299 76.5684 73.3839 76.7743 73.3839 77.0429V77.7207H73.2223ZM75.4273 77.7468C75.1066 77.7468 74.8251 77.6216 74.8251 77.3114V77.2619H74.9867V77.3114C74.9867 77.5043 75.1614 77.5956 75.4273 77.5956C75.688 77.5956 75.8679 77.533 75.8679 77.3635C75.8679 76.9985 74.8563 77.3244 74.8563 76.7874C74.8563 76.5371 75.0988 76.4171 75.4195 76.4171C75.7402 76.4171 75.9852 76.5449 75.9852 76.8369H75.8236C75.8236 76.6596 75.6854 76.5684 75.4195 76.5684C75.151 76.5684 75.018 76.6492 75.018 76.7874C75.018 77.1367 76.0295 76.8265 76.0295 77.3635C76.0295 77.6477 75.748 77.7468 75.4273 77.7468ZM77.0562 77.7468C76.6521 77.7468 76.3679 77.4756 76.3679 77.082C76.3679 76.6883 76.6573 76.4171 77.051 76.4171C77.4447 76.4171 77.7341 76.6883 77.7341 77.082C77.7341 77.1367 77.7262 77.181 77.7262 77.181H76.5426C76.5426 77.2332 76.6391 77.5903 77.0562 77.5903C77.3586 77.5903 77.476 77.3974 77.476 77.3974H77.6715C77.6715 77.3974 77.5203 77.7468 77.0562 77.7468ZM76.5374 77.0298H77.5646C77.5646 76.8656 77.4108 76.5736 77.051 76.5736C76.6912 76.5736 76.5374 76.8656 76.5374 77.0298ZM78.676 77.7468C78.3553 77.7468 78.0738 77.6216 78.0738 77.3114V77.2619H78.2354V77.3114C78.2354 77.5043 78.4101 77.5956 78.676 77.5956C78.9367 77.5956 79.1166 77.533 79.1166 77.3635C79.1166 76.9985 78.105 77.3244 78.105 76.7874C78.105 76.5371 78.3475 76.4171 78.6682 76.4171C78.9889 76.4171 79.2339 76.5449 79.2339 76.8369H79.0723C79.0723 76.6596 78.9341 76.5684 78.6682 76.5684C78.3997 76.5684 78.2667 76.6492 78.2667 76.7874C78.2667 77.1367 79.2782 76.8265 79.2782 77.3635C79.2782 77.6477 78.9967 77.7468 78.676 77.7468ZM80.9208 77.7468C80.5271 77.7468 80.243 77.4756 80.243 77.082C80.243 76.6883 80.5271 76.4171 80.9208 76.4171C81.3979 76.4171 81.5882 76.7952 81.5882 76.9386H81.4188C81.4188 76.8864 81.2988 76.5736 80.9208 76.5736C80.6106 76.5736 80.4098 76.7978 80.4098 77.082C80.4098 77.3661 80.6106 77.5903 80.9208 77.5903C81.2988 77.5903 81.4188 77.2775 81.4188 77.2254H81.5882C81.5882 77.3687 81.3979 77.7468 80.9208 77.7468ZM81.9653 77.7207V75.8957H82.1269V76.644H82.1373C82.1373 76.644 82.2521 76.4171 82.6197 76.4171C82.9273 76.4171 83.1906 76.5918 83.1906 77.0064V77.7207H83.029V77.0376C83.029 76.6961 82.8282 76.5684 82.5779 76.5684C82.2729 76.5684 82.1269 76.7743 82.1269 77.0429V77.7207H81.9653ZM84.1546 77.7468C83.8314 77.7468 83.555 77.6399 83.555 77.3714C83.555 77.1054 83.8314 76.9907 84.1442 76.9907C84.4492 76.9907 84.6265 77.1237 84.6265 77.1237V76.889C84.6265 76.67 84.431 76.5684 84.212 76.5684C83.98 76.5684 83.7844 76.6779 83.7844 76.816H83.6228C83.628 76.6309 83.8079 76.4171 84.2068 76.4171C84.5118 76.4171 84.7882 76.5631 84.7882 76.889V77.4287C84.7882 77.5538 84.8247 77.5956 84.9133 77.5956C84.9681 77.5956 84.9915 77.5799 84.9915 77.5799V77.7207C84.9915 77.7207 84.9576 77.739 84.8872 77.739C84.6787 77.739 84.6474 77.5851 84.6474 77.5851H84.6396C84.6396 77.5851 84.4805 77.7468 84.1546 77.7468ZM84.1755 77.5956C84.4727 77.5956 84.6213 77.4548 84.6265 77.4496V77.2697C84.6213 77.2619 84.4753 77.1419 84.1755 77.1419C83.9435 77.1419 83.7219 77.1967 83.7219 77.3714C83.7219 77.5434 83.9435 77.5956 84.1755 77.5956ZM85.2649 77.7207V75.8957H85.4265V77.7207H85.2649ZM85.8709 77.7207V75.8957H86.0325V77.7207H85.8709ZM87.1129 77.7468C86.7088 77.7468 86.4247 77.4756 86.4247 77.082C86.4247 76.6883 86.714 76.4171 87.1077 76.4171C87.5014 76.4171 87.7908 76.6883 87.7908 77.082C87.7908 77.1367 87.783 77.181 87.783 77.181H86.5993C86.5993 77.2332 86.6958 77.5903 87.1129 77.5903C87.4154 77.5903 87.5327 77.3974 87.5327 77.3974H87.7282C87.7282 77.3974 87.577 77.7468 87.1129 77.7468ZM86.5941 77.0298H87.6213C87.6213 76.8656 87.4675 76.5736 87.1077 76.5736C86.7479 76.5736 86.5941 76.8656 86.5941 77.0298ZM88.1826 77.7207V76.4432H88.3443V76.644H88.3547C88.3547 76.644 88.4694 76.4171 88.837 76.4171C89.1446 76.4171 89.408 76.5918 89.408 77.0064V77.7207H89.2463V77.0376C89.2463 76.6961 89.0456 76.5684 88.7953 76.5684C88.4903 76.5684 88.3443 76.7743 88.3443 77.0429V77.7207H88.1826ZM90.3329 78.2682C89.9601 78.2682 89.7072 78.1248 89.7072 77.8876C89.7072 77.6503 89.9783 77.5617 89.9783 77.5617V77.5565C89.9783 77.5565 89.8219 77.52 89.8219 77.3766C89.8219 77.2384 90.0044 77.1862 90.0044 77.1862V77.181C90.0044 77.181 89.7828 77.1054 89.7802 76.8369C89.7802 76.5658 90.0122 76.4171 90.3329 76.4171H91.0368V76.5736H90.7578V76.5814C90.7578 76.5814 90.883 76.644 90.883 76.8369C90.883 77.1054 90.6509 77.2514 90.3329 77.2514C90.1634 77.2514 89.9887 77.2775 89.9887 77.3766C89.9887 77.4678 90.1478 77.5069 90.3329 77.5069C90.7031 77.5069 90.9586 77.6581 90.9586 77.8876C90.9586 78.1248 90.7031 78.2682 90.3329 78.2682ZM90.3329 78.1118C90.6066 78.1118 90.7917 78.0257 90.7917 77.8876C90.7917 77.7546 90.6066 77.6633 90.3329 77.6633C90.0487 77.6633 89.874 77.7572 89.874 77.8876C89.874 78.0257 90.0565 78.1118 90.3329 78.1118ZM90.3329 77.095C90.5545 77.095 90.7161 77.0116 90.7161 76.8369C90.7161 76.6622 90.5545 76.5736 90.3329 76.5736C90.1087 76.5736 89.947 76.6622 89.947 76.8369C89.947 77.009 90.1034 77.095 90.3329 77.095ZM91.9605 77.7468C91.5564 77.7468 91.2722 77.4756 91.2722 77.082C91.2722 76.6883 91.5616 76.4171 91.9553 76.4171C92.349 76.4171 92.6384 76.6883 92.6384 77.082C92.6384 77.1367 92.6306 77.181 92.6306 77.181H91.4469C91.4469 77.2332 91.5434 77.5903 91.9605 77.5903C92.2629 77.5903 92.3803 77.3974 92.3803 77.3974H92.5758C92.5758 77.3974 92.4246 77.7468 91.9605 77.7468ZM91.4417 77.0298H92.4689C92.4689 76.8656 92.3151 76.5736 91.9553 76.5736C91.5955 76.5736 91.4417 76.8656 91.4417 77.0298ZM93.5803 77.7468C93.2596 77.7468 92.9781 77.6216 92.9781 77.3114V77.2619H93.1397V77.3114C93.1397 77.5043 93.3144 77.5956 93.5803 77.5956C93.841 77.5956 94.0209 77.533 94.0209 77.3635C94.0209 76.9985 93.0094 77.3244 93.0094 76.7874C93.0094 76.5371 93.2518 76.4171 93.5725 76.4171C93.8932 76.4171 94.1382 76.5449 94.1382 76.8369H93.9766C93.9766 76.6596 93.8384 76.5684 93.5725 76.5684C93.304 76.5684 93.171 76.6492 93.171 76.7874C93.171 77.1367 94.1826 76.8265 94.1826 77.3635C94.1826 77.6477 93.901 77.7468 93.5803 77.7468Z" fill="#221C46"/>
<path d="M112.975 77.7207V76.1095L112.582 76.4589V76.2529L112.978 75.8957H113.148V77.7207H112.975ZM113.566 77.7207V77.5799C113.566 76.8969 114.83 76.9803 114.83 76.4067C114.83 76.1538 114.619 76.0261 114.314 76.0261C114.012 76.0261 113.798 76.1564 113.798 76.4302V76.4823H113.626V76.4302C113.626 76.0678 113.913 75.8697 114.314 75.8697C114.718 75.8697 115.002 76.0652 115.002 76.4067C115.002 77.0976 113.743 77.035 113.743 77.5643H115.015V77.7207H113.566ZM116.172 77.7468C115.654 77.7468 115.354 77.3322 115.354 76.8082C115.354 76.2842 115.654 75.8697 116.172 75.8697C116.691 75.8697 116.991 76.2842 116.991 76.8082C116.991 77.3322 116.691 77.7468 116.172 77.7468ZM116.172 77.5851C116.587 77.5851 116.814 77.2384 116.814 76.8082C116.814 76.378 116.587 76.0313 116.172 76.0313C115.758 76.0313 115.531 76.378 115.531 76.8082C115.531 77.2384 115.758 77.5851 116.172 77.5851ZM118.173 77.7468C117.655 77.7468 117.355 77.3322 117.355 76.8082C117.355 76.2842 117.655 75.8697 118.173 75.8697C118.692 75.8697 118.992 76.2842 118.992 76.8082C118.992 77.3322 118.692 77.7468 118.173 77.7468ZM118.173 77.5851C118.588 77.5851 118.815 77.2384 118.815 76.8082C118.815 76.378 118.588 76.0313 118.173 76.0313C117.759 76.0313 117.532 76.378 117.532 76.8082C117.532 77.2384 117.759 77.5851 118.173 77.5851ZM120.991 77.7468C120.243 77.7468 120.121 77.0637 120.121 77.0637H119.878V76.9125H120.1C120.1 76.9125 120.094 76.876 120.094 76.8082C120.094 76.7456 120.1 76.7039 120.1 76.7039H119.878V76.5527H120.121C120.121 76.5527 120.243 75.8697 120.991 75.8697C121.664 75.8697 121.862 76.425 121.862 76.6075H121.69C121.69 76.5631 121.567 76.0313 120.989 76.0313C120.42 76.0313 120.306 76.5527 120.303 76.5527H120.934V76.7039H120.277C120.277 76.7039 120.272 76.7613 120.272 76.8082C120.272 76.8551 120.277 76.9125 120.277 76.9125H120.934V77.0637H120.306C120.306 77.0637 120.418 77.5851 120.991 77.5851C121.578 77.5851 121.69 77.0376 121.69 77.009H121.862C121.862 77.1941 121.664 77.7468 120.991 77.7468Z" fill="#221C46"/>
<path d="M134.576 77.7207V76.1095L134.182 76.4589V76.2529L134.579 75.8957H134.748V77.7207H134.576ZM135.166 77.7207V77.5799C135.166 76.8969 136.431 76.9803 136.431 76.4067C136.431 76.1538 136.22 76.0261 135.915 76.0261C135.612 76.0261 135.398 76.1564 135.398 76.4302V76.4823H135.226V76.4302C135.226 76.0678 135.513 75.8697 135.915 75.8697C136.319 75.8697 136.603 76.0652 136.603 76.4067C136.603 77.0976 135.344 77.035 135.344 77.5643H136.616V77.7207H135.166ZM137.773 77.7468C137.254 77.7468 136.954 77.3322 136.954 76.8082C136.954 76.2842 137.254 75.8697 137.773 75.8697C138.292 75.8697 138.592 76.2842 138.592 76.8082C138.592 77.3322 138.292 77.7468 137.773 77.7468ZM137.773 77.5851C138.187 77.5851 138.414 77.2384 138.414 76.8082C138.414 76.378 138.187 76.0313 137.773 76.0313C137.358 76.0313 137.132 76.378 137.132 76.8082C137.132 77.2384 137.358 77.5851 137.773 77.5851ZM139.774 77.7468C139.255 77.7468 138.955 77.3322 138.955 76.8082C138.955 76.2842 139.255 75.8697 139.774 75.8697C140.293 75.8697 140.593 76.2842 140.593 76.8082C140.593 77.3322 140.293 77.7468 139.774 77.7468ZM139.774 77.5851C140.189 77.5851 140.415 77.2384 140.415 76.8082C140.415 76.378 140.189 76.0313 139.774 76.0313C139.36 76.0313 139.133 76.378 139.133 76.8082C139.133 77.2384 139.36 77.5851 139.774 77.5851ZM142.592 77.7468C141.844 77.7468 141.721 77.0637 141.721 77.0637H141.479V76.9125H141.7C141.7 76.9125 141.695 76.876 141.695 76.8082C141.695 76.7456 141.7 76.7039 141.7 76.7039H141.479V76.5527H141.721C141.721 76.5527 141.844 75.8697 142.592 75.8697C143.265 75.8697 143.463 76.425 143.463 76.6075H143.291C143.291 76.5631 143.168 76.0313 142.589 76.0313C142.021 76.0313 141.906 76.5527 141.904 76.5527H142.535V76.7039H141.878C141.878 76.7039 141.872 76.7613 141.872 76.8082C141.872 76.8551 141.878 76.9125 141.878 76.9125H142.535V77.0637H141.906C141.906 77.0637 142.018 77.5851 142.592 77.5851C143.178 77.5851 143.291 77.0376 143.291 77.009H143.463C143.463 77.1941 143.265 77.7468 142.592 77.7468Z" fill="#221C46"/>
<path d="M161.339 77.7207V75.8957H161.61L162.692 77.533H162.697V75.8957H162.869V77.7207H162.601L161.516 76.0834H161.511V77.7207H161.339ZM163.983 77.7468C163.589 77.7468 163.3 77.4756 163.3 77.082C163.3 76.6883 163.589 76.4171 163.983 76.4171C164.376 76.4171 164.666 76.6883 164.666 77.082C164.666 77.4756 164.376 77.7468 163.983 77.7468ZM163.983 77.5903C164.293 77.5903 164.499 77.3661 164.499 77.082C164.499 76.7978 164.293 76.5736 163.983 76.5736C163.672 76.5736 163.467 76.7978 163.467 77.082C163.467 77.3661 163.672 77.5903 163.983 77.5903ZM165.694 77.7468C165.29 77.7468 165.005 77.4756 165.005 77.082C165.005 76.6883 165.295 76.4171 165.689 76.4171C166.082 76.4171 166.372 76.6883 166.372 77.082C166.372 77.1367 166.364 77.181 166.364 77.181H165.18C165.18 77.2332 165.277 77.5903 165.694 77.5903C165.996 77.5903 166.114 77.3974 166.114 77.3974H166.309C166.309 77.3974 166.158 77.7468 165.694 77.7468ZM165.175 77.0298H166.202C166.202 76.8656 166.048 76.5736 165.689 76.5736C165.329 76.5736 165.175 76.8656 165.175 77.0298ZM165.451 76.1564C165.386 76.1564 165.344 76.1147 165.344 76.0574C165.344 76 165.386 75.9583 165.451 75.9583C165.516 75.9583 165.558 76 165.558 76.0574C165.558 76.1147 165.516 76.1564 165.451 76.1564ZM165.926 76.1564C165.861 76.1564 165.819 76.1147 165.819 76.0574C165.819 76 165.861 75.9583 165.926 75.9583C165.991 75.9583 166.033 76 166.033 76.0574C166.033 76.1147 165.991 76.1564 165.926 76.1564ZM166.763 77.7207V75.8957H166.925V77.7207H166.763ZM168.53 77.7468C168.207 77.7468 167.931 77.6399 167.931 77.3714C167.931 77.1054 168.207 76.9907 168.52 76.9907C168.825 76.9907 169.002 77.1237 169.002 77.1237V76.889C169.002 76.67 168.807 76.5684 168.588 76.5684C168.355 76.5684 168.16 76.6779 168.16 76.816H167.998C168.004 76.6309 168.183 76.4171 168.582 76.4171C168.887 76.4171 169.164 76.5631 169.164 76.889V77.4287C169.164 77.5538 169.2 77.5956 169.289 77.5956C169.344 77.5956 169.367 77.5799 169.367 77.5799V77.7207C169.367 77.7207 169.333 77.739 169.263 77.739C169.054 77.739 169.023 77.5851 169.023 77.5851H169.015C169.015 77.5851 168.856 77.7468 168.53 77.7468ZM168.551 77.5956C168.848 77.5956 168.997 77.4548 169.002 77.4496V77.2697C168.997 77.2619 168.851 77.1419 168.551 77.1419C168.319 77.1419 168.097 77.1967 168.097 77.3714C168.097 77.5434 168.319 77.5956 168.551 77.5956ZM170.258 77.7468C169.878 77.7468 169.588 77.4756 169.588 77.082C169.588 76.6883 169.878 76.4171 170.258 76.4171C170.639 76.4171 170.775 76.6622 170.777 76.6622H170.788V75.8957H170.949V77.7207H170.788V77.5017H170.777C170.775 77.5017 170.639 77.7468 170.258 77.7468ZM170.271 77.5903C170.574 77.5903 170.788 77.3818 170.788 77.082C170.788 76.7821 170.574 76.5736 170.271 76.5736C169.961 76.5736 169.755 76.7978 169.755 77.082C169.755 77.3661 169.961 77.5903 170.271 77.5903ZM171.963 77.7468C171.655 77.7468 171.392 77.5721 171.392 77.1576V76.4432H171.554V77.1263C171.554 77.4678 171.754 77.5956 172.005 77.5956C172.31 77.5956 172.456 77.3896 172.456 77.1211V76.4432H172.617V77.7207H172.456V77.52H172.445C172.445 77.52 172.331 77.7468 171.963 77.7468ZM173.06 77.7207V75.8957H173.221V77.7207H173.06ZM174.174 77.7468C173.926 77.7468 173.731 77.6034 173.731 77.2645V76.5944H173.509V76.4432H173.731V76.1564H173.892V76.4432H174.383V76.5944H173.892V77.2462C173.892 77.5043 174.018 77.5956 174.187 77.5956C174.349 77.5956 174.435 77.533 174.435 77.533V77.6868C174.435 77.6868 174.341 77.7468 174.174 77.7468ZM175.318 77.7468C174.914 77.7468 174.629 77.4756 174.629 77.082C174.629 76.6883 174.919 76.4171 175.312 76.4171C175.706 76.4171 175.996 76.6883 175.996 77.082C175.996 77.1367 175.988 77.181 175.988 77.181H174.804C174.804 77.2332 174.901 77.5903 175.318 77.5903C175.62 77.5903 175.737 77.3974 175.737 77.3974H175.933C175.933 77.3974 175.782 77.7468 175.318 77.7468ZM174.799 77.0298H175.826C175.826 76.8656 175.672 76.5736 175.312 76.5736C174.953 76.5736 174.799 76.8656 174.799 77.0298Z" fill="#221C46"/>
<circle cx="216.759" cy="76.7205" r="0.744888" fill="#01AD43"/>
<path d="M219.425 77.7207V75.8957H220.741V76.0522H219.597V76.7065H220.593V76.863H219.597V77.5643H220.741V77.7207H219.425ZM221.132 77.7207V76.4432H221.294V76.644H221.304C221.304 76.644 221.419 76.4171 221.787 76.4171C222.094 76.4171 222.358 76.5918 222.358 77.0064V77.7207H222.196V77.0376C222.196 76.6961 221.995 76.5684 221.745 76.5684C221.44 76.5684 221.294 76.7743 221.294 77.0429V77.7207H221.132ZM224.039 77.7468C223.646 77.7468 223.361 77.4756 223.361 77.082C223.361 76.6883 223.646 76.4171 224.039 76.4171C224.516 76.4171 224.707 76.7952 224.707 76.9386H224.537C224.537 76.8864 224.417 76.5736 224.039 76.5736C223.729 76.5736 223.528 76.7978 223.528 77.082C223.528 77.3661 223.729 77.5903 224.039 77.5903C224.417 77.5903 224.537 77.2775 224.537 77.2254H224.707C224.707 77.3687 224.516 77.7468 224.039 77.7468ZM225.715 77.7468C225.321 77.7468 225.032 77.4756 225.032 77.082C225.032 76.6883 225.321 76.4171 225.715 76.4171C226.108 76.4171 226.398 76.6883 226.398 77.082C226.398 77.4756 226.108 77.7468 225.715 77.7468ZM225.715 77.5903C226.025 77.5903 226.231 77.3661 226.231 77.082C226.231 76.7978 226.025 76.5736 225.715 76.5736C225.404 76.5736 225.198 76.7978 225.198 77.082C225.198 77.3661 225.404 77.5903 225.715 77.5903ZM227.36 77.7468C227.053 77.7468 226.789 77.5721 226.789 77.1576V76.4432H226.951V77.1263C226.951 77.4678 227.152 77.5956 227.402 77.5956C227.707 77.5956 227.853 77.3896 227.853 77.1211V76.4432H228.015V77.7207H227.853V77.52H227.843C227.843 77.52 227.728 77.7468 227.36 77.7468ZM228.457 77.7207V76.4432H228.619V76.7013H228.629C228.629 76.7013 228.739 76.4171 229.106 76.4171C229.195 76.4171 229.265 76.4406 229.265 76.4406V76.6101C229.265 76.6101 229.195 76.584 229.085 76.584C228.775 76.584 228.619 76.8317 228.619 77.1054V77.7207H228.457ZM230.051 77.7468C229.73 77.7468 229.449 77.6216 229.449 77.3114V77.2619H229.61V77.3114C229.61 77.5043 229.785 77.5956 230.051 77.5956C230.312 77.5956 230.492 77.533 230.492 77.3635C230.492 76.9985 229.48 77.3244 229.48 76.7874C229.48 76.5371 229.723 76.4171 230.043 76.4171C230.364 76.4171 230.609 76.5449 230.609 76.8369H230.447C230.447 76.6596 230.309 76.5684 230.043 76.5684C229.775 76.5684 229.642 76.6492 229.642 76.7874C229.642 77.1367 230.653 76.8265 230.653 77.3635C230.653 77.6477 230.372 77.7468 230.051 77.7468Z" fill="#221C46"/>
<rect width="192.181" height="9" transform="translate(55.8086 81.1138)" fill="white"/>
<rect x="60.2783" y="84.9619" width="18.6222" height="1.30377" fill="#F0EEF5"/>
<rect x="112.478" y="84.8687" width="8.56621" height="1.48978" fill="#F0EEF5"/>
<rect x="134.078" y="84.8691" width="8.56621" height="1.48978" fill="#F0EEF5"/>
<rect x="161.078" y="84.8384" width="31.6577" height="1.48978" fill="#F0EEF5"/>
<circle cx="216.759" cy="85.5833" r="0.744888" fill="#01AD43"/>
<rect x="218.993" y="84.9312" width="8.93865" height="1.30377" fill="#F0EEF5"/>
<rect width="192.181" height="9" transform="translate(55.8086 90.1138)" fill="white"/>
<rect x="60.2783" y="93.9619" width="18.6222" height="1.30377" fill="#F0EEF5"/>
<rect x="112.478" y="93.8687" width="8.56621" height="1.48978" fill="#F0EEF5"/>
<rect x="134.078" y="93.8691" width="8.56621" height="1.48978" fill="#F0EEF5"/>
<rect x="161.078" y="93.8384" width="31.6577" height="1.48978" fill="#F0EEF5"/>
<circle cx="216.759" cy="94.5833" r="0.744888" fill="#01AD43"/>
<rect x="218.993" y="93.9312" width="8.93865" height="1.30377" fill="#F0EEF5"/>
<rect width="192.181" height="9" transform="translate(55.8086 99.1138)" fill="white"/>
<rect x="60.2783" y="102.962" width="18.6222" height="1.30377" fill="#F0EEF5"/>
<rect x="112.478" y="102.869" width="8.56621" height="1.48978" fill="#F0EEF5"/>
<rect x="134.078" y="102.869" width="8.56621" height="1.48978" fill="#F0EEF5"/>
<rect x="161.078" y="102.838" width="31.6577" height="1.48978" fill="#F0EEF5"/>
<circle cx="216.759" cy="103.583" r="0.744888" fill="#01AD43"/>
<rect x="218.993" y="102.931" width="8.93865" height="1.30377" fill="#F0EEF5"/>
<rect width="192.181" height="9" transform="translate(55.8086 108.114)" fill="white"/>
<rect x="60.2783" y="111.962" width="18.6222" height="1.30377" fill="#F0EEF5"/>
<rect x="112.478" y="111.869" width="8.56621" height="1.48978" fill="#F0EEF5"/>
<rect x="134.078" y="111.869" width="8.56621" height="1.48978" fill="#F0EEF5"/>
<rect x="161.078" y="111.838" width="31.6577" height="1.48978" fill="#F0EEF5"/>
<circle cx="216.759" cy="112.583" r="0.744888" fill="#01AD43"/>
<rect x="218.993" y="111.931" width="8.93865" height="1.30377" fill="#F0EEF5"/>
<rect width="192.181" height="9" transform="translate(55.8086 117.114)" fill="white"/>
<rect x="60.2783" y="120.962" width="18.6222" height="1.30377" fill="#F0EEF5"/>
<rect x="112.478" y="120.869" width="8.56621" height="1.48978" fill="#F0EEF5"/>
<rect x="134.078" y="120.869" width="8.56621" height="1.48978" fill="#F0EEF5"/>
<rect x="161.078" y="120.838" width="31.6577" height="1.48978" fill="#F0EEF5"/>
<circle cx="216.759" cy="121.583" r="0.744888" fill="#01AD43"/>
<rect x="218.993" y="120.931" width="8.93865" height="1.30377" fill="#F0EEF5"/>
<rect width="192.181" height="9" transform="translate(55.8086 126.114)" fill="white"/>
<rect x="60.2783" y="129.962" width="18.6222" height="1.30377" fill="#F0EEF5"/>
<rect x="112.478" y="129.869" width="8.56621" height="1.48978" fill="#F0EEF5"/>
<rect x="134.078" y="129.869" width="8.56621" height="1.48978" fill="#F0EEF5"/>
<rect x="161.078" y="129.838" width="31.6577" height="1.48978" fill="#F0EEF5"/>
<circle cx="216.759" cy="130.583" r="0.744888" fill="#01AD43"/>
<rect x="218.993" y="129.931" width="8.93865" height="1.30377" fill="#F0EEF5"/>
<rect width="192.181" height="9" transform="translate(55.8086 135.114)" fill="white"/>
<rect x="60.2783" y="138.962" width="18.6222" height="1.30377" fill="#F0EEF5"/>
<rect x="112.478" y="138.869" width="8.56621" height="1.48978" fill="#F0EEF5"/>
<rect x="134.078" y="138.869" width="8.56621" height="1.48978" fill="#F0EEF5"/>
<rect x="161.078" y="138.838" width="31.6577" height="1.48978" fill="#F0EEF5"/>
<circle cx="216.759" cy="139.583" r="0.744888" fill="#01AD43"/>
<rect x="218.993" y="138.931" width="8.93865" height="1.30377" fill="#F0EEF5"/>
<rect width="192.181" height="9" transform="translate(55.8086 144.114)" fill="white"/>
<rect x="55.9017" y="61.7787" width="191.995" height="99.3797" stroke="#E5E3EA" stroke-width="0.186222"/>
</g>
<g filter="url(#filter0_d_3676_2630)">
<rect x="11.0557" y="1.16895" width="281.008" height="35.23" fill="white" shape-rendering="crispEdges"/>
<rect x="11.2884" y="1.4017" width="280.542" height="34.7645" stroke="#E5E3EA" stroke-width="0.465513" shape-rendering="crispEdges"/>
<rect x="22.4639" y="12.5771" width="12.4137" height="12.4137" rx="6.20684" fill="#01AD43"/>
<path fill-rule="evenodd" clip-rule="evenodd" d="M25.5674 19.7594L26.3111 18.9613L27.5506 20.2914L31.2692 16.3013L32.0129 17.0993L27.5506 21.8874L25.5674 19.7594V19.7594Z" fill="white"/>
<path d="M45.381 21.7842L43.0409 15.0432H44.6395L46.3633 20.2626H46.4981L48.2219 15.0432H49.8205L47.4804 21.7842H45.381ZM52.5175 21.8805C50.9285 21.8805 49.7729 20.9753 49.7729 19.3767C49.7729 17.7781 50.9285 16.8729 52.5175 16.8729C54.1064 16.8729 55.262 17.7781 55.262 19.3767C55.262 20.9753 54.1064 21.8805 52.5175 21.8805ZM52.5175 20.6864C53.3649 20.6864 53.8368 20.1182 53.8368 19.3767C53.8368 18.6352 53.3649 18.067 52.5175 18.067C51.67 18.067 51.1981 18.6352 51.1981 19.3767C51.1981 20.1182 51.67 20.6864 52.5175 20.6864ZM58.4392 21.8805C57.3028 21.8805 56.4169 21.2449 56.4169 19.7811V16.9692H57.8036V19.3959C57.8036 20.2337 58.2947 20.6478 59.0266 20.6478C59.8355 20.6478 60.2496 20.1182 60.2496 19.3959V16.9692H61.6363V21.7842H60.2496V20.9849H60.1726C60.1726 20.9849 59.797 21.8805 58.4392 21.8805ZM65.196 21.8805C63.6937 21.8805 62.6922 21.4471 62.6922 20.2434V20.0893H64.1174V20.2434C64.1174 20.6864 64.4544 20.8501 65.196 20.8501C65.976 20.8501 66.2938 20.6864 66.2938 20.3589C66.2938 19.4345 62.7885 20.4167 62.7885 18.3366C62.7885 17.364 63.7033 16.8729 65.1382 16.8729C66.5923 16.8729 67.4975 17.3544 67.4975 18.4618H66.0723C66.0723 18.2307 66.0434 17.9033 65.1093 17.9033C64.4448 17.9033 64.2137 18.0959 64.2137 18.3463C64.2137 19.1552 67.719 18.2307 67.719 20.3397C67.719 21.4471 66.7175 21.8805 65.196 21.8805ZM72.9354 21.8805C71.8665 21.8805 70.942 21.4279 70.942 20.4263C70.942 19.3767 71.9435 18.9433 73.0991 18.9433C74.1873 18.9433 74.6592 19.3478 74.6592 19.3478V18.6448C74.6592 18.2885 74.4377 17.9129 73.6384 17.9129C73.2243 17.9129 72.608 18.0574 72.608 18.5196H71.1827C71.1924 17.3833 72.1939 16.8729 73.6384 16.8729C75.1118 16.8729 76.0459 17.4314 76.0459 18.6448V20.1471C76.0459 20.5515 76.1422 20.6671 76.3637 20.6671C76.4985 20.6671 76.5659 20.6286 76.5659 20.6286V21.7842C76.5659 21.7842 76.3926 21.8805 75.9688 21.8805C75.0251 21.8805 74.8036 21.2064 74.8036 21.2064H74.7362C74.7362 21.2353 74.3606 21.8805 72.9354 21.8805ZM73.5036 20.8308C74.351 20.8308 74.6592 20.4649 74.6592 20.4649V20.176C74.6592 20.176 74.3799 19.8871 73.5036 19.8871C72.8872 19.8871 72.3672 19.9834 72.3672 20.3589C72.3672 20.7441 72.8872 20.8308 73.5036 20.8308ZM78.4778 21.7842L76.7155 16.9692H78.1985L79.46 20.6093H79.5274L80.789 16.9692H82.272L80.5097 21.7842H78.4778ZM85.5646 21.8805C83.9564 21.8805 82.8008 20.9849 82.8008 19.3767C82.8008 17.7685 83.9564 16.8729 85.5453 16.8729C87.1247 16.8729 88.2803 17.7685 88.2803 19.3767C88.2803 19.55 88.2514 19.7426 88.2514 19.7426H84.2549C84.2549 20.2723 84.6786 20.8019 85.5646 20.8019C86.3832 20.8019 86.6432 20.3204 86.6432 20.3204H88.1647C88.1647 20.3204 87.8758 21.8805 85.5646 21.8805ZM84.2742 18.8952H86.8069C86.8069 18.51 86.4313 17.9514 85.5453 17.9514C84.6786 17.9514 84.2742 18.51 84.2742 18.8952ZM89.1946 21.7842V20.6286L91.9584 18.144V18.1248H89.3294V16.9692H93.894V18.1248L91.1302 20.6093V20.6286H93.9903V21.7842H89.1946ZM99.5951 21.8805C98.3239 21.8805 97.2646 20.9753 97.2646 19.3767C97.2646 17.7781 98.3239 16.8729 99.5951 16.8729C100.808 16.8729 101.309 17.5566 101.309 17.5566H101.367V15.0432H102.754V21.7842H101.367V20.9945H101.3C101.3 20.9945 100.847 21.8805 99.5951 21.8805ZM100.028 20.6478C100.866 20.6478 101.367 20.0989 101.367 19.3767C101.367 18.6255 100.837 18.1055 100.028 18.1055C99.1906 18.1055 98.6898 18.6544 98.6898 19.3767C98.6898 20.0989 99.1906 20.6478 100.028 20.6478ZM104.106 21.7842V16.9692H105.493V21.7842H104.106ZM104.799 16.218C104.328 16.218 104.029 15.9677 104.029 15.5825C104.029 15.1973 104.328 14.9469 104.799 14.9469C105.271 14.9469 105.57 15.1973 105.57 15.5825C105.57 15.9677 105.271 16.218 104.799 16.218ZM109.058 21.8805C107.555 21.8805 106.554 21.4471 106.554 20.2434V20.0893H107.979V20.2434C107.979 20.6864 108.316 20.8501 109.058 20.8501C109.838 20.8501 110.155 20.6864 110.155 20.3589C110.155 19.4345 106.65 20.4167 106.65 18.3366C106.65 17.364 107.565 16.8729 109 16.8729C110.454 16.8729 111.359 17.3544 111.359 18.4618H109.934C109.934 18.2307 109.905 17.9033 108.971 17.9033C108.306 17.9033 108.075 18.0959 108.075 18.3463C108.075 19.1552 111.581 18.2307 111.581 20.3397C111.581 21.4471 110.579 21.8805 109.058 21.8805ZM114.846 21.8805C113.468 21.8805 112.717 21.3123 112.717 19.9641V18.0863H112.014V17.287L113.353 16.0062H114.104V16.9692H115.606V18.0863H114.104V19.7811C114.104 20.5515 114.508 20.7249 115.048 20.7249C115.481 20.7249 115.751 20.5515 115.751 20.5515V21.7071C115.751 21.7071 115.394 21.8805 114.846 21.8805ZM116.811 21.7842V16.9692H118.198V17.8551H118.275C118.275 17.8551 118.651 16.8729 119.951 16.8729C120.182 16.8729 120.432 16.921 120.432 16.921V18.4522C120.432 18.4522 120.124 18.3077 119.594 18.3077C118.66 18.3077 118.198 18.9048 118.198 19.6559V21.7842H116.811ZM121.448 21.7842V16.9692H122.834V21.7842H121.448ZM122.141 16.218C121.669 16.218 121.371 15.9677 121.371 15.5825C121.371 15.1973 121.669 14.9469 122.141 14.9469C122.613 14.9469 122.911 15.1973 122.911 15.5825C122.911 15.9677 122.613 16.218 122.141 16.218ZM127.343 21.8805C126.091 21.8805 125.638 20.9945 125.638 20.9945H125.571V21.7842H124.184V15.0432H125.571V17.5566H125.629C125.629 17.5566 126.129 16.8729 127.343 16.8729C128.614 16.8729 129.673 17.7781 129.673 19.3767C129.673 20.9753 128.614 21.8805 127.343 21.8805ZM126.91 20.6478C127.747 20.6478 128.248 20.0989 128.248 19.3767C128.248 18.6544 127.747 18.1055 126.91 18.1055C126.101 18.1055 125.571 18.6255 125.571 19.3767C125.571 20.0989 126.072 20.6478 126.91 20.6478ZM132.855 21.8805C131.719 21.8805 130.833 21.2449 130.833 19.7811V16.9692H132.22V19.3959C132.22 20.2337 132.711 20.6478 133.443 20.6478C134.252 20.6478 134.666 20.1182 134.666 19.3959V16.9692H136.053V21.7842H134.666V20.9849H134.589C134.589 20.9849 134.213 21.8805 132.855 21.8805ZM139.968 21.8805C138.36 21.8805 137.205 20.9849 137.205 19.3767C137.205 17.7685 138.36 16.8729 139.949 16.8729C141.529 16.8729 142.684 17.7685 142.684 19.3767C142.684 19.55 142.655 19.7426 142.655 19.7426H138.659C138.659 20.2723 139.083 20.8019 139.968 20.8019C140.787 20.8019 141.047 20.3204 141.047 20.3204H142.569C142.569 20.3204 142.28 21.8805 139.968 21.8805ZM138.678 18.8952H141.211C141.211 18.51 140.835 17.9514 139.949 17.9514C139.083 17.9514 138.678 18.51 138.678 18.8952ZM139.246 16.1025L140.691 14.5617H142.434L140.421 16.1025H139.246ZM147.182 21.7842V17.3255H145.814V16.3817L147.413 15.0432H148.703V21.7842H147.182ZM153.26 21.8805C151.228 21.8805 150.053 20.4552 150.053 18.4137C150.053 16.3721 151.228 14.9469 153.26 14.9469C155.292 14.9469 156.467 16.3721 156.467 18.4137C156.467 20.4552 155.292 21.8805 153.26 21.8805ZM153.26 20.5323C154.329 20.5323 154.878 19.6271 154.878 18.4137C154.878 17.2003 154.329 16.2951 153.26 16.2951C152.191 16.2951 151.642 17.2003 151.642 18.4137C151.642 19.6271 152.191 20.5323 153.26 20.5323ZM163.191 21.8805C161.159 21.8805 159.984 20.4552 159.984 18.4137C159.984 16.3721 161.159 14.9469 163.191 14.9469C165.223 14.9469 166.398 16.3721 166.398 18.4137C166.398 20.4552 165.223 21.8805 163.191 21.8805ZM163.191 20.5323C164.26 20.5323 164.809 19.6271 164.809 18.4137C164.809 17.2003 164.26 16.2951 163.191 16.2951C162.122 16.2951 161.573 17.2003 161.573 18.4137C161.573 19.6271 162.122 20.5323 163.191 20.5323ZM170.761 21.8805C168.729 21.8805 167.555 20.4552 167.555 18.4137C167.555 16.3721 168.729 14.9469 170.761 14.9469C172.793 14.9469 173.968 16.3721 173.968 18.4137C173.968 20.4552 172.793 21.8805 170.761 21.8805ZM170.761 20.5323C171.83 20.5323 172.379 19.6271 172.379 18.4137C172.379 17.2003 171.83 16.2951 170.761 16.2951C169.692 16.2951 169.144 17.2003 169.144 18.4137C169.144 19.6271 169.692 20.5323 170.761 20.5323ZM178.332 21.8805C176.3 21.8805 175.125 20.4552 175.125 18.4137C175.125 16.3721 176.3 14.9469 178.332 14.9469C180.364 14.9469 181.539 16.3721 181.539 18.4137C181.539 20.4552 180.364 21.8805 178.332 21.8805ZM178.332 20.5323C179.401 20.5323 179.95 19.6271 179.95 18.4137C179.95 17.2003 179.401 16.2951 178.332 16.2951C177.263 16.2951 176.714 17.2003 176.714 18.4137C176.714 19.6271 177.263 20.5323 178.332 20.5323ZM188.889 21.8805C185.971 21.8805 185.528 19.5308 185.528 19.5308H184.719V18.7026H185.403C185.403 18.7026 185.393 18.6063 185.393 18.4137C185.393 18.2211 185.403 18.1248 185.403 18.1248H184.719V17.2966H185.528C185.528 17.2966 185.98 14.9469 188.889 14.9469C190.978 14.9469 192.307 16.1603 192.307 17.7203H190.68C190.68 17.7203 190.526 16.2951 188.889 16.2951C187.608 16.2951 187.213 17.2966 187.213 17.2966H189.052V18.1248H186.992C186.992 18.1248 186.982 18.2211 186.982 18.4137C186.982 18.6159 186.992 18.7026 186.992 18.7026H189.052V19.5308H187.213C187.213 19.5308 187.598 20.5323 188.889 20.5323C190.526 20.5323 190.68 19.107 190.68 19.107H192.307C192.307 20.6671 190.978 21.8805 188.889 21.8805ZM197.917 21.8805C196.646 21.8805 195.587 20.9753 195.587 19.3767C195.587 17.7781 196.646 16.8729 197.917 16.8729C199.13 16.8729 199.631 17.5566 199.631 17.5566H199.689V15.0432H201.076V21.7842H199.689V20.9945H199.621C199.621 20.9945 199.169 21.8805 197.917 21.8805ZM198.35 20.6478C199.188 20.6478 199.689 20.0989 199.689 19.3767C199.689 18.6255 199.159 18.1055 198.35 18.1055C197.513 18.1055 197.012 18.6544 197.012 19.3767C197.012 20.0989 197.513 20.6478 198.35 20.6478ZM204.999 21.8805C203.391 21.8805 202.235 20.9849 202.235 19.3767C202.235 17.7685 203.391 16.8729 204.98 16.8729C206.559 16.8729 207.715 17.7685 207.715 19.3767C207.715 19.55 207.686 19.7426 207.686 19.7426H203.69C203.69 20.2723 204.113 20.8019 204.999 20.8019C205.818 20.8019 206.078 20.3204 206.078 20.3204H207.599C207.599 20.3204 207.31 21.8805 204.999 21.8805ZM203.709 18.8952H206.241C206.241 18.51 205.866 17.9514 204.98 17.9514C204.113 17.9514 203.709 18.51 203.709 18.8952ZM211.23 21.7842V16.9692H212.617V17.8551H212.694C212.694 17.8551 213.07 16.8729 214.37 16.8729C214.601 16.8729 214.851 16.921 214.851 16.921V18.4522C214.851 18.4522 214.543 18.3077 214.013 18.3077C213.079 18.3077 212.617 18.9048 212.617 19.6559V21.7842H211.23ZM218.25 21.8805C216.642 21.8805 215.486 20.9849 215.486 19.3767C215.486 17.7685 216.642 16.8729 218.231 16.8729C219.81 16.8729 220.966 17.7685 220.966 19.3767C220.966 19.55 220.937 19.7426 220.937 19.7426H216.94C216.94 20.2723 217.364 20.8019 218.25 20.8019C219.068 20.8019 219.328 20.3204 219.328 20.3204H220.85C220.85 20.3204 220.561 21.8805 218.25 21.8805ZM216.959 18.8952H219.492C219.492 18.51 219.117 17.9514 218.231 17.9514C217.364 17.9514 216.959 18.51 216.959 18.8952ZM217.528 16.1025L218.972 14.5617H220.715L218.702 16.1025H217.528ZM224.673 21.8805C223.084 21.8805 221.928 20.9753 221.928 19.3767C221.928 17.7781 223.084 16.8729 224.673 16.8729C226.579 16.8729 227.359 18.1729 227.359 18.9433H225.934C225.934 18.9433 225.751 18.067 224.673 18.067C223.825 18.067 223.353 18.6352 223.353 19.3767C223.353 20.1182 223.825 20.6864 224.673 20.6864C225.751 20.6864 225.934 19.81 225.934 19.81H227.359C227.359 20.5804 226.579 21.8805 224.673 21.8805ZM231.02 21.8805C229.431 21.8805 228.276 20.9753 228.276 19.3767C228.276 17.7781 229.431 16.8729 231.02 16.8729C232.609 16.8729 233.765 17.7781 233.765 19.3767C233.765 20.9753 232.609 21.8805 231.02 21.8805ZM231.02 20.6864C231.868 20.6864 232.34 20.1182 232.34 19.3767C232.34 18.6352 231.868 18.067 231.02 18.067C230.173 18.067 229.701 18.6352 229.701 19.3767C229.701 20.1182 230.173 20.6864 231.02 20.6864ZM234.92 21.7842V16.9692H236.307V17.7685H236.374C236.374 17.7685 236.634 16.8729 237.818 16.8729C239.051 16.8729 239.35 17.7685 239.35 17.7685H239.417C239.417 17.7685 239.696 16.8729 240.852 16.8729C242.056 16.8729 242.759 17.5181 242.759 18.9818V21.7842H241.372V19.29C241.372 18.6352 241.15 18.1055 240.457 18.1055C239.783 18.1055 239.533 18.5678 239.533 19.2515V21.7842H238.146V19.29C238.146 18.6448 237.953 18.1055 237.231 18.1055C236.547 18.1055 236.307 18.587 236.307 19.29V21.7842H234.92ZM244.061 23.7102V16.9692H245.448V17.7588H245.515C245.515 17.7588 245.968 16.8729 247.219 16.8729C248.491 16.8729 249.55 17.7781 249.55 19.3767C249.55 20.9753 248.491 21.8805 247.219 21.8805C246.006 21.8805 245.505 21.1967 245.505 21.1967H245.448V23.7102H244.061ZM246.786 20.6478C247.624 20.6478 248.125 20.0989 248.125 19.3767C248.125 18.6544 247.624 18.1055 246.786 18.1055C245.948 18.1055 245.448 18.6544 245.448 19.3767C245.448 20.1278 245.977 20.6478 246.786 20.6478ZM253.281 21.8805C251.673 21.8805 250.517 20.9849 250.517 19.3767C250.517 17.7685 251.673 16.8729 253.262 16.8729C254.841 16.8729 255.997 17.7685 255.997 19.3767C255.997 19.55 255.968 19.7426 255.968 19.7426H251.971C251.971 20.2723 252.395 20.8019 253.281 20.8019C254.099 20.8019 254.359 20.3204 254.359 20.3204H255.881C255.881 20.3204 255.592 21.8805 253.281 21.8805ZM251.99 18.8952H254.523C254.523 18.51 254.148 17.9514 253.262 17.9514C252.395 17.9514 251.99 18.51 251.99 18.8952ZM257.152 21.7842V16.9692H258.538V17.7685H258.615C258.615 17.7685 258.991 16.8729 260.349 16.8729C261.485 16.8729 262.371 17.5085 262.371 18.9722V21.7842H260.984V19.3574C260.984 18.5196 260.493 18.1055 259.761 18.1055C258.952 18.1055 258.538 18.6352 258.538 19.3574V21.7842H257.152ZM265.884 21.8805C264.381 21.8805 263.38 21.4471 263.38 20.2434V20.0893H264.805V20.2434C264.805 20.6864 265.142 20.8501 265.884 20.8501C266.664 20.8501 266.981 20.6864 266.981 20.3589C266.981 19.4345 263.476 20.4167 263.476 18.3366C263.476 17.364 264.391 16.8729 265.826 16.8729C267.28 16.8729 268.185 17.3544 268.185 18.4618H266.76C266.76 18.2307 266.731 17.9033 265.797 17.9033C265.133 17.9033 264.901 18.0959 264.901 18.3463C264.901 19.1552 268.407 18.2307 268.407 20.3397C268.407 21.4471 267.405 21.8805 265.884 21.8805ZM272.033 21.8805C270.425 21.8805 269.269 20.9849 269.269 19.3767C269.269 17.7685 270.425 16.8729 272.014 16.8729C273.593 16.8729 274.749 17.7685 274.749 19.3767C274.749 19.55 274.72 19.7426 274.72 19.7426H270.723C270.723 20.2723 271.147 20.8019 272.033 20.8019C272.852 20.8019 273.112 20.3204 273.112 20.3204H274.633C274.633 20.3204 274.344 21.8805 272.033 21.8805ZM270.743 18.8952H273.275C273.275 18.51 272.9 17.9514 272.014 17.9514C271.147 17.9514 270.743 18.51 270.743 18.8952ZM278.119 21.8805C276.616 21.8805 275.615 21.4471 275.615 20.2434V20.0893H277.04V20.2434C277.04 20.6864 277.377 20.8501 278.119 20.8501C278.899 20.8501 279.216 20.6864 279.216 20.3589C279.216 19.4345 275.711 20.4167 275.711 18.3366C275.711 17.364 276.626 16.8729 278.061 16.8729C279.515 16.8729 280.42 17.3544 280.42 18.4618H278.995C278.995 18.2307 278.966 17.9033 278.032 17.9033C277.368 17.9033 277.136 18.0959 277.136 18.3463C277.136 19.1552 280.642 18.2307 280.642 20.3397C280.642 21.4471 279.64 21.8805 278.119 21.8805Z" fill="#221C46"/>
</g>
<defs>
<filter id="filter0_d_3676_2630" x="11.0557" y="1.16895" width="282.87" height="37.092" filterUnits="userSpaceOnUse" color-interpolation-filters="sRGB">
<feFlood flood-opacity="0" result="BackgroundImageFix"/>
<feColorMatrix in="SourceAlpha" type="matrix" values="0 0 0 0 0 0 0 0 0 0 0 0 0 0 0 0 0 0 127 0" result="hardAlpha"/>
<feOffset dx="1.86205" dy="1.86205"/>
<feComposite in2="hardAlpha" operator="out"/>
<feColorMatrix type="matrix" values="0 0 0 0 0.133333 0 0 0 0 0.109804 0 0 0 0 0.27451 0 0 0 0.2 0"/>
<feBlend mode="normal" in2="BackgroundImageFix" result="effect1_dropShadow_3676_2630"/>
<feBlend mode="normal" in="SourceGraphic" in2="effect1_dropShadow_3676_2630" result="shape"/>
</filter>
<clipPath id="clip0_3676_2630">
<rect width="226.8" height="113.182" fill="white" transform="translate(38.5996 32.3457)"/>
</clipPath>
<clipPath id="clip1_3676_2630">
<rect width="192.181" height="10.4284" fill="white" transform="translate(55.8086 61.6855)"/>
</clipPath>
</defs>
</svg>
