<svg width="304" height="153" viewBox="0 0 304 153" fill="none" xmlns="http://www.w3.org/2000/svg">
<g clip-path="url(#clip0_3677_1868)" filter="url(#filter0_d_3677_1868)">
<rect x="59.7152" y="16.3451" width="185.368" height="121.238" fill="white"/>
<rect x="59.7152" y="16.3451" width="185.368" height="121.238" stroke="#E5E3EA" stroke-width="0.690145"/>
<path fill-rule="evenodd" clip-rule="evenodd" d="M150.668 30.8814C150.668 29.9583 151.416 29.21 152.339 29.21C153.262 29.21 154.011 29.9583 154.011 30.8814C154.011 31.8045 153.262 32.5529 152.339 32.5529C151.416 32.5529 150.668 31.8045 150.668 30.8814ZM152.339 30.146C151.933 30.146 151.604 30.4752 151.604 30.8814C151.604 31.2876 151.933 31.6169 152.339 31.6169C152.745 31.6169 153.075 31.2876 153.075 30.8814C153.075 30.4752 152.745 30.146 152.339 30.146Z" fill="#221C46"/>
<path fill-rule="evenodd" clip-rule="evenodd" d="M152.538 25.53L152.301 25.3911L152.064 25.53C149.582 26.9862 147.917 30.2168 147.917 33.8926C147.917 35.8733 148.399 37.7148 149.225 39.2213L148.127 40.319L148.127 45.6501L151.732 42.0462C151.841 42.1194 151.952 42.1891 152.064 42.2552L152.301 42.394L152.538 42.2552C152.668 42.1791 152.795 42.0982 152.92 42.0126L156.551 45.652V40.3193L155.405 39.1703C156.214 37.6733 156.685 35.8511 156.685 33.8926C156.685 30.2168 155.021 26.9862 152.538 25.53ZM148.853 33.8926C148.853 30.594 150.293 27.8036 152.301 26.4845C154.31 27.8036 155.749 30.594 155.749 33.8926C155.749 35.8341 155.248 37.6104 154.42 39.011L154.235 39.3231L155.615 40.7064V43.3887L153.007 40.7748L152.681 41.0288C152.557 41.1254 152.43 41.2161 152.301 41.3007C152.187 41.226 152.075 41.1466 151.965 41.0626L151.64 40.8142L149.063 43.3906L149.063 40.7067L150.399 39.3715L150.21 39.0581C149.365 37.6504 148.853 35.856 148.853 33.8926Z" fill="#221C46"/>
<path fill-rule="evenodd" clip-rule="evenodd" d="M152.752 49.402L152.33 50.2859L151.907 49.402L151.903 49.392L151.89 49.3642C151.878 49.3399 151.861 49.3043 151.84 49.2589C151.797 49.1681 151.737 49.0377 151.664 48.8787C151.519 48.5609 151.324 48.1274 151.13 47.6661C150.936 47.2061 150.739 46.7125 150.589 46.276C150.448 45.8634 150.324 45.4311 150.324 45.1286C150.324 44.019 151.22 43.1161 152.33 43.1161C153.439 43.1161 154.335 44.0191 154.335 45.1286C154.335 45.4311 154.211 45.8634 154.07 46.276C153.921 46.7125 153.724 47.2061 153.53 47.6661C153.335 48.1274 153.141 48.5609 152.996 48.8787C152.923 49.0377 152.862 49.1681 152.82 49.2589C152.798 49.3043 152.782 49.3399 152.77 49.3642L152.757 49.392L152.752 49.402ZM152.33 48.0792C152.435 47.843 152.551 47.5774 152.667 47.3023C152.858 46.8511 153.045 46.3801 153.184 45.9732C153.332 45.5424 153.399 45.2525 153.399 45.1286C153.399 44.7019 153.153 44.3348 152.798 44.1604V45.7236H151.862V44.1604C151.506 44.3348 151.26 44.7019 151.26 45.1286C151.26 45.2525 151.328 45.5424 151.475 45.9732C151.614 46.3801 151.802 46.8511 151.992 47.3023C152.108 47.5774 152.224 47.843 152.33 48.0792Z" fill="#221C46"/>
<path fill-rule="evenodd" clip-rule="evenodd" d="M155.673 50.6043L152.833 50.6042L152.25 51.1874L151.667 50.6043H148.987V53.364L149.57 53.9472L148.987 54.5304V57.2901H151.508L152.25 56.5477L152.993 57.2901H155.673V54.6894L154.93 53.9472L155.673 53.205V50.6043ZM152.25 52.5111L153.221 51.5402L154.737 51.5403V52.8173L153.607 53.9472L154.737 55.0771V56.3541H153.38L152.25 55.224L151.12 56.3541H149.923V54.9181L150.894 53.9472L149.923 52.9763V51.5403H151.279L152.25 52.5111Z" fill="#221C46"/>
<path d="M150.158 47.4229L150.203 47.411L150.445 48.3152L150.356 48.3391L150.333 48.3428C147.458 48.8134 144.956 50.3957 143.284 52.6354L143.069 52.9235L142.735 52.79C142.23 52.5877 141.677 52.4763 141.098 52.4763C138.661 52.4763 136.685 54.4519 136.685 56.8889C136.685 57.4053 136.774 57.9002 136.936 58.3597H167.724C167.886 57.9002 167.974 57.4053 167.974 56.8889C167.974 54.4519 165.999 52.4763 163.562 52.4763C162.876 52.4763 162.228 52.6323 161.65 52.9105L161.298 53.0802L161.068 52.7634C159.433 50.5067 156.966 48.8944 154.118 48.3761L154.073 48.3679L153.897 48.2986L154.239 47.4275L154.331 47.4635C157.275 48.0111 159.839 49.6357 161.6 51.9117C162.208 51.6719 162.87 51.5402 163.562 51.5402C166.516 51.5402 168.911 53.9349 168.911 56.8889C168.911 57.643 168.754 58.3619 168.472 59.0138L168.349 59.2958H136.31L136.188 59.0138C135.905 58.3619 135.749 57.643 135.749 56.8889C135.749 53.9349 138.144 51.5402 141.098 51.5402C141.672 51.5402 142.227 51.6311 142.746 51.7994C144.551 49.5236 147.167 47.9188 150.158 47.4229Z" fill="#221C46"/>
<path fill-rule="evenodd" clip-rule="evenodd" d="M164.447 35.5612C164.447 36.7083 163.575 37.5913 162.559 37.5913V38.5273C163.576 38.5273 164.447 39.4115 164.447 40.5575H165.383C165.383 39.4104 166.255 38.5273 167.271 38.5273V37.5913C166.254 37.5913 165.383 36.7072 165.383 35.5612H164.447ZM164.915 38.9233C164.699 38.5791 164.415 38.2838 164.083 38.0593C164.415 37.8349 164.699 37.5396 164.915 37.1953C165.132 37.5395 165.415 37.8349 165.747 38.0594C165.415 38.2838 165.132 38.5791 164.915 38.9233Z" fill="#221C46"/>
<path d="M165.384 50.6042V41.9838H164.448V50.6042H165.384Z" fill="#221C46"/>
<path fill-rule="evenodd" clip-rule="evenodd" d="M157.478 31.0393C158.494 31.0393 159.366 30.1562 159.366 29.0091H160.302C160.302 30.1551 161.173 31.0393 162.19 31.0393V31.9753C161.174 31.9753 160.302 32.8584 160.302 34.0054H159.366C159.366 32.8594 158.495 31.9753 157.478 31.9753V31.0393ZM159.002 31.5072C159.334 31.7317 159.617 32.0271 159.834 32.3713C160.05 32.027 160.334 31.7317 160.666 31.5073C160.334 31.2828 160.05 30.9875 159.834 30.6433C159.617 30.9875 159.334 31.2828 159.002 31.5072Z" fill="#221C46"/>
<path d="M160.303 35.4317V41.7121H159.367V35.4317H160.303Z" fill="#221C46"/>
<path fill-rule="evenodd" clip-rule="evenodd" d="M143.32 31.5497C143.32 32.6968 142.448 33.5799 141.432 33.5799V34.5159C142.449 34.5159 143.32 35.4 143.32 36.546H144.256C144.256 35.399 145.128 34.5159 146.144 34.5159V33.5799C145.127 33.5799 144.256 32.6957 144.256 31.5497H143.32ZM143.788 34.9119C143.572 34.5677 143.288 34.2723 142.956 34.0478C143.288 33.8234 143.572 33.5281 143.788 33.1839C144.005 33.5281 144.288 33.8234 144.62 34.0479C144.288 34.2723 144.005 34.5676 143.788 34.9119Z" fill="#221C46"/>
<path d="M144.257 49.3339V37.9723H143.321V49.3339H144.257Z" fill="#221C46"/>
<path fill-rule="evenodd" clip-rule="evenodd" d="M136.819 38.0487C136.819 37.0334 137.602 36.1629 138.624 36.1629C139.646 36.1629 140.429 37.0334 140.429 38.0487C140.429 39.064 139.646 39.9345 138.624 39.9345C137.602 39.9345 136.819 39.064 136.819 38.0487ZM138.624 37.0989C138.169 37.0989 137.755 37.498 137.755 38.0487C137.755 38.5995 138.169 38.9985 138.624 38.9985C139.078 38.9985 139.493 38.5995 139.493 38.0487C139.493 37.498 139.078 37.0989 138.624 37.0989Z" fill="#221C46"/>
<path d="M139.143 41.2742V47.2956H138.207V41.2742H139.143Z" fill="#221C46"/>
<path fill-rule="evenodd" clip-rule="evenodd" d="M159.885 42.8487C158.862 42.8487 158.08 43.7192 158.08 44.7345C158.08 45.7498 158.862 46.6203 159.885 46.6203C160.907 46.6203 161.69 45.7498 161.69 44.7345C161.69 43.7192 160.907 42.8487 159.885 42.8487ZM159.016 44.7345C159.016 44.1838 159.43 43.7847 159.885 43.7847C160.339 43.7847 160.754 44.1838 160.754 44.7345C160.754 45.2852 160.339 45.6843 159.885 45.6843C159.43 45.6843 159.016 45.2852 159.016 44.7345Z" fill="#221C46"/>
<path d="M74.353 79.1475V74.1283H76.4611C77.9596 74.1283 78.6265 74.788 78.6265 75.9926C78.6265 77.19 77.9596 77.8497 76.4611 77.8497H75.4859V79.1475H74.353ZM75.4859 76.896H76.4611C77.0992 76.896 77.4434 76.602 77.4434 75.9926C77.4434 75.3831 77.0992 75.082 76.4611 75.082H75.4859V76.896ZM80.5096 79.2192C79.7138 79.2192 79.0254 78.8822 79.0254 78.1365C79.0254 77.3549 79.7711 77.0323 80.6315 77.0323C81.4418 77.0323 81.7931 77.3334 81.7931 77.3334V76.81C81.7931 76.5447 81.6282 76.265 81.0331 76.265C80.7248 76.265 80.2659 76.3726 80.2659 76.7168H79.2047C79.2118 75.8707 79.9575 75.4907 81.0331 75.4907C82.1301 75.4907 82.8256 75.9065 82.8256 76.81V77.9285C82.8256 78.2297 82.8973 78.3157 83.0622 78.3157C83.1626 78.3157 83.2128 78.287 83.2128 78.287V79.1475C83.2128 79.1475 83.0837 79.2192 82.7683 79.2192C82.0656 79.2192 81.9007 78.7172 81.9007 78.7172H81.8505C81.8505 78.7388 81.5708 79.2192 80.5096 79.2192ZM80.9327 78.4376C81.5637 78.4376 81.7931 78.1651 81.7931 78.1651V77.95C81.7931 77.95 81.5852 77.7349 80.9327 77.7349C80.4738 77.7349 80.0866 77.8066 80.0866 78.0863C80.0866 78.3731 80.4738 78.4376 80.9327 78.4376ZM83.9303 79.1475V75.5624H84.9628V76.222H85.0201C85.0201 76.222 85.2998 75.4907 86.2678 75.4907C86.4398 75.4907 86.6263 75.5265 86.6263 75.5265V76.6666C86.6263 76.6666 86.3968 76.559 86.0025 76.559C85.3069 76.559 84.9628 77.0036 84.9628 77.5628V79.1475H83.9303ZM89.1677 79.2192C88.1424 79.2192 87.5831 78.7961 87.5831 77.7923V76.3941H87.0597V75.799L88.0563 74.8453H88.6156V75.5624H89.7341V76.3941H88.6156V77.6561C88.6156 78.2297 88.9167 78.3587 89.3183 78.3587C89.6409 78.3587 89.8417 78.2297 89.8417 78.2297V79.0901C89.8417 79.0901 89.5764 79.2192 89.1677 79.2192ZM90.6313 79.1475V75.5624H91.6638V79.1475H90.6313ZM91.1476 75.0031C90.7962 75.0031 90.574 74.8167 90.574 74.5299C90.574 74.2431 90.7962 74.0566 91.1476 74.0566C91.4989 74.0566 91.7212 74.2431 91.7212 74.5299C91.7212 74.8167 91.4989 75.0031 91.1476 75.0031ZM94.569 79.2192C93.386 79.2192 92.5255 78.5452 92.5255 77.3549C92.5255 76.1647 93.386 75.4907 94.569 75.4907C95.9887 75.4907 96.5695 76.4586 96.5695 77.0323H95.5083C95.5083 77.0323 95.3721 76.3798 94.569 76.3798C93.9381 76.3798 93.5867 76.8028 93.5867 77.3549C93.5867 77.907 93.9381 78.3301 94.569 78.3301C95.3721 78.3301 95.5083 77.6776 95.5083 77.6776H96.5695C96.5695 78.2512 95.9887 79.2192 94.569 79.2192ZM97.3954 79.1475V75.5624H98.4279V79.1475H97.3954ZM97.9116 75.0031C97.5603 75.0031 97.338 74.8167 97.338 74.5299C97.338 74.2431 97.5603 74.0566 97.9116 74.0566C98.263 74.0566 98.4852 74.2431 98.4852 74.5299C98.4852 74.8167 98.263 75.0031 97.9116 75.0031ZM99.433 80.5815V75.5624H100.466V76.1503H100.516C100.516 76.1503 100.853 75.4907 101.785 75.4907C102.731 75.4907 103.52 76.1647 103.52 77.3549C103.52 78.5452 102.731 79.2192 101.785 79.2192C100.881 79.2192 100.509 78.7101 100.509 78.7101H100.466V80.5815H99.433ZM101.462 78.3014C102.086 78.3014 102.459 77.8927 102.459 77.3549C102.459 76.8172 102.086 76.4084 101.462 76.4084C100.838 76.4084 100.466 76.8172 100.466 77.3549C100.466 77.9142 100.86 78.3014 101.462 78.3014ZM106.298 79.2192C105.101 79.2192 104.24 78.5523 104.24 77.3549C104.24 76.1575 105.101 75.4907 106.284 75.4907C107.46 75.4907 108.32 76.1575 108.32 77.3549C108.32 77.484 108.298 77.6274 108.298 77.6274H105.323C105.323 78.0217 105.638 78.4161 106.298 78.4161C106.907 78.4161 107.101 78.0576 107.101 78.0576H108.234C108.234 78.0576 108.019 79.2192 106.298 79.2192ZM105.337 76.9964H107.223C107.223 76.7096 106.943 76.2937 106.284 76.2937C105.638 76.2937 105.337 76.7096 105.337 76.9964ZM109.001 79.1475V78.287L111.059 76.4371V76.4228H109.101V75.5624H112.5V76.4228L110.442 78.2727V78.287H112.571V79.1475H109.001ZM116.494 79.2192C115.698 79.2192 115.009 78.8822 115.009 78.1365C115.009 77.3549 115.755 77.0323 116.616 77.0323C117.426 77.0323 117.777 77.3334 117.777 77.3334V76.81C117.777 76.5447 117.612 76.265 117.017 76.265C116.709 76.265 116.25 76.3726 116.25 76.7168H115.189C115.196 75.8707 115.942 75.4907 117.017 75.4907C118.114 75.4907 118.81 75.9065 118.81 76.81V77.9285C118.81 78.2297 118.881 78.3157 119.046 78.3157C119.147 78.3157 119.197 78.287 119.197 78.287V79.1475C119.197 79.1475 119.068 79.2192 118.752 79.2192C118.05 79.2192 117.885 78.7172 117.885 78.7172H117.834C117.834 78.7388 117.555 79.2192 116.494 79.2192ZM116.917 78.4376C117.548 78.4376 117.777 78.1651 117.777 78.1651V77.95C117.777 77.95 117.569 77.7349 116.917 77.7349C116.458 77.7349 116.071 77.8066 116.071 78.0863C116.071 78.3731 116.458 78.4376 116.917 78.4376ZM121.42 79.2192C120.574 79.2192 119.914 78.7459 119.914 77.6561V75.5624H120.947V77.3693C120.947 77.9931 121.312 78.3014 121.857 78.3014C122.46 78.3014 122.768 77.907 122.768 77.3693V75.5624H123.8V79.1475H122.768V78.5523H122.711C122.711 78.5523 122.431 79.2192 121.42 79.2192ZM128.459 79.2192C127.276 79.2192 126.416 78.5452 126.416 77.3549C126.416 76.1647 127.276 75.4907 128.459 75.4907C129.879 75.4907 130.46 76.4586 130.46 77.0323H129.399C129.399 77.0323 129.262 76.3798 128.459 76.3798C127.828 76.3798 127.477 76.8028 127.477 77.3549C127.477 77.907 127.828 78.3301 128.459 78.3301C129.262 78.3301 129.399 77.6776 129.399 77.6776H130.46C130.46 78.2512 129.879 79.2192 128.459 79.2192ZM131.286 79.1475V74.1283H132.318V76.1575H132.376C132.376 76.1575 132.655 75.4907 133.666 75.4907C134.512 75.4907 135.172 75.9639 135.172 77.0538V79.1475H134.139V77.3406C134.139 76.7168 133.774 76.4084 133.229 76.4084C132.627 76.4084 132.318 76.8028 132.318 77.3406V79.1475H131.286ZM137.479 79.2192C136.683 79.2192 135.995 78.8822 135.995 78.1365C135.995 77.3549 136.74 77.0323 137.601 77.0323C138.411 77.0323 138.762 77.3334 138.762 77.3334V76.81C138.762 76.5447 138.598 76.265 138.002 76.265C137.694 76.265 137.235 76.3726 137.235 76.7168H136.174C136.181 75.8707 136.927 75.4907 138.002 75.4907C139.099 75.4907 139.795 75.9065 139.795 76.81V77.9285C139.795 78.2297 139.867 78.3157 140.032 78.3157C140.132 78.3157 140.182 78.287 140.182 78.287V79.1475C140.182 79.1475 140.053 79.2192 139.738 79.2192C139.035 79.2192 138.87 78.7172 138.87 78.7172H138.82C138.82 78.7388 138.54 79.2192 137.479 79.2192ZM137.902 78.4376C138.533 78.4376 138.762 78.1651 138.762 78.1651V77.95C138.762 77.95 138.555 77.7349 137.902 77.7349C137.443 77.7349 137.056 77.8066 137.056 78.0863C137.056 78.3731 137.443 78.4376 137.902 78.4376ZM140.9 79.1475V74.1283H141.932V79.1475H140.9ZM142.937 79.1475V74.1283H143.97V79.1475H142.937ZM146.889 79.2192C145.692 79.2192 144.831 78.5523 144.831 77.3549C144.831 76.1575 145.692 75.4907 146.875 75.4907C148.051 75.4907 148.911 76.1575 148.911 77.3549C148.911 77.484 148.89 77.6274 148.89 77.6274H145.914C145.914 78.0217 146.23 78.4161 146.889 78.4161C147.499 78.4161 147.692 78.0576 147.692 78.0576H148.825C148.825 78.0576 148.61 79.2192 146.889 79.2192ZM145.929 76.9964H147.814C147.814 76.7096 147.535 76.2937 146.875 76.2937C146.23 76.2937 145.929 76.7096 145.929 76.9964ZM149.771 79.1475V75.5624H150.804V76.1575H150.861C150.861 76.1575 151.141 75.4907 152.152 75.4907C152.998 75.4907 153.658 75.9639 153.658 77.0538V79.1475H152.625V77.3406C152.625 76.7168 152.259 76.4084 151.714 76.4084C151.112 76.4084 150.804 76.8028 150.804 77.3406V79.1475H149.771ZM156.33 80.6532C155.169 80.6532 154.301 80.3736 154.301 79.5347C154.301 78.8248 155.004 78.6025 155.004 78.6025V78.5738C155.004 78.5738 154.731 78.4376 154.731 78.1436C154.731 77.778 155.154 77.6346 155.154 77.6346V77.613C155.154 77.613 154.631 77.3908 154.624 76.6881C154.624 75.928 155.305 75.4907 156.33 75.4907H158.553V76.2077H157.893C157.893 76.2077 158.044 76.3439 158.044 76.7239C158.044 77.484 157.356 77.8855 156.33 77.8855C155.807 77.8855 155.556 77.95 155.556 78.1436C155.556 78.3301 155.828 78.4018 156.33 78.4018C157.499 78.4018 158.367 78.7029 158.367 79.5347C158.367 80.3736 157.499 80.6532 156.33 80.6532ZM156.33 79.9147C156.925 79.9147 157.298 79.8143 157.298 79.5347C157.298 79.255 156.925 79.1546 156.33 79.1546C155.735 79.1546 155.362 79.255 155.362 79.5347C155.362 79.8143 155.735 79.9147 156.33 79.9147ZM156.33 77.1828C156.775 77.1828 156.976 76.9892 156.976 76.6953C156.976 76.4013 156.775 76.2077 156.33 76.2077C155.886 76.2077 155.685 76.4013 155.685 76.6953C155.685 76.9892 155.886 77.1828 156.33 77.1828ZM161.041 79.2192C159.843 79.2192 158.983 78.5523 158.983 77.3549C158.983 76.1575 159.843 75.4907 161.026 75.4907C162.202 75.4907 163.063 76.1575 163.063 77.3549C163.063 77.484 163.041 77.6274 163.041 77.6274H160.065C160.065 78.0217 160.381 78.4161 161.041 78.4161C161.65 78.4161 161.844 78.0576 161.844 78.0576H162.977C162.977 78.0576 162.761 79.2192 161.041 79.2192ZM160.08 76.9964H161.966C161.966 76.7096 161.686 76.2937 161.026 76.2937C160.381 76.2937 160.08 76.7096 160.08 76.9964ZM167.272 79.2192C166.326 79.2192 165.537 78.5452 165.537 77.3549C165.537 76.1647 166.326 75.4907 167.272 75.4907C168.175 75.4907 168.548 75.9997 168.548 75.9997H168.591V74.1283H169.624V79.1475H168.591V78.5595H168.541C168.541 78.5595 168.204 79.2192 167.272 79.2192ZM167.595 78.3014C168.218 78.3014 168.591 77.8927 168.591 77.3549C168.591 76.7956 168.197 76.4084 167.595 76.4084C166.971 76.4084 166.598 76.8172 166.598 77.3549C166.598 77.8927 166.971 78.3014 167.595 78.3014ZM172.136 79.2192C171.29 79.2192 170.631 78.7459 170.631 77.6561V75.5624H171.663V77.3693C171.663 77.9931 172.029 78.3014 172.574 78.3014C173.176 78.3014 173.484 77.907 173.484 77.3693V75.5624H174.517V79.1475H173.484V78.5523H173.427C173.427 78.5523 173.147 79.2192 172.136 79.2192ZM177.276 79.1475V75.5624H178.308V76.1575H178.358C178.358 76.1575 178.552 75.4907 179.434 75.4907C180.352 75.4907 180.574 76.1575 180.574 76.1575H180.624C180.624 76.1575 180.832 75.4907 181.693 75.4907C182.589 75.4907 183.112 75.9711 183.112 77.0609V79.1475H182.08V77.2904C182.08 76.8028 181.915 76.4084 181.399 76.4084C180.897 76.4084 180.71 76.7526 180.71 77.2617V79.1475H179.678V77.2904C179.678 76.81 179.534 76.4084 178.997 76.4084C178.487 76.4084 178.308 76.767 178.308 77.2904V79.1475H177.276ZM185.982 79.2192C184.799 79.2192 183.938 78.5452 183.938 77.3549C183.938 76.1647 184.799 75.4907 185.982 75.4907C187.165 75.4907 188.025 76.1647 188.025 77.3549C188.025 78.5452 187.165 79.2192 185.982 79.2192ZM185.982 78.3301C186.613 78.3301 186.964 77.907 186.964 77.3549C186.964 76.8028 186.613 76.3798 185.982 76.3798C185.351 76.3798 185 76.8028 185 77.3549C185 77.907 185.351 78.3301 185.982 78.3301ZM188.885 79.1475V75.5624H189.918V79.1475H188.885ZM189.402 75.0031C189.05 75.0031 188.828 74.8167 188.828 74.5299C188.828 74.2431 189.05 74.0566 189.402 74.0566C189.753 74.0566 189.975 74.2431 189.975 74.5299C189.975 74.8167 189.753 75.0031 189.402 75.0031ZM192.572 79.2192C191.453 79.2192 190.708 78.8965 190.708 78.0002V77.8855H191.769V78.0002C191.769 78.3301 192.02 78.452 192.572 78.452C193.153 78.452 193.389 78.3301 193.389 78.0863C193.389 77.3979 190.779 78.1293 190.779 76.5805C190.779 75.8563 191.461 75.4907 192.529 75.4907C193.612 75.4907 194.286 75.8492 194.286 76.6737H193.225C193.225 76.5017 193.203 76.2579 192.508 76.2579C192.013 76.2579 191.841 76.4013 191.841 76.5877C191.841 77.19 194.451 76.5017 194.451 78.0719C194.451 78.8965 193.705 79.2192 192.572 79.2192ZM198.908 79.2192C197.711 79.2192 196.85 78.5523 196.85 77.3549C196.85 76.1575 197.711 75.4907 198.894 75.4907C200.07 75.4907 200.93 76.1575 200.93 77.3549C200.93 77.484 200.909 77.6274 200.909 77.6274H197.933C197.933 78.0217 198.249 78.4161 198.908 78.4161C199.518 78.4161 199.711 78.0576 199.711 78.0576H200.844C200.844 78.0576 200.629 79.2192 198.908 79.2192ZM197.947 76.9964H199.833C199.833 76.7096 199.553 76.2937 198.894 76.2937C198.249 76.2937 197.947 76.7096 197.947 76.9964ZM203.576 79.2192C202.55 79.2192 201.991 78.7961 201.991 77.7923V76.3941H201.468V75.799L202.464 74.8453H203.023V75.5624H204.142V76.3941H203.023V77.6561C203.023 78.2297 203.325 78.3587 203.726 78.3587C204.049 78.3587 204.25 78.2297 204.25 78.2297V79.0901C204.25 79.0901 203.984 79.2192 203.576 79.2192ZM208.582 79.2192C207.557 79.2192 206.997 78.7961 206.997 77.7923V76.3941H206.474V75.799L207.471 74.8453H208.03V75.5624H209.149V76.3941H208.03V77.6561C208.03 78.2297 208.331 78.3587 208.733 78.3587C209.055 78.3587 209.256 78.2297 209.256 78.2297V79.0901C209.256 79.0901 208.991 79.2192 208.582 79.2192ZM211.743 79.2192C210.546 79.2192 209.685 78.5523 209.685 77.3549C209.685 76.1575 210.546 75.4907 211.729 75.4907C212.905 75.4907 213.765 76.1575 213.765 77.3549C213.765 77.484 213.744 77.6274 213.744 77.6274H210.768C210.768 78.0217 211.083 78.4161 211.743 78.4161C212.353 78.4161 212.546 78.0576 212.546 78.0576H213.679C213.679 78.0576 213.464 79.2192 211.743 79.2192ZM210.782 76.9964H212.668C212.668 76.7096 212.388 76.2937 211.729 76.2937C211.083 76.2937 210.782 76.7096 210.782 76.9964ZM214.625 79.1475V75.5624H215.658V76.1575H215.715C215.715 76.1575 215.995 75.4907 217.006 75.4907C217.852 75.4907 218.511 75.9639 218.511 77.0538V79.1475H217.479V77.3406C217.479 76.7168 217.113 76.4084 216.568 76.4084C215.966 76.4084 215.658 76.8028 215.658 77.3406V79.1475H214.625ZM221.263 79.2192C220.238 79.2192 219.678 78.7961 219.678 77.7923V76.3941H219.155V75.799L220.152 74.8453H220.711V75.5624H221.829V76.3941H220.711V77.6561C220.711 78.2297 221.012 78.3587 221.414 78.3587C221.736 78.3587 221.937 78.2297 221.937 78.2297V79.0901C221.937 79.0901 221.672 79.2192 221.263 79.2192ZM224.424 79.2192C223.227 79.2192 222.366 78.5523 222.366 77.3549C222.366 76.1575 223.227 75.4907 224.41 75.4907C225.586 75.4907 226.446 76.1575 226.446 77.3549C226.446 77.484 226.424 77.6274 226.424 77.6274H223.449C223.449 78.0217 223.764 78.4161 224.424 78.4161C225.033 78.4161 225.227 78.0576 225.227 78.0576H226.36C226.36 78.0576 226.145 79.2192 224.424 79.2192ZM223.463 76.9964H225.349C225.349 76.7096 225.069 76.2937 224.41 76.2937C223.764 76.2937 223.463 76.7096 223.463 76.9964ZM227.127 79.1475V78.287L229.185 76.4371V76.4228H227.227V75.5624H230.626V76.4228L228.568 78.2727V78.287H230.697V79.1475H227.127ZM91.81 89.2192C90.8635 89.2192 90.0748 88.5452 90.0748 87.3549C90.0748 86.1647 90.8635 85.4907 91.81 85.4907C92.7134 85.4907 93.0863 85.9997 93.0863 85.9997H93.1293V84.1283H94.1618V89.1475H93.1293V88.5595H93.0791C93.0791 88.5595 92.7421 89.2192 91.81 89.2192ZM92.1326 88.3014C92.7564 88.3014 93.1293 87.8927 93.1293 87.3549C93.1293 86.7956 92.7349 86.4084 92.1326 86.4084C91.5088 86.4084 91.136 86.8172 91.136 87.3549C91.136 87.8927 91.5088 88.3014 92.1326 88.3014ZM97.0831 89.2192C95.8857 89.2192 95.0253 88.5523 95.0253 87.3549C95.0253 86.1575 95.8857 85.4907 97.0688 85.4907C98.2447 85.4907 99.1051 86.1575 99.1051 87.3549C99.1051 87.484 99.0836 87.6274 99.0836 87.6274H96.108C96.108 88.0217 96.4235 88.4161 97.0831 88.4161C97.6926 88.4161 97.8862 88.0576 97.8862 88.0576H99.0191C99.0191 88.0576 98.804 89.2192 97.0831 89.2192ZM96.1223 86.9964H98.0081C98.0081 86.7096 97.7285 86.2937 97.0688 86.2937C96.4235 86.2937 96.1223 86.7096 96.1223 86.9964ZM103.429 90.6532C102.268 90.6532 101.4 90.3736 101.4 89.5347C101.4 88.8248 102.103 88.6025 102.103 88.6025V88.5738C102.103 88.5738 101.83 88.4376 101.83 88.1436C101.83 87.778 102.253 87.6346 102.253 87.6346V87.613C102.253 87.613 101.73 87.3908 101.723 86.6881C101.723 85.928 102.404 85.4907 103.429 85.4907H105.652V86.2077H104.992C104.992 86.2077 105.143 86.3439 105.143 86.7239C105.143 87.484 104.455 87.8855 103.429 87.8855C102.906 87.8855 102.655 87.95 102.655 88.1436C102.655 88.3301 102.927 88.4018 103.429 88.4018C104.598 88.4018 105.466 88.7029 105.466 89.5347C105.466 90.3736 104.598 90.6532 103.429 90.6532ZM103.429 89.9147C104.024 89.9147 104.397 89.8143 104.397 89.5347C104.397 89.255 104.024 89.1546 103.429 89.1546C102.834 89.1546 102.461 89.255 102.461 89.5347C102.461 89.8143 102.834 89.9147 103.429 89.9147ZM103.429 87.1828C103.874 87.1828 104.075 86.9892 104.075 86.6953C104.075 86.4013 103.874 86.2077 103.429 86.2077C102.985 86.2077 102.784 86.4013 102.784 86.6953C102.784 86.9892 102.985 87.1828 103.429 87.1828ZM107.566 89.2192C106.77 89.2192 106.082 88.8822 106.082 88.1365C106.082 87.3549 106.827 87.0323 107.688 87.0323C108.498 87.0323 108.849 87.3334 108.849 87.3334V86.81C108.849 86.5447 108.684 86.265 108.089 86.265C107.781 86.265 107.322 86.3726 107.322 86.7168H106.261C106.268 85.8707 107.014 85.4907 108.089 85.4907C109.186 85.4907 109.882 85.9065 109.882 86.81V87.9285C109.882 88.2297 109.954 88.3157 110.118 88.3157C110.219 88.3157 110.269 88.287 110.269 88.287V89.1475C110.269 89.1475 110.14 89.2192 109.825 89.2192C109.122 89.2192 108.957 88.7172 108.957 88.7172H108.907C108.907 88.7388 108.627 89.2192 107.566 89.2192ZM107.989 88.4376C108.62 88.4376 108.849 88.1651 108.849 88.1651V87.95C108.849 87.95 108.641 87.7349 107.989 87.7349C107.53 87.7349 107.143 87.8066 107.143 88.0863C107.143 88.3731 107.53 88.4376 107.989 88.4376ZM112.693 90.6532C111.531 90.6532 110.664 90.3736 110.664 89.5347C110.664 88.8248 111.367 88.6025 111.367 88.6025V88.5738C111.367 88.5738 111.094 88.4376 111.094 88.1436C111.094 87.778 111.517 87.6346 111.517 87.6346V87.613C111.517 87.613 110.994 87.3908 110.987 86.6881C110.987 85.928 111.668 85.4907 112.693 85.4907H114.916V86.2077H114.256C114.256 86.2077 114.407 86.3439 114.407 86.7239C114.407 87.484 113.718 87.8855 112.693 87.8855C112.17 87.8855 111.919 87.95 111.919 88.1436C111.919 88.3301 112.191 88.4018 112.693 88.4018C113.862 88.4018 114.729 88.7029 114.729 89.5347C114.729 90.3736 113.862 90.6532 112.693 90.6532ZM112.693 89.9147C113.288 89.9147 113.661 89.8143 113.661 89.5347C113.661 89.255 113.288 89.1546 112.693 89.1546C112.098 89.1546 111.725 89.255 111.725 89.5347C111.725 89.8143 112.098 89.9147 112.693 89.9147ZM112.693 87.1828C113.138 87.1828 113.338 86.9892 113.338 86.6953C113.338 86.4013 113.138 86.2077 112.693 86.2077C112.248 86.2077 112.048 86.4013 112.048 86.6953C112.048 86.9892 112.248 87.1828 112.693 87.1828ZM115.489 89.1475V85.5624H116.521V86.1575H116.579C116.579 86.1575 116.858 85.4907 117.869 85.4907C118.715 85.4907 119.375 85.9639 119.375 87.0538V89.1475H118.343V87.3406C118.343 86.7168 117.977 86.4084 117.432 86.4084C116.83 86.4084 116.521 86.8028 116.521 87.3406V89.1475H115.489ZM122.256 89.2192C121.058 89.2192 120.198 88.5523 120.198 87.3549C120.198 86.1575 121.058 85.4907 122.241 85.4907C123.417 85.4907 124.278 86.1575 124.278 87.3549C124.278 87.484 124.256 87.6274 124.256 87.6274H121.281C121.281 88.0217 121.596 88.4161 122.256 88.4161C122.865 88.4161 123.059 88.0576 123.059 88.0576H124.192C124.192 88.0576 123.977 89.2192 122.256 89.2192ZM121.295 86.9964H123.181C123.181 86.7096 122.901 86.2937 122.241 86.2937C121.596 86.2937 121.295 86.7096 121.295 86.9964ZM125.138 89.1475V85.5624H126.17V86.222H126.228C126.228 86.222 126.507 85.4907 127.475 85.4907C127.647 85.4907 127.834 85.5265 127.834 85.5265V86.6666C127.834 86.6666 127.604 86.559 127.21 86.559C126.515 86.559 126.17 87.0036 126.17 87.5628V89.1475H125.138ZM131.582 89.2192C130.636 89.2192 129.847 88.5452 129.847 87.3549C129.847 86.1647 130.636 85.4907 131.582 85.4907C132.486 85.4907 132.858 85.9997 132.858 85.9997H132.901V84.1283H133.934V89.1475H132.901V88.5595H132.851C132.851 88.5595 132.514 89.2192 131.582 89.2192ZM131.905 88.3014C132.529 88.3014 132.901 87.8927 132.901 87.3549C132.901 86.7956 132.507 86.4084 131.905 86.4084C131.281 86.4084 130.908 86.8172 130.908 87.3549C130.908 87.8927 131.281 88.3014 131.905 88.3014ZM136.855 89.2192C135.658 89.2192 134.797 88.5523 134.797 87.3549C134.797 86.1575 135.658 85.4907 136.841 85.4907C138.017 85.4907 138.877 86.1575 138.877 87.3549C138.877 87.484 138.856 87.6274 138.856 87.6274H135.88C135.88 88.0217 136.196 88.4161 136.855 88.4161C137.465 88.4161 137.658 88.0576 137.658 88.0576H138.791C138.791 88.0576 138.576 89.2192 136.855 89.2192ZM135.894 86.9964H137.78C137.78 86.7096 137.501 86.2937 136.841 86.2937C136.196 86.2937 135.894 86.7096 135.894 86.9964ZM141.386 89.2192C140.268 89.2192 139.522 88.8965 139.522 88.0002V87.8855H140.583V88.0002C140.583 88.3301 140.834 88.452 141.386 88.452C141.967 88.452 142.204 88.3301 142.204 88.0863C142.204 87.3979 139.594 88.1293 139.594 86.5805C139.594 85.8563 140.275 85.4907 141.343 85.4907C142.426 85.4907 143.1 85.8492 143.1 86.6737H142.039C142.039 86.5017 142.017 86.2579 141.322 86.2579C140.827 86.2579 140.655 86.4013 140.655 86.5877C140.655 87.19 143.265 86.5017 143.265 88.0719C143.265 88.8965 142.519 89.2192 141.386 89.2192ZM147.708 89.2192C146.525 89.2192 145.665 88.5452 145.665 87.3549C145.665 86.1647 146.525 85.4907 147.708 85.4907C149.128 85.4907 149.709 86.4586 149.709 87.0323H148.648C148.648 87.0323 148.511 86.3798 147.708 86.3798C147.077 86.3798 146.726 86.8028 146.726 87.3549C146.726 87.907 147.077 88.3301 147.708 88.3301C148.511 88.3301 148.648 87.6776 148.648 87.6776H149.709C149.709 88.2512 149.128 89.2192 147.708 89.2192ZM150.535 89.1475V84.1283H151.567V86.1575H151.624C151.624 86.1575 151.904 85.4907 152.915 85.4907C153.761 85.4907 154.421 85.9639 154.421 87.0538V89.1475H153.388V87.3406C153.388 86.7168 153.023 86.4084 152.478 86.4084C151.875 86.4084 151.567 86.8028 151.567 87.3406V89.1475H150.535ZM157.301 89.2192C156.104 89.2192 155.244 88.5523 155.244 87.3549C155.244 86.1575 156.104 85.4907 157.287 85.4907C158.463 85.4907 159.323 86.1575 159.323 87.3549C159.323 87.484 159.302 87.6274 159.302 87.6274H156.326C156.326 88.0217 156.642 88.4161 157.301 88.4161C157.911 88.4161 158.105 88.0576 158.105 88.0576H159.237C159.237 88.0576 159.022 89.2192 157.301 89.2192ZM156.341 86.9964H158.226C158.226 86.7096 157.947 86.2937 157.287 86.2937C156.642 86.2937 156.341 86.7096 156.341 86.9964ZM156.907 84.9171L155.409 83.7698H156.706L157.782 84.9171H156.907ZM163.095 90.5815V88.7101H163.052C163.052 88.7101 162.679 89.2192 161.775 89.2192C160.829 89.2192 160.04 88.5452 160.04 87.3549C160.04 86.1647 160.829 85.4907 161.775 85.4907C162.707 85.4907 163.044 86.1503 163.044 86.1503H163.095V85.5624H164.127V90.5815H163.095ZM162.098 88.3014C162.7 88.3014 163.095 87.9142 163.095 87.3549C163.095 86.8172 162.722 86.4084 162.098 86.4084C161.474 86.4084 161.101 86.8172 161.101 87.3549C161.101 87.8927 161.474 88.3014 162.098 88.3014ZM166.64 89.2192C165.794 89.2192 165.134 88.7459 165.134 87.6561V85.5624H166.167V87.3693C166.167 87.9931 166.532 88.3014 167.077 88.3014C167.679 88.3014 167.988 87.907 167.988 87.3693V85.5624H169.02V89.1475H167.988V88.5523H167.93C167.93 88.5523 167.651 89.2192 166.64 89.2192ZM171.936 89.2192C170.739 89.2192 169.878 88.5523 169.878 87.3549C169.878 86.1575 170.739 85.4907 171.922 85.4907C173.098 85.4907 173.958 86.1575 173.958 87.3549C173.958 87.484 173.936 87.6274 173.936 87.6274H170.961C170.961 88.0217 171.276 88.4161 171.936 88.4161C172.545 88.4161 172.739 88.0576 172.739 88.0576H173.872C173.872 88.0576 173.657 89.2192 171.936 89.2192ZM170.975 86.9964H172.861C172.861 86.7096 172.581 86.2937 171.922 86.2937C171.276 86.2937 170.975 86.7096 170.975 86.9964ZM176.467 89.2192C175.349 89.2192 174.603 88.8965 174.603 88.0002V87.8855H175.664V88.0002C175.664 88.3301 175.915 88.452 176.467 88.452C177.048 88.452 177.285 88.3301 177.285 88.0863C177.285 87.3979 174.675 88.1293 174.675 86.5805C174.675 85.8563 175.356 85.4907 176.424 85.4907C177.507 85.4907 178.181 85.8492 178.181 86.6737H177.12C177.12 86.5017 177.098 86.2579 176.403 86.2579C175.908 86.2579 175.736 86.4013 175.736 86.5877C175.736 87.19 178.346 86.5017 178.346 88.0719C178.346 88.8965 177.6 89.2192 176.467 89.2192ZM182.789 89.2192C181.606 89.2192 180.745 88.5452 180.745 87.3549C180.745 86.1647 181.606 85.4907 182.789 85.4907C184.209 85.4907 184.789 86.4586 184.789 87.0323H183.728C183.728 87.0323 183.592 86.3798 182.789 86.3798C182.158 86.3798 181.807 86.8028 181.807 87.3549C181.807 87.907 182.158 88.3301 182.789 88.3301C183.592 88.3301 183.728 87.6776 183.728 87.6776H184.789C184.789 88.2512 184.209 89.2192 182.789 89.2192ZM186.956 89.2192C186.16 89.2192 185.472 88.8822 185.472 88.1365C185.472 87.3549 186.218 87.0323 187.078 87.0323C187.888 87.0323 188.24 87.3334 188.24 87.3334V86.81C188.24 86.5447 188.075 86.265 187.48 86.265C187.171 86.265 186.712 86.3726 186.712 86.7168H185.651C185.658 85.8707 186.404 85.4907 187.48 85.4907C188.577 85.4907 189.272 85.9065 189.272 86.81V87.9285C189.272 88.2297 189.344 88.3157 189.509 88.3157C189.609 88.3157 189.659 88.287 189.659 88.287V89.1475C189.659 89.1475 189.53 89.2192 189.215 89.2192C188.512 89.2192 188.347 88.7172 188.347 88.7172H188.297C188.297 88.7388 188.017 89.2192 186.956 89.2192ZM187.379 88.4376C188.01 88.4376 188.24 88.1651 188.24 88.1651V87.95C188.24 87.95 188.032 87.7349 187.379 87.7349C186.92 87.7349 186.533 87.8066 186.533 88.0863C186.533 88.3731 186.92 88.4376 187.379 88.4376ZM191.969 89.2192C191.022 89.2192 190.233 88.5452 190.233 87.3549C190.233 86.1647 191.022 85.4907 191.969 85.4907C192.872 85.4907 193.245 85.9997 193.245 85.9997H193.288V84.1283H194.32V89.1475H193.288V88.5595H193.238C193.238 88.5595 192.901 89.2192 191.969 89.2192ZM192.291 88.3014C192.915 88.3014 193.288 87.8927 193.288 87.3549C193.288 86.7956 192.893 86.4084 192.291 86.4084C191.667 86.4084 191.295 86.8172 191.295 87.3549C191.295 87.8927 191.667 88.3014 192.291 88.3014ZM197.242 89.2192C196.044 89.2192 195.184 88.5523 195.184 87.3549C195.184 86.1575 196.044 85.4907 197.227 85.4907C198.403 85.4907 199.264 86.1575 199.264 87.3549C199.264 87.484 199.242 87.6274 199.242 87.6274H196.267C196.267 88.0217 196.582 88.4161 197.242 88.4161C197.851 88.4161 198.045 88.0576 198.045 88.0576H199.178C199.178 88.0576 198.963 89.2192 197.242 89.2192ZM196.281 86.9964H198.167C198.167 86.7096 197.887 86.2937 197.227 86.2937C196.582 86.2937 196.281 86.7096 196.281 86.9964ZM201.465 89.2192C200.669 89.2192 199.98 88.8822 199.98 88.1365C199.98 87.3549 200.726 87.0323 201.586 87.0323C202.397 87.0323 202.748 87.3334 202.748 87.3334V86.81C202.748 86.5447 202.583 86.265 201.988 86.265C201.68 86.265 201.221 86.3726 201.221 86.7168H200.16C200.167 85.8707 200.912 85.4907 201.988 85.4907C203.085 85.4907 203.781 85.9065 203.781 86.81V87.9285C203.781 88.2297 203.852 88.3157 204.017 88.3157C204.118 88.3157 204.168 88.287 204.168 88.287V89.1475C204.168 89.1475 204.039 89.2192 203.723 89.2192C203.02 89.2192 202.856 88.7172 202.856 88.7172H202.805C202.805 88.7388 202.526 89.2192 201.465 89.2192ZM201.888 88.4376C202.519 88.4376 202.748 88.1651 202.748 88.1651V87.95C202.748 87.95 202.54 87.7349 201.888 87.7349C201.429 87.7349 201.041 87.8066 201.041 88.0863C201.041 88.3731 201.429 88.4376 201.888 88.4376ZM206.391 89.2192C205.545 89.2192 204.885 88.7459 204.885 87.6561V85.5624H205.918V87.3693C205.918 87.9931 206.283 88.3014 206.828 88.3014C207.431 88.3014 207.739 87.907 207.739 87.3693V85.5624H208.771V89.1475H207.739V88.5523H207.682C207.682 88.5523 207.402 89.2192 206.391 89.2192ZM209.235 89.1475L210.561 87.2832L209.393 85.5624H210.569L211.271 86.7024H211.293L211.995 85.5624H213.171L212.003 87.2832L213.329 89.1475H212.132L211.293 87.8927H211.271L210.432 89.1475H209.235ZM214.186 89.2192C213.821 89.2192 213.577 88.9969 213.577 88.6455C213.577 88.2942 213.821 88.0719 214.186 88.0719C214.552 88.0719 214.796 88.2942 214.796 88.6455C214.796 88.9969 214.552 89.2192 214.186 89.2192Z" fill="#221C46"/>
<rect x="124.665" y="103.882" width="55.4682" height="19.7341" fill="#00EB5E"/>
<rect x="124.665" y="103.882" width="55.4682" height="19.7341" stroke="#221C46" stroke-width="1.38029"/>
<path d="M135.9 115.249V110.866H137.741C139.05 110.866 139.632 111.442 139.632 112.494C139.632 113.54 139.05 114.116 137.741 114.116H136.89V115.249H135.9ZM136.89 113.283H137.741C138.299 113.283 138.599 113.026 138.599 112.494C138.599 111.962 138.299 111.699 137.741 111.699H136.89V113.283ZM141.277 115.312C140.582 115.312 139.981 115.017 139.981 114.366C139.981 113.684 140.632 113.402 141.383 113.402C142.091 113.402 142.398 113.665 142.398 113.665V113.208C142.398 112.976 142.254 112.732 141.734 112.732C141.465 112.732 141.064 112.826 141.064 113.126H140.137C140.143 112.387 140.795 112.056 141.734 112.056C142.692 112.056 143.299 112.419 143.299 113.208V114.185C143.299 114.448 143.362 114.523 143.506 114.523C143.594 114.523 143.637 114.498 143.637 114.498V115.249C143.637 115.249 143.525 115.312 143.249 115.312C142.636 115.312 142.492 114.873 142.492 114.873H142.448C142.448 114.892 142.203 115.312 141.277 115.312ZM141.646 114.629C142.197 114.629 142.398 114.391 142.398 114.391V114.203C142.398 114.203 142.216 114.015 141.646 114.015C141.245 114.015 140.907 114.078 140.907 114.322C140.907 114.573 141.245 114.629 141.646 114.629ZM144.264 115.249V112.118H145.166V112.694H145.216C145.216 112.694 145.46 112.056 146.305 112.056C146.455 112.056 146.618 112.087 146.618 112.087V113.083C146.618 113.083 146.418 112.989 146.074 112.989C145.466 112.989 145.166 113.377 145.166 113.865V115.249H144.264ZM148.838 115.312C147.942 115.312 147.454 114.942 147.454 114.066V112.845H146.997V112.325L147.867 111.492H148.356V112.118H149.332V112.845H148.356V113.947C148.356 114.448 148.618 114.56 148.969 114.56C149.251 114.56 149.426 114.448 149.426 114.448V115.199C149.426 115.199 149.195 115.312 148.838 115.312ZM150.116 115.249V112.118H151.017V115.249H150.116ZM150.567 111.63C150.26 111.63 150.066 111.467 150.066 111.217C150.066 110.966 150.26 110.803 150.567 110.803C150.873 110.803 151.068 110.966 151.068 111.217C151.068 111.467 150.873 111.63 150.567 111.63ZM153.555 115.312C152.521 115.312 151.77 114.723 151.77 113.684C151.77 112.644 152.521 112.056 153.555 112.056C154.794 112.056 155.301 112.901 155.301 113.402H154.375C154.375 113.402 154.256 112.832 153.555 112.832C153.003 112.832 152.697 113.201 152.697 113.684C152.697 114.166 153.003 114.535 153.555 114.535C154.256 114.535 154.375 113.965 154.375 113.965H155.301C155.301 114.466 154.794 115.312 153.555 115.312ZM156.023 115.249V112.118H156.924V115.249H156.023ZM156.474 111.63C156.167 111.63 155.973 111.467 155.973 111.217C155.973 110.966 156.167 110.803 156.474 110.803C156.78 110.803 156.974 110.966 156.974 111.217C156.974 111.467 156.78 111.63 156.474 111.63ZM157.802 116.501V112.118H158.704V112.632H158.748C158.748 112.632 159.042 112.056 159.856 112.056C160.682 112.056 161.371 112.644 161.371 113.684C161.371 114.723 160.682 115.312 159.856 115.312C159.067 115.312 158.741 114.867 158.741 114.867H158.704V116.501H157.802ZM159.574 114.51C160.119 114.51 160.444 114.153 160.444 113.684C160.444 113.214 160.119 112.857 159.574 112.857C159.029 112.857 158.704 113.214 158.704 113.684C158.704 114.172 159.048 114.51 159.574 114.51ZM163.797 115.312C162.751 115.312 162 114.729 162 113.684C162 112.638 162.751 112.056 163.785 112.056C164.811 112.056 165.563 112.638 165.563 113.684C165.563 113.796 165.544 113.922 165.544 113.922H162.946C162.946 114.266 163.221 114.61 163.797 114.61C164.329 114.61 164.498 114.297 164.498 114.297H165.488C165.488 114.297 165.3 115.312 163.797 115.312ZM162.958 113.371H164.605C164.605 113.12 164.361 112.757 163.785 112.757C163.221 112.757 162.958 113.12 162.958 113.371ZM166.314 115.249V112.118H167.216V112.694H167.266C167.266 112.694 167.51 112.056 168.355 112.056C168.505 112.056 168.668 112.087 168.668 112.087V113.083C168.668 113.083 168.468 112.989 168.124 112.989C167.516 112.989 167.216 113.377 167.216 113.865V115.249H166.314Z" fill="#221C46"/>
</g>
<defs>
<filter id="filter0_d_3677_1868" x="59.3701" y="16" width="188.818" height="124.689" filterUnits="userSpaceOnUse" color-interpolation-filters="sRGB">
<feFlood flood-opacity="0" result="BackgroundImageFix"/>
<feColorMatrix in="SourceAlpha" type="matrix" values="0 0 0 0 0 0 0 0 0 0 0 0 0 0 0 0 0 0 127 0" result="hardAlpha"/>
<feOffset dx="2.76058" dy="2.76058"/>
<feComposite in2="hardAlpha" operator="out"/>
<feColorMatrix type="matrix" values="0 0 0 0 0.133333 0 0 0 0 0.109804 0 0 0 0 0.27451 0 0 0 0.2 0"/>
<feBlend mode="normal" in2="BackgroundImageFix" result="effect1_dropShadow_3677_1868"/>
<feBlend mode="normal" in="SourceGraphic" in2="effect1_dropShadow_3677_1868" result="shape"/>
</filter>
<clipPath id="clip0_3677_1868">
<rect width="186.058" height="121.928" fill="white" transform="translate(59.3701 16)"/>
</clipPath>
</defs>
</svg>
