<svg width="304" height="157" viewBox="0 0 304 157" fill="none" xmlns="http://www.w3.org/2000/svg">
<path d="M111.922 113.987L111.922 115.704H111.922V113.987ZM123.756 113.987H125.473C125.473 113.039 124.704 112.27 123.756 112.27V113.987ZM123.756 136.178H122.039C122.039 137.126 122.807 137.895 123.756 137.895V136.178ZM135.143 136.178V137.895C135.863 137.895 136.507 137.446 136.755 136.77C137.003 136.093 136.803 135.334 136.254 134.868L135.143 136.178ZM129.163 131.105L127.457 130.907C127.391 131.477 127.614 132.043 128.052 132.414L129.163 131.105ZM131.974 106.873L133.68 107.071C133.736 106.586 133.583 106.099 133.259 105.734C132.935 105.368 132.471 105.158 131.982 105.156L131.974 106.873ZM115.813 106.794H114.095C114.095 107.74 114.859 108.507 115.804 108.512L115.813 106.794ZM115.812 79.5058H117.53C117.53 78.5575 116.761 77.7886 115.812 77.7886V79.5058ZM104.96 82.0129L106.174 83.2272L106.176 83.2253L104.96 82.0129ZM118.795 99.852V101.569H120.512V99.852H118.795ZM118.795 93.7585H120.512V92.0413H118.795V93.7585ZM109.557 93.7585H107.84V95.4757H109.557V93.7585ZM108.654 99.8521L110.327 99.4653L110.02 98.1349H108.654V99.8521ZM92.4733 99.8521V98.1349H90.3141L90.8002 100.239L92.4733 99.8521ZM94.5437 108.816L92.8706 109.202L92.8709 109.203L94.5437 108.816ZM101.049 113.987L101.049 112.27H101.049V113.987ZM139.387 86.6886L141.021 87.2155L141.745 84.9714H139.387V86.6886ZM124.609 86.6886V84.9714H123.359L122.975 86.1611L124.609 86.6886ZM120.36 99.8521L118.726 99.3246L118.002 101.569H120.36V99.8521ZM135.143 99.8521V101.569H136.394L136.777 100.379L135.143 99.8521ZM143.984 82.6655L145.115 83.9571L148.55 80.9483H143.984V82.6655ZM139.391 86.6886V88.4058H140.037L140.523 87.9802L139.391 86.6886ZM133.46 86.6886L131.95 85.8699L130.575 88.4058H133.46V86.6886ZM143.542 68.0988V66.3816H142.52L142.033 67.2801L143.542 68.0988ZM163.206 73.7312L161.849 74.783L161.849 74.7838L163.206 73.7312ZM173.254 86.6886V88.4058H176.758L174.611 85.6365L173.254 86.6886ZM165.591 86.6886L164.517 88.0288L164.988 88.4058H165.591V86.6886ZM158.884 81.3163L159.957 79.976L157.167 77.7406V81.3163H158.884ZM158.884 92.9195V94.6367H160.601V92.9195H158.884ZM143.979 92.9195H142.261V94.6367H143.979V92.9195ZM143.979 82.6655V80.9483H142.261V82.6655H143.979ZM158.888 92.9196H160.606V91.2024H158.888V92.9196ZM158.888 114.546L160.588 114.788L160.606 114.668V114.546H158.888ZM159.693 136.178V137.895H162.802L161.146 135.263L159.693 136.178ZM143.983 136.178H142.266V137.895H143.983V136.178ZM143.983 92.9196V91.2024H142.266V92.9196H143.983ZM186.576 89.1858L184.863 89.0608C184.849 89.2515 184.867 89.4431 184.916 89.6279L186.576 89.1858ZM187.282 79.5057V77.7886C186.382 77.7886 185.635 78.4833 185.569 79.3807L187.282 79.5057ZM197.629 86.978L195.926 87.195L195.926 87.1953L197.629 86.978ZM180.544 136.178L180.544 137.895C181.416 137.896 182.151 137.241 182.25 136.374L180.544 136.178ZM171.748 136.173L170.386 135.126C169.988 135.645 169.918 136.345 170.207 136.931C170.496 137.518 171.093 137.89 171.747 137.89L171.748 136.173ZM175.648 131.1L177.009 132.147C177.24 131.846 177.365 131.479 177.365 131.1H175.648ZM191.544 85.8742L192.985 86.8082L192.988 86.8043L191.544 85.8742ZM197.157 85.8693L198.602 84.9414L198.601 84.9392L197.157 85.8693ZM197.687 99.8521V101.569H199.404V99.8521H197.687ZM181.148 99.8521L181.148 101.569H181.148V99.8521ZM181.148 93.5133V91.7961H179.431V93.5133H181.148ZM191.019 93.5133V95.2305H192.737V93.5133H191.019ZM175.648 106.794V105.077H173.93V106.794H175.648ZM175.648 125.418H173.93V127.13L175.642 127.136L175.648 125.418ZM182.119 125.438L182.114 127.155L183.836 127.161V125.438H182.119ZM182.119 113.987V112.27H180.402V113.987H182.119ZM209.335 99.8521L211.017 100.2L211.445 98.1349H209.335V99.8521ZM207.51 108.664L209.192 109.012L209.192 109.012L207.51 108.664ZM190.23 113.987L188.549 113.639L188.121 115.704H190.23V113.987ZM193.159 99.8521L194.841 100.201L195.269 98.1349H193.159V99.8521ZM165.596 86.6886V84.9714H163.238L163.961 87.2155L165.596 86.6886ZM180.373 86.6886L182.007 86.1611L181.623 84.9714H180.373V86.6886ZM88.3164 136.178V137.895H213.494V136.178V134.461H88.3164V136.178ZM113.119 64.9981V63.2809C108.684 63.2809 105.078 66.8797 105.078 71.3222H106.795H108.513C108.513 68.7782 110.579 66.7152 113.119 66.7152V64.9981ZM106.795 71.3222H105.078C105.078 75.7638 108.678 79.3636 113.119 79.3636V77.6464V75.9292C110.575 75.9292 108.513 73.8671 108.513 71.3222H106.795ZM113.119 77.6464V79.3636C117.562 79.3636 121.161 75.7581 121.161 71.3222H119.444H117.726C117.726 73.863 115.664 75.9292 113.119 75.9292V77.6464ZM119.444 71.3222H121.161C121.161 66.8864 117.562 63.2809 113.119 63.2809V64.9981V66.7152C115.664 66.7152 117.726 68.7814 117.726 71.3222H119.444ZM111.922 113.987V115.704H123.756V113.987V112.27H111.922V113.987ZM123.756 113.987H122.039V136.178H123.756H125.473V113.987H123.756ZM123.756 136.178V137.895H135.143V136.178V134.461H123.756V136.178ZM135.143 136.178L136.254 134.868L130.273 129.795L129.163 131.105L128.052 132.414L134.032 137.487L135.143 136.178ZM129.163 131.105L130.868 131.303L133.68 107.071L131.974 106.873L130.268 106.675L127.457 130.907L129.163 131.105ZM131.974 106.873L131.982 105.156L115.821 105.077L115.813 106.794L115.804 108.512L131.965 108.59L131.974 106.873ZM115.813 106.794H117.53V99.8521H115.813H114.095V106.794H115.813ZM115.812 93.7585H117.53V79.5058H115.812H114.095V93.7585H115.812ZM115.812 79.5058V77.7886H111.009V79.5058V81.223H115.812V79.5058ZM111.009 79.5058V77.7886C108.289 77.7886 105.672 78.8662 103.744 80.8005L104.96 82.0129L106.176 83.2253C107.456 81.9411 109.196 81.223 111.009 81.223V79.5058ZM104.96 82.0129L103.745 80.7987C101.82 82.7244 100.735 85.3343 100.735 88.0623H102.453H104.17C104.17 86.2472 104.891 84.5102 106.174 83.2272L104.96 82.0129ZM102.453 88.0623H100.735V99.8521H102.453H104.17V88.0623H102.453ZM108.752 99.852V101.569H118.795V99.852V98.1348H108.752V99.852ZM118.795 99.852H120.512V93.7585H118.795H117.078V99.852H118.795ZM118.795 93.7585V92.0413H109.557V93.7585V95.4757H118.795V93.7585ZM109.557 93.7585H111.274V86.6886H109.557H107.84V93.7585H109.557ZM115.812 106.794V105.077H111.18V106.794V108.512H115.812V106.794ZM102.452 113.987L100.779 113.598L95.6132 135.789L97.2856 136.178L98.9581 136.567L104.124 114.376L102.452 113.987ZM108.654 99.8521V98.1349H92.4733V99.8521V101.569H108.654V99.8521ZM92.4733 99.8521C90.8002 100.239 90.8002 100.239 90.8002 100.239C90.8002 100.239 90.8002 100.239 90.8003 100.239C90.8003 100.239 90.8003 100.239 90.8004 100.24C90.8005 100.24 90.8008 100.241 90.801 100.242C90.8016 100.245 90.8024 100.248 90.8035 100.253C90.8057 100.262 90.8089 100.276 90.8132 100.295C90.8218 100.332 90.8345 100.387 90.8509 100.458C90.8839 100.601 90.932 100.809 90.9926 101.071C91.1139 101.596 91.2853 102.338 91.4858 103.206C91.8869 104.942 92.4045 107.183 92.8706 109.202L94.5437 108.816L96.2169 108.429C95.7508 106.41 95.2332 104.169 94.8321 102.433C94.6315 101.565 94.4601 100.823 94.3388 100.298C94.2782 100.036 94.2301 99.8276 94.1971 99.685C94.1807 99.6137 94.168 99.5588 94.1594 99.5218C94.1551 99.5032 94.1519 99.4891 94.1497 99.4797C94.1486 99.475 94.1478 99.4714 94.1472 99.469C94.147 99.4678 94.1467 99.4669 94.1466 99.4663C94.1465 99.466 94.1465 99.4658 94.1465 99.4657C94.1464 99.4656 94.1464 99.4655 94.1464 99.4655C94.1464 99.4655 94.1464 99.4654 92.4733 99.8521ZM94.5437 108.816L92.8709 109.203C93.7527 113.008 97.139 115.704 101.049 115.704V113.987V112.27C98.7387 112.27 96.738 110.678 96.2166 108.428L94.5437 108.816ZM101.049 113.987L101.049 115.704L111.922 115.704L111.922 113.987L111.922 112.27L101.049 112.27L101.049 113.987ZM111.922 113.987L113.595 113.6L110.327 99.4653L108.654 99.8521L106.981 100.239L110.249 114.374L111.922 113.987ZM139.387 86.6886V84.9714H124.609V86.6886V88.4058H139.387V86.6886ZM124.609 86.6886L122.975 86.1611L118.726 99.3246L120.36 99.8521L121.995 100.38L126.243 87.2161L124.609 86.6886ZM120.36 99.8521V101.569H135.143V99.8521V98.1349H120.36V99.8521ZM135.143 99.8521L136.777 100.379L141.021 87.2155L139.387 86.6886L137.753 86.1617L133.509 99.3251L135.143 99.8521ZM113.118 93.8958H111.401V99.852H113.118H114.835V93.8958H113.118ZM129.163 131.105V129.388H123.756V131.105V132.822H129.163V131.105ZM143.984 82.6655L142.852 81.3739L138.26 85.397L139.391 86.6886L140.523 87.9802L145.115 83.9571L143.984 82.6655ZM139.391 86.6886V84.9714H133.46V86.6886V88.4058H139.391V86.6886ZM133.46 86.6886L134.969 87.5073L145.051 68.9175L143.542 68.0988L142.033 67.2801L131.95 85.8699L133.46 86.6886ZM143.542 68.0988V69.816H151.716V68.0988V66.3816H143.542V68.0988ZM151.716 68.0988V69.816C155.679 69.816 159.422 71.6507 161.849 74.783L163.206 73.7312L164.564 72.6794C161.486 68.7075 156.741 66.3816 151.716 66.3816V68.0988ZM163.206 73.7312L161.849 74.7838C163.971 77.5188 166.483 80.758 168.465 83.3135C169.455 84.5913 170.314 85.6981 170.924 86.4854C171.229 86.8791 171.472 87.1929 171.639 87.4083C171.723 87.516 171.787 87.5991 171.831 87.6553C171.853 87.6834 171.869 87.7047 171.88 87.7191C171.886 87.7262 171.89 87.7316 171.893 87.7353C171.894 87.7371 171.895 87.7384 171.896 87.7393C171.896 87.7398 171.897 87.7401 171.897 87.7404C171.897 87.7405 171.897 87.7406 171.897 87.7406C171.897 87.7407 171.897 87.7407 173.254 86.6886C174.611 85.6365 174.611 85.6365 174.611 85.6364C174.611 85.6364 174.611 85.6363 174.611 85.6362C174.611 85.6359 174.611 85.6356 174.61 85.6351C174.61 85.6342 174.609 85.6329 174.607 85.6311C174.604 85.6274 174.6 85.622 174.595 85.6149C174.583 85.6005 174.567 85.5792 174.545 85.5511C174.502 85.4949 174.437 85.4118 174.354 85.3041C174.187 85.0887 173.943 84.7748 173.638 84.3811C173.028 83.5938 172.17 82.4869 171.179 81.2091C169.197 78.6535 166.685 75.414 164.563 72.6786L163.206 73.7312ZM173.254 86.6886V84.9714H165.591V86.6886V88.4058H173.254V86.6886ZM165.591 86.6886L166.664 85.3484L159.957 79.976L158.884 81.3163L157.81 82.6565L164.517 88.0288L165.591 86.6886ZM158.884 81.3163H157.167V92.9195H158.884H160.601V81.3163H158.884ZM158.884 92.9195V91.2023H143.979V92.9195V94.6367H158.884V92.9195ZM143.979 92.9195H145.696V82.6655H143.979H142.261V92.9195H143.979ZM143.979 82.6655V84.3827H143.984V82.6655V80.9483H143.979V82.6655ZM158.888 92.9196H157.171V114.546H158.888H160.606V92.9196H158.888ZM158.888 114.546L157.188 114.305L154.828 130.907L156.528 131.149L158.229 131.391L160.588 114.788L158.888 114.546ZM156.528 131.149L155.075 132.064L158.24 137.093L159.693 136.178L161.146 135.263L157.982 130.235L156.528 131.149ZM159.693 136.178V134.461H143.983V136.178V137.895H159.693V136.178ZM143.983 136.178H145.7V92.9196H143.983H142.266V136.178H143.983ZM143.983 92.9196V94.6368H158.888V92.9196V91.2024H143.983V92.9196ZM159.213 59.6552H157.496C157.496 62.3838 155.284 64.5958 152.556 64.5958V66.3129V68.0301C157.181 68.0301 160.931 64.2805 160.931 59.6552H159.213ZM152.556 66.3129V64.5958C149.827 64.5958 147.615 62.3838 147.615 59.6552H145.898H144.181C144.181 64.2805 147.93 68.0301 152.556 68.0301V66.3129ZM145.898 59.6552H147.615C147.615 56.9265 149.827 54.7146 152.556 54.7146V52.9974V51.2802C147.93 51.2802 144.181 55.0298 144.181 59.6552H145.898ZM152.556 52.9974V54.7146C155.284 54.7146 157.496 56.9266 157.496 59.6552H159.213H160.931C160.931 55.0298 157.181 51.2802 152.556 51.2802V52.9974ZM156.528 131.149L156.528 129.432L145.043 129.432L145.043 131.149L145.043 132.866L156.528 132.866L156.528 131.149ZM151.084 105.955L149.367 105.96L149.44 136.182L151.157 136.178L152.875 136.174L152.801 105.951L151.084 105.955ZM152.491 68.6238H150.773V86.6887H152.491H154.208V68.6238H152.491ZM196.794 71.3222H195.077C195.077 73.8666 193.014 75.9292 190.47 75.9292V77.6464V79.3636C194.911 79.3636 198.511 75.7633 198.511 71.3222H196.794ZM190.47 77.6464V75.9292C187.925 75.9292 185.863 73.8666 185.863 71.3222H184.145H182.428C182.428 75.7633 186.028 79.3636 190.47 79.3636V77.6464ZM184.145 71.3222H185.863C185.863 68.7778 187.925 66.7152 190.47 66.7152V64.9981V63.2809C186.028 63.2809 182.428 66.8811 182.428 71.3222H184.145ZM190.47 64.9981V66.7152C193.014 66.7152 195.077 68.7779 195.077 71.3222H196.794H198.511C198.511 66.8811 194.911 63.2809 190.47 63.2809V64.9981ZM187.957 106.794L189.638 107.147L191.095 100.205L189.415 99.8521L187.734 99.4993L186.277 106.442L187.957 106.794ZM187.729 93.5131L189.388 93.071L188.235 88.7437L186.576 89.1858L184.916 89.6279L186.069 93.9552L187.729 93.5131ZM186.576 89.1858L188.288 89.3108L188.995 79.6307L187.282 79.5057L185.569 79.3807L184.863 89.0608L186.576 89.1858ZM187.282 79.5057V81.2229H189.142V79.5057V77.7886H187.282V79.5057ZM189.142 79.5057V81.2229C192.586 81.2229 195.491 83.78 195.926 87.195L197.629 86.978L199.333 86.7609C198.679 81.6293 194.313 77.7886 189.142 77.7886V79.5057ZM197.629 86.978L195.926 87.1953C196.441 91.2332 196.852 94.4518 197.134 96.6609C197.275 97.7654 197.384 98.6176 197.458 99.1937C197.494 99.4817 197.522 99.7007 197.541 99.8477C197.551 99.9212 197.558 99.9767 197.562 100.014C197.565 100.032 197.567 100.046 197.568 100.056C197.568 100.06 197.569 100.064 197.569 100.066C197.569 100.067 197.569 100.068 197.569 100.069C197.57 100.069 197.57 100.069 197.57 100.069C197.57 100.07 197.57 100.07 197.57 100.07C197.57 100.07 197.57 100.07 199.273 99.852C200.976 99.6343 200.976 99.6342 200.976 99.6342C200.976 99.6342 200.976 99.6341 200.976 99.634C200.976 99.6339 200.976 99.6337 200.976 99.6334C200.976 99.6328 200.976 99.6319 200.976 99.6308C200.976 99.6284 200.975 99.6249 200.974 99.6203C200.973 99.6109 200.971 99.597 200.969 99.5784C200.964 99.5413 200.957 99.4858 200.948 99.4124C200.929 99.2654 200.901 99.0464 200.864 98.7584C200.791 98.1824 200.682 97.3303 200.541 96.2258C200.259 94.0168 199.848 90.7984 199.333 86.7606L197.629 86.978ZM181.781 125.438L180.075 125.242L178.839 135.982L180.544 136.178L182.25 136.374L183.487 125.635L181.781 125.438ZM180.544 136.178L180.545 134.461L171.749 134.456L171.748 136.173L171.747 137.89L180.544 137.895L180.544 136.178ZM171.748 136.173L173.109 137.22L177.009 132.147L175.648 131.1L174.287 130.053L170.386 135.126L171.748 136.173ZM175.648 131.1H177.365V125.438H175.648H173.931V131.1H175.648ZM191.019 87.6552H192.737C192.737 87.351 192.824 87.0576 192.985 86.8082L191.544 85.8742L190.103 84.9403C189.578 85.7506 189.302 86.6936 189.302 87.6552H191.019ZM191.544 85.8742L192.988 86.8043C193.285 86.3424 193.802 86.0607 194.351 86.0607V84.3435V82.6263C192.633 82.6263 191.03 83.5024 190.101 84.9441L191.544 85.8742ZM194.351 84.3435V86.0607C194.905 86.0607 195.419 86.3418 195.714 86.7994L197.157 85.8693L198.601 84.9392C197.669 83.4932 196.063 82.6263 194.351 82.6263V84.3435ZM197.157 85.8693L195.712 86.7972C195.882 87.0613 195.97 87.3634 195.97 87.6601H197.687H199.404C199.404 86.691 199.119 85.7469 198.602 84.9414L197.157 85.8693ZM197.687 87.6601H195.97V99.8521H197.687H199.404V87.6601H197.687ZM197.687 99.8521V98.1349H181.148V99.8521V101.569H197.687V99.8521ZM181.148 99.8521H182.865V93.5133H181.148H179.431V99.8521H181.148ZM181.148 93.5133V95.2305H191.019V93.5133V91.7961H181.148V93.5133ZM191.019 93.5133H192.737V87.6552H191.019H189.302V93.5133H191.019ZM191.77 106.794V105.077H175.648V106.794V108.512H191.77V106.794ZM175.648 106.794H173.93V125.418H175.648H177.365V106.794H175.648ZM175.648 125.418L175.642 127.136L182.114 127.155L182.119 125.438L182.124 123.721L175.653 123.701L175.648 125.418ZM182.119 125.438H183.836V113.987H182.119H180.402V125.438H182.119ZM182.119 113.987V115.704H190.229V113.987V112.27H182.119V113.987ZM201.141 113.987L199.469 114.376L204.635 136.567L206.307 136.178L207.98 135.789L202.813 113.598L201.141 113.987ZM193.154 99.8521V101.569H209.335V99.8521V98.1349H193.154V99.8521ZM209.335 99.8521C207.654 99.5038 207.654 99.5038 207.654 99.5038C207.654 99.5039 207.654 99.5039 207.654 99.504C207.654 99.5041 207.654 99.5043 207.654 99.5046C207.653 99.5052 207.653 99.5061 207.653 99.5073C207.653 99.5096 207.652 99.5131 207.651 99.5177C207.649 99.5269 207.646 99.5406 207.642 99.5587C207.635 99.5949 207.624 99.6485 207.609 99.7182C207.581 99.8575 207.538 100.061 207.485 100.318C207.379 100.831 207.228 101.557 207.052 102.408C206.7 104.111 206.243 106.314 205.829 108.315L207.51 108.664L209.192 109.012C209.606 107.01 210.063 104.807 210.415 103.105C210.591 102.254 210.742 101.528 210.848 101.014C210.901 100.758 210.943 100.554 210.972 100.415C210.987 100.345 210.998 100.292 211.005 100.255C211.009 100.237 211.012 100.224 211.014 100.214C211.015 100.21 211.016 100.206 211.016 100.204C211.016 100.203 211.016 100.202 211.017 100.201C211.017 100.201 211.017 100.201 211.017 100.201C211.017 100.201 211.017 100.2 211.017 100.2C211.017 100.2 211.017 100.2 209.335 99.8521ZM207.51 108.664L205.829 108.315C205.351 110.62 203.324 112.27 200.975 112.27V113.987V115.704C204.955 115.704 208.384 112.909 209.192 109.012L207.51 108.664ZM200.975 113.987V112.27H190.23V113.987V115.704H200.975V113.987ZM190.23 113.987L191.912 114.335L194.841 100.201L193.159 99.8521L191.478 99.5036L188.549 113.639L190.23 113.987ZM193.159 99.8521V98.1349H193.154V99.8521V101.569H193.159V99.8521ZM199.037 64.9981V66.7152C199.423 66.7152 199.738 67.0307 199.738 67.4168H201.456H203.173C203.173 65.134 201.32 63.2809 199.037 63.2809V64.9981ZM201.456 67.4168H199.738C199.738 67.803 199.423 68.1184 199.037 68.1184V69.8356V71.5528C201.32 71.5528 203.173 69.6997 203.173 67.4168H201.456ZM199.037 69.8356V68.1184C198.651 68.1184 198.335 67.803 198.335 67.4168H196.618H194.901C194.901 69.6997 196.754 71.5528 199.037 71.5528V69.8356ZM196.618 67.4168H198.335C198.335 67.0307 198.651 66.7152 199.037 66.7152V64.9981V63.2809C196.754 63.2809 194.901 65.134 194.901 67.4168H196.618ZM169.84 99.8521L171.474 99.3251L167.23 86.1617L165.596 86.6886L163.961 87.2155L168.205 100.379L169.84 99.8521ZM165.596 86.6886V88.4058H180.373V86.6886V84.9714H165.596V86.6886ZM180.373 86.6886L178.739 87.2161L180.942 94.0407L182.576 93.5132L184.21 92.9857L182.007 86.1611L180.373 86.6886ZM135.142 99.8521L135.142 101.569L181.148 101.569L181.148 99.8521L181.148 98.1349L135.142 98.1349L135.142 99.8521ZM146.948 46.2758L148.162 45.0621L142.618 39.5131L141.404 40.7268L140.189 41.9405L145.733 47.4895L146.948 46.2758ZM152.492 43.9747H154.209V36.1345H152.492H150.775V43.9747H152.492ZM158.036 46.2758L159.251 47.4895L164.795 41.9405L163.58 40.7268L162.365 39.5131L156.821 45.0621L158.036 46.2758ZM96.9612 63.5653H98.6784C98.6784 57.8481 94.0337 53.2034 88.3164 53.2034V54.9205V56.6377C92.1369 56.6377 95.244 59.7449 95.244 63.5653H96.9612ZM88.3164 54.9205V56.6377C94.0392 56.6377 98.6784 51.9923 98.6784 46.2757H96.9612H95.244C95.244 50.0969 92.1412 53.2034 88.3164 53.2034V54.9205ZM96.9612 46.2757H95.244C95.244 51.993 99.8888 56.6377 105.606 56.6377V54.9205V53.2034C101.786 53.2034 98.6784 50.0962 98.6784 46.2757H96.9612ZM105.606 54.9205V53.2034C99.8832 53.2034 95.244 57.8487 95.244 63.5653H96.9612H98.6784C98.6784 59.7442 101.781 56.6377 105.606 56.6377V54.9205ZM190.908 29.8496V31.5668C193.428 31.5668 195.475 33.6142 195.475 36.1345H197.192H198.91C198.91 31.7174 195.325 28.1324 190.908 28.1324V29.8496ZM197.192 36.1345H195.475C195.475 38.6549 193.428 40.7022 190.908 40.7022V42.4194V44.1366C195.325 44.1366 198.91 40.5516 198.91 36.1345H197.192ZM190.908 42.4194V40.7022C188.387 40.7022 186.34 38.6549 186.34 36.1345H184.623H182.905C182.905 40.5516 186.49 44.1366 190.908 44.1366V42.4194ZM184.623 36.1345H186.34C186.34 33.6142 188.387 31.5668 190.908 31.5668V29.8496V28.1324C186.49 28.1324 182.905 31.7174 182.905 36.1345H184.623Z" fill="#221C46"/>
</svg>
