<svg width="304" height="153" viewBox="0 0 304 153" fill="none" xmlns="http://www.w3.org/2000/svg">
<g clip-path="url(#clip0_3676_2621)">
<g filter="url(#filter0_d_3676_2621)">
<rect x="22" width="259.2" height="64.8137" fill="white"/>
<rect x="22.25" y="0.25" width="258.7" height="64.3137" stroke="#E5E3EA" stroke-width="0.5"/>
<path fill-rule="evenodd" clip-rule="evenodd" d="M42.6394 13.7134C39.7707 13.7134 37.4452 15.6299 37.4452 17.994V19.5944L35.7139 21.2411V24.5345H39.6095C39.6095 24.6814 39.6199 24.8259 39.6402 24.9673C39.8502 26.4356 41.1129 27.5644 42.6394 27.5644C44.1658 27.5644 45.4286 26.4356 45.6386 24.9673C45.6588 24.8259 45.6693 24.6814 45.6693 24.5345H49.5649V21.2411L47.8335 19.5944V18.3832C47.8335 15.8041 45.508 13.7134 42.6394 13.7134ZM37.4452 22.8031H47.8335V21.9838L46.1021 20.3371V18.3832C46.1021 16.929 44.7297 15.4448 42.6394 15.4448C40.3986 15.4448 39.1766 16.8843 39.1766 17.994V20.3371L37.4452 21.9838V22.8031ZM42.6394 25.833C43.2048 25.833 43.6858 25.4717 43.864 24.9673H41.4147C41.593 25.4717 42.074 25.833 42.6394 25.833Z" fill="#E9003F"/>
<path d="M62.9094 25.4048L59.6761 16.0909H61.8849L64.2666 23.3025H64.4528L66.8345 16.0909H69.0433L65.81 25.4048H62.9094ZM72.7697 25.5378C70.5742 25.5378 68.9776 24.2871 68.9776 22.0784C68.9776 19.8697 70.5742 18.6189 72.7697 18.6189C74.9651 18.6189 76.5618 19.8697 76.5618 22.0784C76.5618 24.2871 74.9651 25.5378 72.7697 25.5378ZM72.7697 23.8879C73.9406 23.8879 74.5925 23.1029 74.5925 22.0784C74.5925 21.0539 73.9406 20.2688 72.7697 20.2688C71.5988 20.2688 70.9468 21.0539 70.9468 22.0784C70.9468 23.1029 71.5988 23.8879 72.7697 23.8879ZM80.9516 25.5378C79.3815 25.5378 78.1574 24.6597 78.1574 22.6372V18.752H80.0734V22.105C80.0734 23.2626 80.752 23.8347 81.7632 23.8347C82.8809 23.8347 83.453 23.1029 83.453 22.105V18.752H85.369V25.4048H83.453V24.3004H83.3466C83.3466 24.3004 82.8276 25.5378 80.9516 25.5378ZM90.2873 25.5378C88.2116 25.5378 86.8278 24.9391 86.8278 23.2759V23.063H88.7971V23.2759C88.7971 23.8879 89.2628 24.1141 90.2873 24.1141C91.365 24.1141 91.8041 23.8879 91.8041 23.4356C91.8041 22.1582 86.9609 23.5154 86.9609 20.6414C86.9609 19.2975 88.2249 18.6189 90.2075 18.6189C92.2166 18.6189 93.4673 19.2842 93.4673 20.8144H91.4981C91.4981 20.495 91.4582 20.0426 90.1675 20.0426C89.2495 20.0426 88.9301 20.3087 88.9301 20.6547C88.9301 21.7724 93.7733 20.495 93.7733 23.4089C93.7733 24.9391 92.3896 25.5378 90.2873 25.5378ZM100.981 25.5378C99.5038 25.5378 98.2265 24.9125 98.2265 23.5287C98.2265 22.0784 99.6102 21.4796 101.207 21.4796C102.71 21.4796 103.362 22.0385 103.362 22.0385V21.0672C103.362 20.5749 103.056 20.0559 101.952 20.0559C101.38 20.0559 100.528 20.2555 100.528 20.8942H98.5591C98.5724 19.3241 99.9562 18.6189 101.952 18.6189C103.988 18.6189 105.278 19.3907 105.278 21.0672V23.1428C105.278 23.7017 105.411 23.8613 105.717 23.8613C105.904 23.8613 105.997 23.8081 105.997 23.8081V25.4048C105.997 25.4048 105.757 25.5378 105.172 25.5378C103.868 25.5378 103.562 24.6065 103.562 24.6065H103.469C103.469 24.6464 102.95 25.5378 100.981 25.5378ZM101.766 24.0875C102.937 24.0875 103.362 23.5819 103.362 23.5819V23.1828C103.362 23.1828 102.977 22.7836 101.766 22.7836C100.914 22.7836 100.196 22.9166 100.196 23.4356C100.196 23.9678 100.914 24.0875 101.766 24.0875ZM108.638 25.4048L106.204 18.752H108.253L109.996 23.7815H110.089L111.832 18.752H113.881L111.446 25.4048H108.638ZM118.43 25.5378C116.208 25.5378 114.612 24.3004 114.612 22.0784C114.612 19.8564 116.208 18.6189 118.404 18.6189C120.586 18.6189 122.182 19.8564 122.182 22.0784C122.182 22.3179 122.142 22.584 122.142 22.584H116.621C116.621 23.3158 117.206 24.0476 118.43 24.0476C119.561 24.0476 119.92 23.3823 119.92 23.3823H122.023C122.023 23.3823 121.624 25.5378 118.43 25.5378ZM116.647 21.4131H120.147C120.147 20.8809 119.628 20.1092 118.404 20.1092C117.206 20.1092 116.647 20.8809 116.647 21.4131ZM123.446 25.4048V23.8081L127.264 20.3753V20.3487H123.632V18.752H129.939V20.3487L126.12 23.7815V23.8081H130.072V25.4048H123.446ZM137.35 25.5378C135.873 25.5378 134.596 24.9125 134.596 23.5287C134.596 22.0784 135.98 21.4796 137.576 21.4796C139.08 21.4796 139.732 22.0385 139.732 22.0385V21.0672C139.732 20.5749 139.426 20.0559 138.321 20.0559C137.749 20.0559 136.898 20.2555 136.898 20.8942H134.929C134.942 19.3241 136.326 18.6189 138.321 18.6189C140.357 18.6189 141.648 19.3907 141.648 21.0672V23.1428C141.648 23.7017 141.781 23.8613 142.087 23.8613C142.273 23.8613 142.366 23.8081 142.366 23.8081V25.4048C142.366 25.4048 142.127 25.5378 141.541 25.5378C140.237 25.5378 139.931 24.6065 139.931 24.6065H139.838C139.838 24.6464 139.319 25.5378 137.35 25.5378ZM138.135 24.0875C139.306 24.0875 139.732 23.5819 139.732 23.5819V23.1828C139.732 23.1828 139.346 22.7836 138.135 22.7836C137.284 22.7836 136.565 22.9166 136.565 23.4356C136.565 23.9678 137.284 24.0875 138.135 24.0875ZM146.881 25.5378C144.978 25.5378 143.94 24.7528 143.94 22.89V20.2954H142.969V19.1911L144.819 17.4214H145.856V18.752H147.932V20.2954H145.856V22.6372C145.856 23.7017 146.415 23.9412 147.16 23.9412C147.759 23.9412 148.132 23.7017 148.132 23.7017V25.2983C148.132 25.2983 147.639 25.5378 146.881 25.5378ZM152.91 25.5378C151.007 25.5378 149.969 24.7528 149.969 22.89V20.2954H148.998V19.1911L150.848 17.4214H151.885V18.752H153.961V20.2954H151.885V22.6372C151.885 23.7017 152.444 23.9412 153.189 23.9412C153.788 23.9412 154.161 23.7017 154.161 23.7017V25.2983C154.161 25.2983 153.668 25.5378 152.91 25.5378ZM158.776 25.5378C156.554 25.5378 154.957 24.3004 154.957 22.0784C154.957 19.8564 156.554 18.6189 158.749 18.6189C160.931 18.6189 162.528 19.8564 162.528 22.0784C162.528 22.3179 162.488 22.584 162.488 22.584H156.966C156.966 23.3158 157.552 24.0476 158.776 24.0476C159.907 24.0476 160.266 23.3823 160.266 23.3823H162.368C162.368 23.3823 161.969 25.5378 158.776 25.5378ZM156.993 21.4131H160.492C160.492 20.8809 159.973 20.1092 158.749 20.1092C157.552 20.1092 156.993 20.8809 156.993 21.4131ZM164.124 25.4048V18.752H166.04V25.4048H164.124ZM165.082 17.7142C164.43 17.7142 164.017 17.3682 164.017 16.836C164.017 16.3038 164.43 15.9578 165.082 15.9578C165.734 15.9578 166.146 16.3038 166.146 16.836C166.146 17.3682 165.734 17.7142 165.082 17.7142ZM167.905 25.4048V18.752H169.821V19.8564H169.927C169.927 19.8564 170.446 18.6189 172.322 18.6189C173.893 18.6189 175.117 19.4971 175.117 21.5196V25.4048H173.201V22.0518C173.201 20.8942 172.522 20.3221 171.511 20.3221C170.393 20.3221 169.821 21.0539 169.821 22.0518V25.4048H167.905ZM180.223 25.5378C178.32 25.5378 177.282 24.7528 177.282 22.89V20.2954H176.311V19.1911L178.16 17.4214H179.198V18.752H181.274V20.2954H179.198V22.6372C179.198 23.7017 179.757 23.9412 180.502 23.9412C181.101 23.9412 181.474 23.7017 181.474 23.7017V25.2983C181.474 25.2983 180.981 25.5378 180.223 25.5378ZM186.2 25.4048V16.0909H188.116V25.4048H186.2ZM190.128 19.9495L189.915 17.1952V16.0909H191.618V17.1952L191.405 19.9495H190.128ZM196.938 25.5378C194.742 25.5378 193.146 24.2871 193.146 22.0784C193.146 19.8697 194.742 18.6189 196.938 18.6189C199.133 18.6189 200.73 19.8697 200.73 22.0784C200.73 24.2871 199.133 25.5378 196.938 25.5378ZM196.938 23.8879C198.109 23.8879 198.761 23.1029 198.761 22.0784C198.761 21.0539 198.109 20.2688 196.938 20.2688C195.767 20.2688 195.115 21.0539 195.115 22.0784C195.115 23.1029 195.767 23.8879 196.938 23.8879ZM206.69 25.5378C204.96 25.5378 204.335 24.3137 204.335 24.3137H204.241V25.4048H202.325V16.0909H204.241V19.5636H204.321C204.321 19.5636 205.013 18.6189 206.69 18.6189C208.446 18.6189 209.91 19.8697 209.91 22.0784C209.91 24.2871 208.446 25.5378 206.69 25.5378ZM206.091 23.8347C207.248 23.8347 207.94 23.0763 207.94 22.0784C207.94 21.0805 207.248 20.3221 206.091 20.3221C204.973 20.3221 204.241 21.0406 204.241 22.0784C204.241 23.0763 204.933 23.8347 206.091 23.8347ZM210.953 28.199C210.314 28.199 209.849 28.026 209.849 28.026V26.4559C209.849 26.4559 210.142 26.6023 210.514 26.6023C211.206 26.6023 211.645 26.3229 211.645 25.2983V18.752H213.561V25.4713C213.561 27.4139 212.523 28.199 210.953 28.199ZM212.603 17.7142C211.951 17.7142 211.539 17.3682 211.539 16.836C211.539 16.3038 211.951 15.9578 212.603 15.9578C213.255 15.9578 213.667 16.3038 213.667 16.836C213.667 17.3682 213.255 17.7142 212.603 17.7142ZM218.976 25.5378C216.754 25.5378 215.157 24.3004 215.157 22.0784C215.157 19.8564 216.754 18.6189 218.949 18.6189C221.131 18.6189 222.728 19.8564 222.728 22.0784C222.728 22.3179 222.688 22.584 222.688 22.584H217.166C217.166 23.3158 217.752 24.0476 218.976 24.0476C220.107 24.0476 220.466 23.3823 220.466 23.3823H222.568C222.568 23.3823 222.169 25.5378 218.976 25.5378ZM217.193 21.4131H220.692C220.692 20.8809 220.173 20.1092 218.949 20.1092C217.752 20.1092 217.193 20.8809 217.193 21.4131ZM227.85 25.5378C225.654 25.5378 224.058 24.2871 224.058 22.0784C224.058 19.8697 225.654 18.6189 227.85 18.6189C230.484 18.6189 231.562 20.4152 231.562 21.4796H229.593C229.593 21.4796 229.34 20.2688 227.85 20.2688C226.679 20.2688 226.027 21.0539 226.027 22.0784C226.027 23.1029 226.679 23.8879 227.85 23.8879C229.34 23.8879 229.593 22.6771 229.593 22.6771H231.562C231.562 23.7416 230.484 25.5378 227.85 25.5378ZM236.408 25.5378C234.505 25.5378 233.467 24.7528 233.467 22.89V20.2954H232.496V19.1911L234.345 17.4214H235.383V18.752H237.459V20.2954H235.383V22.6372C235.383 23.7017 235.942 23.9412 236.687 23.9412C237.286 23.9412 237.658 23.7017 237.658 23.7017V25.2983C237.658 25.2983 237.166 25.5378 236.408 25.5378ZM239.124 25.4048V18.752H241.04V25.4048H239.124ZM240.082 17.7142C239.43 17.7142 239.017 17.3682 239.017 16.836C239.017 16.3038 239.43 15.9578 240.082 15.9578C240.734 15.9578 241.146 16.3038 241.146 16.836C241.146 17.3682 240.734 17.7142 240.082 17.7142ZM243.331 25.4048V20.4285H242.173V19.3507L243.331 18.8851V18.6722C243.331 16.8227 244.422 15.9578 246.431 15.9578C247.336 15.9578 247.894 16.3038 247.894 16.3038V17.8871C247.894 17.8871 247.455 17.5545 246.763 17.5545C245.859 17.5545 245.247 17.9537 245.247 18.8052V18.8851H247.149V20.4285H245.247V25.4048H243.331ZM254.707 25.5378C252.951 25.5378 251.487 24.2871 251.487 22.0784C251.487 19.8697 252.951 18.6189 254.707 18.6189C256.384 18.6189 257.076 19.5636 257.076 19.5636H257.156V16.0909H259.072V25.4048H257.156V24.3137H257.062C257.062 24.3137 256.437 25.5378 254.707 25.5378ZM255.306 23.8347C256.464 23.8347 257.156 23.0763 257.156 22.0784C257.156 21.0406 256.424 20.3221 255.306 20.3221C254.149 20.3221 253.457 21.0805 253.457 22.0784C253.457 23.0763 254.149 23.8347 255.306 23.8347ZM263.734 25.5378C262.164 25.5378 260.94 24.6597 260.94 22.6372V18.752H262.856V22.105C262.856 23.2626 263.535 23.8347 264.546 23.8347C265.664 23.8347 266.236 23.1029 266.236 22.105V18.752H268.152V25.4048H266.236V24.3004H266.129C266.129 24.3004 265.61 25.5378 263.734 25.5378ZM63.9339 46.5378C61.7385 46.5378 60.1418 45.2871 60.1418 43.0784C60.1418 40.8697 61.7385 39.6189 63.9339 39.6189C66.5684 39.6189 67.6462 41.4152 67.6462 42.4796H65.677C65.677 42.4796 65.4242 41.2688 63.9339 41.2688C62.763 41.2688 62.1111 42.0539 62.1111 43.0784C62.1111 44.1029 62.763 44.8879 63.9339 44.8879C65.4242 44.8879 65.677 43.6771 65.677 43.6771H67.6462C67.6462 44.7416 66.5684 46.5378 63.9339 46.5378ZM69.1787 46.4048V37.0909H71.0947V40.8564H71.2012C71.2012 40.8564 71.7201 39.6189 73.5962 39.6189C75.1662 39.6189 76.3903 40.4971 76.3903 42.5196V46.4048H74.4743V43.0518C74.4743 41.8942 73.7958 41.3221 72.7845 41.3221C71.6669 41.3221 71.0947 42.0539 71.0947 43.0518V46.4048H69.1787ZM80.6715 46.5378C79.1946 46.5378 77.9173 45.9125 77.9173 44.5287C77.9173 43.0784 79.301 42.4796 80.8977 42.4796C82.4012 42.4796 83.0532 43.0385 83.0532 43.0385V42.0672C83.0532 41.5749 82.7472 41.0559 81.6428 41.0559C81.0707 41.0559 80.2191 41.2555 80.2191 41.8942H78.2499C78.2632 40.3241 79.647 39.6189 81.6428 39.6189C83.6786 39.6189 84.9692 40.3907 84.9692 42.0672V44.1428C84.9692 44.7017 85.1023 44.8613 85.4083 44.8613C85.5946 44.8613 85.6877 44.8081 85.6877 44.8081V46.4048C85.6877 46.4048 85.4482 46.5378 84.8628 46.5378C83.5588 46.5378 83.2528 45.6065 83.2528 45.6065H83.1597C83.1597 45.6464 82.6407 46.5378 80.6715 46.5378ZM81.4565 45.0875C82.6274 45.0875 83.0532 44.5819 83.0532 44.5819V44.1828C83.0532 44.1828 82.6673 43.7836 81.4565 43.7836C80.605 43.7836 79.8865 43.9166 79.8865 44.4356C79.8865 44.9678 80.605 45.0875 81.4565 45.0875ZM87.0191 46.4048V37.0909H88.9351V46.4048H87.0191ZM90.8003 46.4048V37.0909H92.7163V46.4048H90.8003ZM98.134 46.5378C95.912 46.5378 94.3153 45.3004 94.3153 43.0784C94.3153 40.8564 95.912 39.6189 98.1074 39.6189C100.29 39.6189 101.886 40.8564 101.886 43.0784C101.886 43.3179 101.846 43.584 101.846 43.584H96.3245C96.3245 44.3158 96.9099 45.0476 98.134 45.0476C99.265 45.0476 99.6243 44.3823 99.6243 44.3823H101.727C101.727 44.3823 101.327 46.5378 98.134 46.5378ZM96.3511 42.4131H99.8505C99.8505 41.8809 99.3315 41.1092 98.1074 41.1092C96.9099 41.1092 96.3511 41.8809 96.3511 42.4131ZM103.482 46.4048V39.752H105.398V40.8564H105.505C105.505 40.8564 106.024 39.6189 107.9 39.6189C109.47 39.6189 110.694 40.4971 110.694 42.5196V46.4048H108.778V43.0518C108.778 41.8942 108.099 41.3221 107.088 41.3221C105.97 41.3221 105.398 42.0539 105.398 43.0518V46.4048H103.482ZM115.654 49.199C113.498 49.199 111.888 48.68 111.888 47.1233C111.888 45.806 113.192 45.3936 113.192 45.3936V45.3403C113.192 45.3403 112.686 45.0875 112.686 44.542C112.686 43.8634 113.471 43.5973 113.471 43.5973V43.5574C113.471 43.5574 112.5 43.1449 112.487 41.841C112.487 40.4306 113.751 39.6189 115.654 39.6189H119.778V40.9495H118.554C118.554 40.9495 118.834 41.2023 118.834 41.9075C118.834 43.3179 117.556 44.063 115.654 44.063C114.682 44.063 114.217 44.1828 114.217 44.542C114.217 44.8879 114.722 45.021 115.654 45.021C117.822 45.021 119.432 45.5798 119.432 47.1233C119.432 48.68 117.822 49.199 115.654 49.199ZM115.654 47.8285C116.758 47.8285 117.45 47.6422 117.45 47.1233C117.45 46.6044 116.758 46.4181 115.654 46.4181C114.549 46.4181 113.857 46.6044 113.857 47.1233C113.857 47.6422 114.549 47.8285 115.654 47.8285ZM115.654 42.7591C116.478 42.7591 116.851 42.3998 116.851 41.8543C116.851 41.3087 116.478 40.9495 115.654 40.9495C114.829 40.9495 114.456 41.3087 114.456 41.8543C114.456 42.3998 114.829 42.7591 115.654 42.7591ZM124.394 46.5378C122.172 46.5378 120.576 45.3004 120.576 43.0784C120.576 40.8564 122.172 39.6189 124.368 39.6189C126.55 39.6189 128.147 40.8564 128.147 43.0784C128.147 43.3179 128.107 43.584 128.107 43.584H122.585C122.585 44.3158 123.17 45.0476 124.394 45.0476C125.525 45.0476 125.885 44.3823 125.885 44.3823H127.987C127.987 44.3823 127.588 46.5378 124.394 46.5378ZM122.611 42.4131H126.111C126.111 41.8809 125.592 41.1092 124.368 41.1092C123.17 41.1092 122.611 41.8809 122.611 42.4131ZM134.215 46.5378C133.536 46.5378 133.084 46.1254 133.084 45.4734C133.084 44.8214 133.536 44.4089 134.215 44.4089C134.893 44.4089 135.346 44.8214 135.346 45.4734C135.346 46.1254 134.893 46.5378 134.215 46.5378ZM133.403 43.411L133.07 38.9537V37.0909H135.306V38.9537L135.026 43.411H133.403Z" fill="#221C46"/>
</g>
<g filter="url(#filter1_d_3676_2621)">
<rect x="55.5996" y="112.543" width="192.606" height="35.3234" fill="#00EB5E"/>
<rect x="55.5996" y="112.543" width="192.606" height="35.3234" stroke="#221C46" stroke-width="2"/>
<path d="M72.7718 133.205V125.597H75.8586C78.3258 125.597 79.793 126.999 79.793 129.401C79.793 131.803 78.3258 133.205 75.8586 133.205H72.7718ZM74.4891 131.705H75.8586C77.2824 131.705 77.9997 130.749 77.9997 129.401C77.9997 128.053 77.2824 127.097 75.8586 127.097H74.4891V131.705ZM81.2074 133.205V127.771H82.7725V133.205H81.2074ZM81.99 126.923C81.4574 126.923 81.1205 126.64 81.1205 126.206C81.1205 125.771 81.4574 125.488 81.99 125.488C82.5225 125.488 82.8595 125.771 82.8595 126.206C82.8595 126.64 82.5225 126.923 81.99 126.923ZM86.7959 133.314C85.1004 133.314 83.97 132.825 83.97 131.466V131.292H85.5786V131.466C85.5786 131.966 85.959 132.151 86.7959 132.151C87.6763 132.151 88.0349 131.966 88.0349 131.597C88.0349 130.553 84.0787 131.662 84.0787 129.314C84.0787 128.216 85.1112 127.662 86.7307 127.662C88.3719 127.662 89.3935 128.205 89.3935 129.455H87.7849C87.7849 129.195 87.7523 128.825 86.6981 128.825C85.9481 128.825 85.6873 129.042 85.6873 129.325C85.6873 130.238 89.6435 129.195 89.6435 131.575C89.6435 132.825 88.5132 133.314 86.7959 133.314ZM93.3283 133.314C91.7741 133.314 90.9264 132.673 90.9264 131.151V129.031H90.1329V128.129L91.6437 126.684H92.4914V127.771H94.187V129.031H92.4914V130.944C92.4914 131.814 92.9479 132.01 93.5566 132.01C94.0457 132.01 94.35 131.814 94.35 131.814V133.118C94.35 133.118 93.9479 133.314 93.3283 133.314ZM95.5469 133.205V127.771H97.112V128.771H97.199C97.199 128.771 97.6228 127.662 99.0901 127.662C99.351 127.662 99.6336 127.716 99.6336 127.716V129.444C99.6336 129.444 99.2858 129.281 98.688 129.281C97.6337 129.281 97.112 129.955 97.112 130.803V133.205H95.5469ZM100.78 133.205V127.771H102.345V133.205H100.78ZM101.562 126.923C101.03 126.923 100.693 126.64 100.693 126.206C100.693 125.771 101.03 125.488 101.562 125.488C102.095 125.488 102.432 125.771 102.432 126.206C102.432 126.64 102.095 126.923 101.562 126.923ZM107.433 133.314C106.02 133.314 105.509 132.314 105.509 132.314H105.433V133.205H103.868V125.597H105.433V128.434H105.499C105.499 128.434 106.064 127.662 107.433 127.662C108.868 127.662 110.063 128.684 110.063 130.488C110.063 132.292 108.868 133.314 107.433 133.314ZM106.944 131.923C107.89 131.923 108.455 131.303 108.455 130.488C108.455 129.673 107.89 129.053 106.944 129.053C106.031 129.053 105.433 129.64 105.433 130.488C105.433 131.303 105.999 131.923 106.944 131.923ZM113.655 133.314C112.372 133.314 111.372 132.596 111.372 130.944V127.771H112.937V130.51C112.937 131.455 113.492 131.923 114.318 131.923C115.231 131.923 115.698 131.325 115.698 130.51V127.771H117.263V133.205H115.698V132.303H115.611C115.611 132.303 115.187 133.314 113.655 133.314ZM121.683 133.314C119.868 133.314 118.564 132.303 118.564 130.488C118.564 128.673 119.868 127.662 121.661 127.662C123.444 127.662 124.748 128.673 124.748 130.488C124.748 130.684 124.715 130.901 124.715 130.901H120.205C120.205 131.499 120.683 132.096 121.683 132.096C122.607 132.096 122.9 131.553 122.9 131.553H124.617C124.617 131.553 124.291 133.314 121.683 133.314ZM120.226 129.944H123.085C123.085 129.51 122.661 128.879 121.661 128.879C120.683 128.879 120.226 129.51 120.226 129.944ZM126.052 133.205V127.771H127.617V128.771H127.704C127.704 128.771 128.127 127.662 129.595 127.662C129.856 127.662 130.138 127.716 130.138 127.716V129.444C130.138 129.444 129.79 129.281 129.193 129.281C128.138 129.281 127.617 129.955 127.617 130.803V133.205H126.052ZM133.407 133.205V125.597H134.972V133.205H133.407ZM139.398 133.314C137.583 133.314 136.278 132.303 136.278 130.488C136.278 128.673 137.583 127.662 139.376 127.662C141.158 127.662 142.463 128.673 142.463 130.488C142.463 130.684 142.43 130.901 142.43 130.901H137.919C137.919 131.499 138.398 132.096 139.398 132.096C140.321 132.096 140.615 131.553 140.615 131.553H142.332C142.332 131.553 142.006 133.314 139.398 133.314ZM137.941 129.944H140.8C140.8 129.51 140.376 128.879 139.376 128.879C138.398 128.879 137.941 129.51 137.941 129.944ZM146.266 133.314C144.571 133.314 143.44 132.825 143.44 131.466V131.292H145.049V131.466C145.049 131.966 145.429 132.151 146.266 132.151C147.146 132.151 147.505 131.966 147.505 131.597C147.505 130.553 143.549 131.662 143.549 129.314C143.549 128.216 144.581 127.662 146.201 127.662C147.842 127.662 148.864 128.205 148.864 129.455H147.255C147.255 129.195 147.223 128.825 146.168 128.825C145.418 128.825 145.157 129.042 145.157 129.325C145.157 130.238 149.114 129.195 149.114 131.575C149.114 132.825 147.983 133.314 146.266 133.314ZM152.969 133.205V127.771H154.534V128.771H154.621C154.621 128.771 155.045 127.662 156.512 127.662C156.773 127.662 157.055 127.716 157.055 127.716V129.444C157.055 129.444 156.707 129.281 156.11 129.281C155.055 129.281 154.534 129.955 154.534 130.803V133.205H152.969ZM160.891 133.314C159.076 133.314 157.772 132.303 157.772 130.488C157.772 128.673 159.076 127.662 160.869 127.662C162.652 127.662 163.956 128.673 163.956 130.488C163.956 130.684 163.923 130.901 163.923 130.901H159.413C159.413 131.499 159.891 132.096 160.891 132.096C161.815 132.096 162.108 131.553 162.108 131.553H163.826C163.826 131.553 163.499 133.314 160.891 133.314ZM159.435 129.944H162.293C162.293 129.51 161.869 128.879 160.869 128.879C159.891 128.879 159.435 129.51 159.435 129.944ZM160.076 126.793L161.706 125.054H163.673L161.402 126.793H160.076ZM168.14 133.314C166.346 133.314 165.042 132.292 165.042 130.488C165.042 128.684 166.346 127.662 168.14 127.662C170.292 127.662 171.172 129.129 171.172 129.999H169.564C169.564 129.999 169.357 129.01 168.14 129.01C167.183 129.01 166.651 129.651 166.651 130.488C166.651 131.325 167.183 131.966 168.14 131.966C169.357 131.966 169.564 130.977 169.564 130.977H171.172C171.172 131.846 170.292 133.314 168.14 133.314ZM175.304 133.314C173.511 133.314 172.207 132.292 172.207 130.488C172.207 128.684 173.511 127.662 175.304 127.662C177.098 127.662 178.402 128.684 178.402 130.488C178.402 132.292 177.098 133.314 175.304 133.314ZM175.304 131.966C176.261 131.966 176.793 131.325 176.793 130.488C176.793 129.651 176.261 129.01 175.304 129.01C174.348 129.01 173.815 129.651 173.815 130.488C173.815 131.325 174.348 131.966 175.304 131.966ZM179.705 133.205V127.771H181.27V128.673H181.346C181.346 128.673 181.64 127.662 182.977 127.662C184.368 127.662 184.705 128.673 184.705 128.673H184.781C184.781 128.673 185.096 127.662 186.4 127.662C187.759 127.662 188.552 128.39 188.552 130.042V133.205H186.987V130.39C186.987 129.651 186.737 129.053 185.955 129.053C185.194 129.053 184.911 129.575 184.911 130.347V133.205H183.346V130.39C183.346 129.662 183.129 129.053 182.314 129.053C181.542 129.053 181.27 129.597 181.27 130.39V133.205H179.705ZM190.022 135.379V127.771H191.587V128.662H191.663C191.663 128.662 192.174 127.662 193.587 127.662C195.022 127.662 196.217 128.684 196.217 130.488C196.217 132.292 195.022 133.314 193.587 133.314C192.218 133.314 191.652 132.542 191.652 132.542H191.587V135.379H190.022ZM193.098 131.923C194.043 131.923 194.609 131.303 194.609 130.488C194.609 129.673 194.043 129.053 193.098 129.053C192.152 129.053 191.587 129.673 191.587 130.488C191.587 131.336 192.185 131.923 193.098 131.923ZM200.428 133.314C198.613 133.314 197.309 132.303 197.309 130.488C197.309 128.673 198.613 127.662 200.406 127.662C202.189 127.662 203.493 128.673 203.493 130.488C203.493 130.684 203.46 130.901 203.46 130.901H198.95C198.95 131.499 199.428 132.096 200.428 132.096C201.352 132.096 201.645 131.553 201.645 131.553H203.363C203.363 131.553 203.037 133.314 200.428 133.314ZM198.972 129.944H201.83C201.83 129.51 201.406 128.879 200.406 128.879C199.428 128.879 198.972 129.51 198.972 129.944ZM204.797 133.205V127.771H206.362V128.673H206.449C206.449 128.673 206.873 127.662 208.405 127.662C209.688 127.662 210.688 128.379 210.688 130.031V133.205H209.122V130.466C209.122 129.521 208.568 129.053 207.742 129.053C206.829 129.053 206.362 129.651 206.362 130.466V133.205H204.797ZM214.652 133.314C212.956 133.314 211.826 132.825 211.826 131.466V131.292H213.435V131.466C213.435 131.966 213.815 132.151 214.652 132.151C215.532 132.151 215.891 131.966 215.891 131.597C215.891 130.553 211.935 131.662 211.935 129.314C211.935 128.216 212.967 127.662 214.587 127.662C216.228 127.662 217.25 128.205 217.25 129.455H215.641C215.641 129.195 215.608 128.825 214.554 128.825C213.804 128.825 213.543 129.042 213.543 129.325C213.543 130.238 217.5 129.195 217.5 131.575C217.5 132.825 216.369 133.314 214.652 133.314ZM221.592 133.314C219.777 133.314 218.473 132.303 218.473 130.488C218.473 128.673 219.777 127.662 221.571 127.662C223.353 127.662 224.657 128.673 224.657 130.488C224.657 130.684 224.625 130.901 224.625 130.901H220.114C220.114 131.499 220.592 132.096 221.592 132.096C222.516 132.096 222.81 131.553 222.81 131.553H224.527C224.527 131.553 224.201 133.314 221.592 133.314ZM220.136 129.944H222.994C222.994 129.51 222.571 128.879 221.571 128.879C220.592 128.879 220.136 129.51 220.136 129.944ZM228.461 133.314C226.765 133.314 225.635 132.825 225.635 131.466V131.292H227.244V131.466C227.244 131.966 227.624 132.151 228.461 132.151C229.341 132.151 229.7 131.966 229.7 131.597C229.7 130.553 225.744 131.662 225.744 129.314C225.744 128.216 226.776 127.662 228.396 127.662C230.037 127.662 231.058 128.205 231.058 129.455H229.45C229.45 129.195 229.417 128.825 228.363 128.825C227.613 128.825 227.352 129.042 227.352 129.325C227.352 130.238 231.308 129.195 231.308 131.575C231.308 132.825 230.178 133.314 228.461 133.314Z" fill="#221C46"/>
</g>
<path d="M152.865 94.8007L152.865 76.5435H149.865L149.865 94.8009L141.487 86.4222L139.365 88.5436L151.365 100.543L163.365 88.5436L161.244 86.4222L152.865 94.8007Z" fill="#221C46"/>
</g>
<defs>
<filter id="filter0_d_3676_2621" x="22" y="0" width="261.2" height="66.8135" filterUnits="userSpaceOnUse" color-interpolation-filters="sRGB">
<feFlood flood-opacity="0" result="BackgroundImageFix"/>
<feColorMatrix in="SourceAlpha" type="matrix" values="0 0 0 0 0 0 0 0 0 0 0 0 0 0 0 0 0 0 127 0" result="hardAlpha"/>
<feOffset dx="2" dy="2"/>
<feColorMatrix type="matrix" values="0 0 0 0 0.133333 0 0 0 0 0.109804 0 0 0 0 0.27451 0 0 0 0.2 0"/>
<feBlend mode="normal" in2="BackgroundImageFix" result="effect1_dropShadow_3676_2621"/>
<feBlend mode="normal" in="SourceGraphic" in2="effect1_dropShadow_3676_2621" result="shape"/>
</filter>
<filter id="filter1_d_3676_2621" x="47.6012" y="108.044" width="208.603" height="51.32" filterUnits="userSpaceOnUse" color-interpolation-filters="sRGB">
<feFlood flood-opacity="0" result="BackgroundImageFix"/>
<feColorMatrix in="SourceAlpha" type="matrix" values="0 0 0 0 0 0 0 0 0 0 0 0 0 0 0 0 0 0 127 0" result="hardAlpha"/>
<feOffset dy="3.4992"/>
<feGaussianBlur stdDeviation="3.4992"/>
<feComposite in2="hardAlpha" operator="out"/>
<feColorMatrix type="matrix" values="0 0 0 0 0 0 0 0 0 0 0 0 0 0 0 0 0 0 0.08 0"/>
<feBlend mode="normal" in2="BackgroundImageFix" result="effect1_dropShadow_3676_2621"/>
<feBlend mode="normal" in="SourceGraphic" in2="effect1_dropShadow_3676_2621" result="shape"/>
</filter>
<clipPath id="clip0_3676_2621">
<path d="M0 16C0 7.16344 7.16344 0 16 0H288C296.837 0 304 7.16344 304 16V153H0V16Z" fill="white"/>
</clipPath>
</defs>
</svg>
