<svg width="304" height="157" viewBox="0 0 304 157" fill="none" xmlns="http://www.w3.org/2000/svg">
<path fill-rule="evenodd" clip-rule="evenodd" d="M149.782 17.7756C149.782 21.6023 146.678 24.7082 142.854 24.7082V28.1425C146.675 28.1425 149.782 31.2454 149.782 35.0702H153.216C153.216 31.2448 156.318 28.1425 160.144 28.1425V24.7082C156.324 24.7082 153.216 21.6017 153.216 17.7756H149.782ZM154.431 26.4239C153.268 27.1942 152.269 28.1931 151.498 29.3566C150.728 28.1938 149.729 27.1955 148.567 26.4253C149.73 25.6544 150.729 24.6547 151.5 23.4907C152.27 24.654 153.269 25.6531 154.431 26.4239Z" fill="#221C46"/>
<path fill-rule="evenodd" clip-rule="evenodd" d="M127.812 32.0332C122.365 32.0332 117.946 36.4522 117.946 41.8997C117.946 45.604 119.989 48.8329 123.01 50.5199H116.248L115.605 82.6233L115.985 96.3028C111.294 98.1547 107.014 100.828 103.319 104.141L99.3018 97.7486L91.2464 110.567C90.0136 112.231 89.2783 114.294 89.2783 116.529C89.2783 118.804 90.0375 120.902 91.3164 122.584C89.9929 126.676 89.2783 131.04 89.2783 135.56V137.277H117.124L117.124 137.282H139.675L139.672 137.277H159.796L159.793 137.282H182.321L182.322 137.277H213.72V135.56C213.72 123.484 203.914 113.678 191.834 113.678C191.026 113.678 190.228 113.722 189.442 113.808L183.46 73.7014L186.603 70.7415L186.33 69.746L184.674 70.199C186.33 69.746 186.33 69.746 186.33 69.746L186.33 69.7453L186.33 69.7431L186.28 69.5606C186.247 69.4392 186.198 69.2607 186.136 69.0326C186.012 68.5763 185.834 67.9214 185.619 67.1276C185.189 65.5399 184.613 63.3973 184.024 61.1766C182.828 56.6647 181.635 52.0247 181.456 50.8789L181.251 49.5621V48.3319H179.019C178.669 48.3319 178.322 48.3449 177.979 48.3704C179.485 46.6381 180.397 44.3754 180.397 41.8997C180.397 41.3477 180.352 40.8063 180.265 40.2789C180.383 40.16 180.535 40.0078 180.712 39.8309C181.153 39.3888 181.75 38.7926 182.369 38.1759L182.371 38.1735C182.85 37.6945 183.498 37.4253 184.174 37.4253C184.85 37.4253 185.498 37.6945 185.977 38.1735C186.266 38.4621 186.426 38.8505 186.426 39.2504V45.187C186.426 47.1989 187.226 49.1204 188.639 50.5394L188.641 50.5421C188.847 50.7481 189.031 50.9303 189.163 51.0611L189.376 51.2716L189.377 51.2724C189.377 51.2724 189.377 51.2727 189.494 51.1541L191.787 48.8255L191.786 48.8247L191.732 48.7717C191.696 48.7365 191.645 48.6852 191.58 48.6212C191.451 48.4937 191.273 48.3163 191.072 48.1159C190.297 47.337 189.861 46.2854 189.861 45.187V39.2504C189.861 37.9332 189.334 36.6731 188.406 35.745C187.285 34.6245 185.765 33.9909 184.174 33.9909C182.585 33.9909 181.065 34.6236 179.945 35.7426C179.596 36.0903 179.254 36.4313 178.943 36.7421C177.208 33.9172 174.089 32.0332 170.531 32.0332C165.082 32.0332 160.664 36.4506 160.664 41.8997C160.664 46.6377 164.004 50.5957 168.458 51.548C166.841 52.8628 165.551 54.581 164.743 56.5785C163.696 59.1667 162.488 62.1545 161.541 64.4952C161.068 65.6657 160.661 66.6744 160.371 67.3906L160.345 67.4564L144.353 67.4563L141.913 64.3126C140.196 62.1006 138 59.2722 136.087 56.807C134.282 54.4814 131.907 52.7218 129.238 51.6638C134.01 50.9727 137.683 46.8641 137.683 41.8997C137.683 36.4509 133.258 32.0332 127.812 32.0332ZM105.176 107.096C108.368 104.145 112.052 101.725 116.087 99.9768L117.029 133.843H101.015V126.401C105.734 125.589 109.325 121.476 109.325 116.529C109.325 114.294 108.59 112.231 107.357 110.567L105.176 107.096ZM165.188 128.524L161.912 133.843H137.504L134.453 129.01L136.684 109.174L136.499 97.1505C145.603 98.3592 153.693 102.759 159.639 109.188L158.657 115.866H165.188V128.524ZM160.265 104.934C153.899 98.8751 145.637 94.7884 136.446 93.682L136.276 82.6611L136.78 75.164L139.243 77.7545L164.265 77.7546L160.265 104.934ZM133.565 71.7852L132.953 80.8995H119.075L119.614 53.9543H123.245C127.209 53.9543 130.947 55.7847 133.374 58.9123C135.287 61.3778 137.483 64.2065 139.2 66.4186L142.155 70.2253L142.156 70.2262C142.156 70.2262 142.156 70.2265 142.419 70.022L142.156 70.2262L142.672 70.8907H149.276V74.3201H140.717L133.878 67.1276L133.877 67.1379L129.903 62.9738L127.418 65.3449L133.565 71.7852ZM120.294 127.7L119.088 84.3338H132.867L133.247 109.008L131.144 127.7H127.061L127.826 109.017L126.203 96.2892L122.797 96.7235L124.383 109.165L123.623 127.7H120.294ZM133.442 133.843L131.733 131.135H126.92L126.809 133.843H133.442ZM120.464 133.843L120.389 131.135H123.483L123.372 133.843H120.464ZM165.188 71.4766L164.77 74.3202H152.712V70.8907H162.661L163.095 69.8168L161.503 69.1735C163.095 69.8168 163.095 69.8168 163.095 69.8168L163.095 69.8156L163.097 69.8119L163.555 68.6774C163.845 67.9614 164.252 66.9527 164.726 65.7823L165.188 64.6376V71.4766ZM168.623 62.1626C168.623 57.9519 171.127 54.3236 174.729 52.6897C174.273 53.3151 173.979 54.0165 173.837 54.7982C173.587 56.1772 173.85 57.6817 174.094 59.0327C174.464 61.0882 174.889 63.4456 175.221 65.289L175.626 67.5431L173.126 69.8849H168.623V62.1626ZM179.337 68.773L179.172 67.854L177.482 68.158C179.172 67.854 179.172 67.854 179.172 67.854L179.171 67.853L179.171 67.8501L178.601 64.6807C178.269 62.8372 177.844 60.4796 177.474 58.4237C177.207 56.9438 177.096 56.0711 177.216 55.4115C177.301 54.9437 177.516 54.4903 178.384 53.9706L178.385 53.9702L178.594 53.845C179.119 56.0243 179.934 59.1508 180.704 62.0568C181.295 64.2849 181.873 66.4334 182.304 68.0246C182.479 68.6707 182.629 69.2251 182.746 69.6557L171.427 80.3153L169.469 78.0159L179.337 68.773ZM169.459 73.3193L168.217 74.4827L168.389 73.3193H169.459ZM167.294 80.7588L162.633 112.432H166.905L166.91 112.432H180.976L180.996 112.432H185.765L180.415 76.5686L171.153 85.291L167.294 80.7588ZM168.623 129.497V115.866H171.659L173.14 128.721L170.724 133.843H165.945L168.623 129.497ZM175.116 115.866H179.25L178.945 133.843H174.521L176.664 129.3L175.116 115.866ZM191.834 117.112C201.439 117.112 209.339 124.467 210.207 133.843H182.38L182.622 119.575C185.334 118.008 188.48 117.112 191.834 117.112ZM94.1391 125.117C95.1784 125.743 96.3405 126.185 97.5806 126.4V133.843H92.7502C92.8818 130.833 93.3577 127.911 94.1391 125.117ZM121.38 41.8997C121.38 38.349 124.261 35.4676 127.812 35.4676C131.364 35.4676 134.249 38.3503 134.249 41.8997C134.249 45.449 131.364 48.3318 127.812 48.3318C124.261 48.3318 121.38 45.4503 121.38 41.8997ZM164.099 41.8997C164.099 38.3473 166.978 35.4676 170.531 35.4676C174.083 35.4676 176.963 38.3473 176.963 41.8997C176.963 45.452 174.083 48.3318 170.531 48.3318C166.978 48.3318 164.099 45.452 164.099 41.8997ZM99.3018 104.203L104.524 112.514L104.568 112.572C105.398 113.674 105.891 115.042 105.891 116.529C105.891 120.162 102.941 123.113 99.3018 123.113C95.6622 123.113 92.7127 120.162 92.7127 116.529C92.7127 115.042 93.2056 113.674 94.0356 112.572L94.0791 112.514L99.3018 104.203Z" fill="#221C46"/>
<path fill-rule="evenodd" clip-rule="evenodd" d="M205.718 58.1394C201.301 58.1394 197.716 61.7244 197.716 66.1415C197.716 70.5586 201.301 74.1435 205.718 74.1435C210.135 74.1435 213.72 70.5586 213.72 66.1415C213.72 61.7244 210.135 58.1394 205.718 58.1394ZM201.15 66.1415C201.15 63.6211 203.198 61.5737 205.718 61.5737C208.238 61.5737 210.286 63.6211 210.286 66.1415C210.286 68.6618 208.238 70.7092 205.718 70.7092C203.198 70.7092 201.15 68.6618 201.15 66.1415Z" fill="#221C46"/>
</svg>
