<svg width="317" height="155" viewBox="0 0 317 155" fill="none" xmlns="http://www.w3.org/2000/svg">
<path d="M191.279 28.6834C194.373 28.6834 196.88 26.1756 196.88 23.082C196.88 19.9884 194.373 17.4805 191.279 17.4805C188.186 17.4805 185.678 19.9884 185.678 23.082C185.678 26.1756 188.186 28.6834 191.279 28.6834Z" stroke="#221C46" stroke-width="4.08004"/>
<path d="M124.47 102.174C127.564 102.174 130.072 99.6665 130.072 96.5729C130.072 93.4793 127.564 90.9714 124.47 90.9714C121.377 90.9714 118.869 93.4793 118.869 96.5729C118.869 99.6665 121.377 102.174 124.47 102.174Z" stroke="#221C46" stroke-width="4.08004"/>
<path d="M110.637 56.6641C110.637 61.4327 114.505 65.3013 119.274 65.3013" stroke="#221C46" stroke-width="4.08004"/>
<path d="M110.637 56.6641C110.637 61.4327 106.768 65.3013 102 65.3013" stroke="#221C46" stroke-width="4.08004"/>
<path d="M110.637 73.9317C110.637 69.1631 114.505 65.2944 119.274 65.2944" stroke="#221C46" stroke-width="4.08004"/>
<path d="M110.637 73.9317C110.637 69.1631 106.768 65.2944 102 65.2944" stroke="#221C46" stroke-width="4.08004"/>
<path d="M200.108 40.0144C200.108 44.783 203.977 48.6517 208.745 48.6517" stroke="#221C46" stroke-width="4.08004"/>
<path d="M200.109 40.0144C200.109 44.783 196.24 48.6517 191.472 48.6517" stroke="#221C46" stroke-width="4.08004"/>
<path d="M200.108 57.2823C200.108 52.5137 203.977 48.645 208.745 48.645" stroke="#221C46" stroke-width="4.08004"/>
<path d="M200.109 57.2823C200.109 52.5137 196.24 48.645 191.472 48.645" stroke="#221C46" stroke-width="4.08004"/>
<path d="M185.178 88.1707V39.6984C185.178 35.494 181.766 32.082 177.562 32.082H150.019" stroke="#221C46" stroke-width="4.08004"/>
<path d="M138.575 58.4775V113.27C138.575 117.474 141.987 120.886 146.191 120.886H177.563C177.704 120.886 177.845 120.886 177.986 120.873" stroke="#221C46" stroke-width="4.08004"/>
<path d="M138.495 58.4777C147.175 58.4777 154.211 51.4412 154.211 42.7613C154.211 34.0814 147.175 27.0449 138.495 27.0449C129.816 27.0449 122.779 34.0814 122.779 42.7613C122.779 51.4412 129.816 58.4777 138.495 58.4777Z" stroke="#221C46" stroke-width="4.08004"/>
<path d="M129.543 42.0024L136.038 48.4971L147.522 37.0054" stroke="#221C46" stroke-width="4.08004"/>
<path d="M128.944 15.9763L133.746 20.7718" stroke="#221C46" stroke-width="4.08004"/>
<path d="M148.205 15.9763L143.403 20.7718" stroke="#221C46" stroke-width="4.08004"/>
<path d="M138.575 12V18.7701" stroke="#221C46" stroke-width="4.08004"/>
<path d="M154.203 42.7612H185.178" stroke="#221C46" stroke-width="4.08004"/>
<path d="M177.725 91.274L200.111 81.9651L209.406 91.2606C212.986 94.8404 215 99.7031 215 104.767V122.452H183.75C177.457 122.452 172.353 117.347 172.353 111.054V99.9449" stroke="#221C46" stroke-width="4.08004"/>
<path d="M138.575 110.362H172.358" stroke="#221C46" stroke-width="4.08004"/>
<path d="M181.741 112.135V109.327L160.202 87.7879C158.261 85.8469 158.261 82.7036 160.202 80.7693C162.143 78.8282 165.286 78.8282 167.22 80.7693L185.542 99.0916" stroke="#221C46" stroke-width="4.08004"/>
<path d="M184.347 88.52L192.487 96.6603" stroke="#221C46" stroke-width="4.08004"/>
<path d="M200.098 93.4967L191.958 85.3564" stroke="#221C46" stroke-width="4.08004"/>
<path d="M200.109 81.9648V61.8694" stroke="#221C46" stroke-width="4.08004"/>
<path d="M110.636 77.3303V96.5459" stroke="#221C46" stroke-width="4.08004"/>
<path d="M124.485 110.362V133.191" stroke="#221C46" stroke-width="4.08004"/>
<path d="M154.339 133.191V141.324" stroke="#221C46" stroke-width="4.08004"/>
<path d="M167.684 120.886V141.324" stroke="#221C46" stroke-width="4.08004"/>
<path d="M183.474 135.884V122.451" stroke="#221C46" stroke-width="4.08004"/>
<path d="M162.399 72.5349V65.7581" stroke="#221C46" stroke-width="4.08004"/>
<path d="M157.611 74.5029L152.809 69.7007" stroke="#221C46" stroke-width="4.08004"/>
<path d="M167.193 74.5029L171.995 69.7007" stroke="#221C46" stroke-width="4.08004"/>
</svg>
