<svg width="416" height="208" viewBox="0 0 416 208" fill="none" xmlns="http://www.w3.org/2000/svg">
<path d="M204.04 141.943H124.703V60.6725C124.703 55.8799 128.561 52 133.315 52H195.428C200.187 52 204.04 55.8853 204.04 60.6725V141.943Z" stroke="#221C46" stroke-width="4.4" stroke-miterlimit="6"/>
<path d="M204.04 107.568H124.703" stroke="#221C46" stroke-width="4.4" stroke-miterlimit="6"/>
<path d="M204.04 61.0835H124.703" stroke="#221C46" stroke-width="4.4" stroke-miterlimit="6"/>
<path d="M204.043 61.0835L157.883 107.568" stroke="#221C46" stroke-width="4.4" stroke-miterlimit="6"/>
<path d="M199.113 141.943H188.402V155.221H199.113V141.943Z" stroke="#221C46" stroke-width="4.4" stroke-miterlimit="6"/>
<path d="M139.066 141.943H128.355V155.221H139.066V141.943Z" stroke="#221C46" stroke-width="4.4" stroke-miterlimit="6"/>
<path d="M145.262 119.912C145.262 118.444 144.684 117.035 143.651 115.994C142.618 114.954 141.218 114.372 139.761 114.372H124.699V125.451H139.761C141.218 125.451 142.618 124.87 143.651 123.829C144.684 122.788 145.262 121.379 145.262 119.912Z" stroke="#221C46" stroke-width="4.4" stroke-miterlimit="6"/>
<path d="M204.043 114.372H188.982C187.524 114.372 186.125 114.954 185.092 115.994C184.058 117.035 183.48 118.444 183.48 119.912C183.48 121.379 184.058 122.788 185.092 123.829C186.125 124.87 187.524 125.451 188.982 125.451H204.043V114.372Z" stroke="#221C46" stroke-width="4.4" stroke-miterlimit="6"/>
<path d="M124.703 132.262H204.04" stroke="#221C46" stroke-width="4.4" stroke-miterlimit="6"/>
<path d="M117.722 62.6523H120.981C123.037 62.6523 124.707 64.3335 124.707 66.4042V78.1294C124.707 80.2001 123.037 81.8812 120.981 81.8812H117.722C115.666 81.8812 113.996 80.2001 113.996 78.1294V66.4042C113.996 64.3335 115.666 62.6523 117.722 62.6523Z" stroke="#221C46" stroke-width="4.4" stroke-miterlimit="6"/>
<path d="M207.773 62.6523H211.032C213.088 62.6523 214.758 64.3335 214.758 66.4042V78.1294C214.758 80.2001 213.088 81.8812 211.032 81.8812H207.773C205.716 81.8812 204.047 80.2001 204.047 78.1294V66.4042C204.047 64.3335 205.716 62.6523 207.773 62.6523Z" stroke="#221C46" stroke-width="4.4" stroke-miterlimit="6"/>
<path d="M168.266 61.0835L145.875 83.6266" stroke="#221C46" stroke-width="4.4" stroke-miterlimit="6"/>
<path d="M283.654 117.062C294.11 117.062 302.6 125.612 302.6 136.141C302.6 146.671 294.11 155.221 283.654 155.221C273.197 155.221 264.707 146.671 264.707 136.141C264.707 125.612 273.197 117.062 283.654 117.062Z" stroke="#221C46" stroke-width="4.4" stroke-miterlimit="6"/>
<path d="M242.337 136.371C242.592 125.836 234.319 117.089 223.857 116.833C213.396 116.577 204.709 124.908 204.455 135.443C204.201 145.978 212.473 154.725 222.935 154.981C233.397 155.237 242.083 146.906 242.337 136.371Z" stroke="#221C46" stroke-width="4.4" stroke-miterlimit="6"/>
<path d="M242.742 110.711L223.43 136.147H251.683L274.705 110.791H277.328" stroke="#221C46" stroke-width="4.4" stroke-linejoin="round"/>
<path d="M283.656 136.147L277.328 110.791V100.272H285.675" stroke="#221C46" stroke-width="4.4" stroke-miterlimit="6"/>
<path d="M248.376 136.147L240.438 100.272H248.652" stroke="#221C46" stroke-width="4.4" stroke-miterlimit="6"/>
<path d="M251.684 136.147L253.507 145.711H259.146" stroke="#221C46" stroke-width="4.4" stroke-miterlimit="6"/>
<path d="M204.098 110.792L223.431 136.147" stroke="#221C46" stroke-width="4.4" stroke-linejoin="round"/>
<path d="M204.098 110.792H242.759" stroke="#221C46" stroke-width="4.4" stroke-linejoin="round"/>
<path d="M240.439 71.9916C240.439 66.8362 236.278 62.6521 231.164 62.6521C236.284 62.6521 240.439 58.4679 240.439 53.3125C240.439 58.4679 244.599 62.6521 249.713 62.6521C244.594 62.6521 240.439 66.8309 240.439 71.9916Z" stroke="#221C46" stroke-width="4.4" stroke-linejoin="bevel"/>
<path d="M262.767 95.4956C262.767 90.3401 258.606 86.156 253.492 86.156C258.612 86.156 262.767 81.9719 262.767 76.8164C262.767 81.9719 266.927 86.156 272.041 86.156C266.922 86.156 262.767 90.3348 262.767 95.4956Z" stroke="#221C46" stroke-width="4.4" stroke-linejoin="bevel"/>
<path d="M113.996 155.221H302.603" stroke="#221C46" stroke-width="4.4" stroke-miterlimit="10"/>
</svg>
