<svg width="311" height="178" viewBox="0 0 311 178" fill="none" xmlns="http://www.w3.org/2000/svg">
<path d="M111.128 129.233L111.128 131.301H111.128V129.233ZM124.545 129.233H126.612C126.612 128.092 125.687 127.166 124.545 127.166V129.233ZM124.545 154.393H122.478C122.478 155.534 123.403 156.46 124.545 156.46V154.393ZM137.456 154.393V156.46C138.323 156.46 139.097 155.919 139.396 155.105C139.695 154.291 139.454 153.377 138.793 152.816L137.456 154.393ZM130.675 148.641L128.621 148.403C128.542 149.089 128.811 149.77 129.338 150.217L130.675 148.641ZM133.862 121.168L135.916 121.406C135.983 120.822 135.799 120.237 135.409 119.797C135.019 119.357 134.46 119.104 133.872 119.101L133.862 121.168ZM115.539 121.079H113.472C113.472 122.217 114.392 123.14 115.529 123.146L115.539 121.079ZM115.539 90.1402H117.606C117.606 88.9985 116.681 88.073 115.539 88.073V90.1402ZM103.235 92.9826L104.696 94.4443L104.699 94.4421L103.235 92.9826ZM118.921 113.208V115.275H120.988V113.208H118.921ZM118.921 106.299H120.988V104.232H118.921V106.299ZM108.447 106.299H106.379V108.366H108.447V106.299ZM107.423 113.208L109.437 112.742L109.067 111.141H107.423V113.208ZM89.0781 113.208V111.141H86.4788L87.064 113.673L89.0781 113.208ZM91.4255 123.371L89.4113 123.836L89.4117 123.837L91.4255 123.371ZM98.8014 129.233L98.8014 127.166H98.8014V129.233ZM142.267 98.2837L144.234 98.918L145.105 96.2165H142.267V98.2837ZM125.513 98.2837V96.2165H124.008L123.545 97.6487L125.513 98.2837ZM120.695 113.208L118.728 112.573L117.856 115.275H120.695V113.208ZM137.455 113.208V115.275H138.961L139.423 113.842L137.455 113.208ZM147.478 93.7225L148.84 95.2774L152.975 91.6553H147.478V93.7225ZM142.272 98.2837V100.351H143.049L143.634 99.8386L142.272 98.2837ZM135.547 98.2837L133.73 97.2982L132.074 100.351H135.547V98.2837ZM146.978 77.2074V75.1402H145.747L145.161 76.2219L146.978 77.2074ZM169.272 83.5931L167.638 84.8593L167.639 84.8602L169.272 83.5931ZM180.664 98.2837V100.351H184.882L182.298 97.0172L180.664 98.2837ZM171.976 98.2837L170.683 99.8971L171.25 100.351H171.976V98.2837ZM164.372 92.1928L165.664 90.5794L162.304 87.8883V92.1928H164.372ZM164.372 105.348V107.415H166.439V105.348H164.372ZM147.473 105.348H145.406V107.415H147.473V105.348ZM147.473 93.7225V91.6553H145.406V93.7225H147.473ZM164.377 105.348H166.444V103.281H164.377V105.348ZM164.377 129.868L166.423 130.159L166.444 130.014V129.868H164.377ZM165.289 154.393V156.46H169.032L167.039 153.292L165.289 154.393ZM147.478 154.393H145.411V156.46H147.478V154.393ZM147.478 105.348V103.281H145.411V105.348H147.478ZM195.767 101.115L193.706 100.964C193.689 101.194 193.711 101.425 193.77 101.647L195.767 101.115ZM196.568 90.1401V88.0729C195.485 88.0729 194.585 88.9092 194.507 89.9896L196.568 90.1401ZM208.3 98.6118L206.249 98.8731L206.249 98.8734L208.3 98.6118ZM188.93 154.393L188.928 156.46C189.979 156.46 190.863 155.673 190.983 154.629L188.93 154.393ZM178.956 154.387L177.317 153.127C176.837 153.751 176.754 154.594 177.101 155.3C177.449 156.006 178.168 156.454 178.955 156.454L178.956 154.387ZM183.378 148.635L185.017 149.895C185.295 149.534 185.445 149.091 185.445 148.635H183.378ZM201.401 97.3604L203.135 98.4847L203.138 98.4801L201.401 97.3604ZM207.764 97.3548L209.504 96.2378L209.502 96.2352L207.764 97.3548ZM208.365 113.208V115.275H210.432V113.208H208.365ZM189.614 113.208L189.614 115.275H189.614V113.208ZM189.614 106.021V103.954H187.547V106.021H189.614ZM200.806 106.021V108.088H202.873V106.021H200.806ZM183.378 121.079V119.012H181.311V121.079H183.378ZM183.378 142.194H181.311V144.255L183.371 144.261L183.378 142.194ZM190.715 142.216L190.708 144.283L192.782 144.29V142.216H190.715ZM190.715 129.233V127.166H188.647V129.233H190.715ZM221.571 113.208L223.596 113.627L224.111 111.141H221.571V113.208ZM219.502 123.198L221.526 123.618L221.526 123.617L219.502 123.198ZM199.911 129.233L197.887 128.814L197.371 131.301H199.911V129.233ZM203.232 113.208L205.256 113.627L205.771 111.141H203.232V113.208ZM171.981 98.2837V96.2165H169.143L170.014 98.918L171.981 98.2837ZM188.735 98.2837L190.703 97.6487L190.24 96.2165H188.735V98.2837ZM84.3652 154.393V156.46H226.287V154.393V152.325H84.3652V154.393ZM112.486 73.6919V71.6247C107.39 71.6247 103.249 75.7587 103.249 80.8619H105.316H107.383C107.383 78.0442 109.672 75.7591 112.486 75.7591V73.6919ZM105.316 80.8619H103.249C103.249 85.9641 107.384 90.0992 112.486 90.0992V88.032V85.9648C109.667 85.9648 107.383 83.6808 107.383 80.8619H105.316ZM112.486 88.032V90.0992C117.589 90.0992 121.723 85.9575 121.723 80.8619H119.656H117.589C117.589 83.6762 115.304 85.9648 112.486 85.9648V88.032ZM119.656 80.8619H121.723C121.723 75.7664 117.589 71.6247 112.486 71.6247V73.6919V75.7591C115.304 75.7591 117.589 78.0476 117.589 80.8619H119.656ZM111.128 129.233V131.301H124.545V129.233V127.166H111.128V129.233ZM124.545 129.233H122.478V154.393H124.545H126.612V129.233H124.545ZM124.545 154.393V156.46H137.456V154.393V152.325H124.545V154.393ZM137.456 154.393L138.793 152.816L132.012 147.065L130.675 148.641L129.338 150.217L136.118 155.969L137.456 154.393ZM130.675 148.641L132.728 148.879L135.916 121.406L133.862 121.168L131.809 120.93L128.621 148.403L130.675 148.641ZM133.862 121.168L133.872 119.101L115.549 119.012L115.539 121.079L115.529 123.146L133.852 123.235L133.862 121.168ZM115.539 121.079H117.606V113.208H115.539H113.472V121.079H115.539ZM115.539 106.299H117.606V90.1402H115.539H113.472V106.299H115.539ZM115.539 90.1402V88.073H110.093V90.1402V92.2074H115.539V90.1402ZM110.093 90.1402V88.073C106.977 88.073 103.98 89.3073 101.771 91.5231L103.235 92.9826L104.699 94.4421C106.127 93.0089 108.069 92.2074 110.093 92.2074V90.1402ZM103.235 92.9826L101.773 91.5209C99.5672 93.7267 98.3251 96.7163 98.3251 99.8412H100.392H102.459C102.459 97.8152 103.264 95.8764 104.696 94.4443L103.235 92.9826ZM100.392 99.8412H98.3251V113.208H100.392H102.459V99.8412H100.392ZM107.534 113.208V115.275H118.921V113.208V111.141H107.534V113.208ZM118.921 113.208H120.988V106.299H118.921H116.854V113.208H118.921ZM118.921 106.299V104.232H108.447V106.299V108.366H118.921V106.299ZM108.447 106.299H110.514V98.2837H108.447H106.379V106.299H108.447ZM115.538 121.079V119.012H110.287V121.079V123.146H115.538V121.079ZM100.391 129.233L98.3781 128.765L92.5208 153.924L94.5342 154.393L96.5475 154.861L102.405 129.702L100.391 129.233ZM107.423 113.208V111.141H89.0781V113.208V115.275H107.423V113.208ZM89.0781 113.208C87.064 113.673 87.064 113.673 87.064 113.673C87.0641 113.673 87.0641 113.673 87.0641 113.674C87.0641 113.674 87.0642 113.674 87.0643 113.674C87.0644 113.675 87.0647 113.676 87.065 113.677C87.0656 113.68 87.0665 113.684 87.0678 113.689C87.0702 113.7 87.0739 113.716 87.0788 113.737C87.0885 113.779 87.1029 113.841 87.1215 113.922C87.1589 114.084 87.2134 114.32 87.2822 114.617C87.4197 115.212 87.614 116.054 87.8414 117.038C88.2961 119.006 88.8829 121.547 89.4113 123.836L91.4255 123.371L93.4397 122.906C92.9113 120.616 92.3244 118.076 91.8696 116.107C91.6423 115.123 91.4479 114.282 91.3104 113.687C91.2417 113.389 91.1871 113.153 91.1498 112.991C91.1311 112.911 91.1167 112.848 91.107 112.806C91.1022 112.785 91.0985 112.769 91.096 112.759C91.0948 112.753 91.0938 112.749 91.0932 112.747C91.0929 112.745 91.0927 112.744 91.0925 112.743C91.0924 112.743 91.0924 112.743 91.0923 112.743C91.0923 112.743 91.0923 112.743 91.0923 112.743C91.0923 112.742 91.0923 112.742 89.0781 113.208ZM91.4255 123.371L89.4117 123.837C90.4241 128.205 94.3119 131.301 98.8014 131.301V129.233V127.166C96.2376 127.166 94.0178 125.4 93.4393 122.904L91.4255 123.371ZM98.8014 129.233L98.8014 131.301L111.128 131.301L111.128 129.233L111.128 127.166L98.8014 127.166L98.8014 129.233ZM111.128 129.233L113.142 128.768L109.437 112.742L107.423 113.208L105.409 113.674L109.114 129.699L111.128 129.233ZM142.267 98.2837V96.2165H125.513V98.2837V100.351H142.267V98.2837ZM125.513 98.2837L123.545 97.6487L118.728 112.573L120.695 113.208L122.663 113.843L127.48 98.9187L125.513 98.2837ZM120.695 113.208V115.275H137.455V113.208V111.141H120.695V113.208ZM137.455 113.208L139.423 113.842L144.234 98.918L142.267 98.2837L140.299 97.6494L135.488 112.574L137.455 113.208ZM112.484 106.455H110.417V113.208H112.484H114.551V106.455H112.484ZM130.675 148.641V146.574H124.546V148.641V150.708H130.675V148.641ZM147.478 93.7225L146.116 92.1676L140.91 96.7288L142.272 98.2837L143.634 99.8386L148.84 95.2774L147.478 93.7225ZM142.272 98.2837V96.2165H135.547V98.2837V100.351H142.272V98.2837ZM135.547 98.2837L137.364 99.2692L148.795 78.1929L146.978 77.2074L145.161 76.2219L133.73 97.2982L135.547 98.2837ZM146.978 77.2074V79.2746H156.245V77.2074V75.1402H146.978V77.2074ZM156.245 77.2074V79.2746C160.701 79.2746 164.909 81.3374 167.638 84.8593L169.272 83.5931L170.906 82.327C167.394 77.7944 161.979 75.1402 156.245 75.1402V77.2074ZM169.272 83.5931L167.639 84.8602C170.044 87.9611 172.892 91.6336 175.139 94.5309C176.262 95.9796 177.235 97.2344 177.927 98.1271C178.273 98.5734 178.549 98.9292 178.738 99.1734C178.833 99.2955 178.906 99.3897 178.955 99.4534C178.98 99.4853 178.999 99.5095 179.011 99.5257C179.018 99.5338 179.022 99.54 179.026 99.5441C179.027 99.5461 179.028 99.5477 179.029 99.5487C179.03 99.5492 179.03 99.5496 179.03 99.5499C179.03 99.55 179.03 99.5501 179.03 99.5501C179.03 99.5502 179.03 99.5502 180.664 98.2837C182.298 97.0172 182.298 97.0171 182.298 97.0171C182.298 97.017 182.298 97.0169 182.298 97.0168C182.297 97.0165 182.297 97.0161 182.297 97.0156C182.296 97.0146 182.295 97.013 182.293 97.011C182.29 97.0069 182.285 97.0008 182.279 96.9926C182.266 96.9764 182.248 96.9522 182.223 96.9203C182.173 96.8566 182.1 96.7624 182.006 96.6403C181.816 96.3961 181.541 96.0403 181.195 95.5939C180.502 94.7012 179.529 93.4463 178.406 91.9976C176.16 89.1002 173.311 85.4273 170.905 82.326L169.272 83.5931ZM180.664 98.2837V96.2165H171.976V98.2837V100.351H180.664V98.2837ZM171.976 98.2837L173.268 96.6703L165.664 90.5794L164.372 92.1928L163.079 93.8062L170.683 99.8971L171.976 98.2837ZM164.372 92.1928H162.304V105.348H164.372H166.439V92.1928H164.372ZM164.372 105.348V103.281H147.473V105.348V107.415H164.372V105.348ZM147.473 105.348H149.54V93.7225H147.473H145.406V105.348H147.473ZM147.473 93.7225V95.7896H147.478V93.7225V91.6553H147.473V93.7225ZM164.377 105.348H162.31V129.868H164.377H166.444V105.348H164.377ZM164.377 129.868L162.33 129.577L159.655 148.4L161.701 148.691L163.748 148.982L166.423 130.159L164.377 129.868ZM161.701 148.691L159.952 149.792L163.539 155.494L165.289 154.393L167.039 153.292L163.451 147.59L161.701 148.691ZM165.289 154.393V152.326H147.478V154.393V156.46H165.289V154.393ZM147.478 154.393H149.545V105.348H147.478H145.411V154.393H147.478ZM147.478 105.348V107.415H164.377V105.348V103.281H147.478V105.348ZM164.745 67.6343H162.678C162.678 70.6615 160.224 73.1155 157.197 73.1155V75.1826V77.2498C162.507 77.2498 166.812 72.9448 166.812 67.6343H164.745ZM157.197 75.1826V73.1155C154.17 73.1155 151.716 70.6615 151.716 67.6343H149.649H147.581C147.581 72.9448 151.886 77.2498 157.197 77.2498V75.1826ZM149.649 67.6343H151.716C151.716 64.6072 154.17 62.1532 157.197 62.1532V60.086V58.0188C151.886 58.0188 147.581 62.3238 147.581 67.6343H149.649ZM157.197 60.086V62.1532C160.224 62.1532 162.678 64.6072 162.678 67.6343H164.745H166.812C166.812 62.3238 162.507 58.0188 157.197 58.0188V60.086ZM161.701 148.691L161.701 146.624L148.679 146.624L148.679 148.691L148.679 150.758L161.701 150.758L161.701 148.691ZM155.528 120.128L153.461 120.133L153.545 154.398L155.612 154.393L157.679 154.388L157.595 120.123L155.528 120.128ZM157.123 77.8026H155.056V98.2838H157.123H159.19V77.8026H157.123ZM207.352 80.8619H205.285C205.285 83.6802 203 85.9648 200.182 85.9648V88.032V90.0992C205.284 90.0992 209.419 85.9635 209.419 80.8619H207.352ZM200.182 88.032V85.9648C197.364 85.9648 195.079 83.6802 195.079 80.8619H193.012H190.945C190.945 85.9635 195.081 90.0992 200.182 90.0992V88.032ZM193.012 80.8619H195.079C195.079 78.0437 197.364 75.7591 200.182 75.7591V73.6919V71.6247C195.081 71.6247 190.945 75.7603 190.945 80.8619H193.012ZM200.182 73.6919V75.7591C203 75.7591 205.285 78.0437 205.285 80.8619H207.352H209.419C209.419 75.7603 205.284 71.6247 200.182 71.6247V73.6919ZM197.334 121.079L199.357 121.503L201.009 113.633L198.986 113.208L196.963 112.783L195.311 120.654L197.334 121.079ZM197.074 106.021L199.072 105.489L197.765 100.583L195.767 101.115L193.77 101.647L195.077 106.553L197.074 106.021ZM195.767 101.115L197.829 101.265L198.63 90.2906L196.568 90.1401L194.507 89.9896L193.706 100.964L195.767 101.115ZM196.568 90.1401V92.2073H198.677V90.1401V88.0729H196.568V90.1401ZM198.677 90.1401V92.2073C202.521 92.2073 205.763 95.0614 206.249 98.8731L208.3 98.6118L210.35 98.3504C209.601 92.4723 204.6 88.0729 198.677 88.0729V90.1401ZM208.3 98.6118L206.249 98.8734C206.833 103.451 207.299 107.1 207.619 109.605C207.779 110.857 207.902 111.824 207.986 112.477C208.027 112.803 208.059 113.052 208.08 113.218C208.091 113.301 208.099 113.364 208.104 113.406C208.107 113.428 208.109 113.443 208.111 113.454C208.111 113.459 208.112 113.463 208.112 113.466C208.112 113.467 208.112 113.468 208.112 113.469C208.112 113.469 208.112 113.469 208.113 113.47C208.113 113.47 208.113 113.47 208.113 113.47C208.113 113.47 208.113 113.47 210.163 113.208C212.214 112.946 212.214 112.946 212.214 112.946C212.214 112.946 212.214 112.946 212.214 112.945C212.214 112.945 212.213 112.945 212.213 112.945C212.213 112.944 212.213 112.943 212.213 112.942C212.213 112.939 212.212 112.935 212.212 112.93C212.21 112.919 212.208 112.903 212.205 112.882C212.2 112.84 212.192 112.777 212.181 112.694C212.16 112.527 212.128 112.279 212.087 111.953C212.003 111.3 211.88 110.334 211.72 109.081C211.4 106.577 210.934 102.928 210.35 98.3502L208.3 98.6118ZM190.331 142.216L188.278 141.98L186.876 154.156L188.93 154.393L190.983 154.629L192.385 142.453L190.331 142.216ZM188.93 154.393L188.931 152.325L178.957 152.32L178.956 154.387L178.955 156.454L188.928 156.46L188.93 154.393ZM178.956 154.387L180.595 155.647L185.017 149.895L183.378 148.635L181.739 147.375L177.317 153.127L178.956 154.387ZM183.378 148.635H185.445V142.216H183.378H181.311V148.635H183.378ZM200.806 99.3796H202.873C202.873 99.0577 202.965 98.7479 203.135 98.4847L201.401 97.3604L199.666 96.2361C199.058 97.1744 198.738 98.2663 198.738 99.3796H200.806ZM201.401 97.3604L203.138 98.4801C203.454 97.9907 204.001 97.6921 204.582 97.6921V95.6249V93.5577C202.594 93.5577 200.738 94.5718 199.663 96.2407L201.401 97.3604ZM204.582 95.6249V97.6921C205.17 97.6921 205.715 97.9903 206.027 98.4745L207.764 97.3548L209.502 96.2352C208.423 94.5611 206.565 93.5577 204.582 93.5577V95.6249ZM207.764 97.3548L206.025 98.4719C206.205 98.7523 206.298 99.0723 206.298 99.3852H208.365H210.432C210.432 98.2629 210.102 97.17 209.504 96.2378L207.764 97.3548ZM208.365 99.3852H206.298V113.208H208.365H210.432V99.3852H208.365ZM208.365 113.208V111.141H189.614V113.208V115.275H208.365V113.208ZM189.614 113.208H191.681V106.021H189.614H187.547V113.208H189.614ZM189.614 106.021V108.088H200.806V106.021V103.954H189.614V106.021ZM200.806 106.021H202.873V99.3796H200.806H198.738V106.021H200.806ZM201.656 121.079V119.012H183.378V121.079V123.146H201.656V121.079ZM183.378 121.079H181.311V142.194H183.378H185.445V121.079H183.378ZM183.378 142.194L183.371 144.261L190.708 144.283L190.715 142.216L190.721 140.149L183.384 140.127L183.378 142.194ZM190.715 142.216H192.782V129.233H190.715H188.647V142.216H190.715ZM190.715 129.233V131.301H199.909V129.233V127.166H190.715V129.233ZM212.281 129.233L210.268 129.702L216.125 154.861L218.138 154.393L220.152 153.924L214.294 128.765L212.281 129.233ZM203.226 113.208V115.275H221.571V113.208V111.141H203.226V113.208ZM221.571 113.208C219.547 112.789 219.547 112.789 219.547 112.789C219.547 112.789 219.547 112.789 219.547 112.789C219.547 112.789 219.547 112.789 219.547 112.79C219.547 112.79 219.547 112.791 219.546 112.793C219.546 112.795 219.545 112.799 219.544 112.804C219.542 112.815 219.538 112.83 219.534 112.851C219.526 112.892 219.513 112.953 219.497 113.032C219.464 113.19 219.416 113.42 219.356 113.711C219.235 114.293 219.065 115.117 218.865 116.082C218.465 118.012 217.948 120.509 217.478 122.779L219.502 123.198L221.526 123.617C221.996 121.348 222.514 118.85 222.913 116.92C223.113 115.955 223.284 115.132 223.404 114.55C223.465 114.259 223.512 114.028 223.545 113.87C223.562 113.791 223.574 113.731 223.583 113.69C223.587 113.669 223.59 113.653 223.592 113.643C223.593 113.638 223.594 113.634 223.595 113.631C223.595 113.63 223.595 113.629 223.595 113.628C223.595 113.628 223.595 113.628 223.595 113.627C223.595 113.627 223.596 113.627 223.596 113.627C223.596 113.627 223.596 113.627 221.571 113.208ZM219.502 123.198L217.478 122.779C216.948 125.336 214.699 127.166 212.093 127.166V129.233V131.301C216.662 131.301 220.599 128.091 221.526 123.618L219.502 123.198ZM212.093 129.233V127.166H199.911V129.233V131.301H212.093V129.233ZM199.911 129.233L201.935 129.653L205.256 113.627L203.232 113.208L201.208 112.788L197.887 128.814L199.911 129.233ZM203.232 113.208V111.141H203.226V113.208V115.275H203.232V113.208ZM209.895 73.6919V75.7591C210.267 75.7591 210.57 76.0629 210.57 76.4342H212.638H214.705C214.705 73.7795 212.55 71.6247 209.895 71.6247V73.6919ZM212.638 76.4342H210.57C210.57 76.8055 210.267 77.1093 209.895 77.1093V79.1765V81.2437C212.55 81.2437 214.705 79.0889 214.705 76.4342H212.638ZM209.895 79.1765V77.1093C209.524 77.1093 209.22 76.8055 209.22 76.4342H207.153H205.086C205.086 79.0889 207.241 81.2437 209.895 81.2437V79.1765ZM207.153 76.4342H209.22C209.22 76.0629 209.524 75.7591 209.895 75.7591V73.6919V71.6247C207.241 71.6247 205.086 73.7795 205.086 76.4342H207.153ZM176.793 113.208L178.76 112.574L173.949 97.6494L171.981 98.2837L170.014 98.918L174.825 113.842L176.793 113.208ZM171.981 98.2837V100.351H188.735V98.2837V96.2165H171.981V98.2837ZM188.735 98.2837L186.768 98.9187L189.266 106.656L191.233 106.021L193.2 105.386L190.703 97.6487L188.735 98.2837ZM137.454 113.208L137.454 115.275L189.614 115.275L189.614 113.208L189.614 111.141L137.454 111.141L137.454 113.208ZM150.839 52.4653L152.301 51.0042L146.016 44.7131L144.553 46.1741L143.091 47.6352L149.376 53.9264L150.839 52.4653ZM157.124 49.8565H159.192V40.9676H157.124H155.057V49.8565H157.124ZM163.41 52.4653L164.872 53.9264L171.158 47.6352L169.696 46.1741L168.233 44.7131L161.948 51.0042L163.41 52.4653ZM94.1664 72.0675H96.2335C96.2335 65.5191 90.9137 60.1992 84.3652 60.1992V62.2664V64.3336C88.6303 64.3336 92.0992 67.8025 92.0992 72.0675H94.1664ZM84.3652 62.2664V64.3336C90.92 64.3336 96.2335 59.0129 96.2335 52.4653H94.1664H92.0992C92.0992 56.7311 88.6351 60.1992 84.3652 60.1992V62.2664ZM94.1664 52.4653H92.0992C92.0992 59.0137 97.4191 64.3336 103.967 64.3336V62.2664V60.1992C99.7024 60.1992 96.2335 56.7304 96.2335 52.4653H94.1664ZM103.967 62.2664V60.1992C97.4127 60.1992 92.0992 65.5199 92.0992 72.0675H94.1664H96.2335C96.2335 67.8017 99.6976 64.3336 103.967 64.3336V62.2664ZM200.679 33.842V35.9092C203.47 35.9092 205.737 38.1766 205.737 40.9676H207.804H209.871C209.871 35.8932 205.753 31.7749 200.679 31.7749V33.842ZM207.804 40.9676H205.737C205.737 43.7586 203.47 46.026 200.679 46.026V48.0932V50.1604C205.753 50.1604 209.871 46.042 209.871 40.9676H207.804ZM200.679 48.0932V46.026C197.888 46.026 195.62 43.7586 195.62 40.9676H193.553H191.486C191.486 46.042 195.604 50.1604 200.679 50.1604V48.0932ZM193.553 40.9676H195.62C195.62 38.1766 197.888 35.9092 200.679 35.9092V33.842V31.7749C195.604 31.7749 191.486 35.8932 191.486 40.9676H193.553Z" fill="#221C46"/>
</svg>
