<svg width="304" height="157" viewBox="0 0 304 157" fill="none" xmlns="http://www.w3.org/2000/svg">
<path d="M199.985 77.3176C198.744 93.2286 191.208 107.437 179.776 117.225M195.929 50.7549C198.107 56.1468 199.51 61.9411 199.986 67.9905M174.851 24.4719C180.081 28.0829 184.693 32.528 188.505 37.606M148.499 72.6567H195.491M147.549 69.2463L179.778 50.6418M145.007 66.8373L168.572 26.0272M141.65 66.0627V18.8106M138.42 67.0584L114.389 25.4436M136.229 69.5261L95.021 45.7307M135.312 72.6567H111.33M136.23 75.7863L125.785 81.8161M138.459 78.2739L133.892 86.3202M141.65 79.2408V95.927M145.026 78.5001L170.348 122.362M147.549 76.0613L192.406 101.957M146.326 14.3212C153.597 14.8952 160.5 16.8037 166.785 19.8014M116.528 19.7965C122.808 16.8037 129.706 14.8952 136.977 14.3212M93.4686 39.4457C97.5114 33.5974 102.589 28.5195 108.438 24.4767M83.1731 70.4386C83.4773 62.2648 85.4644 54.5178 88.7908 47.5313M117.624 80.6934L120.705 77.6123M143.194 114.865C143.194 114.865 144.754 116.421 146.589 118.251C150.274 121.921 155.264 123.986 160.464 123.986C168.682 123.986 176.562 120.723 182.371 114.91C192.301 104.979 206.828 90.4519 206.828 90.4519M139.81 102.875L142.94 99.7445M128.717 91.7815L131.847 88.6513M99.4328 74.796L100.223 70.4393M81.467 77.7839L80.2601 73.5253M79.0872 86.6249L83.1348 83.637M83.1348 83.637L93.4183 80.7031L98.408 80.7914L108.952 82.5822L113.323 84.9912L143.07 114.743M83.1348 83.637V111.093M113.324 84.9913V111.142M143.512 115.179V141.329L160.846 123.996M173.701 121.013V141.33L203.889 111.141M203.89 93.5034V141.33L179.78 117.225M141.49 113.163L113.324 141.33V118.064M143.511 141.33L115.953 113.771M173.702 141.33L155.947 123.579M74.9092 141.33H210.096M83.1348 118.01V141.33M83.1655 111.092L98.4435 95.8143L113.324 111.141M98.4132 118.01L113.328 141.33M98.4435 118.064L83.1655 141.33M209.738 50.755C209.738 42.6302 203.14 36.0313 195.015 36.0313C186.89 36.0313 180.291 42.6302 180.291 50.755C180.291 46.6926 176.994 43.3956 172.932 43.3956C168.869 43.3956 165.567 46.6926 165.567 50.755H209.738ZM166.861 19.6394C168.152 17.407 171.012 16.6367 173.249 17.9271C175.482 19.2174 176.252 22.0778 174.961 24.315C173.671 26.5474 170.811 27.3176 168.574 26.0273C166.336 24.7369 165.571 21.8766 166.861 19.6394ZM146.325 14.1346C146.325 16.7169 144.231 18.8103 141.649 18.8103C139.067 18.8103 136.973 16.7169 136.973 14.1346C136.973 11.5523 139.067 9.45898 141.649 9.45898C144.231 9.45898 146.325 11.5523 146.325 14.1346ZM108.343 24.3151C107.052 22.0828 107.818 19.2175 110.055 17.9272C112.292 16.6368 115.153 17.4022 116.443 19.6395C117.733 21.8718 116.968 24.7371 114.731 26.0274C112.493 27.3177 109.633 26.5524 108.343 24.3151ZM88.6323 47.4434C86.3951 46.153 85.6297 43.2927 86.92 41.0554C88.2104 38.8182 91.0707 38.0528 93.308 39.3432C95.5452 40.6335 96.3106 43.4938 95.0203 45.7311C93.7299 47.9634 90.8696 48.7337 88.6323 47.4434ZM204.843 72.656C204.843 75.2383 202.75 77.3317 200.167 77.3317C197.585 77.3317 195.492 75.2383 195.492 72.656C195.492 70.0738 197.585 67.9804 200.167 67.9804C202.75 67.9804 204.843 70.0738 204.843 72.656ZM148.498 72.6565C148.498 76.2982 145.545 79.2505 141.904 79.2505C138.262 79.2505 135.31 76.2982 135.31 72.6565C135.31 69.0147 138.262 66.0625 141.904 66.0625C145.545 66.0625 148.498 69.0147 148.498 72.6565ZM143.163 106.225L139.812 102.874L135.509 107.177L143.07 114.737C145.636 111.956 146.19 109.135 143.158 106.225H143.163ZM86.0215 76.4841L81.4636 77.7842L83.1317 83.6325L93.4152 80.6985C92.2328 77.1022 90.0348 75.2477 86.0166 76.4841H86.0215ZM132.066 95.1324L128.715 91.7815L124.412 96.0842L131.973 103.645C134.539 100.863 135.093 98.0369 132.061 95.1324H132.066ZM120.974 84.0445L117.623 80.6935L113.32 84.9963L120.88 92.5568C123.446 89.775 124.001 86.9539 120.969 84.0445H120.974ZM104.1 75.586L99.4288 74.7912L98.4132 80.7866L108.957 82.5774C109.442 78.8241 108.26 76.1993 104.1 75.5811V75.586ZM87.4699 92.3995L98.4452 88.9455V95.8143L87.4699 92.3995ZM80.9347 111.141H115.955V118.01H80.9347V111.141Z" stroke="#221C46" stroke-width="3.43438" stroke-miterlimit="5"/>
</svg>
