<svg width="416" height="189" viewBox="0 0 416 189" fill="none" xmlns="http://www.w3.org/2000/svg">
<path fill-rule="evenodd" clip-rule="evenodd" d="M260.73 121.39L231.789 91.7561L234.747 88.8674L263.687 118.502L260.73 121.39Z" fill="#221C46"/>
<path fill-rule="evenodd" clip-rule="evenodd" d="M144.134 92.7939H207.798V145.153H144.134V92.7939ZM148.269 96.9282V141.018H203.663V96.9282H148.269Z" fill="#221C46"/>
<path fill-rule="evenodd" clip-rule="evenodd" d="M141.363 82.2452H210.561V97.253H141.363V82.2452ZM145.498 86.3796V93.1186H206.427V86.3796H145.498Z" fill="#221C46"/>
<path fill-rule="evenodd" clip-rule="evenodd" d="M173.7 143.41V84.3124H177.834V143.41H173.7Z" fill="#221C46"/>
<path fill-rule="evenodd" clip-rule="evenodd" d="M183.239 70.5447C188.253 64.0995 197.734 65.2691 200.285 72.3029L200.286 72.3046C201.387 75.3478 200.991 78.8858 199.015 81.6738C197.001 84.5158 193.499 86.3796 188.78 86.3796V82.2452C192.353 82.2452 194.509 80.8812 195.642 79.2832C196.813 77.6314 197.051 75.5172 196.398 73.7115C195.11 70.1625 189.803 68.8402 186.502 73.084L186.501 73.0848C183.085 77.4719 178.399 83.6102 177.349 85.3711L173.798 83.2537C175.016 81.2111 179.921 74.8051 183.238 70.5455" fill="#221C46"/>
<path fill-rule="evenodd" clip-rule="evenodd" d="M151.256 72.3029C153.807 65.2688 163.289 64.0994 168.303 70.5455L168.303 70.5461C171.611 74.8009 176.527 81.2125 177.74 83.2578L174.184 85.367C173.141 83.6088 168.454 77.4759 165.04 73.084M155.143 73.7119C156.431 70.1628 161.738 68.8402 165.039 73.0834ZM155.143 73.7119C154.49 75.5176 154.729 77.6315 155.899 79.2832C157.032 80.8812 159.188 82.2452 162.761 82.2452V86.3796C158.042 86.3796 154.54 84.5158 152.526 81.6737C150.55 78.8857 150.154 75.3478 151.255 72.3046L151.256 72.3029" fill="#221C46"/>
<path fill-rule="evenodd" clip-rule="evenodd" d="M205.73 116.956H146.201V112.822H205.73V116.956Z" fill="#221C46"/>
<path fill-rule="evenodd" clip-rule="evenodd" d="M289.414 145.153H127.59V141.018H289.414V145.153Z" fill="#221C46"/>
<path fill-rule="evenodd" clip-rule="evenodd" d="M197.552 48.8004L232.902 43.5989L238.061 78.9646L202.704 84.1579L197.552 48.8004ZM202.239 52.2897L206.198 79.4659L233.374 75.4744L229.408 48.2918L202.239 52.2897Z" fill="#221C46"/>
<path fill-rule="evenodd" clip-rule="evenodd" d="M222.351 60.1501C223.492 60.1501 224.418 59.2246 224.418 58.0829C224.418 56.9412 223.492 56.0157 222.351 56.0157C221.209 56.0157 220.283 56.9412 220.283 58.0829C220.283 59.2246 221.209 60.1501 222.351 60.1501ZM222.351 64.2845C225.776 64.2845 228.552 61.5079 228.552 58.0829C228.552 54.6579 225.776 51.8813 222.351 51.8813C218.926 51.8813 216.149 54.6579 216.149 58.0829C216.149 61.5079 218.926 64.2845 222.351 64.2845Z" fill="#221C46"/>
<path fill-rule="evenodd" clip-rule="evenodd" d="M234.624 79.1612L273.354 118.465L246.096 145.278L207.381 105.985L234.624 79.1612ZM213.229 106.03L246.142 139.434L267.505 118.419L234.58 85.0068L213.229 106.03Z" fill="#221C46"/>
<path fill-rule="evenodd" clip-rule="evenodd" d="M232.171 102.563L229.527 99.8799L227.988 101.396L230.632 104.079L232.171 102.563ZM229.57 94.0332L222.141 101.353L230.589 109.926L238.017 102.606L229.57 94.0332Z" fill="#221C46"/>
</svg>
