<svg width="416" height="155" viewBox="0 0 416 155" fill="none" xmlns="http://www.w3.org/2000/svg">
<path fill-rule="evenodd" clip-rule="evenodd" d="M165.355 66.523H168.505V77.7243H178.502V66.523H181.652V118.538H178.502V112.375H168.505V118.538H165.355V66.523ZM168.505 109.225H178.502V96.6361H168.505V109.225ZM168.505 93.4861H178.502V80.8743H168.505V93.4861Z" fill="#221C46"/>
<path fill-rule="evenodd" clip-rule="evenodd" d="M202.47 65.2598H218.727V119.752H202.47V65.2598ZM205.62 68.4098V109.226H215.577V68.4098H205.62ZM215.577 112.376H205.62V116.602H215.577V112.376Z" fill="#221C46"/>
<path fill-rule="evenodd" clip-rule="evenodd" d="M227.644 71.8248L239.426 83.5821V119.752H215.861V83.5821L227.644 71.8248ZM219.011 84.8889V116.602H236.276V84.8889L227.644 76.2748L219.011 84.8889Z" fill="#221C46"/>
<path fill-rule="evenodd" clip-rule="evenodd" d="M225.94 95.1247V84.1807H229.09V95.1247H225.94Z" fill="#221C46"/>
<path fill-rule="evenodd" clip-rule="evenodd" d="M225.94 112.12V101.176H229.09V112.12H225.94Z" fill="#221C46"/>
<path fill-rule="evenodd" clip-rule="evenodd" d="M158.416 58.5193H161.566V60.2739H172.811V63.4239H161.566V66.4916H158.416V58.5193Z" fill="#221C46"/>
<path fill-rule="evenodd" clip-rule="evenodd" d="M220.241 60.2765V57.5764H223.391V67.0166H220.241V63.4265H214.796V60.2765H220.241Z" fill="#221C46"/>
<path fill-rule="evenodd" clip-rule="evenodd" d="M226.616 68.1719H155.153V65.0219H226.616V68.1719Z" fill="#221C46"/>
<path fill-rule="evenodd" clip-rule="evenodd" d="M192.44 60.7964V66.9463H189.29V60.7964H192.44Z" fill="#221C46"/>
<path fill-rule="evenodd" clip-rule="evenodd" d="M180.973 29.8041C178.268 29.4155 175.022 29.3157 171.463 29.9126C167.623 30.5567 163.904 31.6713 161.552 32.6076V55.7994C164.482 54.6201 169.917 52.9112 177.13 52.9112C182.716 52.9112 186.753 54.845 189.31 57.2016V36.0023C187.312 32.7365 184.429 30.3006 180.973 29.8041ZM190.885 35.5685L192.247 34.7768C189.959 30.8429 186.289 27.3855 181.421 26.6861C178.443 26.2582 174.867 26.1479 170.942 26.806C166.318 27.5815 161.819 29.005 159.329 30.1275L158.402 30.5457V60.7556L160.669 59.6456C160.691 59.6349 160.716 59.6228 160.743 59.6094C161.921 59.0299 167.954 56.0612 177.13 56.0612C184.3 56.0612 188.026 59.7068 189.153 62.1189L189.284 62.3978L192.46 65.3432V35.5685H190.885Z" fill="#221C46"/>
<path fill-rule="evenodd" clip-rule="evenodd" d="M200.799 29.8113C203.504 29.4227 206.749 29.3229 210.309 29.9198C214.149 30.5639 217.868 31.6784 220.22 32.6147V55.8066C217.29 54.6273 211.855 52.9183 204.642 52.9183C199.056 52.9183 195.019 54.8521 192.462 57.2087V36.0095C194.459 32.7437 197.343 30.3078 200.799 29.8113ZM190.887 35.5757L189.525 34.7839C191.813 30.8501 195.483 27.3926 200.351 26.6933C203.329 26.2654 206.905 26.155 210.83 26.8131C215.454 27.5887 219.953 29.0121 222.443 30.1347L223.37 30.5529V60.7628L221.103 59.6528C221.081 59.642 221.056 59.63 221.029 59.6166C219.851 59.037 213.818 56.0683 204.642 56.0683C197.472 56.0683 193.746 59.7139 192.619 62.1261L192.194 63.0343H189.312V35.5757H190.887Z" fill="#221C46"/>
<path fill-rule="evenodd" clip-rule="evenodd" d="M160.002 86.6778L167.102 98.3677C170.189 103.451 167.094 109.836 161.561 110.869V117.609H158.411V110.871C152.785 109.83 149.661 103.312 152.853 98.1783L160.002 86.6778ZM159.971 92.6946L155.528 99.8414C153.354 103.339 155.868 107.863 159.986 107.863C164.021 107.863 166.503 103.451 164.409 100.003L159.971 92.6946Z" fill="#221C46"/>
<path fill-rule="evenodd" clip-rule="evenodd" d="M178.676 73.7613L194.537 70.0009L205.418 115.899L189.557 119.659L178.676 73.7613ZM189.969 107.739L191.895 115.867L201.626 113.56L199.7 105.432L189.969 107.739ZM189.242 104.674L198.973 102.367L194.986 85.5479L185.255 87.855L189.242 104.674ZM184.528 84.7899L194.259 82.4829L192.199 73.7926L182.468 76.0997L184.528 84.7899Z" fill="#221C46"/>
<path fill-rule="evenodd" clip-rule="evenodd" d="M236.431 82.6476H257.991V119.768H236.431V82.6476ZM239.581 85.7976V116.618H245.559V106.655H248.709V116.618H254.841V85.7976H239.581Z" fill="#221C46"/>
<path fill-rule="evenodd" clip-rule="evenodd" d="M151.557 116.605H263.152V130.402H151.557V116.605ZM154.707 119.755V127.252H260.002V119.755H154.707Z" fill="#221C46"/>
<path fill-rule="evenodd" clip-rule="evenodd" d="M244.07 28.8053V25.6553C247.548 25.6553 250.37 22.8314 250.37 19.353H253.52C253.52 22.8308 256.346 25.6553 259.82 25.6553V28.8053C256.341 28.8053 253.52 31.6258 253.52 35.103H250.37C250.37 31.6264 247.546 28.8053 244.07 28.8053ZM251.945 29.88C252.643 28.8297 253.546 27.927 254.597 27.2289C253.547 26.5304 252.644 25.6276 251.946 24.5773C251.248 25.6282 250.345 26.5316 249.294 27.2303C250.344 27.9282 251.246 28.8303 251.945 29.88Z" fill="#221C46"/>
<path fill-rule="evenodd" clip-rule="evenodd" d="M237.127 53.0764C238.245 53.0764 239.152 52.1698 239.152 51.0514C239.152 49.9331 238.245 49.0264 237.127 49.0264C236.009 49.0264 235.102 49.9331 235.102 51.0514C235.102 52.1698 236.009 53.0764 237.127 53.0764ZM237.127 56.2264C239.985 56.2264 242.302 53.9095 242.302 51.0514C242.302 48.1934 239.985 45.8764 237.127 45.8764C234.269 45.8764 231.952 48.1934 231.952 51.0514C231.952 53.9095 234.269 56.2264 237.127 56.2264Z" fill="#221C46"/>
</svg>
