<svg width="304" height="153" viewBox="0 0 304 153" fill="none" xmlns="http://www.w3.org/2000/svg">
<g clip-path="url(#clip0_3676_2437)">
<g clip-path="url(#clip1_3676_2437)" filter="url(#filter0_d_3676_2437)">
<path d="M38.6416 33.9497C38.6416 32.6974 39.6568 31.6821 40.9092 31.6821H263.132C264.385 31.6821 265.4 32.6974 265.4 33.9497V46.4214H38.6416V33.9497Z" fill="white"/>
<path d="M38.6426 46.4209H265.401V46.1375H38.6426V46.4209Z" fill="#E5E5E5"/>
<path d="M46.0146 37.4927C46.8754 37.4929 47.5732 38.1914 47.5732 39.0522C47.573 39.9129 46.8753 40.6106 46.0146 40.6108C45.1538 40.6108 44.4553 39.913 44.4551 39.0522C44.4551 38.1913 45.1537 37.4927 46.0146 37.4927Z" fill="#FF3B47" stroke="#EF1320" stroke-width="0.283448"/>
<path d="M51.6836 37.4927C52.5444 37.4929 53.2422 38.1914 53.2422 39.0522C53.2419 39.9129 52.5442 40.6106 51.6836 40.6108C50.8228 40.6108 50.1243 39.913 50.124 39.0522C50.124 38.1913 50.8226 37.4927 51.6836 37.4927Z" fill="#FFBD00" stroke="#E79F13" stroke-width="0.283448"/>
<path d="M57.3525 37.4927C58.2133 37.4929 58.9111 38.1914 58.9111 39.0522C58.9109 39.9129 58.2131 40.6106 57.3525 40.6108C56.4917 40.6108 55.7932 39.913 55.793 39.0522C55.793 38.1913 56.4915 37.4927 57.3525 37.4927Z" fill="#00D641" stroke="#12B829" stroke-width="0.283448"/>
<g clip-path="url(#clip2_3676_2437)">
<path d="M38.5996 46.356H265.399V167.127C265.399 168.693 264.13 169.962 262.564 169.962H41.4346C39.8689 169.962 38.5996 168.693 38.5996 167.127V46.356Z" fill="#F7F7F7"/>
<g clip-path="url(#clip3_3676_2437)">
<rect width="226.8" height="439.443" transform="translate(38.5996 46.4941)" fill="white"/>
<rect width="224.675" height="14.3091" transform="translate(39.6621 46.4941)" fill="white"/>
<path d="M63.9785 49.3291H44.7029V57.9682H63.9785V49.3291Z" fill="#221C46"/>
<path d="M49.3011 55.3291V52.1429H49.9747V54.7737H51.3407V55.3291H49.3011ZM52.854 55.3758C52.6124 55.3758 52.4034 55.3244 52.2271 55.2218C52.0518 55.118 51.9164 54.9739 51.821 54.7893C51.7256 54.6036 51.6779 54.3884 51.6779 54.1436C51.6779 53.8968 51.7256 53.681 51.821 53.4964C51.9164 53.3108 52.0518 53.1666 52.2271 53.0639C52.4034 52.9602 52.6124 52.9084 52.854 52.9084C53.0957 52.9084 53.3042 52.9602 53.4794 53.0639C53.6558 53.1666 53.7916 53.3108 53.887 53.4964C53.9825 53.681 54.0302 53.8968 54.0302 54.1436C54.0302 54.3884 53.9825 54.6036 53.887 54.7893C53.7916 54.9739 53.6558 55.118 53.4794 55.2218C53.3042 55.3244 53.0957 55.3758 52.854 55.3758ZM52.8571 54.8624C52.9671 54.8624 53.0589 54.8313 53.1325 54.769C53.2061 54.7058 53.2616 54.6197 53.299 54.5108C53.3373 54.4019 53.3565 54.2779 53.3565 54.139C53.3565 54 53.3373 53.876 53.299 53.7671C53.2616 53.6582 53.2061 53.5721 53.1325 53.5089C53.0589 53.4456 52.9671 53.414 52.8571 53.414C52.7462 53.414 52.6528 53.4456 52.5771 53.5089C52.5024 53.5721 52.4459 53.6582 52.4075 53.7671C52.3702 53.876 52.3515 54 52.3515 54.139C52.3515 54.2779 52.3702 54.4019 52.4075 54.5108C52.4459 54.6197 52.5024 54.7058 52.5771 54.769C52.6528 54.8313 52.7462 54.8624 52.8571 54.8624ZM55.5377 56.275C55.323 56.275 55.1389 56.2454 54.9854 56.1863C54.8329 56.1282 54.7116 56.0489 54.6214 55.9483C54.5311 55.8477 54.4725 55.7346 54.4456 55.6091L55.0585 55.5267C55.0772 55.5744 55.1068 55.619 55.1472 55.6605C55.1877 55.702 55.2411 55.7352 55.3074 55.76C55.3749 55.786 55.4568 55.7989 55.5533 55.7989C55.6974 55.7989 55.8162 55.7637 55.9095 55.6931C56.0039 55.6237 56.0511 55.507 56.0511 55.3431V54.9059H56.0231C55.9941 54.9723 55.9505 55.0351 55.8924 55.0942C55.8343 55.1533 55.7597 55.2015 55.6684 55.2389C55.5771 55.2762 55.4682 55.2949 55.3417 55.2949C55.1622 55.2949 54.9989 55.2534 54.8516 55.1704C54.7054 55.0864 54.5887 54.9583 54.5016 54.7861C54.4155 54.6129 54.3724 54.3941 54.3724 54.1296C54.3724 53.8589 54.4165 53.6328 54.5047 53.4513C54.5928 53.2698 54.71 53.1339 54.8563 53.0437C55.0036 52.9535 55.1648 52.9084 55.3401 52.9084C55.4739 52.9084 55.5859 52.9312 55.6762 52.9768C55.7664 53.0214 55.839 53.0774 55.894 53.1448C55.95 53.2112 55.993 53.2765 56.0231 53.3409H56.048V52.9395H56.7061V55.3524C56.7061 55.5557 56.6563 55.7258 56.5567 55.8627C56.4571 55.9996 56.3192 56.1023 56.1429 56.1708C55.9676 56.2403 55.7659 56.275 55.5377 56.275ZM55.5517 54.797C55.6585 54.797 55.7488 54.7706 55.8224 54.7177C55.8971 54.6638 55.9541 54.587 55.9935 54.4874C56.034 54.3868 56.0542 54.2665 56.0542 54.1265C56.0542 53.9865 56.0345 53.8651 55.9951 53.7625C55.9557 53.6587 55.8986 53.5784 55.824 53.5213C55.7493 53.4643 55.6585 53.4358 55.5517 53.4358C55.4428 53.4358 55.351 53.4653 55.2763 53.5244C55.2017 53.5825 55.1451 53.6634 55.1068 53.7671C55.0684 53.8708 55.0492 53.9906 55.0492 54.1265C55.0492 54.2644 55.0684 54.3837 55.1068 54.4843C55.1462 54.5839 55.2027 54.6612 55.2763 54.7161C55.351 54.7701 55.4428 54.797 55.5517 54.797ZM58.3132 55.3758C58.0715 55.3758 57.8625 55.3244 57.6862 55.2218C57.5109 55.118 57.3756 54.9739 57.2801 54.7893C57.1847 54.6036 57.137 54.3884 57.137 54.1436C57.137 53.8968 57.1847 53.681 57.2801 53.4964C57.3756 53.3108 57.5109 53.1666 57.6862 53.0639C57.8625 52.9602 58.0715 52.9084 58.3132 52.9084C58.5548 52.9084 58.7633 52.9602 58.9386 53.0639C59.1149 53.1666 59.2508 53.3108 59.3462 53.4964C59.4416 53.681 59.4893 53.8968 59.4893 54.1436C59.4893 54.3884 59.4416 54.6036 59.3462 54.7893C59.2508 54.9739 59.1149 55.118 58.9386 55.2218C58.7633 55.3244 58.5548 55.3758 58.3132 55.3758ZM58.3163 54.8624C58.4262 54.8624 58.518 54.8313 58.5916 54.769C58.6653 54.7058 58.7208 54.6197 58.7581 54.5108C58.7965 54.4019 58.8157 54.2779 58.8157 54.139C58.8157 54 58.7965 53.876 58.7581 53.7671C58.7208 53.6582 58.6653 53.5721 58.5916 53.5089C58.518 53.4456 58.4262 53.414 58.3163 53.414C58.2053 53.414 58.112 53.4456 58.0362 53.5089C57.9616 53.5721 57.905 53.6582 57.8667 53.7671C57.8293 53.876 57.8107 54 57.8107 54.139C57.8107 54.2779 57.8293 54.4019 57.8667 54.5108C57.905 54.6197 57.9616 54.7058 58.0362 54.769C58.112 54.8313 58.2053 54.8624 58.3163 54.8624Z" fill="white"/>
<rect x="81.4609" y="53.0186" width="18.4275" height="1.26" fill="#F0EEF5"/>
<rect x="106.188" y="53.0186" width="18.4275" height="1.26" fill="#F0EEF5"/>
<rect x="130.916" y="53.0186" width="18.4275" height="1.26" fill="#F0EEF5"/>
<rect x="155.644" y="53.0186" width="18.4275" height="1.26" fill="#F0EEF5"/>
<g clip-path="url(#clip4_3676_2437)">
<path d="M235.045 55.0658V54.1211H234.416V55.0658M235.833 53.299V54.3101C235.833 54.5746 235.833 54.7068 235.781 54.8079C235.736 54.8968 235.664 54.969 235.575 55.0143C235.474 55.0658 235.341 55.0658 235.077 55.0658H234.384C234.12 55.0658 233.987 55.0658 233.886 55.0143C233.797 54.969 233.725 54.8968 233.68 54.8079C233.628 54.7068 233.628 54.5746 233.628 54.3101V53.2989M236.147 53.6488L235.292 52.6985C235.097 52.4823 235 52.3743 234.886 52.3344C234.785 52.2993 234.676 52.2993 234.575 52.3344C234.46 52.3743 234.363 52.4824 234.169 52.6986L233.313 53.6488" stroke="black" stroke-width="0.314884" stroke-linecap="round" stroke-linejoin="round"/>
</g>
<g clip-path="url(#clip5_3676_2437)">
<path d="M242.918 52.8612C242.918 53.209 242.636 53.491 242.289 53.491C241.941 53.491 241.659 53.209 241.659 52.8612C241.659 52.5134 241.941 52.2314 242.289 52.2314C242.636 52.2314 242.918 52.5134 242.918 52.8612Z" stroke="black" stroke-width="0.314884" stroke-linecap="round" stroke-linejoin="round"/>
<path d="M242.289 53.9633C241.68 53.9633 241.187 54.4567 241.187 55.0654H243.391C243.391 54.4567 242.897 53.9633 242.289 53.9633Z" stroke="black" stroke-width="0.314884" stroke-linecap="round" stroke-linejoin="round"/>
</g>
<g clip-path="url(#clip6_3676_2437)">
<path d="M248.95 52.546H251.266L250.951 53.6485H249.12M251.108 54.2785H249.218L248.903 52.231H248.431M249.376 54.9085C249.376 54.9954 249.305 55.066 249.218 55.066C249.131 55.066 249.061 54.9954 249.061 54.9085C249.061 54.8215 249.131 54.751 249.218 54.751C249.305 54.751 249.376 54.8215 249.376 54.9085ZM251.108 54.9085C251.108 54.9954 251.038 55.066 250.951 55.066C250.864 55.066 250.793 54.9954 250.793 54.9085C250.793 54.8215 250.864 54.751 250.951 54.751C251.038 54.751 251.108 54.8215 251.108 54.9085Z" stroke="black" stroke-width="0.315" stroke-linecap="round" stroke-linejoin="round"/>
</g>
<g clip-path="url(#clip7_3676_2437)">
<path d="M257.403 53.7665C257.56 53.6091 257.718 53.5468 257.718 53.3729C257.718 53.199 257.577 53.058 257.403 53.058C257.256 53.058 257.133 53.1584 257.098 53.2942M257.403 54.2388H257.405M258.825 53.6484C258.825 54.431 258.191 55.0654 257.408 55.0654C256.626 55.0654 255.991 54.431 255.991 53.6484C255.991 52.8658 256.626 52.2314 257.408 52.2314C258.191 52.2314 258.825 52.8658 258.825 53.6484Z" stroke="black" stroke-width="0.314884" stroke-linecap="round"/>
</g>
<rect width="250.535" height="104.749" transform="translate(26.7324 60.8032)" fill="white"/>
<path d="M88.9937 79.7774C87.986 79.7774 87.4682 79.2819 87.4682 78.3465V78.135H88.3478V78.3465C88.3478 78.7084 88.5093 78.9979 88.9937 78.9979C89.478 78.9979 89.6395 78.7084 89.6395 78.3465V76.5928H88.153V75.8245H90.5191V78.3465C90.5191 79.2819 89.9958 79.7774 88.9937 79.7774ZM92.8134 79.7774C91.8837 79.7774 91.2156 79.2596 91.2156 78.3298C91.2156 77.4001 91.8837 76.8823 92.8023 76.8823C93.7153 76.8823 94.3834 77.4001 94.3834 78.3298C94.3834 78.43 94.3667 78.5414 94.3667 78.5414H92.0562C92.0562 78.8476 92.3012 79.1538 92.8134 79.1538C93.2866 79.1538 93.437 78.8754 93.437 78.8754H94.3166C94.3166 78.8754 94.1496 79.7774 92.8134 79.7774ZM92.0674 78.0514H93.5316C93.5316 77.8287 93.3145 77.5058 92.8023 77.5058C92.3012 77.5058 92.0674 77.8287 92.0674 78.0514ZM96.4159 80.8352V76.938H97.2176V77.3945H97.2566C97.2566 77.3945 97.5183 76.8823 98.242 76.8823C98.9769 76.8823 99.5893 77.4056 99.5893 78.3298C99.5893 79.254 98.9769 79.7774 98.242 79.7774C97.5405 79.7774 97.251 79.3821 97.251 79.3821H97.2176V80.8352H96.4159ZM97.9915 79.0647C98.4759 79.0647 98.7654 78.7474 98.7654 78.3298C98.7654 77.9123 98.4759 77.5949 97.9915 77.5949C97.5071 77.5949 97.2176 77.9123 97.2176 78.3298C97.2176 78.7641 97.5238 79.0647 97.9915 79.0647ZM100.26 79.7217V76.938H101.062V77.4502H101.106C101.106 77.4502 101.323 76.8823 102.075 76.8823C102.208 76.8823 102.353 76.9101 102.353 76.9101V77.7953C102.353 77.7953 102.175 77.7118 101.869 77.7118C101.329 77.7118 101.062 78.057 101.062 78.4913V79.7217H100.26ZM104.307 79.7774C103.388 79.7774 102.72 79.254 102.72 78.3298C102.72 77.4056 103.388 76.8823 104.307 76.8823C105.226 76.8823 105.894 77.4056 105.894 78.3298C105.894 79.254 105.226 79.7774 104.307 79.7774ZM104.307 79.087C104.797 79.087 105.07 78.7585 105.07 78.3298C105.07 77.9011 104.797 77.5726 104.307 77.5726C103.817 77.5726 103.544 77.9011 103.544 78.3298C103.544 78.7585 103.817 79.087 104.307 79.087ZM106.739 79.7217V77.6395H106.255V77.1885L106.739 76.9936V76.9046C106.739 76.1307 107.302 75.7688 108.059 75.7688C108.872 75.7688 109.345 76.1474 109.345 76.7487H108.543C108.543 76.7487 108.515 76.4369 108.059 76.4369C107.758 76.4369 107.541 76.5872 107.541 76.9602V76.9936H109.345V79.7217H108.543V77.6395H107.541V79.7217H106.739ZM111.509 79.7774C110.713 79.7774 110.278 79.4489 110.278 78.6694V77.5838H109.872V77.1217L110.646 76.3812H111.08V76.938H111.949V77.5838H111.08V78.5637C111.08 79.009 111.314 79.1093 111.626 79.1093C111.876 79.1093 112.032 79.009 112.032 79.009V79.6771C112.032 79.6771 111.826 79.7774 111.509 79.7774ZM113.963 79.7774C113.033 79.7774 112.365 79.2596 112.365 78.3298C112.365 77.4001 113.033 76.8823 113.952 76.8823C114.865 76.8823 115.533 77.4001 115.533 78.3298C115.533 78.43 115.516 78.5414 115.516 78.5414H113.206C113.206 78.8476 113.451 79.1538 113.963 79.1538C114.436 79.1538 114.587 78.8754 114.587 78.8754H115.466C115.466 78.8754 115.299 79.7774 113.963 79.7774ZM113.217 78.0514H114.681C114.681 77.8287 114.464 77.5058 113.952 77.5058C113.451 77.5058 113.217 77.8287 113.217 78.0514ZM118.802 79.7774C118.067 79.7774 117.454 79.254 117.454 78.3298C117.454 77.4056 118.067 76.8823 118.802 76.8823C119.503 76.8823 119.793 77.2776 119.793 77.2776H119.826V75.8245H120.628V79.7217H119.826V79.2651H119.787C119.787 79.2651 119.525 79.7774 118.802 79.7774ZM119.052 79.0647C119.537 79.0647 119.826 78.7474 119.826 78.3298C119.826 77.8956 119.52 77.5949 119.052 77.5949C118.568 77.5949 118.278 77.9123 118.278 78.3298C118.278 78.7474 118.568 79.0647 119.052 79.0647ZM122.896 79.7774C121.966 79.7774 121.298 79.2596 121.298 78.3298C121.298 77.4001 121.966 76.8823 122.885 76.8823C123.798 76.8823 124.466 77.4001 124.466 78.3298C124.466 78.43 124.449 78.5414 124.449 78.5414H122.139C122.139 78.8476 122.384 79.1538 122.896 79.1538C123.369 79.1538 123.52 78.8754 123.52 78.8754H124.399C124.399 78.8754 124.232 79.7774 122.896 79.7774ZM122.15 78.0514H123.614C123.614 77.8287 123.397 77.5058 122.885 77.5058C122.384 77.5058 122.15 77.8287 122.15 78.0514ZM126.499 79.7217V76.938H127.3V77.4001H127.339C127.339 77.4001 127.49 76.8823 128.174 76.8823C128.887 76.8823 129.06 77.4001 129.06 77.4001H129.099C129.099 77.4001 129.26 76.8823 129.928 76.8823C130.624 76.8823 131.03 77.2553 131.03 78.1016V79.7217H130.229V78.2797C130.229 77.9011 130.101 77.5949 129.7 77.5949C129.31 77.5949 129.165 77.8622 129.165 78.2574V79.7217H128.364V78.2797C128.364 77.9067 128.252 77.5949 127.835 77.5949C127.439 77.5949 127.3 77.8733 127.3 78.2797V79.7217H126.499ZM132.824 79.7774C132.206 79.7774 131.672 79.5157 131.672 78.9367C131.672 78.3298 132.251 78.0793 132.919 78.0793C133.548 78.0793 133.821 78.3131 133.821 78.3131V77.9067C133.821 77.7007 133.693 77.4836 133.231 77.4836C132.991 77.4836 132.635 77.5671 132.635 77.8343H131.811C131.817 77.1774 132.396 76.8823 133.231 76.8823C134.083 76.8823 134.623 77.2052 134.623 77.9067V78.7752C134.623 79.009 134.678 79.0759 134.806 79.0759C134.884 79.0759 134.923 79.0536 134.923 79.0536V79.7217C134.923 79.7217 134.823 79.7774 134.578 79.7774C134.033 79.7774 133.905 79.3876 133.905 79.3876H133.866C133.866 79.4043 133.648 79.7774 132.824 79.7774ZM133.153 79.1705C133.643 79.1705 133.821 78.9589 133.821 78.9589V78.7919C133.821 78.7919 133.66 78.6249 133.153 78.6249C132.797 78.6249 132.496 78.6806 132.496 78.8977C132.496 79.1204 132.797 79.1705 133.153 79.1705ZM138.081 79.7774C137.346 79.7774 136.734 79.254 136.734 78.3298C136.734 77.4056 137.346 76.8823 138.081 76.8823C138.783 76.8823 139.072 77.2776 139.072 77.2776H139.105V75.8245H139.907V79.7217H139.105V79.2651H139.067C139.067 79.2651 138.805 79.7774 138.081 79.7774ZM138.332 79.0647C138.816 79.0647 139.105 78.7474 139.105 78.3298C139.105 77.8956 138.799 77.5949 138.332 77.5949C137.847 77.5949 137.558 77.9123 137.558 78.3298C137.558 78.7474 137.847 79.0647 138.332 79.0647ZM142.164 79.7774C141.246 79.7774 140.578 79.254 140.578 78.3298C140.578 77.4056 141.246 76.8823 142.164 76.8823C143.083 76.8823 143.751 77.4056 143.751 78.3298C143.751 79.254 143.083 79.7774 142.164 79.7774ZM142.164 79.087C142.654 79.087 142.927 78.7585 142.927 78.3298C142.927 77.9011 142.654 77.5726 142.164 77.5726C141.674 77.5726 141.402 77.9011 141.402 78.3298C141.402 78.7585 141.674 79.087 142.164 79.087ZM145.805 79.7774C145.009 79.7774 144.575 79.4489 144.575 78.6694V77.5838H144.168V77.1217L144.942 76.3812H145.376V76.938H146.245V77.5838H145.376V78.5637C145.376 79.009 145.61 79.1093 145.922 79.1093C146.173 79.1093 146.328 79.009 146.328 79.009V79.6771C146.328 79.6771 146.122 79.7774 145.805 79.7774ZM147.874 79.7774C147.256 79.7774 146.721 79.5157 146.721 78.9367C146.721 78.3298 147.3 78.0793 147.969 78.0793C148.598 78.0793 148.87 78.3131 148.87 78.3131V77.9067C148.87 77.7007 148.742 77.4836 148.28 77.4836C148.041 77.4836 147.685 77.5671 147.685 77.8343H146.861C146.866 77.1774 147.445 76.8823 148.28 76.8823C149.132 76.8823 149.672 77.2052 149.672 77.9067V78.7752C149.672 79.009 149.728 79.0759 149.856 79.0759C149.934 79.0759 149.973 79.0536 149.973 79.0536V79.7217C149.973 79.7217 149.873 79.7774 149.628 79.7774C149.082 79.7774 148.954 79.3876 148.954 79.3876H148.915C148.915 79.4043 148.698 79.7774 147.874 79.7774ZM148.202 79.1705C148.692 79.1705 148.87 78.9589 148.87 78.9589V78.7919C148.87 78.7919 148.709 78.6249 148.202 78.6249C147.846 78.6249 147.545 78.6806 147.545 78.8977C147.545 79.1204 147.846 79.1705 148.202 79.1705ZM151.862 79.7774C151.066 79.7774 150.631 79.4489 150.631 78.6694V77.5838H150.225V77.1217L150.999 76.3812H151.433V76.938H152.302V77.5838H151.433V78.5637C151.433 79.009 151.667 79.1093 151.979 79.1093C152.229 79.1093 152.385 79.009 152.385 79.009V79.6771C152.385 79.6771 152.179 79.7774 151.862 79.7774ZM152.998 79.7217V76.938H153.8V79.7217H152.998ZM153.399 76.5037C153.126 76.5037 152.954 76.3589 152.954 76.1362C152.954 75.9135 153.126 75.7688 153.399 75.7688C153.672 75.7688 153.845 75.9135 153.845 76.1362C153.845 76.3589 153.672 76.5037 153.399 76.5037ZM156.056 79.7774C155.137 79.7774 154.469 79.254 154.469 78.3298C154.469 77.4056 155.137 76.8823 156.056 76.8823C156.974 76.8823 157.643 77.4056 157.643 78.3298C157.643 79.254 156.974 79.7774 156.056 79.7774ZM156.056 79.087C156.546 79.087 156.819 78.7585 156.819 78.3298C156.819 77.9011 156.546 77.5726 156.056 77.5726C155.566 77.5726 155.293 77.9011 155.293 78.3298C155.293 78.7585 155.566 79.087 156.056 79.087ZM158.31 79.7217V76.938H159.112V77.4001H159.156C159.156 77.4001 159.374 76.8823 160.159 76.8823C160.816 76.8823 161.328 77.2497 161.328 78.096V79.7217H160.526V78.3187C160.526 77.8343 160.242 77.5949 159.819 77.5949C159.351 77.5949 159.112 77.9011 159.112 78.3187V79.7217H158.31ZM164.723 79.7774C163.855 79.7774 163.276 79.5268 163.276 78.8309V78.7418H164.1V78.8309C164.1 79.087 164.295 79.1816 164.723 79.1816C165.174 79.1816 165.358 79.087 165.358 78.8977C165.358 78.3632 163.331 78.9311 163.331 77.7285C163.331 77.1662 163.86 76.8823 164.69 76.8823C165.53 76.8823 166.054 77.1607 166.054 77.8009H165.23C165.23 77.6673 165.213 77.478 164.673 77.478C164.289 77.478 164.155 77.5893 164.155 77.7341C164.155 78.2018 166.182 77.6673 166.182 78.8866C166.182 79.5268 165.603 79.7774 164.723 79.7774ZM168.278 79.7774C167.349 79.7774 166.681 79.2596 166.681 78.3298C166.681 77.4001 167.349 76.8823 168.267 76.8823C169.18 76.8823 169.848 77.4001 169.848 78.3298C169.848 78.43 169.832 78.5414 169.832 78.5414H167.521C167.521 78.8476 167.766 79.1538 168.278 79.1538C168.752 79.1538 168.902 78.8754 168.902 78.8754H169.782C169.782 78.8754 169.615 79.7774 168.278 79.7774ZM167.532 78.0514H168.997C168.997 77.8287 168.779 77.5058 168.267 77.5058C167.766 77.5058 167.532 77.8287 167.532 78.0514ZM170.516 79.7217V75.8245H171.318V79.7217H170.516ZM173.574 79.7774C172.655 79.7774 171.987 79.254 171.987 78.3298C171.987 77.4056 172.655 76.8823 173.574 76.8823C174.492 76.8823 175.16 77.4056 175.16 78.3298C175.16 79.254 174.492 79.7774 173.574 79.7774ZM173.574 79.087C174.064 79.087 174.336 78.7585 174.336 78.3298C174.336 77.9011 174.064 77.5726 173.574 77.5726C173.084 77.5726 172.811 77.9011 172.811 78.3298C172.811 78.7585 173.084 79.087 173.574 79.087ZM175.828 79.7217V76.938H176.63V77.4001H176.674C176.674 77.4001 176.891 76.8823 177.676 76.8823C178.333 76.8823 178.846 77.2497 178.846 78.096V79.7217H178.044V78.3187C178.044 77.8343 177.76 77.5949 177.337 77.5949C176.869 77.5949 176.63 77.9011 176.63 78.3187V79.7217H175.828ZM180.961 79.7217V76.938H181.762V77.4001H181.801C181.801 77.4001 181.952 76.8823 182.636 76.8823C183.349 76.8823 183.522 77.4001 183.522 77.4001H183.561C183.561 77.4001 183.722 76.8823 184.39 76.8823C185.086 76.8823 185.492 77.2553 185.492 78.1016V79.7217H184.691V78.2797C184.691 77.9011 184.563 77.5949 184.162 77.5949C183.772 77.5949 183.627 77.8622 183.627 78.2574V79.7217H182.826V78.2797C182.826 77.9067 182.714 77.5949 182.297 77.5949C181.901 77.5949 181.762 77.8733 181.762 78.2797V79.7217H180.961ZM187.732 79.7774C186.802 79.7774 186.134 79.2596 186.134 78.3298C186.134 77.4001 186.802 76.8823 187.721 76.8823C188.634 76.8823 189.302 77.4001 189.302 78.3298C189.302 78.43 189.285 78.5414 189.285 78.5414H186.975C186.975 78.8476 187.22 79.1538 187.732 79.1538C188.205 79.1538 188.355 78.8754 188.355 78.8754H189.235C189.235 78.8754 189.068 79.7774 187.732 79.7774ZM186.986 78.0514H188.45C188.45 77.8287 188.233 77.5058 187.721 77.5058C187.22 77.5058 186.986 77.8287 186.986 78.0514ZM191.25 79.7774C190.382 79.7774 189.803 79.5268 189.803 78.8309V78.7418H190.627V78.8309C190.627 79.087 190.821 79.1816 191.25 79.1816C191.701 79.1816 191.885 79.087 191.885 78.8977C191.885 78.3632 189.858 78.9311 189.858 77.7285C189.858 77.1662 190.387 76.8823 191.217 76.8823C192.057 76.8823 192.581 77.1607 192.581 77.8009H191.757C191.757 77.6673 191.74 77.478 191.2 77.478C190.816 77.478 190.682 77.5893 190.682 77.7341C190.682 78.2018 192.709 77.6673 192.709 78.8866C192.709 79.5268 192.13 79.7774 191.25 79.7774ZM196.17 79.7774C195.24 79.7774 194.572 79.2596 194.572 78.3298C194.572 77.4001 195.24 76.8823 196.159 76.8823C197.072 76.8823 197.74 77.4001 197.74 78.3298C197.74 78.43 197.723 78.5414 197.723 78.5414H195.413C195.413 78.8476 195.658 79.1538 196.17 79.1538C196.643 79.1538 196.794 78.8754 196.794 78.8754H197.673C197.673 78.8754 197.506 79.7774 196.17 79.7774ZM195.424 78.0514H196.888C196.888 77.8287 196.671 77.5058 196.159 77.5058C195.658 77.5058 195.424 77.8287 195.424 78.0514ZM198.408 79.7217V76.938H199.209V77.4001H199.254C199.254 77.4001 199.471 76.8823 200.256 76.8823C200.913 76.8823 201.425 77.2497 201.425 78.096V79.7217H200.624V78.3187C200.624 77.8343 200.34 77.5949 199.917 77.5949C199.449 77.5949 199.209 77.9011 199.209 78.3187V79.7217H198.408ZM202.724 79.7217L201.705 76.938H202.562L203.292 79.0425H203.331L204.06 76.938H204.917L203.899 79.7217H202.724ZM205.334 79.7217V76.938H206.136V79.7217H205.334ZM205.735 76.5037C205.463 76.5037 205.29 76.3589 205.29 76.1362C205.29 75.9135 205.463 75.7688 205.735 75.7688C206.008 75.7688 206.181 75.9135 206.181 76.1362C206.181 76.3589 206.008 76.5037 205.735 76.5037ZM208.403 79.7774C207.473 79.7774 206.805 79.2596 206.805 78.3298C206.805 77.4001 207.473 76.8823 208.392 76.8823C209.305 76.8823 209.973 77.4001 209.973 78.3298C209.973 78.43 209.956 78.5414 209.956 78.5414H207.646C207.646 78.8476 207.891 79.1538 208.403 79.1538C208.876 79.1538 209.027 78.8754 209.027 78.8754H209.906C209.906 78.8754 209.739 79.7774 208.403 79.7774ZM207.657 78.0514H209.121C209.121 77.8287 208.904 77.5058 208.392 77.5058C207.891 77.5058 207.657 77.8287 207.657 78.0514ZM211.921 79.7774C211.053 79.7774 210.474 79.5268 210.474 78.8309V78.7418H211.298V78.8309C211.298 79.087 211.493 79.1816 211.921 79.1816C212.372 79.1816 212.556 79.087 212.556 78.8977C212.556 78.3632 210.53 78.9311 210.53 77.7285C210.53 77.1662 211.059 76.8823 211.888 76.8823C212.729 76.8823 213.252 77.1607 213.252 77.8009H212.428C212.428 77.6673 212.411 77.478 211.871 77.478C211.487 77.478 211.354 77.5893 211.354 77.7341C211.354 78.2018 213.38 77.6673 213.38 78.8866C213.38 79.5268 212.801 79.7774 211.921 79.7774ZM215.861 79.7774C215.577 79.7774 215.388 79.6048 215.388 79.332C215.388 79.0592 215.577 78.8866 215.861 78.8866C216.145 78.8866 216.335 79.0592 216.335 79.332C216.335 79.6048 216.145 79.7774 215.861 79.7774ZM215.522 78.469L215.383 76.6039V75.8245H216.318V76.6039L216.201 78.469H215.522Z" fill="#221C46"/>
<g filter="url(#filter1_d_3676_2437)">
<g clip-path="url(#clip8_3676_2437)">
<rect x="62.2246" y="86.2891" width="57.0663" height="65.3442" fill="white"/>
<rect width="57.0663" height="33.0567" transform="translate(62.2246 86.2891)" fill="#F0EEF5"/>
<path d="M76.5102 127.125V124.203H77.934C78.598 124.203 78.9028 124.482 78.9028 124.975C78.9028 125.455 78.4643 125.576 78.4643 125.576V125.606C78.4643 125.606 79.0489 125.693 79.0489 126.307C79.0489 126.913 78.6898 127.125 77.8631 127.125H76.5102ZM77.1699 126.604H77.8923C78.2305 126.604 78.36 126.453 78.36 126.24C78.36 126.011 78.2096 125.873 77.8923 125.873H77.1699V126.604ZM77.1699 125.405H77.8088C78.0635 125.405 78.2138 125.297 78.2138 125.063C78.2138 124.85 78.0844 124.725 77.8088 124.725H77.1699V125.405ZM80.6781 127.167C79.9891 127.167 79.488 126.775 79.488 126.082C79.488 125.388 79.9891 124.996 80.6781 124.996C81.3671 124.996 81.8681 125.388 81.8681 126.082C81.8681 126.775 81.3671 127.167 80.6781 127.167ZM80.6781 126.649C81.0455 126.649 81.2501 126.403 81.2501 126.082C81.2501 125.76 81.0455 125.514 80.6781 125.514C80.3106 125.514 80.106 125.76 80.106 126.082C80.106 126.403 80.3106 126.649 80.6781 126.649ZM82.3689 127.125V125.038H82.9702V125.384H83.0036C83.0036 125.384 83.1664 124.996 83.7552 124.996C84.2479 124.996 84.632 125.272 84.632 125.906V127.125H84.0308V126.073C84.0308 125.71 83.8178 125.53 83.5005 125.53C83.1497 125.53 82.9702 125.76 82.9702 126.073V127.125H82.3689ZM86.1551 127.167C85.5037 127.167 85.0695 126.979 85.0695 126.457V126.391H85.6874V126.457C85.6874 126.649 85.8336 126.72 86.1551 126.72C86.4933 126.72 86.6311 126.649 86.6311 126.508C86.6311 126.107 85.1112 126.533 85.1112 125.631C85.1112 125.209 85.5079 124.996 86.1301 124.996C86.7606 124.996 87.1531 125.205 87.1531 125.685H86.5351C86.5351 125.585 86.5226 125.443 86.1175 125.443C85.8294 125.443 85.7292 125.526 85.7292 125.635C85.7292 125.986 87.2491 125.585 87.2491 126.499C87.2491 126.979 86.8149 127.167 86.1551 127.167ZM89.6571 127.167C89.1059 127.167 88.6466 126.775 88.6466 126.082C88.6466 125.388 89.1059 124.996 89.6571 124.996C90.1832 124.996 90.4003 125.292 90.4003 125.292H90.4254V124.203H91.0267V127.125H90.4254V126.783H90.3962C90.3962 126.783 90.1999 127.167 89.6571 127.167ZM89.845 126.633C90.2083 126.633 90.4254 126.395 90.4254 126.082C90.4254 125.756 90.1957 125.53 89.845 125.53C89.4817 125.53 89.2646 125.768 89.2646 126.082C89.2646 126.395 89.4817 126.633 89.845 126.633ZM91.8051 125.326V125.017C91.8051 124.67 91.4878 124.929 91.4878 124.495C91.4878 124.294 91.6256 124.161 91.8427 124.161C92.0807 124.161 92.1935 124.286 92.1976 124.574C92.1976 125.059 92.0181 125.326 91.8051 125.326ZM93.4378 127.167C92.9743 127.167 92.5734 126.971 92.5734 126.537C92.5734 126.082 93.0077 125.894 93.5088 125.894C93.9806 125.894 94.1852 126.069 94.1852 126.069V125.764C94.1852 125.61 94.0892 125.447 93.7426 125.447C93.5631 125.447 93.2958 125.51 93.2958 125.71H92.6778C92.682 125.217 93.1163 124.996 93.7426 124.996C94.3815 124.996 94.7865 125.238 94.7865 125.764V126.416C94.7865 126.591 94.8283 126.641 94.9243 126.641C94.9828 126.641 95.012 126.624 95.012 126.624V127.125C95.012 127.125 94.9368 127.167 94.7531 127.167C94.3439 127.167 94.2479 126.875 94.2479 126.875H94.2186C94.2186 126.887 94.0558 127.167 93.4378 127.167ZM93.6842 126.712C94.0516 126.712 94.1852 126.553 94.1852 126.553V126.428C94.1852 126.428 94.0641 126.303 93.6842 126.303C93.4169 126.303 93.1914 126.345 93.1914 126.508C93.1914 126.675 93.4169 126.712 93.6842 126.712ZM96.5363 127.167C95.8474 127.167 95.3463 126.775 95.3463 126.082C95.3463 125.388 95.8474 124.996 96.5363 124.996C97.3631 124.996 97.7013 125.56 97.7013 125.894H97.0833C97.0833 125.894 97.004 125.514 96.5363 125.514C96.1689 125.514 95.9643 125.76 95.9643 126.082C95.9643 126.403 96.1689 126.649 96.5363 126.649C97.004 126.649 97.0833 126.269 97.0833 126.269H97.7013C97.7013 126.604 97.3631 127.167 96.5363 127.167ZM98.1823 127.125V124.203H98.7835V125.384H98.817C98.817 125.384 98.9798 124.996 99.5686 124.996C100.061 124.996 100.445 125.272 100.445 125.906V127.125H99.8441V126.073C99.8441 125.71 99.6312 125.53 99.3138 125.53C98.9631 125.53 98.7835 125.76 98.7835 126.073V127.125H98.1823ZM101.789 127.167C101.325 127.167 100.925 126.971 100.925 126.537C100.925 126.082 101.359 125.894 101.86 125.894C102.332 125.894 102.536 126.069 102.536 126.069V125.764C102.536 125.61 102.44 125.447 102.094 125.447C101.914 125.447 101.647 125.51 101.647 125.71H101.029C101.033 125.217 101.467 124.996 102.094 124.996C102.733 124.996 103.138 125.238 103.138 125.764V126.416C103.138 126.591 103.179 126.641 103.275 126.641C103.334 126.641 103.363 126.624 103.363 126.624V127.125C103.363 127.125 103.288 127.167 103.104 127.167C102.695 127.167 102.599 126.875 102.599 126.875H102.57C102.57 126.887 102.407 127.167 101.789 127.167ZM102.035 126.712C102.403 126.712 102.536 126.553 102.536 126.553V126.428C102.536 126.428 102.415 126.303 102.035 126.303C101.768 126.303 101.543 126.345 101.543 126.508C101.543 126.675 101.768 126.712 102.035 126.712ZM104.78 127.167C104.183 127.167 103.857 126.921 103.857 126.336V125.522H103.552V125.175L104.133 124.62H104.458V125.038H105.11V125.522H104.458V126.257C104.458 126.591 104.634 126.666 104.868 126.666C105.056 126.666 105.172 126.591 105.172 126.591V127.092C105.172 127.092 105.018 127.167 104.78 127.167Z" fill="#221C46"/>
<rect x="66.3457" y="130.778" width="48.825" height="1.26" fill="#F0EEF5"/>
<rect x="74.3779" y="133.456" width="32.76" height="1.26" fill="#F0EEF5"/>
<rect width="34.6098" height="9.04377" transform="translate(73.4531 138.891)" fill="#D1CFD7"/>
</g>
<rect x="62.1376" y="86.2021" width="57.2403" height="65.5182" stroke="#E5E5E5" stroke-width="0.173983"/>
</g>
<g filter="url(#filter2_d_3676_2437)">
<g clip-path="url(#clip9_3676_2437)">
<rect x="123.467" y="86.2891" width="57.0663" height="65.3442" fill="white"/>
<rect width="57.0663" height="33.0567" transform="translate(123.467 86.2891)" fill="#F0EEF5"/>
<path d="M136.008 127.167C135.077 127.167 134.492 126.587 134.492 125.664C134.492 124.741 135.077 124.161 136.008 124.161C136.914 124.161 137.49 124.687 137.49 125.363H136.785C136.785 125.363 136.718 124.745 136.008 124.745C135.465 124.745 135.181 125.15 135.181 125.664C135.181 126.178 135.465 126.583 136.008 126.583C136.718 126.583 136.785 125.965 136.785 125.965H137.49C137.49 126.641 136.914 127.167 136.008 127.167ZM138.793 127.167C138.33 127.167 137.929 126.971 137.929 126.537C137.929 126.082 138.363 125.894 138.864 125.894C139.336 125.894 139.541 126.069 139.541 126.069V125.764C139.541 125.61 139.445 125.447 139.098 125.447C138.918 125.447 138.651 125.51 138.651 125.71H138.033C138.037 125.217 138.472 124.996 139.098 124.996C139.737 124.996 140.142 125.238 140.142 125.764V126.416C140.142 126.591 140.184 126.641 140.28 126.641C140.338 126.641 140.367 126.624 140.367 126.624V127.125C140.367 127.125 140.292 127.167 140.108 127.167C139.699 127.167 139.603 126.875 139.603 126.875H139.574C139.574 126.887 139.411 127.167 138.793 127.167ZM139.04 126.712C139.407 126.712 139.541 126.553 139.541 126.553V126.428C139.541 126.428 139.42 126.303 139.04 126.303C138.772 126.303 138.547 126.345 138.547 126.508C138.547 126.675 138.772 126.712 139.04 126.712ZM140.785 127.125V125.038H141.386V125.422H141.42C141.42 125.422 141.583 124.996 142.146 124.996C142.247 124.996 142.355 125.017 142.355 125.017V125.681C142.355 125.681 142.222 125.618 141.992 125.618C141.587 125.618 141.386 125.877 141.386 126.203V127.125H140.785ZM143.835 127.167C143.238 127.167 142.912 126.921 142.912 126.336V125.522H142.608V125.175L143.188 124.62H143.514V125.038H144.165V125.522H143.514V126.257C143.514 126.591 143.689 126.666 143.923 126.666C144.111 126.666 144.228 126.591 144.228 126.591V127.092C144.228 127.092 144.073 127.167 143.835 127.167ZM145.676 127.167C144.979 127.167 144.478 126.779 144.478 126.082C144.478 125.384 144.979 124.996 145.668 124.996C146.352 124.996 146.854 125.384 146.854 126.082C146.854 126.157 146.841 126.24 146.841 126.24H145.108C145.108 126.47 145.292 126.7 145.676 126.7C146.031 126.7 146.144 126.491 146.144 126.491H146.803C146.803 126.491 146.678 127.167 145.676 127.167ZM145.117 125.873H146.215C146.215 125.706 146.052 125.464 145.668 125.464C145.292 125.464 145.117 125.706 145.117 125.873ZM148.315 127.167C147.663 127.167 147.229 126.979 147.229 126.457V126.391H147.847V126.457C147.847 126.649 147.993 126.72 148.315 126.72C148.653 126.72 148.791 126.649 148.791 126.508C148.791 126.107 147.271 126.533 147.271 125.631C147.271 125.209 147.668 124.996 148.29 124.996C148.92 124.996 149.313 125.205 149.313 125.685H148.695C148.695 125.585 148.682 125.443 148.277 125.443C147.989 125.443 147.889 125.526 147.889 125.635C147.889 125.986 149.409 125.585 149.409 126.499C149.409 126.979 148.975 127.167 148.315 127.167ZM151.996 127.167C151.307 127.167 150.806 126.775 150.806 126.082C150.806 125.388 151.307 124.996 151.996 124.996C152.823 124.996 153.161 125.56 153.161 125.894H152.543C152.543 125.894 152.464 125.514 151.996 125.514C151.629 125.514 151.424 125.76 151.424 126.082C151.424 126.403 151.629 126.649 151.996 126.649C152.464 126.649 152.543 126.269 152.543 126.269H153.161C153.161 126.604 152.823 127.167 151.996 127.167ZM154.423 127.167C153.96 127.167 153.559 126.971 153.559 126.537C153.559 126.082 153.993 125.894 154.494 125.894C154.966 125.894 155.171 126.069 155.171 126.069V125.764C155.171 125.61 155.074 125.447 154.728 125.447C154.548 125.447 154.281 125.51 154.281 125.71H153.663C153.667 125.217 154.102 124.996 154.728 124.996C155.367 124.996 155.772 125.238 155.772 125.764V126.416C155.772 126.591 155.814 126.641 155.91 126.641C155.968 126.641 155.997 126.624 155.997 126.624V127.125C155.997 127.125 155.922 127.167 155.738 127.167C155.329 127.167 155.233 126.875 155.233 126.875H155.204C155.204 126.887 155.041 127.167 154.423 127.167ZM154.669 126.712C155.037 126.712 155.171 126.553 155.171 126.553V126.428C155.171 126.428 155.049 126.303 154.669 126.303C154.402 126.303 154.177 126.345 154.177 126.508C154.177 126.675 154.402 126.712 154.669 126.712ZM157.342 127.167C156.791 127.167 156.332 126.775 156.332 126.082C156.332 125.388 156.791 124.996 157.342 124.996C157.868 124.996 158.085 125.292 158.085 125.292H158.11V124.203H158.712V127.125H158.11V126.783H158.081C158.081 126.783 157.885 127.167 157.342 127.167ZM157.53 126.633C157.893 126.633 158.11 126.395 158.11 126.082C158.11 125.756 157.881 125.53 157.53 125.53C157.167 125.53 156.95 125.768 156.95 126.082C156.95 126.395 157.167 126.633 157.53 126.633ZM160.413 127.167C159.716 127.167 159.215 126.779 159.215 126.082C159.215 125.384 159.716 124.996 160.405 124.996C161.089 124.996 161.59 125.384 161.59 126.082C161.59 126.157 161.578 126.24 161.578 126.24H159.845C159.845 126.47 160.029 126.7 160.413 126.7C160.768 126.7 160.881 126.491 160.881 126.491H161.54C161.54 126.491 161.415 127.167 160.413 127.167ZM159.853 125.873H160.952C160.952 125.706 160.789 125.464 160.405 125.464C160.029 125.464 159.853 125.706 159.853 125.873ZM162.872 127.167C162.409 127.167 162.008 126.971 162.008 126.537C162.008 126.082 162.442 125.894 162.943 125.894C163.415 125.894 163.62 126.069 163.62 126.069V125.764C163.62 125.61 163.524 125.447 163.177 125.447C162.997 125.447 162.73 125.51 162.73 125.71H162.112C162.116 125.217 162.551 124.996 163.177 124.996C163.816 124.996 164.221 125.238 164.221 125.764V126.416C164.221 126.591 164.263 126.641 164.359 126.641C164.417 126.641 164.446 126.624 164.446 126.624V127.125C164.446 127.125 164.371 127.167 164.187 127.167C163.778 127.167 163.682 126.875 163.682 126.875H163.653C163.653 126.887 163.49 127.167 162.872 127.167ZM163.118 126.712C163.486 126.712 163.62 126.553 163.62 126.553V126.428C163.62 126.428 163.498 126.303 163.118 126.303C162.851 126.303 162.626 126.345 162.626 126.508C162.626 126.675 162.851 126.712 163.118 126.712ZM165.741 127.167C165.248 127.167 164.864 126.892 164.864 126.257V125.038H165.465V126.09C165.465 126.453 165.678 126.633 165.996 126.633C166.346 126.633 166.526 126.403 166.526 126.09V125.038H167.127V127.125H166.526V126.779H166.493C166.493 126.779 166.33 127.167 165.741 127.167ZM167.397 127.125L168.17 126.04L167.489 125.038H168.174L168.583 125.702H168.596L169.005 125.038H169.69L169.009 126.04L169.781 127.125H169.084L168.596 126.395H168.583L168.095 127.125H167.397Z" fill="#221C46"/>
<rect x="127.588" y="130.778" width="48.825" height="1.26" fill="#F0EEF5"/>
<rect x="135.62" y="133.456" width="32.76" height="1.26" fill="#F0EEF5"/>
<rect width="34.6098" height="9.04377" transform="translate(134.695 138.891)" fill="#D1CFD7"/>
</g>
<rect x="123.38" y="86.2021" width="57.2403" height="65.5182" stroke="#E5E5E5" stroke-width="0.173983"/>
</g>
<g filter="url(#filter3_d_3676_2437)">
<g clip-path="url(#clip10_3676_2437)">
<rect x="184.708" y="86.2891" width="57.0663" height="65.3442" fill="white"/>
<rect width="57.0663" height="33.0567" transform="translate(184.708 86.2891)" fill="#F0EEF5"/>
<path d="M194.85 127.167C193.918 127.167 193.334 126.587 193.334 125.664C193.334 124.741 193.918 124.161 194.85 124.161C195.756 124.161 196.332 124.687 196.332 125.363H195.626C195.626 125.363 195.559 124.745 194.85 124.745C194.307 124.745 194.023 125.15 194.023 125.664C194.023 126.178 194.307 126.583 194.85 126.583C195.559 126.583 195.626 125.965 195.626 125.965H196.332C196.332 126.641 195.756 127.167 194.85 127.167ZM196.854 127.125V124.203H197.455V125.384H197.489C197.489 125.384 197.651 124.996 198.24 124.996C198.733 124.996 199.117 125.272 199.117 125.906V127.125H198.516V126.073C198.516 125.71 198.303 125.53 197.985 125.53C197.635 125.53 197.455 125.76 197.455 126.073V127.125H196.854ZM200.795 127.167C200.097 127.167 199.596 126.779 199.596 126.082C199.596 125.384 200.097 124.996 200.786 124.996C201.471 124.996 201.972 125.384 201.972 126.082C201.972 126.157 201.96 126.24 201.96 126.24H200.227C200.227 126.47 200.41 126.7 200.795 126.7C201.149 126.7 201.262 126.491 201.262 126.491H201.922C201.922 126.491 201.797 127.167 200.795 127.167ZM200.235 125.873H201.333C201.333 125.706 201.17 125.464 200.786 125.464C200.41 125.464 200.235 125.706 200.235 125.873ZM200.565 124.662L199.692 123.994H200.448L201.074 124.662H200.565ZM204.168 127.961V126.871H204.143C204.143 126.871 203.926 127.167 203.4 127.167C202.849 127.167 202.389 126.775 202.389 126.082C202.389 125.388 202.849 124.996 203.4 124.996C203.943 124.996 204.139 125.38 204.139 125.38H204.168V125.038H204.769V127.961H204.168ZM203.588 126.633C203.939 126.633 204.168 126.407 204.168 126.082C204.168 125.768 203.951 125.53 203.588 125.53C203.225 125.53 203.007 125.768 203.007 126.082C203.007 126.395 203.225 126.633 203.588 126.633ZM206.233 127.167C205.74 127.167 205.356 126.892 205.356 126.257V125.038H205.957V126.09C205.957 126.453 206.17 126.633 206.487 126.633C206.838 126.633 207.018 126.403 207.018 126.09V125.038H207.619V127.125H207.018V126.779H206.984C206.984 126.779 206.822 127.167 206.233 127.167ZM209.317 127.167C208.62 127.167 208.119 126.779 208.119 126.082C208.119 125.384 208.62 124.996 209.309 124.996C209.993 124.996 210.495 125.384 210.495 126.082C210.495 126.157 210.482 126.24 210.482 126.24H208.749C208.749 126.47 208.933 126.7 209.317 126.7C209.672 126.7 209.785 126.491 209.785 126.491H210.444C210.444 126.491 210.319 127.167 209.317 127.167ZM208.757 125.873H209.856C209.856 125.706 209.693 125.464 209.309 125.464C208.933 125.464 208.757 125.706 208.757 125.873ZM211.956 127.167C211.304 127.167 210.87 126.979 210.87 126.457V126.391H211.488V126.457C211.488 126.649 211.634 126.72 211.956 126.72C212.294 126.72 212.432 126.649 212.432 126.508C212.432 126.107 210.912 126.533 210.912 125.631C210.912 125.209 211.309 124.996 211.931 124.996C212.561 124.996 212.954 125.205 212.954 125.685H212.336C212.336 125.585 212.323 125.443 211.918 125.443C211.63 125.443 211.53 125.526 211.53 125.635C211.53 125.986 213.05 125.585 213.05 126.499C213.05 126.979 212.615 127.167 211.956 127.167ZM215.637 127.167C214.948 127.167 214.447 126.775 214.447 126.082C214.447 125.388 214.948 124.996 215.637 124.996C216.464 124.996 216.802 125.56 216.802 125.894H216.184C216.184 125.894 216.105 125.514 215.637 125.514C215.27 125.514 215.065 125.76 215.065 126.082C215.065 126.403 215.27 126.649 215.637 126.649C216.105 126.649 216.184 126.269 216.184 126.269H216.802C216.802 126.604 216.464 127.167 215.637 127.167ZM218.064 127.167C217.601 127.167 217.2 126.971 217.2 126.537C217.2 126.082 217.634 125.894 218.135 125.894C218.607 125.894 218.811 126.069 218.811 126.069V125.764C218.811 125.61 218.715 125.447 218.369 125.447C218.189 125.447 217.922 125.51 217.922 125.71H217.304C217.308 125.217 217.743 124.996 218.369 124.996C219.008 124.996 219.413 125.238 219.413 125.764V126.416C219.413 126.591 219.454 126.641 219.551 126.641C219.609 126.641 219.638 126.624 219.638 126.624V127.125C219.638 127.125 219.563 127.167 219.379 127.167C218.97 127.167 218.874 126.875 218.874 126.875H218.845C218.845 126.887 218.682 127.167 218.064 127.167ZM218.31 126.712C218.678 126.712 218.811 126.553 218.811 126.553V126.428C218.811 126.428 218.69 126.303 218.31 126.303C218.043 126.303 217.818 126.345 217.818 126.508C217.818 126.675 218.043 126.712 218.31 126.712ZM220.983 127.167C220.432 127.167 219.973 126.775 219.973 126.082C219.973 125.388 220.432 124.996 220.983 124.996C221.509 124.996 221.726 125.292 221.726 125.292H221.751V124.203H222.353V127.125H221.751V126.783H221.722C221.722 126.783 221.526 127.167 220.983 127.167ZM221.171 126.633C221.534 126.633 221.751 126.395 221.751 126.082C221.751 125.756 221.522 125.53 221.171 125.53C220.808 125.53 220.591 125.768 220.591 126.082C220.591 126.395 220.808 126.633 221.171 126.633ZM224.054 127.167C223.357 127.167 222.855 126.779 222.855 126.082C222.855 125.384 223.357 124.996 224.046 124.996C224.73 124.996 225.231 125.384 225.231 126.082C225.231 126.157 225.219 126.24 225.219 126.24H223.486C223.486 126.47 223.67 126.7 224.054 126.7C224.409 126.7 224.522 126.491 224.522 126.491H225.181C225.181 126.491 225.056 127.167 224.054 127.167ZM223.494 125.873H224.593C224.593 125.706 224.43 125.464 224.046 125.464C223.67 125.464 223.494 125.706 223.494 125.873ZM226.513 127.167C226.05 127.167 225.649 126.971 225.649 126.537C225.649 126.082 226.083 125.894 226.584 125.894C227.056 125.894 227.26 126.069 227.26 126.069V125.764C227.26 125.61 227.164 125.447 226.818 125.447C226.638 125.447 226.371 125.51 226.371 125.71H225.753C225.757 125.217 226.192 124.996 226.818 124.996C227.457 124.996 227.862 125.238 227.862 125.764V126.416C227.862 126.591 227.904 126.641 228 126.641C228.058 126.641 228.087 126.624 228.087 126.624V127.125C228.087 127.125 228.012 127.167 227.828 127.167C227.419 127.167 227.323 126.875 227.323 126.875H227.294C227.294 126.887 227.131 127.167 226.513 127.167ZM226.759 126.712C227.127 126.712 227.26 126.553 227.26 126.553V126.428C227.26 126.428 227.139 126.303 226.759 126.303C226.492 126.303 226.267 126.345 226.267 126.508C226.267 126.675 226.492 126.712 226.759 126.712ZM229.382 127.167C228.889 127.167 228.505 126.892 228.505 126.257V125.038H229.106V126.09C229.106 126.453 229.319 126.633 229.637 126.633C229.987 126.633 230.167 126.403 230.167 126.09V125.038H230.768V127.125H230.167V126.779H230.134C230.134 126.779 229.971 127.167 229.382 127.167ZM231.038 127.125L231.811 126.04L231.13 125.038H231.815L232.224 125.702H232.237L232.646 125.038H233.331L232.65 126.04L233.422 127.125H232.725L232.237 126.395H232.224L231.735 127.125H231.038Z" fill="#221C46"/>
<rect x="188.829" y="130.778" width="48.825" height="1.26" fill="#F0EEF5"/>
<rect x="196.861" y="133.456" width="32.76" height="1.26" fill="#F0EEF5"/>
<rect width="34.6098" height="9.04377" transform="translate(195.937 138.891)" fill="#D1CFD7"/>
</g>
<rect x="184.621" y="86.2021" width="57.2403" height="65.5182" stroke="#E5E5E5" stroke-width="0.173983"/>
</g>
</g>
</g>
</g>
<g filter="url(#filter4_d_3676_2437)">
<rect x="36" y="-4.87646" width="231" height="35.2307" fill="white"/>
<rect x="36.25" y="-4.62646" width="230.5" height="34.7307" stroke="#E5E3EA" stroke-width="0.5"/>
<path fill-rule="evenodd" clip-rule="evenodd" d="M52.6143 6.1123C50.2843 6.1123 48.3955 7.66893 48.3955 9.58912V10.889L46.9893 12.2264V14.9014H50.1533C50.1533 15.0207 50.1618 15.1381 50.1783 15.2529C50.3488 16.4455 51.3745 17.3623 52.6143 17.3623C53.8541 17.3623 54.8797 16.4455 55.0503 15.2529C55.0667 15.1381 55.0752 15.0207 55.0752 14.9014H58.2393V12.2264L56.833 10.889V9.9052C56.833 7.81044 54.9442 6.1123 52.6143 6.1123ZM48.3955 13.4951H56.833V12.8297L55.4268 11.4922V9.9052C55.4268 8.7241 54.312 7.51855 52.6143 7.51855C50.7942 7.51855 49.8018 8.68781 49.8018 9.58912V11.4922L48.3955 12.8297V13.4951ZM52.6143 15.9561C53.0735 15.9561 53.4641 15.6626 53.6089 15.2529H51.6196C51.7644 15.6626 52.155 15.9561 52.6143 15.9561Z" fill="#E9003F"/>
<path d="M68.674 15.2373L66.3339 8.4963H67.9325L69.6563 13.7158H69.7911L71.5148 8.4963H73.1134L70.7733 15.2373H68.674ZM75.8104 15.3336C74.2215 15.3336 73.0659 14.4284 73.0659 12.8298C73.0659 11.2312 74.2215 10.326 75.8104 10.326C77.3994 10.326 78.555 11.2312 78.555 12.8298C78.555 14.4284 77.3994 15.3336 75.8104 15.3336ZM75.8104 14.1395C76.6579 14.1395 77.1297 13.5713 77.1297 12.8298C77.1297 12.0883 76.6579 11.5201 75.8104 11.5201C74.963 11.5201 74.4911 12.0883 74.4911 12.8298C74.4911 13.5713 74.963 14.1395 75.8104 14.1395ZM81.7321 15.3336C80.5958 15.3336 79.7098 14.698 79.7098 13.2343V10.4223H81.0965V12.8491C81.0965 13.6869 81.5877 14.101 82.3196 14.101C83.1285 14.101 83.5426 13.5713 83.5426 12.8491V10.4223H84.9293V15.2373H83.5426V14.438H83.4655C83.4655 14.438 83.09 15.3336 81.7321 15.3336ZM88.4889 15.3336C86.9866 15.3336 85.9851 14.9003 85.9851 13.6965V13.5424H87.4104V13.6965C87.4104 14.1395 87.7474 14.3032 88.4889 14.3032C89.269 14.3032 89.5867 14.1395 89.5867 13.8121C89.5867 12.8876 86.0814 13.8698 86.0814 11.7898C86.0814 10.8171 86.9963 10.326 88.4311 10.326C89.8853 10.326 90.7905 10.8075 90.7905 11.915H89.3653C89.3653 11.6838 89.3364 11.3564 88.4023 11.3564C87.7378 11.3564 87.5067 11.549 87.5067 11.7994C87.5067 12.6083 91.012 11.6838 91.012 13.7928C91.012 14.9003 90.0105 15.3336 88.4889 15.3336ZM96.2284 15.3336C95.1594 15.3336 94.2349 14.881 94.2349 13.8795C94.2349 12.8298 95.2365 12.3965 96.3921 12.3965C97.4803 12.3965 97.9521 12.8009 97.9521 12.8009V12.0979C97.9521 11.7416 97.7306 11.366 96.9313 11.366C96.5173 11.366 95.9009 11.5105 95.9009 11.9727H94.4757C94.4853 10.8364 95.4868 10.326 96.9313 10.326C98.4047 10.326 99.3388 10.8845 99.3388 12.0979V13.6002C99.3388 14.0047 99.4351 14.1202 99.6566 14.1202C99.7915 14.1202 99.8589 14.0817 99.8589 14.0817V15.2373C99.8589 15.2373 99.6855 15.3336 99.2618 15.3336C98.3181 15.3336 98.0966 14.6595 98.0966 14.6595H98.0292C98.0292 14.6884 97.6536 15.3336 96.2284 15.3336ZM96.7965 14.2839C97.644 14.2839 97.9521 13.918 97.9521 13.918V13.6291C97.9521 13.6291 97.6729 13.3402 96.7965 13.3402C96.1802 13.3402 95.6602 13.4365 95.6602 13.8121C95.6602 14.1973 96.1802 14.2839 96.7965 14.2839ZM101.771 15.2373L100.008 10.4223H101.491L102.753 14.0624H102.82L104.082 10.4223H105.565L103.803 15.2373H101.771ZM108.858 15.3336C107.249 15.3336 106.094 14.438 106.094 12.8298C106.094 11.2216 107.249 10.326 108.838 10.326C110.418 10.326 111.573 11.2216 111.573 12.8298C111.573 13.0031 111.544 13.1957 111.544 13.1957H107.548C107.548 13.7254 107.972 14.255 108.858 14.255C109.676 14.255 109.936 13.7735 109.936 13.7735H111.458C111.458 13.7735 111.169 15.3336 108.858 15.3336ZM107.567 12.3483H110.1C110.1 11.9631 109.724 11.4046 108.838 11.4046C107.972 11.4046 107.567 11.9631 107.567 12.3483ZM112.488 15.2373V14.0817L115.251 11.5972V11.5779H112.622V10.4223H117.187V11.5779L114.423 14.0624V14.0817H117.283V15.2373H112.488ZM120.75 15.2373V10.4223H122.137V11.3083H122.214C122.214 11.3083 122.59 10.326 123.89 10.326C124.121 10.326 124.371 10.3742 124.371 10.3742V11.9053C124.371 11.9053 124.063 11.7609 123.533 11.7609C122.599 11.7609 122.137 12.3579 122.137 13.1091V15.2373H120.75ZM127.77 15.3336C126.161 15.3336 125.006 14.438 125.006 12.8298C125.006 11.2216 126.161 10.326 127.75 10.326C129.33 10.326 130.485 11.2216 130.485 12.8298C130.485 13.0031 130.456 13.1957 130.456 13.1957H126.46C126.46 13.7254 126.884 14.255 127.77 14.255C128.588 14.255 128.848 13.7735 128.848 13.7735H130.37C130.37 13.7735 130.081 15.3336 127.77 15.3336ZM126.479 12.3483H129.012C129.012 11.9631 128.636 11.4046 127.75 11.4046C126.884 11.4046 126.479 11.9631 126.479 12.3483ZM134.25 17.1633C133.653 17.1633 133.258 16.9322 133.258 16.3736H133.923C133.923 16.5277 134.038 16.624 134.25 16.624C134.472 16.624 134.578 16.5374 134.578 16.3736C134.578 16.2196 134.472 16.1233 134.25 16.1233H133.653V15.6418L133.932 15.324C132.478 15.2373 131.448 14.3417 131.448 12.8298C131.448 11.2312 132.603 10.326 134.192 10.326C136.099 10.326 136.879 11.6261 136.879 12.3965H135.454C135.454 12.3965 135.271 11.5201 134.192 11.5201C133.345 11.5201 132.873 12.0883 132.873 12.8298C132.873 13.5713 133.345 14.1395 134.192 14.1395C135.271 14.1395 135.454 13.2632 135.454 13.2632H136.879C136.879 13.9854 136.195 15.1795 134.539 15.3143L134.308 15.584C134.915 15.584 135.252 15.8536 135.252 16.3736C135.252 16.9129 134.857 17.1633 134.25 17.1633ZM140.011 15.3336C138.874 15.3336 137.988 14.698 137.988 13.2343V10.4223H139.375V12.8491C139.375 13.6869 139.866 14.101 140.598 14.101C141.407 14.101 141.821 13.5713 141.821 12.8491V10.4223H143.208V15.2373H141.821V14.438H141.744C141.744 14.438 141.368 15.3336 140.011 15.3336ZM149.051 15.3336C147.78 15.3336 146.72 14.4284 146.72 12.8298C146.72 11.2312 147.78 10.326 149.051 10.326C150.264 10.326 150.765 11.0097 150.765 11.0097H150.823V8.4963H152.209V15.2373H150.823V14.4476H150.755C150.755 14.4476 150.303 15.3336 149.051 15.3336ZM149.484 14.101C150.322 14.101 150.823 13.5521 150.823 12.8298C150.823 12.0787 150.293 11.5586 149.484 11.5586C148.646 11.5586 148.146 12.1076 148.146 12.8298C148.146 13.5521 148.646 14.101 149.484 14.101ZM156.133 15.3336C154.525 15.3336 153.369 14.438 153.369 12.8298C153.369 11.2216 154.525 10.326 156.114 10.326C157.693 10.326 158.849 11.2216 158.849 12.8298C158.849 13.0031 158.82 13.1957 158.82 13.1957H154.823C154.823 13.7254 155.247 14.255 156.133 14.255C156.952 14.255 157.212 13.7735 157.212 13.7735H158.733C158.733 13.7735 158.444 15.3336 156.133 15.3336ZM154.843 12.3483H157.375C157.375 11.9631 157 11.4046 156.114 11.4046C155.247 11.4046 154.843 11.9631 154.843 12.3483ZM162.219 15.3336C160.716 15.3336 159.715 14.9003 159.715 13.6965V13.5424H161.14V13.6965C161.14 14.1395 161.477 14.3032 162.219 14.3032C162.999 14.3032 163.316 14.1395 163.316 13.8121C163.316 12.8876 159.811 13.8698 159.811 11.7898C159.811 10.8171 160.726 10.326 162.161 10.326C163.615 10.326 164.52 10.8075 164.52 11.915H163.095C163.095 11.6838 163.066 11.3564 162.132 11.3564C161.467 11.3564 161.236 11.549 161.236 11.7994C161.236 12.6083 164.742 11.6838 164.742 13.7928C164.742 14.9003 163.74 15.3336 162.219 15.3336ZM170.709 15.3336C169.12 15.3336 167.965 14.4284 167.965 12.8298C167.965 11.2312 169.12 10.326 170.709 10.326C172.616 10.326 173.396 11.6261 173.396 12.3965H171.971C171.971 12.3965 171.788 11.5201 170.709 11.5201C169.862 11.5201 169.39 12.0883 169.39 12.8298C169.39 13.5713 169.862 14.1395 170.709 14.1395C171.788 14.1395 171.971 13.2632 171.971 13.2632H173.396C173.396 14.0336 172.616 15.3336 170.709 15.3336ZM174.505 15.2373V8.4963H175.892V11.2216H175.969C175.969 11.2216 176.344 10.326 177.702 10.326C178.839 10.326 179.725 10.9616 179.725 12.4253V15.2373H178.338V12.8105C178.338 11.9727 177.847 11.5586 177.115 11.5586C176.306 11.5586 175.892 12.0883 175.892 12.8105V15.2373H174.505ZM183.594 15.3336C181.985 15.3336 180.83 14.438 180.83 12.8298C180.83 11.2216 181.985 10.326 183.574 10.326C185.154 10.326 186.309 11.2216 186.309 12.8298C186.309 13.0031 186.28 13.1957 186.28 13.1957H182.284C182.284 13.7254 182.708 14.255 183.594 14.255C184.412 14.255 184.672 13.7735 184.672 13.7735H186.194C186.194 13.7735 185.905 15.3336 183.594 15.3336ZM182.303 12.3483H184.836C184.836 11.9631 184.46 11.4046 183.574 11.4046C182.708 11.4046 182.303 11.9631 182.303 12.3483ZM183.064 9.5556L181.051 8.0148H182.794L184.239 9.5556H183.064ZM191.374 17.1633V14.6499H191.316C191.316 14.6499 190.816 15.3336 189.602 15.3336C188.331 15.3336 187.272 14.4284 187.272 12.8298C187.272 11.2312 188.331 10.326 189.602 10.326C190.854 10.326 191.307 11.212 191.307 11.212H191.374V10.4223H192.761V17.1633H191.374ZM190.035 14.101C190.844 14.101 191.374 13.5809 191.374 12.8298C191.374 12.1076 190.873 11.5586 190.035 11.5586C189.198 11.5586 188.697 12.1076 188.697 12.8298C188.697 13.5521 189.198 14.101 190.035 14.101ZM196.135 15.3336C194.999 15.3336 194.113 14.698 194.113 13.2343V10.4223H195.5V12.8491C195.5 13.6869 195.991 14.101 196.723 14.101C197.532 14.101 197.946 13.5713 197.946 12.8491V10.4223H199.333V15.2373H197.946V14.438H197.869C197.869 14.438 197.493 15.3336 196.135 15.3336ZM203.249 15.3336C201.64 15.3336 200.485 14.438 200.485 12.8298C200.485 11.2216 201.64 10.326 203.229 10.326C204.809 10.326 205.964 11.2216 205.964 12.8298C205.964 13.0031 205.935 13.1957 205.935 13.1957H201.939C201.939 13.7254 202.363 14.255 203.249 14.255C204.067 14.255 204.327 13.7735 204.327 13.7735H205.849C205.849 13.7735 205.56 15.3336 203.249 15.3336ZM201.958 12.3483H204.491C204.491 11.9631 204.115 11.4046 203.229 11.4046C202.363 11.4046 201.958 11.9631 201.958 12.3483ZM209.334 15.3336C207.832 15.3336 206.83 14.9003 206.83 13.6965V13.5424H208.256V13.6965C208.256 14.1395 208.593 14.3032 209.334 14.3032C210.114 14.3032 210.432 14.1395 210.432 13.8121C210.432 12.8876 206.927 13.8698 206.927 11.7898C206.927 10.8171 207.841 10.326 209.276 10.326C210.73 10.326 211.636 10.8075 211.636 11.915H210.21C210.21 11.6838 210.182 11.3564 209.247 11.3564C208.583 11.3564 208.352 11.549 208.352 11.7994C208.352 12.6083 211.857 11.6838 211.857 13.7928C211.857 14.9003 210.856 15.3336 209.334 15.3336ZM217.825 15.3336C216.236 15.3336 215.08 14.4284 215.08 12.8298C215.08 11.2312 216.236 10.326 217.825 10.326C219.731 10.326 220.511 11.6261 220.511 12.3965H219.086C219.086 12.3965 218.903 11.5201 217.825 11.5201C216.977 11.5201 216.505 12.0883 216.505 12.8298C216.505 13.5713 216.977 14.1395 217.825 14.1395C218.903 14.1395 219.086 13.2632 219.086 13.2632H220.511C220.511 14.0336 219.731 15.3336 217.825 15.3336ZM223.421 15.3336C222.353 15.3336 221.428 14.881 221.428 13.8795C221.428 12.8298 222.43 12.3965 223.585 12.3965C224.673 12.3965 225.145 12.8009 225.145 12.8009V12.0979C225.145 11.7416 224.924 11.366 224.124 11.366C223.71 11.366 223.094 11.5105 223.094 11.9727H221.669C221.678 10.8364 222.68 10.326 224.124 10.326C225.598 10.326 226.532 10.8845 226.532 12.0979V13.6002C226.532 14.0047 226.628 14.1202 226.85 14.1202C226.985 14.1202 227.052 14.0817 227.052 14.0817V15.2373C227.052 15.2373 226.879 15.3336 226.455 15.3336C225.511 15.3336 225.29 14.6595 225.29 14.6595H225.222C225.222 14.6884 224.847 15.3336 223.421 15.3336ZM223.99 14.2839C224.837 14.2839 225.145 13.918 225.145 13.918V13.6291C225.145 13.6291 224.866 13.3402 223.99 13.3402C223.373 13.3402 222.853 13.4365 222.853 13.8121C222.853 14.1973 223.373 14.2839 223.99 14.2839ZM230.153 15.3336C228.882 15.3336 227.823 14.4284 227.823 12.8298C227.823 11.2312 228.882 10.326 230.153 10.326C231.367 10.326 231.868 11.0097 231.868 11.0097H231.925V8.4963H233.312V15.2373H231.925V14.4476H231.858C231.858 14.4476 231.405 15.3336 230.153 15.3336ZM230.587 14.101C231.425 14.101 231.925 13.5521 231.925 12.8298C231.925 12.0787 231.396 11.5586 230.587 11.5586C229.749 11.5586 229.248 12.1076 229.248 12.8298C229.248 13.5521 229.749 14.101 230.587 14.101ZM237.236 15.3336C235.627 15.3336 234.472 14.438 234.472 12.8298C234.472 11.2216 235.627 10.326 237.216 10.326C238.796 10.326 239.951 11.2216 239.951 12.8298C239.951 13.0031 239.922 13.1957 239.922 13.1957H235.926C235.926 13.7254 236.35 14.255 237.236 14.255C238.054 14.255 238.314 13.7735 238.314 13.7735H239.836C239.836 13.7735 239.547 15.3336 237.236 15.3336ZM235.945 12.3483H238.478C238.478 11.9631 238.102 11.4046 237.216 11.4046C236.35 11.4046 235.945 11.9631 235.945 12.3483ZM242.907 15.3336C241.838 15.3336 240.914 14.881 240.914 13.8795C240.914 12.8298 241.915 12.3965 243.071 12.3965C244.159 12.3965 244.631 12.8009 244.631 12.8009V12.0979C244.631 11.7416 244.409 11.366 243.61 11.366C243.196 11.366 242.58 11.5105 242.58 11.9727H241.155C241.164 10.8364 242.166 10.326 243.61 10.326C245.084 10.326 246.018 10.8845 246.018 12.0979V13.6002C246.018 14.0047 246.114 14.1202 246.335 14.1202C246.47 14.1202 246.538 14.0817 246.538 14.0817V15.2373C246.538 15.2373 246.364 15.3336 245.941 15.3336C244.997 15.3336 244.775 14.6595 244.775 14.6595H244.708C244.708 14.6884 244.332 15.3336 242.907 15.3336ZM243.475 14.2839C244.323 14.2839 244.631 13.918 244.631 13.918V13.6291C244.631 13.6291 244.352 13.3402 243.475 13.3402C242.859 13.3402 242.339 13.4365 242.339 13.8121C242.339 14.1973 242.859 14.2839 243.475 14.2839ZM249.524 15.3336C248.387 15.3336 247.501 14.698 247.501 13.2343V10.4223H248.888V12.8491C248.888 13.6869 249.379 14.101 250.111 14.101C250.92 14.101 251.334 13.5713 251.334 12.8491V10.4223H252.721V15.2373H251.334V14.438H251.257C251.257 14.438 250.881 15.3336 249.524 15.3336ZM253.343 15.2373L255.125 12.7335L253.555 10.4223H255.134L256.078 11.9535H256.107L257.051 10.4223H258.63L257.06 12.7335L258.842 15.2373H257.234L256.107 13.5521H256.078L254.951 15.2373H253.343Z" fill="#221C46"/>
</g>
</g>
<defs>
<filter id="filter0_d_3676_2437" x="34.2186" y="29.4916" width="235.562" height="147.042" filterUnits="userSpaceOnUse" color-interpolation-filters="sRGB">
<feFlood flood-opacity="0" result="BackgroundImageFix"/>
<feColorMatrix in="SourceAlpha" type="matrix" values="0 0 0 0 0 0 0 0 0 0 0 0 0 0 0 0 0 0 127 0" result="hardAlpha"/>
<feOffset dy="2.1905"/>
<feGaussianBlur stdDeviation="2.1905"/>
<feComposite in2="hardAlpha" operator="out"/>
<feColorMatrix type="matrix" values="0 0 0 0 0 0 0 0 0 0 0 0 0 0 0 0 0 0 0.08 0"/>
<feBlend mode="normal" in2="BackgroundImageFix" result="effect1_dropShadow_3676_2437"/>
<feBlend mode="normal" in="SourceGraphic" in2="effect1_dropShadow_3676_2437" result="shape"/>
</filter>
<filter id="filter1_d_3676_2437" x="62.0508" y="86.1152" width="58.3141" height="66.5919" filterUnits="userSpaceOnUse" color-interpolation-filters="sRGB">
<feFlood flood-opacity="0" result="BackgroundImageFix"/>
<feColorMatrix in="SourceAlpha" type="matrix" values="0 0 0 0 0 0 0 0 0 0 0 0 0 0 0 0 0 0 127 0" result="hardAlpha"/>
<feOffset dx="0.9" dy="0.9"/>
<feComposite in2="hardAlpha" operator="out"/>
<feColorMatrix type="matrix" values="0 0 0 0 0.133333 0 0 0 0 0.109804 0 0 0 0 0.27451 0 0 0 0.2 0"/>
<feBlend mode="normal" in2="BackgroundImageFix" result="effect1_dropShadow_3676_2437"/>
<feBlend mode="normal" in="SourceGraphic" in2="effect1_dropShadow_3676_2437" result="shape"/>
</filter>
<filter id="filter2_d_3676_2437" x="123.293" y="86.1152" width="58.3141" height="66.5919" filterUnits="userSpaceOnUse" color-interpolation-filters="sRGB">
<feFlood flood-opacity="0" result="BackgroundImageFix"/>
<feColorMatrix in="SourceAlpha" type="matrix" values="0 0 0 0 0 0 0 0 0 0 0 0 0 0 0 0 0 0 127 0" result="hardAlpha"/>
<feOffset dx="0.9" dy="0.9"/>
<feComposite in2="hardAlpha" operator="out"/>
<feColorMatrix type="matrix" values="0 0 0 0 0.133333 0 0 0 0 0.109804 0 0 0 0 0.27451 0 0 0 0.2 0"/>
<feBlend mode="normal" in2="BackgroundImageFix" result="effect1_dropShadow_3676_2437"/>
<feBlend mode="normal" in="SourceGraphic" in2="effect1_dropShadow_3676_2437" result="shape"/>
</filter>
<filter id="filter3_d_3676_2437" x="184.534" y="86.1152" width="58.3141" height="66.5919" filterUnits="userSpaceOnUse" color-interpolation-filters="sRGB">
<feFlood flood-opacity="0" result="BackgroundImageFix"/>
<feColorMatrix in="SourceAlpha" type="matrix" values="0 0 0 0 0 0 0 0 0 0 0 0 0 0 0 0 0 0 127 0" result="hardAlpha"/>
<feOffset dx="0.9" dy="0.9"/>
<feComposite in2="hardAlpha" operator="out"/>
<feColorMatrix type="matrix" values="0 0 0 0 0.133333 0 0 0 0 0.109804 0 0 0 0 0.27451 0 0 0 0.2 0"/>
<feBlend mode="normal" in2="BackgroundImageFix" result="effect1_dropShadow_3676_2437"/>
<feBlend mode="normal" in="SourceGraphic" in2="effect1_dropShadow_3676_2437" result="shape"/>
</filter>
<filter id="filter4_d_3676_2437" x="36" y="-4.87646" width="233" height="37.2305" filterUnits="userSpaceOnUse" color-interpolation-filters="sRGB">
<feFlood flood-opacity="0" result="BackgroundImageFix"/>
<feColorMatrix in="SourceAlpha" type="matrix" values="0 0 0 0 0 0 0 0 0 0 0 0 0 0 0 0 0 0 127 0" result="hardAlpha"/>
<feOffset dx="2" dy="2"/>
<feColorMatrix type="matrix" values="0 0 0 0 0.133333 0 0 0 0 0.109804 0 0 0 0 0.27451 0 0 0 0.2 0"/>
<feBlend mode="normal" in2="BackgroundImageFix" result="effect1_dropShadow_3676_2437"/>
<feBlend mode="normal" in="SourceGraphic" in2="effect1_dropShadow_3676_2437" result="shape"/>
</filter>
<clipPath id="clip0_3676_2437">
<path d="M0 16C0 7.16344 7.16344 0 16 0H288C296.837 0 304 7.16344 304 16V153H0V16Z" fill="white"/>
</clipPath>
<clipPath id="clip1_3676_2437">
<rect width="226.8" height="138.28" fill="white" transform="translate(38.5996 31.6821)"/>
</clipPath>
<clipPath id="clip2_3676_2437">
<path d="M38.5996 46.356H265.399V167.127C265.399 168.693 264.13 169.962 262.564 169.962H41.4346C39.8689 169.962 38.5996 168.693 38.5996 167.127V46.356Z" fill="white"/>
</clipPath>
<clipPath id="clip3_3676_2437">
<rect width="226.8" height="439.443" fill="white" transform="translate(38.5996 46.4941)"/>
</clipPath>
<clipPath id="clip4_3676_2437">
<rect width="3.77861" height="3.77861" fill="white" transform="translate(232.841 51.7593)"/>
</clipPath>
<clipPath id="clip5_3676_2437">
<rect width="3.77861" height="3.77861" fill="white" transform="translate(240.399 51.7593)"/>
</clipPath>
<clipPath id="clip6_3676_2437">
<rect width="3.78" height="3.78" fill="white" transform="translate(247.958 51.7588)"/>
</clipPath>
<clipPath id="clip7_3676_2437">
<rect width="3.77861" height="3.77861" fill="white" transform="translate(255.519 51.7593)"/>
</clipPath>
<clipPath id="clip8_3676_2437">
<rect x="62.2246" y="86.2891" width="57.0663" height="65.3442" fill="white"/>
</clipPath>
<clipPath id="clip9_3676_2437">
<rect x="123.467" y="86.2891" width="57.0663" height="65.3442" fill="white"/>
</clipPath>
<clipPath id="clip10_3676_2437">
<rect x="184.708" y="86.2891" width="57.0663" height="65.3442" fill="white"/>
</clipPath>
</defs>
</svg>
