<svg width="304" height="153" viewBox="0 0 304 153" fill="none" xmlns="http://www.w3.org/2000/svg">
<g clip-path="url(#clip0_3676_2619)">
<path fill-rule="evenodd" clip-rule="evenodd" d="M193.428 18.5708C189.527 18.5708 186.364 21.7331 186.364 25.634C186.364 29.5349 189.527 32.6973 193.428 32.6973C197.328 32.6973 200.491 29.5349 200.491 25.634C200.491 21.7331 197.328 18.5708 193.428 18.5708ZM189.799 25.634C189.799 23.6299 191.423 22.0052 193.428 22.0052C195.432 22.0052 197.056 23.6299 197.056 25.634C197.056 27.6382 195.432 29.2629 193.428 29.2629C191.423 29.2629 189.799 27.6382 189.799 25.634Z" fill="#221C46"/>
<path fill-rule="evenodd" clip-rule="evenodd" d="M109.62 101.308V112.789H121.1V101.308H109.62ZM113.054 109.355V104.743H117.666V109.355H113.054Z" fill="#221C46"/>
<path fill-rule="evenodd" clip-rule="evenodd" d="M192.275 44.4199C192.251 44.4194 192.227 44.4194 192.204 44.4199H147.724V113.696H199.087V64.1857C199.094 64.0958 199.094 64.006 199.087 63.9171V44.4199H192.275ZM178.814 69.1498L189.46 47.8543H151.158V110.262H195.653V71.3331L181.886 98.8627C181.462 99.7109 180.43 100.055 179.582 99.6305C178.734 99.2063 178.39 98.1748 178.814 97.3266L195.653 63.6545V47.8543H193.3L181.886 70.6855C181.462 71.5338 180.431 71.8777 179.582 71.4536C178.734 71.0296 178.39 69.9981 178.814 69.1498Z" fill="#221C46"/>
<path fill-rule="evenodd" clip-rule="evenodd" d="M173.409 115.477C171.524 115.477 169.99 117.011 169.99 118.897C169.99 120.782 171.524 122.316 173.409 122.316C175.295 122.316 176.829 120.782 176.829 118.897C176.829 117.015 175.303 115.477 173.409 115.477ZM173.424 118.898L173.424 118.897ZM173.424 118.897L173.424 118.896ZM173.424 118.896L173.424 118.896ZM173.424 118.896C173.424 118.895 173.424 118.894 173.424 118.893ZM173.424 118.893C173.423 118.892 173.423 118.892 173.423 118.891ZM173.423 118.891C173.423 118.89 173.422 118.888 173.422 118.887ZM173.422 118.887C173.421 118.886 173.421 118.886 173.421 118.885ZM173.421 118.885L173.419 118.884ZM173.419 118.884C173.418 118.884 173.416 118.883 173.415 118.883ZM173.415 118.883C173.414 118.883 173.414 118.883 173.413 118.883ZM173.413 118.883L173.412 118.882ZM173.412 118.882L173.41 118.882ZM173.409 118.882L173.408 118.882ZM173.408 118.882C173.408 118.882 173.407 118.882 173.405 118.883ZM173.405 118.883C173.403 118.883 173.401 118.884 173.4 118.884ZM173.4 118.884C173.399 118.885 173.398 118.885 173.398 118.885ZM173.398 118.885C173.398 118.886 173.397 118.886 173.397 118.887ZM173.397 118.887C173.396 118.888 173.396 118.89 173.396 118.891ZM173.396 118.891C173.395 118.892 173.395 118.892 173.395 118.893ZM173.395 118.896L173.395 118.897ZM173.395 118.897L173.395 118.899ZM173.395 118.899C173.395 118.9 173.396 118.901 173.396 118.902ZM173.396 118.902L173.397 118.904ZM173.397 118.904C173.397 118.905 173.398 118.906 173.398 118.907ZM173.398 118.907L173.398 118.907ZM173.398 118.907L173.399 118.908ZM173.399 118.908L173.401 118.909ZM173.401 118.909L173.402 118.91ZM173.402 118.91C173.404 118.91 173.405 118.91 173.406 118.911ZM173.406 118.911C173.407 118.911 173.407 118.911 173.408 118.911ZM173.408 118.911L173.409 118.911ZM173.409 118.911L173.41 118.911ZM173.41 118.911L173.411 118.911ZM173.411 118.911L173.413 118.911ZM173.413 118.911C173.415 118.911 173.417 118.91 173.419 118.909ZM173.419 118.909C173.42 118.909 173.42 118.909 173.421 118.908ZM173.421 118.908C173.421 118.908 173.421 118.907 173.422 118.906ZM173.422 118.906C173.422 118.905 173.423 118.904 173.423 118.902ZM173.423 118.902C173.423 118.902 173.423 118.901 173.424 118.901Z" fill="#221C46"/>
<path d="M126.374 75.5846H130.049V72.1503H126.374V75.5846Z" fill="#221C46"/>
<path fill-rule="evenodd" clip-rule="evenodd" d="M149.04 37.9047C147.424 37.9047 145.922 38.3963 144.676 39.238V19.1038H111.755V76.9291H104.007L103.504 77.4323L104.719 78.6463C103.504 77.4323 103.504 77.4322 103.504 77.4323L103.504 77.4328L97.7154 83.2235C94.7047 86.2354 91.4618 89.4795 90.5322 90.409L90.0293 90.912V91.6233C90.0293 95.2124 92.9433 98.1192 96.5252 98.1192C98.4126 98.1192 100.111 97.3027 101.297 96.014C101.785 96.5457 102.36 96.9958 103 97.3416V124.024H93.6851L93.6909 135.363L97.1253 135.361L97.1212 127.458H148.966C148.991 127.458 149.016 127.459 149.04 127.459H197.73C197.755 127.459 197.779 127.458 197.804 127.458H211.534V135.362H214.968V124.024H204.198C205.043 122.777 205.536 121.272 205.536 119.653V45.7106C205.536 41.3995 202.041 37.9047 197.73 37.9047H149.04ZM126.157 53.3863L115.189 42.4184V67.1559H141.234V45.7106C141.234 45.5996 141.237 45.4892 141.241 45.3793V32.3115H125.405L136.375 43.2845C137.045 43.9552 137.045 45.0425 136.374 45.713C135.703 46.3835 134.616 46.3833 133.946 45.7126L120.549 32.3115H115.189V37.5614L128.586 50.9579C129.256 51.6285 129.256 52.7157 128.586 53.3863C127.915 54.0569 126.828 54.0569 126.157 53.3863ZM112.646 92.2669L124.55 80.3634H129.249L119.203 90.409C118.855 90.7576 118.687 91.2188 118.701 91.6755C118.673 93.3426 117.314 94.6848 115.64 94.6848C114.17 94.6848 112.942 93.6489 112.646 92.2669ZM115.64 98.1192C117.531 98.1192 119.232 97.3117 120.42 96.0227C121.606 97.311 123.307 98.1192 125.197 98.1192C128.528 98.1192 131.273 95.6129 131.649 92.3831L141.234 82.7942V119.653C141.234 119.656 141.234 119.659 141.234 119.662C141.234 119.675 141.235 119.688 141.235 119.702V124.024H138.526V101.308H123.905V124.024H106.435V98.1098C108.181 98.0163 109.747 97.2312 110.86 96.0227C112.047 97.3117 113.749 98.1192 115.64 98.1192ZM128.766 90.4093C128.431 90.7446 128.264 91.1839 128.264 91.6233H128.259C128.259 93.3145 126.888 94.6848 125.197 94.6848C123.728 94.6848 122.499 93.646 122.204 92.2656L134.106 80.3634H138.808L128.766 90.4093ZM148.985 124.024C146.608 123.994 144.688 122.068 144.669 119.689L144.669 80.3633H144.676V45.4628C144.804 43.1638 146.709 41.3391 149.04 41.3391H197.73C200.144 41.3391 202.101 43.2963 202.101 45.7106V119.653C202.101 122.048 200.174 123.994 197.785 124.024H148.985ZM119.693 80.3634H114.99L103.089 92.2682C103.386 93.6489 104.616 94.6848 106.083 94.6848C107.77 94.6848 109.144 93.3133 109.144 91.6233V90.912L119.693 80.3634ZM100.092 90.4093L110.134 80.3634H105.43L100.144 85.6515C97.5885 88.2083 94.8649 90.9329 93.5316 92.2666C93.8278 93.6481 95.058 94.6848 96.5252 94.6848C98.2034 94.6848 99.5867 93.2832 99.5867 91.6233H99.5888C99.5888 91.1839 99.7564 90.7446 100.092 90.4093ZM121.272 28.8771C121.265 28.877 121.257 28.877 121.249 28.8771H115.189V22.5382H141.241V28.8771H121.272ZM115.189 76.9289V70.5902H141.234V76.9289H115.189ZM135.092 104.743V124.024H127.34V104.743H135.092Z" fill="#221C46"/>
</g>
<defs>
<clipPath id="clip0_3676_2619">
<path d="M0 16C0 7.16344 7.16344 0 16 0H288C296.837 0 304 7.16344 304 16V153H0V16Z" fill="white"/>
</clipPath>
</defs>
</svg>
