<svg width="304" height="157" viewBox="0 0 304 157" fill="none" xmlns="http://www.w3.org/2000/svg">
<path fill-rule="evenodd" clip-rule="evenodd" d="M146.357 11.9961C141.935 11.9961 138.345 15.586 138.345 20.008C138.345 23.0416 140.035 25.6836 142.524 27.0436H137.067V28.5038L130.9 48.8617H123.967L125.177 56.7263H105.103L95.2905 119.791H85.5611V125.659C85.5611 127.799 86.2981 129.858 87.6333 131.502H81.7588V134.937H213.884V131.502H204.042C205.375 129.857 206.11 127.797 206.11 125.664V119.796H206.075L215.888 56.7263H170.244L158.425 27.0436H150.191C152.68 25.6836 154.369 23.0416 154.369 20.008C154.369 15.586 150.779 11.9961 146.357 11.9961ZM141.78 20.008C141.78 17.4828 143.832 15.4305 146.357 15.4305C148.883 15.4305 150.935 17.4828 150.935 20.008C150.935 22.5332 148.883 24.5855 146.357 24.5855C143.832 24.5855 141.78 22.5332 141.78 20.008ZM134.489 48.8617L137.067 40.3508V48.8617H134.489ZM137.199 70.4344L137.199 52.296L152.217 52.2961V56.7264H142.663L140.554 70.4344H137.199ZM152.217 33.2817V48.8617H140.501V30.4779H156.096L163.416 48.8617H161.131L152.217 33.2817ZM165.631 56.7263L163.096 52.2961H164.784L166.548 56.7263H165.631ZM155.652 46.2001L161.674 56.7263H155.652V46.2001ZM144.055 70.265L151.449 60.1607L175.022 60.1607L131.368 119.791H107.797L134.416 83.4311H142.028L144.055 70.265ZM135.625 119.791L179.278 60.1607H198.179L172.281 95.541L175.052 97.5695L202.435 60.1607H211.878L202.6 119.791H135.625ZM151.979 126.864C152.988 125.854 153.681 124.592 153.997 123.226H192.866V125.659C192.866 127.206 192.251 128.692 191.156 129.788L191.154 129.79C190.065 130.883 188.58 131.498 187.027 131.498H94.8339C93.287 131.498 91.8007 130.883 90.7053 129.788C89.6094 128.692 88.9955 127.21 88.9955 125.659V123.226H127.868C128.187 124.593 128.882 125.855 129.891 126.864C131.313 128.286 133.237 129.079 135.246 129.079H146.623C148.63 129.079 150.556 128.279 151.976 126.866L151.979 126.864ZM132.319 124.435C131.965 124.081 131.682 123.671 131.479 123.226H150.389C150.186 123.671 149.905 124.08 149.552 124.433C148.774 125.208 147.718 125.644 146.623 125.644H135.246C134.144 125.644 133.095 125.211 132.319 124.435ZM194.228 131.502C195.563 129.857 196.3 127.794 196.3 125.659V123.23H202.676V125.664C202.676 127.211 202.061 128.697 200.966 129.793C199.87 130.888 198.388 131.502 196.837 131.502H194.228ZM130.16 83.4311L103.541 119.791H98.7662L108.044 60.1607H125.705L129.284 83.4311H130.16ZM133.765 73.8687L133.765 79.9967H132.23L131.288 73.8687H133.765ZM133.765 52.296L133.765 70.4344H130.76L127.97 52.296H133.765ZM137.199 79.9967L137.199 73.8687H140.025L139.082 79.9967H137.199ZM147.193 60.1607L145.188 62.901L145.61 60.1607H147.193Z" fill="#221C46"/>
<path fill-rule="evenodd" clip-rule="evenodd" d="M192.871 19.1935C192.871 23.0183 189.765 26.1212 185.944 26.1212V29.5555C189.769 29.5555 192.871 32.662 192.871 36.4831H196.306C196.306 32.6584 199.412 29.5555 203.233 29.5555V26.1212C199.409 26.1212 196.306 23.0147 196.306 19.1935H192.871ZM194.588 30.7707C193.818 29.6077 192.819 28.6088 191.656 27.8382C192.819 27.0679 193.818 26.0692 194.589 24.906C195.359 26.069 196.358 27.0679 197.521 27.8384C196.358 28.6088 195.359 29.6075 194.588 30.7707Z" fill="#221C46"/>
<path fill-rule="evenodd" clip-rule="evenodd" d="M103.372 28.4809C98.9548 28.4809 95.3698 32.0659 95.3698 36.483C95.3698 40.9001 98.9548 44.4851 103.372 44.4851C107.789 44.4851 111.374 40.9001 111.374 36.483C111.374 32.0659 107.789 28.4809 103.372 28.4809ZM98.8042 36.483C98.8042 33.9627 100.852 31.9153 103.372 31.9153C105.892 31.9153 107.94 33.9627 107.94 36.483C107.94 39.0033 105.892 41.0507 103.372 41.0507C100.852 41.0507 98.8042 39.0033 98.8042 36.483Z" fill="#221C46"/>
</svg>
