<svg width="314" height="154" viewBox="0 0 314 154" fill="none" xmlns="http://www.w3.org/2000/svg">
<g clip-path="url(#clip0_3661_2587)">
<g filter="url(#filter0_d_3661_2587)">
<rect y="14" width="95.9841" height="37.4493" fill="white"/>
<g clip-path="url(#clip1_3661_2587)">
<mask id="mask0_3661_2587" style="mask-type:luminance" maskUnits="userSpaceOnUse" x="25" y="17" width="47" height="32">
<path d="M71.3682 17.02H25.4961V48.3268H71.3682V17.02Z" fill="white"/>
</mask>
<g mask="url(#mask0_3661_2587)">
<path d="M33.9575 39.9753C33.9416 39.9174 33.9019 39.8812 33.8463 39.8377C33.7828 39.7943 33.7431 39.7943 33.7431 39.7943L33.7272 39.7798C33.7272 39.7798 33.7272 39.7508 33.7352 39.7146C33.751 39.6784 33.7352 39.6711 33.7352 39.6711C33.7352 39.6711 33.6955 39.6711 33.6955 39.6349C33.6955 39.5987 33.7193 39.5842 33.7113 39.5552C33.7034 39.5335 33.6796 39.5552 33.6637 39.5262C33.6478 39.4755 33.632 39.4828 33.632 39.4828H33.6002C33.5684 39.4393 33.5129 39.4393 33.5129 39.4393L33.4652 39.4031C33.4335 39.3089 33.4255 39.2075 33.4017 39.2148C33.3779 39.2148 33.4017 39.2582 33.3779 39.2944C33.362 39.3307 33.3461 39.3089 33.3461 39.3089C33.2747 39.1568 33.2112 39.1713 33.1953 39.1423C33.1794 39.1206 33.1635 39.1278 33.1239 39.0989C33.0842 39.0699 33.0524 39.0989 33.108 39.1351C33.1556 39.1641 33.1635 39.2293 33.1794 39.251C33.1953 39.2727 33.1715 39.2872 33.1477 39.2727C33.1239 39.2582 33.1397 39.222 33.1 39.1713C33.0603 39.1206 32.9333 39.0047 32.9254 39.0409C32.9174 39.0771 32.9651 39.0916 33.0048 39.193C33.0445 39.2944 33.0048 39.2872 32.9968 39.2944C32.9809 39.2944 32.9651 39.2872 32.9174 39.222C32.8698 39.1568 32.8301 39.1496 32.8301 39.1496C32.8063 39.1134 32.7745 39.0989 32.7348 39.0699C32.6951 39.0482 32.6872 39.0047 32.6634 39.0264C32.6396 39.0409 32.6634 39.0844 32.719 39.1351C32.7745 39.193 32.7666 39.1858 32.7904 39.2365C32.8142 39.2872 32.8063 39.3017 32.7745 39.3017C32.7348 39.3017 32.6554 39.2148 32.6237 39.1785C32.5919 39.1423 32.5443 39.1134 32.5125 39.0844C32.4728 39.0554 32.4649 39.0844 32.4887 39.1278C32.5046 39.1641 32.5681 39.2437 32.6078 39.2944C32.6475 39.3451 32.6078 39.3596 32.5681 39.3596C32.5364 39.3596 32.5046 39.3307 32.5046 39.3307C32.4252 39.2872 32.4093 39.2872 32.3776 39.2655C32.3458 39.251 32.2982 39.2003 32.2823 39.2075C32.2744 39.2148 32.2506 39.2293 32.2982 39.2944C32.3458 39.3596 32.2982 39.3596 32.2982 39.3596C32.2267 39.3379 32.1553 39.3741 32.1712 39.4248C32.187 39.4755 32.2267 39.519 32.2267 39.519C32.2267 39.519 32.2267 39.519 32.2188 39.548C32.2109 39.5769 32.2506 39.5987 32.2506 39.5987C32.2506 39.6276 32.2744 39.6856 32.3299 39.6856C32.4332 39.6856 32.3458 39.7073 32.4252 39.7218C32.5046 39.7435 32.6237 39.7435 32.6237 39.7435C32.6316 39.758 32.6078 39.7725 32.6078 39.7725C32.6078 39.7725 32.3299 39.8667 31.9489 40.2651C31.933 40.2796 31.9092 40.3375 31.9012 40.352C31.8457 40.4172 31.7901 40.4752 31.7345 40.5548C31.7107 40.591 31.671 40.6345 31.6472 40.6707C31.5757 40.7794 31.5043 40.8663 31.4487 40.975C31.4328 41.0039 31.409 41.0619 31.3931 41.0836C31.2502 41.2864 31.1708 41.3661 31.1708 41.3661C31.1708 41.3661 31.0756 41.4893 30.6548 41.6486C30.5595 41.6848 30.504 41.6993 30.3928 41.7283C30.2499 41.7573 30.1229 41.7862 29.9958 41.8225C29.8609 41.8659 29.7418 41.8876 29.5354 41.9673C29.4004 42.018 29.2019 42.1267 29.0114 42.2064C29.0114 42.2064 29.0114 42.1774 28.9796 42.1267C28.9796 42.1194 28.9638 42.0977 28.9558 42.0832C28.9558 42.0687 28.94 42.0687 28.932 42.0543C28.932 42.0398 28.9241 42.0325 28.9082 42.018C28.8923 42.0035 28.8764 41.9891 28.8606 41.9746C28.8129 41.9239 28.7653 41.8732 28.67 41.8587C28.6541 41.8587 28.6383 41.8442 28.6224 41.8442C28.6224 41.8442 28.5986 41.8369 28.5906 41.8297C28.5668 41.8152 28.5351 41.7935 28.5112 41.779C28.3842 41.7138 28.3207 41.6414 28.3207 41.6414C28.3207 41.6414 28.2254 41.2647 27.892 41.0112C27.8761 40.9967 27.8364 41.0112 27.8205 40.9967C27.7967 40.975 27.7729 40.9387 27.757 40.9243H27.7094V40.917L27.6618 40.8591L27.6379 40.8808C27.5427 40.8373 27.4236 40.7866 27.2966 40.7721L27.1219 40.7866C27.0504 40.7866 26.9869 40.7939 26.9234 40.8084C26.8758 40.8156 26.8282 40.8301 26.7805 40.8446C26.6297 40.888 26.5026 40.946 26.3915 41.0184C26.2565 41.1126 26.1533 41.2212 26.0819 41.3154C25.7961 41.6196 25.7008 42.0615 25.7008 42.0615C25.6373 42.1557 25.6214 42.3005 25.6214 42.3005C25.5023 42.5613 25.4785 42.8728 25.55 43.1263C25.6214 43.3798 25.8199 43.503 25.8199 43.503V43.474C25.7881 43.4088 25.7087 43.2494 25.7087 43.2494C25.6929 43.1843 25.677 43.0973 25.669 42.9452C25.6611 42.7931 25.7087 42.641 25.7167 42.5975C25.7326 42.5468 25.7564 42.5251 25.7564 42.5251C25.7802 42.5685 25.8437 42.6555 25.8437 42.6555C25.8278 42.5903 25.7802 42.4454 25.7802 42.4454C25.9152 42.1774 26.0025 42.1267 26.0025 42.1267V42.1122L25.9787 42.0977C26.0104 42.0977 26.0263 42.0977 26.0263 42.0977C26.0819 42.0398 26.1295 41.9963 26.1295 41.9963C26.1454 42.0325 26.1613 42.0398 26.1613 42.0398L26.1771 42.0108H26.193L26.2089 41.9891C26.2248 41.9891 26.2407 41.9891 26.2407 41.9891H26.2645C26.2089 42.0035 26.193 42.047 26.193 42.047L26.2089 42.0832L26.2724 42.1267V42.1412C26.2089 42.2426 26.1692 42.3368 26.1692 42.3368C26.1692 42.3657 26.1533 42.4092 26.1533 42.4092C26.1216 42.4671 26.1216 42.5685 26.1295 42.6193C26.1375 42.67 26.1771 42.7062 26.1771 42.7062C26.1771 42.7062 26.201 42.612 26.2248 42.5685C26.2407 42.5251 26.2565 42.5106 26.2804 42.4599C26.2962 42.4092 26.3359 42.3875 26.3359 42.3875C26.3359 42.3875 26.3121 42.5106 26.3439 42.5685C26.3756 42.6265 26.3915 42.6627 26.3994 42.6627C26.4153 42.6627 26.4312 42.612 26.4312 42.612C26.4312 42.612 26.4312 42.6265 26.4471 42.641C26.4471 42.6555 26.4471 42.6772 26.4471 42.6772C26.3677 42.7207 26.3597 42.7352 26.3597 42.7352H26.3836C26.455 42.7352 26.3836 42.7569 26.3836 42.7569C26.3359 42.7714 26.3359 42.7859 26.3359 42.7859H26.3677V42.8003H26.3915V42.8148L26.3439 42.8438C26.3518 42.9307 26.4074 42.9307 26.4947 42.909C26.582 42.8873 26.6614 42.8655 26.6614 42.8655V42.88C26.6614 42.88 26.852 42.8366 26.9075 42.8293C26.9631 42.8148 27.0028 42.8583 27.0028 42.8583C26.9869 42.8728 26.9869 42.9018 26.9869 42.9018C26.9472 42.909 26.9472 42.9525 26.9472 42.9525C26.9472 42.9525 26.9314 42.9597 26.9472 43.0104C26.9631 43.0611 27.0187 43.1335 27.0187 43.1335C27.0663 43.1335 27.0822 43.1698 27.0743 43.2132C27.0584 43.2567 27.0901 43.3074 27.1775 43.3219C27.2727 43.3364 27.2727 43.3653 27.2727 43.3653C27.3045 43.416 27.2727 43.4595 27.2727 43.4595C27.2251 43.5175 27.3283 43.5682 27.3283 43.5682C27.3839 43.6189 27.3442 43.6696 27.3442 43.6696L27.3283 43.6551V43.6768L27.3045 43.6478V43.6768L27.2727 43.6623C27.3045 43.713 27.3363 43.7275 27.3363 43.7275V43.7637V43.7855C27.3521 43.8072 27.3363 43.8144 27.3363 43.8144C27.3839 43.8434 27.3521 43.8869 27.3521 43.8869C27.4156 43.9231 27.4553 43.9666 27.4553 43.9666L27.4395 43.9883H27.495L27.5347 44.0173L27.5665 43.9955L27.5903 44.0173V44.039L27.6141 44.0462V44.068V44.0969C27.6697 44.1114 27.6379 44.1621 27.6379 44.1621C27.6538 44.1839 27.6618 44.2346 27.6618 44.2346L27.7253 44.278L27.7729 44.2998H27.7967L27.7808 44.365L27.8047 44.3432L27.8523 44.4012C27.8999 44.4881 27.9873 44.575 28.0349 44.604C28.0825 44.633 28.0508 44.6547 28.0508 44.6547C28.1143 44.6909 28.154 44.7344 28.154 44.7344L28.1381 44.7561H28.1937L28.2334 44.7851L28.2651 44.7634L28.2969 44.7996H28.3286V44.8213L28.3922 44.8793H28.4318L28.416 44.9082L28.4636 44.9227V44.9517L28.5112 44.9372L28.5351 44.9662L28.5827 45.0024L28.6303 45.0169H28.6541L28.6938 45.0676L28.7177 45.0459L28.7653 45.1038L28.797 45.1255L28.7653 45.1473L28.8844 45.2052L28.9003 45.2414L28.9241 45.2559V45.3066C28.9241 45.3066 28.94 45.3066 28.9876 45.2994C29.0352 45.2921 29.0829 45.3284 29.0829 45.3284C29.059 45.5022 29.1067 45.4805 29.1067 45.4805L29.1543 45.466C29.2178 45.466 29.2416 45.4298 29.2416 45.4298C29.2416 45.4587 29.3131 45.4732 29.321 45.5022C29.321 45.5239 29.2813 45.5529 29.2813 45.5529L29.321 45.5674L29.3448 45.5529V45.5746L29.3845 45.5602C29.4084 45.6616 29.4322 45.6398 29.4322 45.6398C29.4322 45.6398 29.4798 45.6181 29.4957 45.6036C29.5116 45.5819 29.5513 45.6471 29.5513 45.6471V45.6905C29.5195 45.7847 29.5354 45.9151 29.5354 45.9151C29.591 46.06 29.6624 46.1179 29.6624 46.1179C29.6624 46.1179 29.6862 46.3352 29.7339 46.4004C29.7815 46.4656 29.9403 46.9147 29.9641 46.9944C29.9958 47.0741 30.0276 47.1682 30.0276 47.1682C30.0276 47.1682 30.0117 47.1972 30.0276 47.1972C30.0435 47.1972 30.0355 47.2189 30.0355 47.2189C30.0197 47.2479 30.0355 47.2407 30.0355 47.2552C30.0355 47.2696 30.0355 47.3493 30.0038 47.3566C29.972 47.3566 29.9641 47.4 29.9641 47.4C29.9085 47.4218 29.9244 47.4362 29.9165 47.4435C29.9165 47.4507 29.8847 47.4725 29.8847 47.4725V47.4869C29.8847 47.4869 29.8609 47.5087 29.8529 47.5232C29.8371 47.5377 29.7894 47.5739 29.7894 47.5739L29.7656 47.5884L29.7418 47.6101L29.718 47.6246H29.7021L29.6783 47.6391L29.6624 47.6536H29.6545C29.583 47.668 29.5433 47.7115 29.5195 47.7622C29.4957 47.8129 29.5195 47.8709 29.5513 47.8202C29.583 47.7694 29.6307 47.7694 29.6307 47.7694C29.6307 47.7694 29.6307 47.8202 29.7021 47.8274C29.7815 47.8274 29.8133 47.8057 29.8291 47.7984C29.845 47.7912 29.8529 47.7622 29.8529 47.7622C29.8529 47.7477 29.8847 47.7477 29.8847 47.7477C29.9165 47.7187 29.9323 47.7043 29.9641 47.6825C29.9958 47.6608 30.0038 47.668 30.0038 47.668C30.0038 47.668 30.0038 47.7115 29.9958 47.7405C29.98 47.7694 29.9165 47.8274 29.9165 47.8274C29.8529 47.8491 29.7974 47.8781 29.7894 47.8853C29.7736 47.8853 29.7339 47.9288 29.7339 47.9288V47.9433C29.6862 47.9723 29.5989 48.0447 29.591 48.1027C29.583 48.1606 29.6307 48.1171 29.6624 48.0954C29.6942 48.0664 29.718 48.0519 29.718 48.0519H29.7339C29.7339 48.0519 29.8371 48.0882 29.8847 48.0519C29.9323 48.0085 29.9641 48.0085 29.9879 48.0085C30.0117 48.0085 30.0514 48.0085 30.0991 47.936C30.1467 47.8636 30.2102 47.8564 30.2499 47.8491C30.2896 47.8491 30.3372 47.8709 30.3372 47.8709H30.3214C30.242 47.8926 30.1943 47.9578 30.1784 48.0157C30.1626 48.0664 30.1943 48.0809 30.2102 48.0519C30.2261 48.0157 30.2737 47.994 30.2817 47.994C30.2896 47.994 30.2975 48.0085 30.2975 48.0085C30.3055 48.0519 30.369 48.0664 30.4246 48.0519C30.4801 48.0375 30.496 48.0085 30.504 47.994C30.5119 47.9795 30.5198 47.9795 30.5198 47.9795C30.5198 47.9795 30.5198 48.0157 30.5198 48.0375C30.5198 48.0519 30.4722 48.0954 30.4722 48.0954C30.4246 48.1171 30.4246 48.1244 30.4246 48.1244C30.3372 48.1316 30.3293 48.1461 30.3214 48.1534C30.3134 48.1534 30.2975 48.1678 30.2975 48.1678C30.2261 48.1896 30.1784 48.2403 30.1467 48.2765C30.1149 48.3127 30.0911 48.3779 30.1229 48.3634C30.1626 48.3344 30.234 48.291 30.234 48.291C30.2578 48.2765 30.2499 48.3055 30.2817 48.32C30.3293 48.3344 30.4087 48.3127 30.4087 48.3127C30.4246 48.291 30.4484 48.2837 30.4484 48.2837C30.5436 48.2837 30.5754 48.2403 30.5754 48.2403H30.631L30.6786 48.2113C30.7739 48.1896 30.7421 48.1606 30.7421 48.1606C30.7739 48.1606 31.0121 48.1606 31.0438 48.1606C31.0756 48.1606 31.1708 48.1896 31.1708 48.1896H31.3217C31.3217 48.1896 31.4566 48.2185 31.4963 48.2041C31.5678 48.1751 31.6075 48.1896 31.6551 48.2041C31.6948 48.2258 31.8139 48.2258 31.8298 48.2041C31.8457 48.1823 31.8615 48.1678 31.8615 48.1678C31.925 48.1751 31.9568 48.233 32.0124 48.233C32.068 48.233 32.0124 48.1678 31.933 48.1171C31.8615 48.0664 31.7583 48.0592 31.7583 48.0592C31.7583 48.0592 31.7663 48.0592 31.8615 48.0592C31.9568 48.0447 31.933 48.0157 31.933 48.0157C31.9647 47.9868 32.0283 47.994 32.0997 48.0157C32.1712 48.0375 32.1632 48.0085 32.0838 47.9433C32.0044 47.8853 31.8774 47.9143 31.8774 47.9143L31.8536 47.8998H31.798L31.7663 47.8853C31.7028 47.8926 31.544 47.936 31.4566 47.9071C31.3693 47.8781 31.3296 47.8998 31.3296 47.8998L31.2661 47.8636L31.3217 47.8346C31.3852 47.8636 31.4408 47.8346 31.4408 47.8346C31.4408 47.8346 31.4408 47.8491 31.5202 47.8491C31.5995 47.8491 31.6154 47.7767 31.6154 47.7767C31.6392 47.7622 31.7028 47.7767 31.7028 47.7767C31.8139 47.8274 31.7742 47.7694 31.7742 47.7694C31.6948 47.6536 31.5519 47.697 31.5519 47.697C31.4884 47.668 31.4805 47.6898 31.4805 47.6898C31.3773 47.6825 31.3217 47.7043 31.3217 47.7043C31.2582 47.7043 31.1867 47.7043 31.1153 47.7043C31.0517 47.7115 30.9247 47.6898 30.9247 47.6898C30.8691 47.5956 30.8056 47.2841 30.7739 47.2189C30.7421 47.1537 30.6627 46.7626 30.6627 46.7626L30.623 46.5163C30.623 46.5163 30.6548 46.4728 30.6548 46.3787C30.6548 46.2845 30.7183 46.2773 30.7421 46.1469C30.7659 46.0237 30.9565 45.8499 31.0121 45.7919C31.0597 45.7268 31.147 45.5891 31.147 45.5891C31.1788 45.6326 31.2026 45.6109 31.2264 45.5891C31.2502 45.5602 31.2502 45.5022 31.2582 45.4805C31.2661 45.4587 31.274 45.4225 31.274 45.4225V45.3501C31.2899 45.2921 31.3296 45.2197 31.3296 45.2197L31.3455 45.1762V45.1545C31.3455 45.1545 31.3455 45.1545 31.4011 45.0676C31.4646 44.9807 31.6154 44.8865 31.6154 44.8865L31.5599 44.9444L31.6869 44.8937L31.7186 44.872L31.7028 44.9082C31.8298 44.7778 31.8536 44.8213 31.8536 44.8213V44.7706L31.8933 44.7923C31.9409 44.7489 31.9806 44.7054 31.9806 44.7054V44.7561H32.0044C32.0044 44.7199 32.0362 44.6982 32.0362 44.6982C32.0521 44.7271 32.0362 44.7706 32.0362 44.7706L32.0521 44.7416L32.0838 44.6909H32.1076C32.1076 44.6909 32.1553 44.633 32.1553 44.5895C32.1553 44.546 32.1791 44.5026 32.1791 44.5026C32.1791 44.5388 32.2109 44.5533 32.2109 44.5533V44.4809L32.2347 44.4953C32.2347 44.4229 32.2426 44.3432 32.2426 44.3432C32.3538 44.2491 32.6554 44.0245 32.6554 44.0245C32.7348 43.9666 32.7983 43.8796 32.9174 43.7927C33.0286 43.7058 33.1159 43.6478 33.1159 43.6478V43.6261L33.1397 43.6189C33.235 43.4957 33.3223 43.3509 33.362 43.2277C33.4017 43.1046 33.4732 42.9018 33.4732 42.9018V42.8728C33.5129 42.8728 33.4732 42.8076 33.5049 42.7859C33.5367 42.7641 33.5287 42.6917 33.5287 42.6917C33.5684 42.6193 33.5605 42.5613 33.5605 42.5613C33.5764 42.5396 33.5843 42.4744 33.5843 42.4382C33.5843 42.4019 33.6002 42.3368 33.6399 42.1412C33.6875 41.9166 33.5605 41.6776 33.5208 41.482C33.4414 41.3009 33.3382 41.1633 33.2747 41.0691C33.235 41.0112 33.2747 40.9967 33.2747 40.9967L33.4097 40.9677L33.624 40.9025C33.624 40.9025 33.6716 40.8735 33.6955 40.8446C33.7113 40.8156 33.7272 40.8084 33.7272 40.8084C33.7987 40.7939 33.7907 40.7432 33.7907 40.7432C33.8701 40.6707 33.8384 40.5331 33.8384 40.5331C33.8384 40.5331 33.8701 40.4896 33.8225 40.3375C33.7749 40.1926 33.7034 40.1854 33.7034 40.1854C33.7034 40.1854 33.7034 40.1854 33.6875 40.1492C33.6716 40.1202 33.6478 40.1202 33.6478 40.1202C33.6558 40.0985 33.6716 40.0912 33.6955 40.0768C33.7113 40.0623 33.7272 40.0623 33.7272 40.0623C33.7669 40.0623 33.7749 40.0623 33.8225 40.0623C33.8622 40.0623 33.886 40.0623 33.9019 40.0478C33.9257 40.0405 33.9654 40.0768 33.9495 40.0116M30.4087 47.2769C30.3849 47.1972 30.361 47.1827 30.3134 47.0451C30.2658 46.9075 30.1229 46.3642 30.1229 46.3642L30.1467 46.3497C30.1705 46.4221 30.2578 46.5308 30.2578 46.5308C30.3293 46.6829 30.3849 46.9292 30.4246 47.103C30.4643 47.2769 30.4881 47.3638 30.4881 47.3638C30.4404 47.2986 30.4087 47.2841 30.4087 47.2841" fill="black"/>
<path d="M55.5452 35.0784C55.2673 35.1074 54.4972 34.3758 54.3781 33.3762C54.2987 32.6953 54.6639 25.3793 54.6084 24.9229C54.5528 24.4666 55.1641 23.1844 55.7913 22.9164C56.4502 22.6339 56.6408 22.5615 57.3712 22.5253C57.2441 22.2066 57.1012 21.9096 56.9583 21.656C56.9583 21.656 55.4181 21.7502 54.7195 21.3953C54.0209 21.0403 54.3305 20.8882 54.6084 20.7071C54.8862 20.5333 55.4658 20.6564 56.2835 20.8158C56.2835 20.8158 56.3153 20.8448 56.355 20.881C53.9177 18.4616 48.8049 17.1143 44.6924 17.0201C42.009 16.9622 39.405 17.4765 38.6587 17.6793C37.9124 17.8821 34.6177 18.5341 32.7362 21.0403C31.3389 22.8947 30.672 25.2344 31.5374 28.0304C32.4027 30.8337 34.2049 32.8836 35.237 34.1947C36.2691 35.5058 37.841 36.5778 36.7454 37.7441C35.6498 38.9103 34.6654 39.765 34.6654 39.765L38.4682 38.2801C38.4682 38.2801 40.3021 39.8375 41.3977 40.388C42.4933 40.9385 44.1288 41.4311 45.4705 41.4093C46.9709 41.3876 50.7817 40.3445 53.8383 37.237C54.6322 36.433 55.2911 35.6724 55.8627 34.9191C55.7198 35.1074 55.7278 35.0567 55.5452 35.0784Z" fill="#FDC300"/>
<path d="M70.9873 23.7133C70.8126 23.3439 70.4554 22.3878 69.1851 21.7721C67.9149 21.1491 65.9222 21.4171 64.8186 22.4747C63.7151 23.525 62.1511 25.9951 61.7938 26.5746C61.4286 27.154 61.1905 27.3858 61.1905 27.3858L58.7293 27.4003C58.7293 27.4003 58.4753 26.0385 58.0545 24.5464C57.8084 24.4667 56.4191 24.0683 56.2841 25.2055C56.1412 26.4007 55.9189 26.647 56.7763 26.9512C57.6338 27.2555 58.4753 27.7408 57.856 28.2985C57.2447 28.8563 56.5461 28.849 56.2365 28.9505C55.9348 29.0519 55.4823 29.3271 55.5696 30.5947C55.649 31.8624 55.903 31.8769 56.3159 32.1304C56.6414 32.326 57.205 32.4636 57.0939 32.9996C57.9196 31.435 58.4118 29.7328 58.7452 27.5669C58.7452 27.5669 60.7935 28.3565 61.2143 28.6462C61.643 28.9432 62.0876 28.6245 62.2225 30.7179C62.3575 32.8113 62.3654 34.825 63.1752 35.3828C63.985 35.9405 65.6602 36.4331 67.248 34.6874C68.8358 32.9417 69.1534 32.1376 69.6694 31.2829C70.1696 30.4644 70.8841 28.639 70.9714 28.3999C71.416 27.2265 71.5589 24.9665 70.9714 23.7133" fill="#FDC300"/>
<path d="M38.6121 24.2565C38.5089 23.409 37.2942 22.3515 36.9052 22.2066C34.1106 21.1635 32.0226 23.8871 31.9512 24.0392C31.7845 24.4304 31.7924 24.6911 31.9432 25.3213C32.229 26.5672 34.2297 31.4567 35.7302 33.8543C37.2466 36.2737 36.7782 32.9416 36.3415 30.8772C36.0557 29.5154 35.8175 27.987 35.8175 27.987C35.8175 27.987 36.5876 27.6248 37.7467 26.8642C38.9058 26.1109 38.7312 25.0968 38.628 24.2493" fill="white"/>
<path d="M40.5401 22.6775C40.3099 22.9382 39.4763 23.3801 39.0714 26.4586C38.6744 29.5227 38.5712 29.6386 38.4759 31.5798C38.3807 33.5646 38.3966 35.39 38.9602 35.5493C39.5318 35.7087 39.6192 34.9626 39.6827 34.3107C39.7462 33.6588 39.8732 33.2893 40.2543 31.5509C40.6274 29.8124 40.945 28.7114 41.5166 28.61C42.6281 28.4144 42.5169 30.218 42.6916 31.0076C42.8504 31.7247 43.1997 33.7167 43.5331 34.4266C44.597 36.7228 44.9304 34.6511 44.9701 33.7602C45.0098 32.8764 44.5335 28.8418 43.9619 25.7053C43.3902 22.5688 41.6119 21.4823 40.5401 22.6847" fill="white"/>
<path fill-rule="evenodd" clip-rule="evenodd" d="M50.8526 20.6708C51.194 20.3521 51.2178 19.8668 49.8126 19.6205C47.9787 19.3018 45.4302 19.1497 43.0008 19.4467C42.0958 19.5553 41.2939 19.8523 41.1272 20.2217C40.9129 20.6998 41.1431 21.2068 41.8973 21.2793C42.8262 21.3662 43.0802 21.4097 43.6122 21.5401C44.5728 21.7791 45.0094 22.4527 45.2873 24.0246C45.6207 25.9079 45.9066 32.1157 45.9701 33.5354C46.0098 34.354 46.1447 35.7085 46.2479 36.1504C46.5337 37.3528 47.0418 37.418 47.3277 36.6792C47.6135 35.9403 47.5499 32.3475 47.4864 30.4497C47.4229 28.5446 47.5102 25.4081 47.4706 23.8652C47.4309 22.5469 47.7802 21.7067 48.5741 21.272C49.3601 20.8374 50.416 21.0909 50.8605 20.6781" fill="white"/>
<path fill-rule="evenodd" clip-rule="evenodd" d="M53.4649 21.9314C52.6631 21.6996 52.3773 22.2863 52.2106 22.9962C52.0438 23.7061 51.8136 25.9371 51.893 26.9512C51.9724 27.9653 51.9724 28.9794 51.1626 28.9287C50.3608 28.878 50.4719 28.4796 50.5037 26.6977C50.5354 24.9809 51.2737 21.4533 50.1226 21.4895C49.7494 21.504 49.416 21.7938 49.2572 22.1559C49.1461 22.4095 48.8126 23.2859 48.9476 25.3431C49.0826 27.4003 48.9317 30.1384 48.9317 31.1525C48.9317 32.1666 48.7809 35.1582 48.7571 36.0274C48.7253 36.8894 48.9238 38.7148 49.813 37.0198C50.1861 36.3099 50.2099 35.1437 50.4084 33.7964C50.6069 32.4491 50.5513 32 50.7736 31.3118C50.9959 30.6309 51.6072 29.9066 51.8057 30.9859C51.9168 31.5943 51.496 33.9413 51.5119 34.6439C51.5357 35.9115 51.6389 37.3892 51.9089 37.679C52.6948 38.4975 52.9568 37.4399 53.068 36.9546C53.1791 36.4765 53.3538 34.0644 53.3855 33.3038C53.4173 32.5433 53.9651 24.4159 54.0207 23.4598C54.0524 22.9745 54.2747 22.1632 53.4729 21.9386" fill="white"/>
<path fill-rule="evenodd" clip-rule="evenodd" d="M56.3155 32.1232C55.9027 31.8697 55.6487 31.8552 55.5693 30.5876C55.4899 29.32 55.9345 29.0375 56.2441 28.9433C56.5537 28.8419 57.2444 28.8491 57.8637 28.2914C58.475 27.7336 57.6414 27.2483 56.784 26.9441C55.9186 26.6398 56.1488 26.3935 56.2917 25.1984C56.4267 24.0539 57.816 24.4595 58.0621 24.5392C57.8716 23.8583 57.6414 23.1484 57.3873 22.5327C56.6569 22.5689 56.4584 22.6414 55.7995 22.9239C55.1803 23.1919 54.561 24.474 54.6166 24.9303C54.6722 25.3867 54.307 32.7027 54.3863 33.3836C54.5054 34.3832 55.2676 35.1076 55.5534 35.0859C55.736 35.0714 55.7281 35.1148 55.871 34.9265C56.3473 34.2891 56.7522 33.6516 57.1015 32.9925C57.2127 32.4564 56.649 32.3261 56.3235 32.1232" fill="white"/>
<path fill-rule="evenodd" clip-rule="evenodd" d="M56.3155 32.1232C55.9027 31.8697 55.6487 31.8552 55.5693 30.5876C55.4899 29.32 55.9345 29.0375 56.2441 28.9433C56.5537 28.8419 57.2444 28.8491 57.8637 28.2914C58.475 27.7336 57.6414 27.2483 56.784 26.9441C55.9186 26.6398 56.1488 26.3935 56.2917 25.1984C56.4267 24.0539 57.816 24.4595 58.0621 24.5392C57.8716 23.8583 57.6414 23.1484 57.3873 22.5327C56.6569 22.5689 56.4584 22.6414 55.7995 22.9239C55.1803 23.1919 54.561 24.474 54.6166 24.9303C54.6722 25.3867 54.307 32.7027 54.3863 33.3836C54.5054 34.3832 55.2676 35.1076 55.5534 35.0859C55.736 35.0714 55.7281 35.1148 55.871 34.9265C56.3473 34.2891 56.7522 33.6516 57.1015 32.9925C57.2127 32.4564 56.649 32.3261 56.3235 32.1232" fill="white"/>
<path fill-rule="evenodd" clip-rule="evenodd" d="M64.0398 33.6803C63.5079 34.5351 63.9763 34.9045 64.6114 35.1798C65.2545 35.4623 65.6038 35.1073 65.8181 34.8176C66.0325 34.5278 66.1278 34.3974 66.096 33.8397C66.0722 33.2819 64.6352 32.7242 64.0398 33.6803Z" fill="white"/>
<path fill-rule="evenodd" clip-rule="evenodd" d="M68.7012 22.9092C67.5183 22.4963 66.9705 22.6194 66.4385 23.1554C66.1289 23.4669 65.4303 25.4299 65.2318 26.77C65.1286 27.4509 65.0333 31.0872 65.0333 31.0872C65.0333 31.0872 65.0016 33.3834 65.9463 32.2172C66.3671 31.6956 67.4151 29.8268 67.82 28.9213C68.2328 28.0159 69.376 25.9515 69.4316 25.2199C69.4872 24.4883 69.8921 23.322 68.7091 22.9092" fill="white"/>
<path fill-rule="evenodd" clip-rule="evenodd" d="M54.6092 20.7143C54.3313 20.8881 54.0217 21.0402 54.7203 21.4024C55.411 21.7574 56.9512 21.6632 56.9512 21.6632C56.8083 21.4169 56.6654 21.2069 56.5146 21.0475C56.4669 20.9968 56.4114 20.9388 56.3637 20.8809C56.3161 20.8447 56.2923 20.8157 56.2923 20.8157C55.4666 20.6636 54.8871 20.5404 54.6092 20.7143Z" fill="white"/>
<path fill-rule="evenodd" clip-rule="evenodd" d="M54.6092 20.7143C54.3313 20.8881 54.0217 21.0402 54.7203 21.4024C55.411 21.7574 56.9512 21.6632 56.9512 21.6632C56.8083 21.4169 56.6654 21.2069 56.5146 21.0475C56.4669 20.9968 56.4114 20.9388 56.3637 20.8809C56.3161 20.8447 56.2923 20.8157 56.2923 20.8157C55.4666 20.6636 54.8871 20.5404 54.6092 20.7143Z" fill="white"/>
<path fill-rule="evenodd" clip-rule="evenodd" d="M40.8335 26.2266C40.5238 27.6174 42.3895 26.8496 42.4848 26.6106C42.5642 26.415 42.3578 25.5385 41.7544 24.8576C41.159 24.1767 40.9208 25.7993 40.8255 26.2266" fill="#FDC300"/>
<path d="M35.7925 24.1915C35.3876 23.8945 34.8239 23.8511 34.6016 24.2205C34.3714 24.5971 34.0697 25.0028 34.9351 26.2197C35.1415 26.5095 36.2847 25.9372 36.3085 25.4084C36.3244 24.9666 36.1339 24.4305 35.8004 24.1915" fill="#FDC300"/>
</g>
</g>
</g>
<g filter="url(#filter1_d_3661_2587)">
<rect x="131.348" y="14" width="95.9841" height="37.4493" fill="white"/>
<g clip-path="url(#clip2_3661_2587)">
<path d="M168.105 25.818C168.19 25.8703 168.95 25.6013 169.393 26.4475C169.798 27.2134 168.282 28.4239 167.071 28.9936C166.283 29.3219 165.394 29.3808 164.563 29.1599C164.213 29.3037 164.255 29.8118 163.785 29.6082C163.711 29.5223 163.502 29.0048 163.741 28.7265C163.182 28.3043 163.208 27.4768 163.441 26.978C163.764 26.4829 164.2 26.0582 164.718 25.7332C165.236 25.4082 165.824 25.1905 166.441 25.095C167.373 24.9624 167.956 25.2146 168.105 25.8105V25.818ZM168.184 27.5795C168.541 27.2713 168.84 26.7464 168.387 26.4792C167.306 25.8423 165.881 27.5403 164.996 28.3473C165.727 28.6854 167.053 28.2445 167.241 28.1455C167.58 27.9967 167.897 27.8083 168.184 27.5851V27.5795ZM165.958 26.2663C165.709 25.902 164.53 26.7482 164.17 27.1611C163.81 27.5739 163.986 27.8055 164.14 27.9363C164.649 27.2954 165.264 26.732 165.962 26.2663" fill="black"/>
<path d="M212.279 36.0402C212.307 36.0389 212.336 36.0451 212.361 36.058C212.386 36.0709 212.406 36.0899 212.42 36.113C212.434 36.1367 212.441 36.163 212.44 36.1896C212.442 36.2039 212.442 36.2183 212.44 36.2326C212.436 36.2514 212.427 36.269 212.414 36.2844C212.402 36.2999 212.386 36.3127 212.368 36.3223C212.35 36.3296 212.332 36.3352 212.313 36.3391C212.338 36.3501 212.359 36.3676 212.374 36.3895L212.467 36.5165L212.505 36.5707L212.451 36.6062L212.416 36.5576L212.331 36.4399L212.299 36.397L212.273 36.369C212.245 36.3541 212.212 36.3495 212.18 36.3559V36.5931H212.115V36.0327L212.279 36.0402ZM212.174 36.3036C212.202 36.3036 212.228 36.3036 212.255 36.3036C212.285 36.3048 212.315 36.2963 212.339 36.2793C212.351 36.2679 212.361 36.2545 212.367 36.2397C212.373 36.225 212.376 36.2092 212.376 36.1934C212.379 36.1792 212.379 36.1646 212.376 36.1504C212.37 36.1371 212.361 36.1251 212.349 36.1154C212.338 36.1057 212.324 36.0985 212.309 36.0944C212.289 36.0918 212.269 36.0918 212.249 36.0944H212.182L212.174 36.3036Z" fill="black"/>
<path d="M212.27 36.7852C212.336 36.7854 212.402 36.7735 212.464 36.7501C212.525 36.7267 212.581 36.6924 212.628 36.6489C212.675 36.6055 212.713 36.5539 212.738 36.4972C212.763 36.4404 212.776 36.3796 212.776 36.3182C212.776 36.2569 212.763 36.1963 212.737 36.1397C212.712 36.0832 212.675 36.0318 212.628 35.9886C212.58 35.9454 212.525 35.9112 212.463 35.8879C212.402 35.8646 212.336 35.8528 212.27 35.853C212.136 35.853 212.007 35.9022 211.912 35.9898C211.817 36.0774 211.764 36.1962 211.764 36.32C211.764 36.4439 211.817 36.5627 211.912 36.6503C212.007 36.7378 212.136 36.787 212.27 36.787V36.7852ZM211.804 36.3182C211.804 36.2616 211.815 36.2056 211.839 36.1533C211.862 36.101 211.896 36.0535 211.94 36.0137C211.983 35.9735 212.035 35.9417 212.092 35.9199C212.148 35.8982 212.209 35.887 212.271 35.887C212.332 35.887 212.393 35.8982 212.45 35.9199C212.507 35.9417 212.558 35.9735 212.602 36.0137C212.648 36.0533 212.684 36.101 212.71 36.1539C212.735 36.2069 212.748 36.264 212.749 36.3218C212.75 36.3797 212.739 36.4372 212.715 36.4908C212.691 36.5444 212.656 36.5931 212.612 36.634C212.568 36.6749 212.515 36.7071 212.456 36.7287C212.398 36.7503 212.336 36.7609 212.273 36.7598C212.211 36.7588 212.149 36.7461 212.091 36.7225C212.034 36.699 211.983 36.665 211.94 36.6227C211.896 36.5829 211.862 36.5355 211.838 36.4832C211.815 36.4309 211.803 36.3747 211.804 36.3182Z" fill="black"/>
<path d="M205.654 34.1519C205.554 36.1357 204.605 36.3935 204.409 36.4439C203.915 36.5728 203.575 36.274 203.259 35.7957C202.943 35.3175 202.2 33.2515 201.981 33.2552C201.647 33.2552 201.2 35.8312 201.192 36.0311C201.184 36.231 201.095 36.5542 200.763 36.5336C200.61 36.5317 200.464 36.4755 200.356 36.3766C200.247 36.2777 200.184 36.1439 200.18 36.0031C200.21 34.3536 200.989 32.1157 201.099 31.8C201.188 31.5329 201.591 31.3069 201.886 31.2396C202.554 31.0827 203.858 34.4153 204.226 34.4265C204.344 34.4265 204.313 34.4134 204.336 34.1967C204.383 33.4439 204.35 32.6886 204.234 31.942C204.125 31.2714 203.941 30.7596 203.961 30.6344C204.014 30.3673 204.396 30.4663 204.649 30.7297C204.85 30.9408 205.765 31.9831 205.654 34.1519Z" fill="black"/>
<path d="M199.411 36.2436C198.861 36.8041 198.612 36.763 198.269 36.6341C197.992 36.5295 198.217 35.205 198.11 34.5213C197.286 34.6241 196.136 34.8221 195.701 34.8183C195.605 34.8183 195.498 35.2293 195.51 35.5656C195.51 36.0774 195.593 36.6658 195.34 36.6864C194.757 36.7349 194.338 36.1054 194.31 35.659C194.281 35.2125 194.482 34.6521 194.415 34.568C194.377 34.5195 194.328 34.5195 194.269 34.4018C194.122 34.0954 193.98 33.3239 194.043 33.3034C194.096 33.2853 194.152 33.2777 194.209 33.281C194.375 33.294 194.666 33.6546 194.755 33.4771C194.844 33.2996 195 32.1022 195.97 30.8507C196.259 30.4771 197.446 30.0455 197.792 30.4135C198.887 31.0207 199.514 32.842 199.604 33.4211C199.693 34.0001 199.956 35.6832 199.411 36.2436ZM198.039 33.5257C197.885 32.9372 197.573 31.2112 196.917 31.4241C196.367 31.6109 195.954 32.8607 195.877 33.6284C196.583 33.7255 197.381 33.5668 198.039 33.5257Z" fill="black"/>
<path d="M193.248 36.5068C192.867 36.7086 192.179 37.2073 190.804 36.6936C190.118 36.434 189.758 35.6214 190.15 34.5491C190.323 34.0747 191.134 32.0721 191.274 31.4426C191.442 30.6954 191.159 30.3722 191.207 30.2882C191.428 29.9146 192.268 30.942 192.317 31.409C192.454 32.7671 191.616 34.5398 191.519 35.018C191.385 35.6756 192.078 35.4402 192.408 35.3916C192.738 35.3431 193.485 34.9993 193.8 35.1805C194.116 35.3617 193.869 36.1762 193.248 36.5068Z" fill="black"/>
<path d="M187.669 36.1041C187 36.4404 186.3 36.3974 186.274 36.4777C185.328 39.7057 185.616 41.3066 185.464 41.3962C185.138 41.583 184.197 40.9666 184.174 40.7256C184.025 38.9958 184.632 36.9896 184.934 36.0219C184.934 35.9977 184.622 35.9099 184.189 35.2C183.986 34.8694 183.891 34.1857 184.059 33.5188C184.262 32.6931 186.071 30.53 186.395 30.4945C186.652 30.459 186.608 30.9615 186.484 31.2622C186.292 31.7199 185.861 32.1066 185.569 32.5119C185.278 32.9173 184.832 33.6701 185.089 34.21C185.26 34.5668 185.381 34.7012 185.521 34.6041C185.792 34.4173 186.128 32.3625 188.982 30.9689C189.614 30.6607 190.078 31.8917 190.025 32.6502C189.847 35.1832 188.09 35.8912 187.669 36.1041ZM189.333 33.4329C189.578 33.0593 189.689 32.0785 189.169 32.1738C188.561 32.284 186.885 34.8357 186.875 35.0692C186.865 35.3028 187.731 34.9684 187.887 34.8974C188.134 34.7872 188.658 34.4565 189.333 33.4329Z" fill="black"/>
<path d="M181.42 31.9325C181.314 32.1587 181.191 32.3778 181.052 32.5882C180.916 32.8459 182.606 32.6909 183.094 32.831C183.2 32.9039 183.179 33.3242 183.155 33.5072C183.127 33.7575 180.865 33.6361 180.703 33.7762C180.623 33.8453 180.118 34.897 180.276 34.9792C180.54 35.1212 182.671 34.4879 182.997 34.699C183.499 35.0259 183.481 35.2837 183.258 35.4892C183.036 35.6947 180.222 37.1013 179.463 36.3896C178.94 35.8964 178.813 35.6779 178.855 34.983C178.914 34.2488 179.375 33.892 179.313 33.7781C179.179 33.5009 179.168 33.1865 179.282 32.902C179.367 32.7413 179.703 32.8814 179.74 32.8235C179.888 32.5713 180.074 31.968 180.203 31.7886C180.333 31.6093 179.531 31.6504 179.414 31.5047C179.297 31.359 178.884 30.8677 179.483 30.864C180.969 30.8546 182.904 30.5184 183.41 30.6137C183.815 30.6903 184.57 31.3739 184.208 31.6523C183.501 32.1025 182.248 31.7345 181.42 31.9325Z" fill="black"/>
<path d="M177.968 35.3547C177.512 35.9805 177.047 35.9151 176.686 35.719C175.705 35.2034 175.105 32.6125 174.64 32.6554C174.366 32.6797 174.496 35.8012 174.275 35.9506C174.055 36.1001 173.909 36.3691 173.433 35.973C173.241 35.8105 173.366 34.346 173.366 34.346C173.451 33.1579 173.595 31.1367 174.221 30.8453C174.733 30.6062 175.369 31.7027 175.662 32.0801C175.956 32.4574 176.822 34.219 177.079 34.1816C177.336 34.1442 177.105 32.6405 177.079 32.2949C176.945 30.9294 176.118 29.8272 176.486 29.5769C176.757 29.3901 177.883 30.4979 178.154 31.4973C178.31 32.095 179.01 33.9369 177.968 35.3547Z" fill="black"/>
<path d="M172.154 31.3926C170.589 31.4169 168.205 31.5794 167.929 31.7438C167.697 31.8839 167.672 31.9623 168.215 32.1174C169.122 32.3938 171.99 32.0595 172.735 33.425C172.93 34.0146 172.871 34.6508 172.571 35.2015C172.197 35.8347 170.547 36.199 169.379 36.0925C168.569 36.0178 166.909 35.5713 166.848 34.4001C166.887 33.9294 167 33.5688 167.895 33.3279C168.907 33.0551 171.073 33.6305 171.197 33.9891C171.276 34.2208 170.019 34.585 169.423 34.4188C168.933 34.2805 167.964 33.4493 167.456 34.232C167.336 34.5682 167.626 34.7195 167.893 34.8036C169.454 35.1417 171.66 34.7121 171.907 34.1759C172.154 33.6398 171.262 33.4642 170.802 33.2905C169.476 32.7824 167.658 33.2251 166.836 32.6778C166.375 32.1435 166.666 31.6597 166.836 31.3459C167.571 30.2718 170.324 30.3521 171.025 30.3745C171.646 30.3951 172.932 30.4249 173.002 30.6958C173.14 31.2357 172.486 31.3066 172.154 31.3926Z" fill="black"/>
<path d="M165.571 36.0697C165.328 36.1781 164.573 35.9894 164.646 35.6961C164.444 33.9701 164.664 32.0684 164.887 30.6114C165 30.3087 165.581 30.051 165.808 31.1232C165.94 32.5975 165.989 34.0771 165.956 35.556C165.95 35.6663 165.911 35.7728 165.843 35.8636C165.775 35.9544 165.681 36.0258 165.571 36.0697Z" fill="black"/>
<path d="M168.078 25.7714C168.163 25.8256 168.922 25.5547 169.368 26.401C169.772 27.1668 168.254 28.3792 167.046 28.9489C166.256 29.2763 165.367 29.3352 164.535 29.1152C164.183 29.259 164.228 29.7671 163.756 29.5635C163.681 29.4776 163.473 28.9583 163.713 28.6818C163.153 28.2578 163.179 27.4321 163.412 26.9333C163.737 26.4408 164.173 26.0189 164.692 25.6965C165.21 25.3741 165.797 25.1588 166.414 25.0653C167.341 24.9252 167.926 25.1755 168.078 25.7714ZM168.157 27.5404C168.513 27.2341 168.815 26.7092 168.359 26.4402C167.268 25.8032 165.851 27.5012 164.965 28.3138C165.693 28.6501 167.023 28.2092 167.21 28.1102C167.549 27.9589 167.867 27.7674 168.153 27.5404H168.157ZM165.93 26.2328C165.679 25.8592 164.513 26.7129 164.143 27.1276C163.772 27.5423 163.956 27.7721 164.112 27.901C164.616 27.2555 165.227 26.687 165.922 26.216L165.93 26.2328Z" fill="black"/>
<path d="M208.633 36.8508C209.7 36.9367 210.82 36.4772 211.225 36.1428C212.781 34.8352 212.455 33.6546 212.044 33.0082C210.773 31.0039 207.678 30.5798 206.755 30.9235C205.832 31.2672 205.822 31.5512 205.858 31.7716C205.913 32.1135 206.214 32.177 206.305 32.106C206.397 32.035 206.417 32.0294 206.364 31.8669C206.311 31.7044 206.548 31.5474 206.801 31.5176C207.844 31.3905 209.129 32.1732 209.482 32.4105C210.976 33.4136 211.271 34.7455 211.051 35.1752C210.83 35.6048 209.532 35.7468 208.484 35.5151C208.484 35.5151 208.427 34.3626 208.508 32.8046C208.508 32.5879 208.336 32.4086 208.002 32.4945C207.423 32.6421 207.239 34.7548 207.235 34.8539C207.235 34.9977 206.927 34.6278 206.801 34.4802C206.764 34.4453 206.719 34.4194 206.668 34.4048C206.618 34.3902 206.564 34.3875 206.512 34.3967C206.46 34.406 206.411 34.427 206.37 34.4579C206.329 34.4887 206.297 34.5285 206.277 34.5736C206.243 34.6577 205.892 35.418 206.52 35.9952C206.727 36.1653 206.954 36.3126 207.198 36.4342C207.287 36.8993 207.459 37.4168 207.943 37.357C208.336 37.3028 208.494 37.3944 208.633 36.8508Z" fill="black"/>
<path d="M152.647 34.8781C150.511 34.1103 149.023 32.997 149.023 32.3413C149.023 31.878 150.926 31.7118 152.724 31.6538C152.681 32.6887 152.645 33.888 152.647 34.8781ZM154.327 36.4509C155.241 36.7367 156.197 36.8929 157.161 36.9142C160.451 36.9142 163.896 35.1284 163.896 32.3245C163.886 28.5735 156.629 23.7876 149.971 23.7876C148.037 23.7876 146.973 24.0473 146.62 24.2509C146.337 24.4134 145.811 24.929 145.811 25.1457C145.811 25.6257 146.418 25.6444 146.681 25.6444C146.944 25.6444 147.3 25.5902 147.3 25.3754C147.299 25.3145 147.273 25.2563 147.226 25.2134C147.179 25.1704 147.116 25.1461 147.049 25.1457C146.932 25.1457 146.43 25.3044 146.43 25.0373C146.43 24.8225 147.902 24.6805 149.159 24.6805C156.447 24.6805 162.222 29.3954 162.222 32.3394C162.222 34.1066 160.558 35.7149 157.305 35.7149C156.296 35.7114 155.291 35.5954 154.313 35.3693C154.291 34.6221 154.258 33.0381 154.246 31.6333H154.813C156.165 31.6333 158.528 31.9901 158.528 32.4179C158.528 32.8456 157.957 33.0287 157.742 33.1277C157.586 33.1912 157.752 33.2884 157.868 33.3425C158.011 33.4118 158.172 33.4453 158.333 33.4397C158.856 33.4397 159.724 32.9222 159.724 32.261C159.724 31.3157 158.234 30.279 155.157 30.279C154.918 30.279 154.604 30.2921 154.238 30.3201C154.238 29.7354 154.25 29.2796 154.268 29.0834C154.292 28.5251 154.123 27.9742 153.785 27.5106C153.582 27.2789 153.321 27.2603 153.177 27.617C153.012 28.1735 152.895 28.7414 152.829 29.3151C152.829 29.3973 152.799 29.8456 152.766 30.4845C150.782 30.7703 148.495 31.3718 148.495 32.3693C148.495 33.4397 150.39 34.8837 152.661 35.8569C152.661 36.0586 152.679 36.2305 152.693 36.3856C152.732 36.7592 152.772 37.3513 153.584 37.3513C154.11 37.342 154.283 36.9404 154.327 36.4509V36.4509Z" fill="black"/>
<path d="M190.389 38.3582C190.621 38.3417 190.854 38.3743 191.071 38.4534C191.206 38.4914 191.325 38.5678 191.41 38.6718C191.495 38.7757 191.543 38.9018 191.545 39.0321C191.548 39.1624 191.507 39.2903 191.426 39.3973C191.346 39.5044 191.23 39.5853 191.097 39.6284C190.866 39.7223 190.613 39.759 190.362 39.7349H189.899V40.6689H189.113V38.3582H190.389ZM189.899 39.3146H190.156C190.591 39.3146 190.741 39.2473 190.741 39.0437C190.741 38.8401 190.585 38.7841 190.174 38.7841H189.899V39.3146Z" fill="black"/>
<path d="M197.388 40.6523H196.552L196.295 40.1965H194.9L194.668 40.6523H193.844L195.101 38.3584H196.002L197.388 40.6523ZM195.107 39.793H196.067L195.562 38.902L195.107 39.793Z" fill="black"/>
<path d="M201.386 38.3584C201.839 38.3584 202.003 38.3827 202.206 38.4742C202.32 38.5234 202.418 38.6 202.489 38.6959C202.56 38.7918 202.602 38.9037 202.611 39.0197C202.608 39.1079 202.582 39.1941 202.536 39.2712C202.489 39.3482 202.423 39.4138 202.344 39.4624C202.261 39.5147 202.17 39.5556 202.074 39.5838C202.274 39.6764 202.432 39.8294 202.524 40.0172L202.647 40.204L202.728 40.3329L202.825 40.4879L202.906 40.6168L202.931 40.6542H202.074L202.056 40.6299L201.995 40.5346L201.939 40.43L201.846 40.2825L201.728 40.0863C201.688 40.004 201.63 39.93 201.559 39.8684C201.487 39.8068 201.403 39.759 201.311 39.7277C201.237 39.7162 201.162 39.7125 201.086 39.7165H200.973V40.6505H200.186V38.3584H201.386ZM200.981 39.3036H201.305H201.366H201.461C201.663 39.3036 201.809 39.1953 201.809 39.0458C201.809 38.8964 201.661 38.7824 201.374 38.7824H200.975L200.981 39.3036Z" fill="black"/>
<path d="M206.926 40.6523H206.137V38.3584H206.922L206.926 40.6523Z" fill="black"/>
<path d="M212.274 38.9713L212.22 38.9507C211.919 38.8278 211.596 38.7587 211.268 38.7471C210.985 38.7471 210.8 38.8218 210.8 38.9339C210.8 39.046 210.96 39.1207 211.309 39.2066L211.556 39.2739C212.163 39.4327 212.416 39.6475 212.416 40.0006C212.416 40.4097 211.926 40.6824 211.201 40.6824C210.921 40.6802 210.643 40.638 210.377 40.5572C210.28 40.5346 210.187 40.5013 210.098 40.4582V39.9632C210.255 40.0426 210.418 40.1089 210.588 40.1612C210.773 40.2206 210.968 40.2509 211.165 40.2509C211.471 40.2509 211.634 40.1799 211.634 40.0398C211.634 39.8997 211.531 39.853 211.215 39.7801L211.045 39.7372C210.869 39.6949 210.696 39.6393 210.529 39.5709C210.422 39.5297 210.323 39.473 210.236 39.4028C210.172 39.3477 210.121 39.2812 210.086 39.2073C210.051 39.1334 210.033 39.0537 210.033 38.9731C210.033 38.579 210.499 38.3193 211.213 38.3193C211.575 38.3227 211.933 38.3859 212.27 38.5061L212.274 38.9713Z" fill="black"/>
</g>
</g>
<g filter="url(#filter2_d_3661_2587)">
<rect x="262.693" y="14" width="95.9841" height="37.4493" fill="white"/>
<g clip-path="url(#clip3_3661_2587)">
<rect width="33.0526" height="30.9948" transform="translate(294.375 17.0723)" fill="white"/>
<path d="M313.412 29.5903C313.412 30.1968 314.056 30.3455 314.779 30.3455C315.501 30.3455 316.85 30.0951 316.85 28.4976C316.473 28.7376 315.423 28.7491 314.732 28.8411C314.041 28.944 313.412 28.9952 313.412 29.5909V29.5903Z" fill="#EBB300"/>
<path d="M303.928 25.3562H304.869V26.1799H304.91C305.407 25.5162 306.847 25.2148 307.675 25.2148C309.758 25.2148 310.986 26.1685 310.986 27.6331V31.2723H309.027V27.9304C309.027 26.9574 307.924 26.4585 307.013 26.4585C305.95 26.4585 304.965 26.9694 304.965 28.1711V31.2723H303.005V26.4429H299.992V31.2723H298.166V26.4429H297.353L294.375 43.6347L322.825 48.067L325.878 30.445C325.199 31.0906 324.132 31.433 322.812 31.433C320.412 31.433 318.797 30.1742 318.797 28.4003C318.797 26.6264 320.274 25.1961 322.858 25.1961C324.516 25.1961 326.053 25.7684 326.485 26.9435L327.427 21.5046L298.978 17.0723L297.543 25.3562H298.166V24.8983C298.166 23.8567 299.198 22.6478 301.45 22.6478C302.951 22.6478 304.805 23.0089 304.805 24.814H303.084C303.084 24.172 301.98 23.9313 301.45 23.9313C300.699 23.9313 299.993 24.509 299.993 25.0012V25.3562H303.928ZM318.684 31.353H316.769V30.7007C316.062 31.2386 314.936 31.433 313.946 31.433C312.407 31.433 311.181 30.8722 311.181 29.6591C311.181 28.3203 312.564 27.9996 313.946 27.8624C315.313 27.7137 316.585 27.748 316.585 27.0843C316.585 26.3863 315.926 26.2834 315.14 26.2834C314.291 26.2834 313.742 26.535 313.663 27.1758H311.432C311.558 25.654 313.295 25.1961 315.117 25.1961C316.735 25.1961 318.683 25.6998 318.683 27.1192V31.353H318.684Z" fill="#EBB300"/>
</g>
</g>
<g filter="url(#filter3_d_3661_2587)">
<rect x="65.6719" y="65.2822" width="95.9841" height="37.4493" fill="white"/>
<g clip-path="url(#clip4_3661_2587)">
<path d="M91.1342 75.4492C85.8671 75.4492 81.5977 79.3446 81.5977 84.1503C81.5977 88.9559 85.8671 92.8514 91.1342 92.8514C96.4012 92.8514 100.671 88.9559 100.671 84.1503C100.671 79.3446 96.4024 75.4492 91.1342 75.4492ZM95.5084 87.999C95.3376 88.2546 94.9709 88.3356 94.6907 88.1787C92.4518 86.9308 89.6332 86.6482 86.3135 87.3402C85.9935 87.4067 85.6746 87.2238 85.6018 86.9318C85.5289 86.6399 85.7282 86.3489 86.0493 86.2824C89.6822 85.525 92.798 85.8512 95.3125 87.2529C95.5927 87.4098 95.6815 87.7433 95.5095 87.999H95.5084ZM96.6757 85.6299C96.4604 85.9489 96.0026 86.0497 95.653 85.8533C93.0895 84.4152 89.1822 83.9996 86.1495 84.8392C85.7566 84.9472 85.341 84.7457 85.2214 84.3872C85.103 84.0287 85.325 83.6505 85.7168 83.5414C89.1799 82.5823 93.4858 83.0468 96.4297 84.6979C96.7793 84.8943 96.8898 85.312 96.6745 85.6309L96.6757 85.6299ZM96.7759 83.1621C93.7022 81.4965 88.631 81.3438 85.6963 82.1563C85.2248 82.2862 84.7271 82.0441 84.5837 81.6139C84.4413 81.1838 84.7066 80.7297 85.1781 80.5988C88.5468 79.6657 94.1475 79.8465 97.6858 81.7625C98.1106 81.9922 98.2495 82.492 97.9979 82.8774C97.7473 83.264 97.1984 83.3918 96.7759 83.1621ZM107.545 83.4822C105.898 83.1237 105.605 82.8722 105.605 82.3444C105.605 81.8457 106.12 81.509 106.886 81.509C107.653 81.509 108.365 81.7636 109.137 82.2893C109.159 82.3049 109.189 82.3112 109.218 82.307C109.247 82.3028 109.272 82.2883 109.289 82.2665L110.093 81.2326C110.126 81.19 110.117 81.1318 110.073 81.0986C109.154 80.4263 108.12 80.099 106.91 80.099C105.133 80.099 103.89 81.0726 103.89 82.4649C103.89 83.9591 104.962 84.4869 106.813 84.8953C108.388 85.2268 108.655 85.5042 108.655 85.9998C108.655 86.5495 108.117 86.8913 107.252 86.8913C106.291 86.8913 105.506 86.5952 104.629 85.9032C104.608 85.8855 104.578 85.8782 104.551 85.8793C104.521 85.8814 104.495 85.8938 104.477 85.9136L103.575 86.8924C103.537 86.9339 103.542 86.9942 103.585 87.0295C104.605 87.8608 105.86 88.2992 107.215 88.2992C109.131 88.2992 110.369 87.3444 110.369 85.8658C110.372 84.6179 109.554 83.9269 107.548 83.4822L107.545 83.4811V83.4822ZM114.703 82.0005C113.873 82.0005 113.192 82.2987 112.629 82.9107V82.2228C112.629 82.1688 112.582 82.1241 112.522 82.1241H111.048C110.988 82.1241 110.941 82.1688 110.941 82.2228V89.8703C110.941 89.9243 110.988 89.969 111.048 89.969H112.522C112.582 89.969 112.629 89.9243 112.629 89.8703V87.4566C113.192 88.0312 113.873 88.3128 114.703 88.3128C116.246 88.3128 117.809 87.229 117.809 85.1571C117.811 83.0853 116.249 82.0005 114.704 82.0005H114.703ZM116.094 85.1561C116.094 86.2107 115.382 86.9474 114.362 86.9474C113.341 86.9474 112.593 86.1775 112.593 85.1561C112.593 84.1347 113.354 83.3648 114.362 83.3648C115.365 83.3648 116.094 84.1181 116.094 85.1561ZM121.812 82.0005C119.825 82.0005 118.268 83.397 118.268 85.179C118.268 86.9609 119.814 88.3231 121.788 88.3231C123.761 88.3231 125.343 86.9318 125.343 85.1561C125.343 83.3803 123.792 82.0005 121.812 82.0005ZM121.812 86.9578C120.755 86.9578 119.958 86.1827 119.958 85.1561C119.958 84.1295 120.728 83.3762 121.788 83.3762C122.848 83.3762 123.653 84.1513 123.653 85.179C123.653 86.2066 122.879 86.9589 121.812 86.9589V86.9578ZM129.587 82.1231H127.964V80.6092C127.964 80.5551 127.916 80.5105 127.857 80.5105H126.382C126.323 80.5105 126.274 80.5551 126.274 80.6092V82.1231H125.565C125.506 82.1231 125.458 82.1678 125.458 82.2218V83.3783C125.458 83.4323 125.506 83.477 125.565 83.477H126.274V86.4684C126.274 87.6768 126.933 88.2899 128.235 88.2899C128.763 88.2899 129.202 88.1901 129.615 87.9761C129.649 87.9595 129.67 87.9262 129.67 87.8909V86.7895C129.67 86.7562 129.65 86.724 129.618 86.7064C129.587 86.6877 129.547 86.6866 129.514 86.7022C129.23 86.8321 128.956 86.8924 128.648 86.8924C128.176 86.8924 127.964 86.696 127.964 86.2575V83.477H129.587C129.646 83.477 129.694 83.4323 129.694 83.3783V82.2218C129.696 82.1678 129.648 82.1231 129.588 82.1231H129.587ZM135.24 82.1293V81.9433C135.24 81.3968 135.47 81.1526 135.984 81.1526C136.292 81.1526 136.539 81.2087 136.816 81.2929C136.85 81.3022 136.885 81.2981 136.913 81.2794C136.941 81.2607 136.957 81.2305 136.957 81.1994V80.0658C136.957 80.0221 136.927 79.9837 136.881 79.9712C136.589 79.8922 136.216 79.8101 135.655 79.8101C134.294 79.8101 133.574 80.5094 133.574 81.8332V82.1179H132.865C132.806 82.1179 132.757 82.1626 132.757 82.2166V83.3783C132.757 83.4323 132.806 83.477 132.865 83.477H133.574V88.0904C133.574 88.1455 133.623 88.1891 133.682 88.1891H135.155C135.216 88.1891 135.264 88.1455 135.264 88.0904V83.477H136.64L138.75 88.0904C138.51 88.5746 138.275 88.6712 137.953 88.6712C137.694 88.6712 137.419 88.6006 137.14 88.4603C137.114 88.4478 137.082 88.4458 137.055 88.453C137.026 88.4624 137.003 88.4811 136.991 88.506L136.491 89.5066C136.467 89.5544 136.488 89.6095 136.538 89.6344C137.06 89.8921 137.53 90.0023 138.112 90.0023C139.2 90.0023 139.803 89.5388 140.332 88.294L142.89 82.2634C142.904 82.2332 142.899 82.1989 142.879 82.1719C142.86 82.1449 142.827 82.1293 142.791 82.1293H141.256C141.209 82.1293 141.168 82.1563 141.154 82.1958L139.581 86.2928L137.859 82.1927C137.843 82.1543 137.803 82.1293 137.759 82.1293H135.24ZM131.962 82.1231H130.487C130.428 82.1231 130.379 82.1678 130.379 82.2218V88.0904C130.379 88.1455 130.428 88.1891 130.487 88.1891H131.962C132.021 88.1891 132.07 88.1455 132.07 88.0904V82.2218C132.07 82.1678 132.022 82.1231 131.962 82.1231ZM131.233 79.4506C130.649 79.4506 130.175 79.8818 130.175 80.4149C130.175 80.9479 130.649 81.3802 131.233 81.3802C131.818 81.3802 132.29 80.9479 132.29 80.4149C132.29 79.8818 131.816 79.4506 131.233 79.4506ZM144.15 84.01C143.567 84.01 143.112 83.583 143.112 83.0634C143.112 82.5439 143.572 82.1117 144.156 82.1117C144.739 82.1117 145.193 82.5387 145.193 83.0582C145.193 83.5778 144.733 84.01 144.15 84.01ZM144.156 82.2062C143.624 82.2062 143.222 82.5917 143.222 83.0634C143.222 83.5352 143.621 83.9155 144.15 83.9155C144.678 83.9155 145.084 83.53 145.084 83.0582C145.084 82.5865 144.684 82.2062 144.156 82.2062ZM144.386 83.1549L144.679 83.53H144.431L144.167 83.186H143.94V83.53H143.733V82.5366H144.218C144.472 82.5366 144.638 82.6551 144.638 82.8535C144.64 83.0167 144.536 83.1164 144.387 83.1549H144.386ZM144.21 82.707H143.94V83.0219H144.21C144.345 83.0219 144.425 82.9616 144.425 82.865C144.425 82.7631 144.345 82.7081 144.21 82.7081V82.707Z" fill="#1ED760"/>
</g>
</g>
<g filter="url(#filter4_d_3661_2587)">
<rect x="197.02" y="65.2822" width="95.9841" height="37.4493" fill="white"/>
<g clip-path="url(#clip5_3661_2587)">
<path d="M221.181 90.126C217.308 90.3733 214.43 87.9236 214.17 84.5232C213.912 81.1725 216.498 78.4243 220.23 78.1866C223.317 77.9891 225.028 79.4668 225.028 79.4668L224.04 81.0993C224.04 81.0993 222.5 79.9711 220.484 80.0996C217.807 80.2703 216.374 82.1922 216.538 84.3394C216.709 86.5356 218.483 88.3692 221.123 88.2006C223.319 88.061 224.688 86.5018 224.688 86.5018L226.018 87.9374C226.018 87.9374 224.413 89.9208 221.181 90.126Z" fill="#104274"/>
<path d="M232.74 89.1934L232.669 88.2496C232.642 87.9243 232.658 87.6617 232.658 87.6617L232.623 87.6631C232.243 88.5543 231.15 89.4904 229.595 89.5906C227.648 89.7136 226.366 88.897 226.193 86.6358L225.783 81.2983L228.051 81.1532L228.427 86.0672C228.504 87.0752 228.841 87.7412 229.968 87.6693C231.609 87.5643 232.419 86.1881 232.306 84.7083L232.015 80.901L234.279 80.7573L234.918 89.0552L232.74 89.1934Z" fill="#104274"/>
<path d="M238.733 88.8938C237.483 88.9725 235.906 88.7798 235.726 86.4032L235.037 77.4401L237.287 77.2964L237.951 85.9521C238.02 86.8627 238.377 87.0699 238.967 87.0319C239.144 87.0202 239.304 86.9932 239.304 86.9932L239.442 88.7998C239.442 88.7998 239.108 88.8689 238.733 88.8938Z" fill="#104274"/>
<path d="M251.727 87.9834L251.655 87.0404C251.63 86.715 251.645 86.4518 251.645 86.4518L251.61 86.4538C251.23 87.3457 250.136 88.2812 248.583 88.3799C246.638 88.5043 245.355 87.6863 245.179 85.4252L244.896 81.7318L242.083 81.9108L242.34 85.2635C242.446 86.6293 243.638 86.7495 244.262 86.7108C244.512 86.6949 244.671 86.6514 244.671 86.6514L244.807 88.4566C244.807 88.4566 244.544 88.523 244.117 88.5499C242.848 88.6307 240.305 88.4497 240.092 85.6676L239.815 82.0552L238.637 82.1298L238.51 80.4862L239.741 80.4082L239.569 78.1463L241.782 78.0054L241.955 80.2672L247.038 79.9432L247.414 84.8559C247.492 85.8645 247.828 86.5298 248.954 86.458C250.596 86.3537 251.406 84.9768 251.291 83.497L251 79.689L253.267 79.5453L253.905 87.8432L251.727 87.9834Z" fill="#104274"/>
<path d="M257.129 84.337L257.382 87.6234L255.114 87.7684L254.477 79.4706L256.656 79.331L256.764 80.7639C256.79 81.0727 256.775 81.3518 256.775 81.3518L256.811 81.349C257.129 80.1352 258.146 79.1224 259.539 79.034C259.752 79.0195 259.953 79.0402 259.953 79.0402L260.108 81.0747C260.108 81.0747 259.873 81.0561 259.571 81.0761C258.606 81.1383 257.557 81.7117 257.221 82.9746C257.11 83.3884 257.091 83.8478 257.129 84.337Z" fill="#104274"/>
<path d="M274.577 84.0695C274.48 84.1648 274.367 84.2415 274.273 84.2892C274.197 84.3265 274.123 84.35 274.047 84.3541C274.004 84.3569 273.96 84.3541 273.919 84.3417C273.808 84.3092 273.737 84.2118 273.735 84.2111C273.406 83.7931 273.032 83.6363 272.825 83.5776C272.83 83.6329 272.837 83.6999 272.842 83.7793C272.894 84.4474 272.9 85.9148 272.137 87.2136C271.505 88.3528 270.491 89.2481 269.215 89.8637C268.354 90.2879 267.455 90.4938 266.578 90.549H266.578C264.82 90.6616 263.142 90.178 261.956 89.6599C261.002 89.2502 259.819 88.3231 259.086 87.5846C259.233 88.0005 259.574 88.6512 260.288 89.0782C260.789 89.3787 261.193 89.5038 261.359 89.5473C261.415 89.5604 261.499 89.577 261.499 89.577L261.527 89.6267C261.527 89.6323 261.673 89.8865 261.692 90.0979C261.693 90.1497 261.693 90.2036 261.663 90.2596C261.634 90.3183 261.554 90.3646 261.479 90.3659L261.456 90.3673C261.305 90.3632 261.027 90.2969 260.663 90.1539C260.305 90.0115 259.874 89.7912 259.469 89.4734C258.419 88.654 258.343 87.5922 258.317 87.3055L258.315 87.2951C258.306 87.1548 258.362 86.9918 258.428 86.8371C258.499 86.6823 258.569 86.5524 258.65 86.4778C258.68 86.4474 258.729 86.4205 258.784 86.4177C258.896 86.4163 258.952 86.4709 259.01 86.5186C259.07 86.5683 259.132 86.6326 259.206 86.7044C259.705 87.179 260.729 88.2056 262.234 88.9117C263.506 89.5093 264.886 89.7462 266.211 89.662C266.347 89.6523 266.484 89.6399 266.621 89.6253C268.096 89.4547 269.234 88.8944 270.271 87.8388C271.551 86.5372 271.63 84.8971 271.564 84.0543C271.551 83.8836 271.531 83.7462 271.516 83.6515L271.509 83.6101C271.237 83.6391 271.077 83.666 271.077 83.666C271.031 83.6743 270.992 83.6798 270.954 83.6826C270.884 83.6874 270.805 83.6743 270.749 83.6329C270.701 83.6004 270.639 83.5292 270.633 83.427C270.629 83.3904 270.633 83.3517 270.642 83.313C270.662 83.2329 270.688 83.1493 270.74 83.0733C270.792 82.9987 270.877 82.9323 270.989 82.9082C271.475 82.7983 271.841 82.7396 272.169 82.7189C272.459 82.7009 272.717 82.7113 272.999 82.7396C273.803 82.8225 274.432 83.1672 274.708 83.5893C274.732 83.6287 274.746 83.6709 274.749 83.713C274.757 83.8615 274.67 83.9742 274.577 84.0695Z" fill="#104274"/>
<path d="M263.884 85.786C262.956 85.8454 262.469 85.3535 262.426 84.8002C262.338 83.645 264.2 83.3798 265.361 83.3058L265.754 83.281L265.769 83.4758C265.847 84.4844 265.079 85.71 263.884 85.786ZM267.879 81.7397C267.717 79.6409 266.232 78.5258 263.842 78.6778C261.681 78.8146 260.35 79.9303 260.35 79.9303L261.32 81.3562C261.32 81.3562 262.455 80.483 263.759 80.3994C264.758 80.3352 265.537 80.6619 265.62 81.7528L265.629 81.8661L265.324 81.8854C263.843 81.9801 259.948 82.407 260.15 85.042C260.278 86.7021 261.812 87.5359 263.437 87.433C265.507 87.3017 266.11 85.7915 266.09 85.7922L266.126 85.7902C266.126 85.7902 266.11 86.0527 266.135 86.3781L266.189 87.0627L268.277 86.9294L267.879 81.7397Z" fill="#104274"/>
</g>
</g>
<g filter="url(#filter5_d_3661_2587)">
<rect y="116.557" width="95.9841" height="37.4493" fill="white"/>
<g clip-path="url(#clip6_3661_2587)">
<path d="M58.832 135.046C58.4 135.046 58.0671 134.952 57.8332 134.768C57.5994 134.583 57.4805 134.312 57.4805 133.958C57.4805 133.603 57.5954 133.347 57.8332 133.162C58.0671 132.978 58.4 132.884 58.832 132.884C59.7396 132.884 60.1954 133.242 60.1954 133.958C60.1954 134.312 60.0765 134.58 59.8427 134.768C59.6088 134.952 59.2719 135.046 58.832 135.046Z" fill="#E56924"/>
<path d="M45.3136 128.692C46.0294 128.692 46.6097 128.16 46.6097 127.503C46.6097 126.846 46.0294 126.313 45.3136 126.313C44.5978 126.313 44.0176 126.846 44.0176 127.503C44.0176 128.16 44.5978 128.692 45.3136 128.692Z" fill="black"/>
<path d="M47.7312 128.96C48.9123 128.895 49.5504 129.781 49.5623 130.088C49.5742 130.432 48.4129 133.393 47.7589 133.419C47.101 133.444 46.0586 130.772 46.0586 130.153C46.0586 129.781 46.5501 129.025 47.7351 128.96H47.7312Z" fill="black"/>
<path d="M50.1339 128.692C50.8497 128.692 51.43 128.16 51.43 127.503C51.43 126.846 50.8497 126.313 50.1339 126.313C49.4182 126.313 48.8379 126.846 48.8379 127.503C48.8379 128.16 49.4182 128.692 50.1339 128.692Z" fill="black"/>
<path d="M45.3136 128.692C46.0294 128.692 46.6097 128.16 46.6097 127.503C46.6097 126.846 46.0294 126.313 45.3136 126.313C44.5978 126.313 44.0176 126.846 44.0176 127.503C44.0176 128.16 44.5978 128.692 45.3136 128.692Z" fill="white"/>
<path d="M50.1339 128.692C50.8497 128.692 51.43 128.16 51.43 127.503C51.43 126.846 50.8497 126.313 50.1339 126.313C49.4182 126.313 48.8379 126.846 48.8379 127.503C48.8379 128.16 49.4182 128.692 50.1339 128.692Z" fill="white"/>
<path d="M45.313 128.034C45.6326 128.034 45.8917 127.796 45.8917 127.503C45.8917 127.209 45.6326 126.971 45.313 126.971C44.9935 126.971 44.7344 127.209 44.7344 127.503C44.7344 127.796 44.9935 128.034 45.313 128.034Z" fill="black"/>
<path d="M50.1333 128.034C50.4529 128.034 50.712 127.796 50.712 127.503C50.712 127.209 50.4529 126.971 50.1333 126.971C49.8138 126.971 49.5547 127.209 49.5547 127.503C49.5547 127.796 49.8138 128.034 50.1333 128.034Z" fill="black"/>
<path d="M49.5623 130.088C49.5742 130.432 48.4129 133.393 47.7589 133.419C47.101 133.444 46.0586 130.772 46.0586 130.153C46.0586 129.781 46.5501 129.025 47.7351 128.96C48.9162 128.895 49.5543 129.781 49.5662 130.088H49.5623Z" fill="#FACD70"/>
<path d="M51.5368 133.965V139.306L48.3066 140.695C48.2035 140.76 48.0846 140.811 47.9578 140.843C47.8309 140.876 47.6962 140.894 47.5575 140.894C47.284 140.894 47.0184 140.821 46.8084 140.695L43.5782 139.306V139.086C44.2004 139.263 44.8782 139.245 45.4608 138.952C45.762 138.778 46.1663 138.467 45.98 138.102C45.8651 137.892 45.5876 137.805 45.3617 137.91L45.223 137.972C45.0803 138.037 44.9337 138.022 44.7751 137.986C44.6998 137.968 44.6206 137.943 44.5413 137.907H44.5334C43.7684 137.523 43.5742 136.847 43.5742 136.634V133.961L43.9943 134.24L45.9245 135.513L46.9431 136.185C47.2166 136.243 47.4941 136.272 47.7755 136.272C48.0569 136.272 48.3383 136.243 48.6117 136.185L49.6422 135.401L51.5288 133.965H51.5368Z" fill="#E56924"/>
<path d="M59.3087 137.075C59.273 136.883 59.0946 136.735 58.8766 136.724C58.619 136.713 58.405 136.894 58.3931 137.129C58.3693 137.408 58.3337 137.773 58.0681 137.896C57.8065 137.968 57.5568 137.896 57.2754 137.813C55.5394 137.183 53.6806 135.466 52.5034 133.874C52.8839 131.658 52.983 128.569 52.8245 127.278C52.5867 125.326 50.062 123.272 47.2004 123.568C44.3388 123.865 43.5778 125.083 43.1022 126.06C42.6781 126.931 41.8022 129.3 43.4232 133.043C43.3717 133.09 43.3202 133.137 43.2726 133.191C42.7732 133.733 42.3135 134.298 41.9528 135.035C41.3702 136.203 41.3821 137.672 42.5433 138.568C42.8485 138.8 43.2052 138.981 43.5857 139.085C44.208 139.263 44.8857 139.245 45.4684 138.952C45.7696 138.778 46.1738 138.467 45.9876 138.102C45.8726 137.892 45.5952 137.805 45.3693 137.91L45.2306 137.972C45.0879 138.037 44.9412 138.022 44.7827 137.986C44.7074 137.968 44.6281 137.943 44.5488 137.907H44.5409C43.776 137.523 43.5818 136.847 43.5818 136.634V133.961L43.7839 133.82L44.3745 133.408L46.3799 134.901L47.0696 135.415C47.2876 135.473 47.5135 135.502 47.7394 135.502C47.9653 135.502 48.1912 135.473 48.4092 135.415L49.0751 134.84L50.7437 133.404L51.5403 133.958V136.901C52.7096 137.704 53.9897 138.362 55.373 138.854C56.1538 139.104 57.0218 139.328 57.9016 139.198C58.6706 139.085 59.2611 138.576 59.3483 137.86C59.3879 137.57 59.3602 137.313 59.3126 137.068L59.3087 137.075ZM44.0177 127.503C44.0177 126.845 44.5964 126.313 45.3138 126.313C46.0312 126.313 46.6098 126.845 46.6098 127.503C46.6098 128.161 46.0312 128.692 45.3138 128.692C44.5964 128.692 44.0177 128.161 44.0177 127.503ZM47.7592 133.419C47.1013 133.444 46.0589 130.772 46.0589 130.153C46.0589 129.781 46.5504 129.025 47.7354 128.96C48.9165 128.895 49.5547 129.781 49.5665 130.088C49.5784 130.432 48.4172 133.394 47.7632 133.419H47.7592ZM50.1333 128.692C49.4159 128.692 48.8373 128.161 48.8373 127.503C48.8373 126.845 49.4159 126.313 50.1333 126.313C50.8507 126.313 51.4294 126.845 51.4294 127.503C51.4294 128.161 50.8507 128.692 50.1333 128.692Z" fill="black"/>
<path d="M51.5366 133.965L49.65 135.4L48.6196 136.185C48.3461 136.243 48.0686 136.272 47.7833 136.272C47.4979 136.272 47.2205 136.243 46.9509 136.185L45.9323 135.513L44.0022 134.24L43.582 133.961L43.7842 133.82L44.3747 133.408L46.3802 134.901L47.0699 135.415C47.2878 135.473 47.5138 135.502 47.7397 135.502C47.9656 135.502 48.1915 135.473 48.4095 135.415L49.0753 134.84L50.744 133.404L51.5406 133.958L51.5366 133.965Z" fill="white"/>
<path d="M39.9159 147.02C39.5196 147.02 39.2184 146.926 39.0123 146.734C38.8062 146.542 38.7031 146.264 38.7031 145.899V141.772C38.7031 141.031 39.1034 140.662 39.904 140.662C40.6294 140.662 41.0257 140.984 41.0891 141.624C41.319 141.31 41.6242 141.064 42.0047 140.894C42.3852 140.724 42.8132 140.637 43.2809 140.637C44.0894 140.637 44.6879 140.854 45.0803 141.284C45.4727 141.718 45.6669 142.38 45.6669 143.28V145.899C45.6669 146.264 45.5599 146.542 45.3498 146.734C45.1397 146.926 44.8346 147.02 44.4382 147.02C44.0419 147.02 43.7406 146.926 43.5266 146.734C43.3166 146.542 43.2095 146.264 43.2095 145.899V143.367C43.2095 142.995 43.1382 142.727 42.9955 142.568C42.8528 142.409 42.6428 142.329 42.3693 142.329C42.0007 142.329 41.7074 142.434 41.4855 142.648C41.2635 142.861 41.1565 143.143 41.1565 143.501V145.895C41.1565 146.644 40.7443 147.016 39.9159 147.016V147.02Z" fill="black"/>
<path d="M52.1302 147.045C51.3018 147.045 50.5884 146.915 49.986 146.651C49.3835 146.39 48.9198 146.018 48.5988 145.533C48.2777 145.052 48.1152 144.481 48.1152 143.826C48.1152 143.172 48.2698 142.651 48.579 142.167C48.8881 141.686 49.3082 141.31 49.8473 141.038C50.3863 140.767 51.0006 140.633 51.6863 140.633C52.372 140.633 52.9586 140.763 53.4579 141.02C53.9573 141.277 54.3458 141.646 54.6153 142.123C54.8848 142.601 55.0235 143.161 55.0235 143.801C55.0235 144.127 54.8134 144.286 54.3893 144.286H50.4616C50.5448 144.683 50.7271 144.973 51.0125 145.146C51.2979 145.32 51.6942 145.407 52.1976 145.407C52.3918 145.407 52.6217 145.385 52.8872 145.345C53.1528 145.302 53.4064 145.237 53.6442 145.146C53.9375 145.045 54.1872 145.045 54.3893 145.139C54.5915 145.233 54.7262 145.381 54.7976 145.577C54.865 145.772 54.857 145.971 54.7698 146.177C54.6826 146.379 54.5122 146.535 54.2546 146.643C53.9336 146.784 53.5927 146.886 53.2281 146.947C52.8634 147.009 52.4988 147.041 52.1302 147.041V147.045ZM51.8012 142.069C51.4326 142.069 51.1314 142.17 50.8976 142.369C50.6637 142.568 50.5131 142.861 50.4497 143.241H53.014C52.9863 142.85 52.8714 142.557 52.6613 142.362C52.4552 142.167 52.1659 142.069 51.7973 142.069H51.8012Z" fill="black"/>
<path d="M17.2049 147.045C16.4399 147.045 15.7781 146.915 15.2113 146.658C14.6445 146.401 14.2085 146.032 13.8954 145.548C13.5823 145.067 13.4277 144.492 13.4277 143.826C13.4277 143.161 13.5823 142.59 13.8954 142.112C14.2085 141.635 14.6485 141.27 15.2113 141.017C15.7781 140.764 16.4399 140.637 17.2049 140.637C17.4704 140.637 17.7518 140.659 18.0451 140.706C18.3384 140.753 18.6436 140.836 18.9567 140.962C19.1668 141.038 19.3214 141.15 19.4125 141.306C19.5037 141.461 19.5433 141.624 19.5314 141.798C19.5195 141.971 19.464 142.13 19.365 142.271C19.2698 142.413 19.1351 142.51 18.9647 142.557C18.7942 142.608 18.604 142.586 18.3939 142.496C18.0927 142.369 17.7835 142.308 17.4704 142.308C16.9829 142.308 16.6064 142.441 16.3409 142.705C16.0753 142.973 15.9406 143.346 15.9406 143.826C15.9406 144.307 16.0753 144.698 16.3409 144.969C16.6064 145.24 16.9829 145.374 17.4704 145.374C17.6171 145.374 17.7677 145.36 17.9262 145.331C18.0808 145.302 18.2393 145.255 18.3939 145.186C18.6159 145.096 18.8061 145.078 18.9647 145.128C19.1272 145.183 19.254 145.277 19.3491 145.414C19.4442 145.551 19.4997 145.707 19.5156 145.88C19.5275 146.054 19.4918 146.22 19.3967 146.372C19.3055 146.528 19.147 146.64 18.929 146.716C18.6159 146.839 18.3186 146.926 18.0332 146.973C17.7479 147.02 17.4744 147.041 17.2049 147.041V147.045Z" fill="black"/>
<path d="M25.0931 147.045C24.34 147.045 23.6821 146.915 23.1233 146.658C22.5644 146.401 22.1245 146.032 21.8153 145.548C21.5022 145.067 21.3477 144.495 21.3477 143.841C21.3477 143.186 21.5022 142.604 21.8153 142.127C22.1285 141.65 22.5644 141.281 23.1233 141.024C23.6821 140.767 24.34 140.637 25.0931 140.637C25.8462 140.637 26.5041 140.767 27.0629 141.024C27.6218 141.281 28.0577 141.65 28.3669 142.127C28.676 142.604 28.8306 143.176 28.8306 143.841C28.8306 144.506 28.676 145.067 28.3669 145.548C28.0577 146.029 27.6257 146.401 27.0629 146.658C26.5041 146.915 25.8462 147.045 25.0931 147.045ZM25.0931 145.41C25.4617 145.41 25.7629 145.287 26.0047 145.038C26.2425 144.788 26.3614 144.391 26.3614 143.841C26.3614 143.291 26.2425 142.883 26.0047 142.637C25.7669 142.391 25.4617 142.268 25.0931 142.268C24.7245 142.268 24.4074 142.391 24.1696 142.637C23.9318 142.883 23.8129 143.284 23.8129 143.841C23.8129 144.398 23.9318 144.788 24.1696 145.038C24.4074 145.287 24.7166 145.41 25.0931 145.41Z" fill="black"/>
<path d="M32.5943 147.02C31.758 147.02 31.3379 146.647 31.3379 145.899V141.773C31.3379 141.031 31.7382 140.662 32.5388 140.662C32.9153 140.662 33.2086 140.756 33.4147 140.948C33.6208 141.14 33.7239 141.415 33.7239 141.773V141.809C33.8785 141.451 34.1321 141.169 34.4809 140.959C34.8297 140.753 35.2419 140.644 35.7214 140.633C35.987 140.626 36.1891 140.684 36.3199 140.814C36.4547 140.944 36.526 141.183 36.534 141.53C36.534 141.83 36.4666 142.065 36.3279 142.243C36.1891 142.416 35.9275 142.521 35.5431 142.554L35.226 142.579C34.7385 142.622 34.3858 142.742 34.1638 142.948C33.9419 143.15 33.8349 143.454 33.8349 143.852V145.899C33.8349 146.647 33.4227 147.02 32.5943 147.02Z" fill="black"/>
<path d="M58.6816 147.02C58.2852 147.02 57.984 146.915 57.7779 146.709C57.5718 146.499 57.4688 146.202 57.4688 145.812V141.87C57.4688 141.48 57.5718 141.179 57.7779 140.973C57.984 140.767 58.2852 140.662 58.6816 140.662C59.0779 140.662 59.3831 140.767 59.5971 140.973C59.8111 141.183 59.9221 141.48 59.9221 141.87V145.812C59.9221 146.202 59.8151 146.503 59.605 146.709C59.395 146.915 59.0858 147.02 58.6816 147.02Z" fill="black"/>
<path d="M65.3009 147.045C64.4091 147.045 63.7552 146.832 63.343 146.401C62.9308 145.975 62.7207 145.327 62.7207 144.463V139.125C62.7207 138.377 63.125 138.004 63.9335 138.004C64.3299 138.004 64.635 138.098 64.8491 138.29C65.0631 138.482 65.1741 138.76 65.1741 139.125V144.387C65.1741 144.694 65.2414 144.919 65.3722 145.06C65.507 145.201 65.6774 145.273 65.8875 145.273C65.9509 145.273 66.0183 145.266 66.0857 145.255C66.153 145.244 66.2283 145.233 66.3116 145.222C66.478 145.222 66.5969 145.277 66.6683 145.385C66.7436 145.494 66.7793 145.714 66.7793 146.047C66.7793 146.336 66.7158 146.557 66.585 146.701C66.4543 146.846 66.26 146.94 65.9905 146.983C65.9152 147.002 65.8122 147.016 65.6735 147.027C65.5347 147.038 65.4079 147.045 65.289 147.045H65.3009Z" fill="black"/>
<path d="M71.4767 147.045C70.5849 147.045 69.9309 146.832 69.5187 146.401C69.1065 145.975 68.8965 145.327 68.8965 144.463V139.125C68.8965 138.377 69.3008 138.004 70.1093 138.004C70.5056 138.004 70.8108 138.098 71.0249 138.29C71.2389 138.482 71.3499 138.76 71.3499 139.125V144.387C71.3499 144.694 71.4172 144.919 71.548 145.06C71.6828 145.201 71.8532 145.273 72.0633 145.273C72.1267 145.273 72.1941 145.266 72.2614 145.255C72.3288 145.244 72.4041 145.233 72.4874 145.222C72.6538 145.222 72.7727 145.277 72.8441 145.385C72.9194 145.494 72.955 145.714 72.955 146.047C72.955 146.336 72.8916 146.557 72.7608 146.701C72.63 146.846 72.4358 146.94 72.1663 146.983C72.091 147.002 71.988 147.016 71.8492 147.027C71.7105 147.038 71.5837 147.045 71.4648 147.045H71.4767Z" fill="black"/>
<path d="M78.7005 147.045C77.8721 147.045 77.1587 146.915 76.5563 146.651C75.9538 146.39 75.4901 146.018 75.1691 145.533C74.848 145.052 74.6855 144.481 74.6855 143.826C74.6855 143.172 74.8401 142.651 75.1493 142.167C75.4584 141.686 75.8785 141.31 76.4176 141.038C76.9566 140.767 77.5709 140.633 78.2566 140.633C78.9423 140.633 79.5289 140.763 80.0283 141.02C80.5276 141.277 80.9161 141.646 81.1856 142.123C81.4551 142.601 81.5938 143.161 81.5938 143.801C81.5938 144.127 81.3837 144.286 80.9597 144.286H77.0319C77.1151 144.683 77.2974 144.973 77.5828 145.146C77.8682 145.32 78.2645 145.407 78.7679 145.407C78.9621 145.407 79.192 145.385 79.4575 145.345C79.7231 145.302 79.9767 145.237 80.2145 145.146C80.5078 145.045 80.7575 145.045 80.9597 145.139C81.1618 145.233 81.2966 145.381 81.3679 145.577C81.4353 145.772 81.4273 145.971 81.3402 146.177C81.253 146.379 81.0825 146.535 80.8249 146.643C80.5039 146.784 80.163 146.886 79.7984 146.947C79.4337 147.009 79.0691 147.041 78.7005 147.041V147.045ZM78.3715 142.069C78.0029 142.069 77.7017 142.17 77.4679 142.369C77.234 142.568 77.0834 142.861 77.02 143.241H79.5843C79.5566 142.85 79.4417 142.557 79.2316 142.362C79.0255 142.167 78.7362 142.069 78.3676 142.069H78.3715Z" fill="black"/>
</g>
</g>
<g filter="url(#filter6_d_3661_2587)">
<rect x="131.346" y="116.557" width="95.9841" height="37.4493" fill="white"/>
<g clip-path="url(#clip7_3661_2587)">
<path d="M161.002 140.716C160.225 140.841 159.434 140.878 158.617 140.978L156.122 134.312V141.263C155.345 141.338 154.636 141.437 153.9 141.537V128.803H155.972L158.807 136.028V128.803H161.002V140.716ZM165.295 133.466C166.14 133.466 167.435 133.429 168.212 133.429V135.419C167.244 135.419 166.113 135.419 165.295 135.456V138.416C166.576 138.341 167.858 138.242 169.152 138.204V140.119L163.114 140.555V128.803H169.152V130.792H165.295V133.466V133.466ZM177.263 130.792H175V139.946C174.264 139.946 173.528 139.946 172.819 139.97V130.792H170.557V128.803H177.263V130.792ZM180.806 133.329H183.791V135.319H180.806V139.833H178.666V128.803H184.759V130.792H180.806V133.329ZM188.303 138.092C189.543 138.117 190.798 138.204 192.011 138.266V140.231C190.061 140.119 188.113 140.008 186.122 139.97V128.803H188.303V138.092ZM193.85 140.368C194.545 140.406 195.282 140.443 195.99 140.517V128.803H193.85V140.368ZM205.545 128.803L202.778 134.859L205.545 141.538C204.727 141.438 203.91 141.301 203.092 141.177L201.524 137.496L199.929 140.879C199.138 140.754 198.375 140.717 197.585 140.617L200.393 134.785L197.858 128.803H200.202L201.633 132.148L203.16 128.803H205.545Z" fill="#D81F26"/>
</g>
</g>
<g filter="url(#filter7_d_3661_2587)">
<rect x="262.693" y="116.557" width="95.9841" height="37.4493" fill="white"/>
<g clip-path="url(#clip8_3661_2587)">
<path fill-rule="evenodd" clip-rule="evenodd" d="M298.994 130.403H303.401C306.129 130.403 308.059 132.059 308.059 134.413C308.059 136.767 306.13 138.423 303.401 138.423H298.994V130.403ZM302.419 136.257H303.219C304.075 136.257 304.532 135.736 304.532 134.413C304.532 133.091 304.075 132.57 303.219 132.57H302.419V136.257V136.257ZM315.822 138.423H308.583V130.403H315.822V132.57H311.997V133.497H315.593V135.268H311.997V136.257H315.822V138.424V138.423ZM323.882 138.423H316.645V130.403H323.882V132.57H320.058V133.497H323.654V135.268H320.058V136.257H323.882V138.424V138.423ZM350.151 138.423C349.658 137.197 348.967 135.889 348.04 134.422C349.125 134.131 349.774 133.507 349.774 132.549C349.774 131.091 348.301 130.404 345.972 130.404H341.177V138.424H344.603V135.107C345.363 136.276 345.924 137.38 346.292 138.424H350.151V138.423ZM344.603 133.986V132.57H345.79C346.293 132.57 346.578 132.82 346.578 133.278C346.578 133.736 346.293 133.986 345.79 133.986H344.603ZM340.356 138.423H333.117V130.403H340.356V132.57H336.531V133.497H340.127V135.268H336.531V136.257H340.356V138.424V138.423ZM324.704 132.57H328.238C326.772 133.664 325.565 134.904 324.636 136.257V138.424H332.411V136.257H328.524C329.415 135.075 330.659 133.898 332.411 132.57V130.403H324.705V132.57H324.704Z" fill="black"/>
<path fill-rule="evenodd" clip-rule="evenodd" d="M289.361 128.55C289.567 127.461 289.87 126.776 290.204 126.775C290.829 126.777 291.334 129.153 291.334 132.085C291.334 135.018 290.828 137.396 290.202 137.396C289.946 137.396 289.709 136.992 289.519 136.316C289.219 138.792 288.594 140.494 287.872 140.494C287.313 140.494 286.811 139.472 286.474 137.859C286.244 140.926 285.665 143.102 284.988 143.102C284.563 143.102 284.176 142.24 283.89 140.836C283.545 143.734 282.749 145.765 281.821 145.765C280.892 145.765 280.094 143.735 279.751 140.836C279.467 142.24 279.079 143.102 278.653 143.102C277.976 143.102 277.399 140.926 277.167 137.859C276.83 139.472 276.33 140.494 275.769 140.494C275.047 140.494 274.422 138.793 274.121 136.316C273.932 136.994 273.695 137.396 273.438 137.396C272.813 137.396 272.306 135.018 272.306 132.085C272.306 129.153 272.813 126.775 273.438 126.775C273.773 126.775 274.074 127.462 274.281 128.55C274.616 126.673 275.157 125.452 275.77 125.452C276.497 125.452 277.126 127.178 277.424 129.685C277.716 127.861 278.158 126.697 278.654 126.697C279.348 126.697 279.938 128.985 280.157 132.177C280.568 130.54 281.163 129.514 281.822 129.514C282.481 129.514 283.076 130.541 283.487 132.177C283.706 128.986 284.296 126.697 284.99 126.697C285.485 126.697 285.926 127.861 286.219 129.685C286.517 127.178 287.146 125.452 287.873 125.452C288.483 125.452 289.027 126.673 289.36 128.55H289.361ZM270.689 131.563C270.689 130.252 270.976 129.189 271.332 129.189C271.687 129.189 271.974 130.252 271.974 131.563C271.974 132.874 271.687 133.937 271.332 133.937C270.976 133.937 270.689 132.874 270.689 131.563ZM291.668 131.563C291.668 130.252 291.955 129.189 292.31 129.189C292.665 129.189 292.952 130.252 292.952 131.563C292.952 132.874 292.665 133.937 292.31 133.937C291.955 133.937 291.668 132.874 291.668 131.563Z" fill="#A238FF"/>
</g>
</g>
</g>
<defs>
<filter id="filter0_d_3661_2587" x="0" y="14" width="97.9844" height="39.4492" filterUnits="userSpaceOnUse" color-interpolation-filters="sRGB">
<feFlood flood-opacity="0" result="BackgroundImageFix"/>
<feColorMatrix in="SourceAlpha" type="matrix" values="0 0 0 0 0 0 0 0 0 0 0 0 0 0 0 0 0 0 127 0" result="hardAlpha"/>
<feOffset dx="2" dy="2"/>
<feComposite in2="hardAlpha" operator="out"/>
<feColorMatrix type="matrix" values="0 0 0 0 0.129412 0 0 0 0 0.109804 0 0 0 0 0.266667 0 0 0 0.2 0"/>
<feBlend mode="normal" in2="BackgroundImageFix" result="effect1_dropShadow_3661_2587"/>
<feBlend mode="normal" in="SourceGraphic" in2="effect1_dropShadow_3661_2587" result="shape"/>
</filter>
<filter id="filter1_d_3661_2587" x="131.348" y="14" width="97.9844" height="39.4492" filterUnits="userSpaceOnUse" color-interpolation-filters="sRGB">
<feFlood flood-opacity="0" result="BackgroundImageFix"/>
<feColorMatrix in="SourceAlpha" type="matrix" values="0 0 0 0 0 0 0 0 0 0 0 0 0 0 0 0 0 0 127 0" result="hardAlpha"/>
<feOffset dx="2" dy="2"/>
<feComposite in2="hardAlpha" operator="out"/>
<feColorMatrix type="matrix" values="0 0 0 0 0.129412 0 0 0 0 0.109804 0 0 0 0 0.266667 0 0 0 0.2 0"/>
<feBlend mode="normal" in2="BackgroundImageFix" result="effect1_dropShadow_3661_2587"/>
<feBlend mode="normal" in="SourceGraphic" in2="effect1_dropShadow_3661_2587" result="shape"/>
</filter>
<filter id="filter2_d_3661_2587" x="262.693" y="14" width="97.9844" height="39.4492" filterUnits="userSpaceOnUse" color-interpolation-filters="sRGB">
<feFlood flood-opacity="0" result="BackgroundImageFix"/>
<feColorMatrix in="SourceAlpha" type="matrix" values="0 0 0 0 0 0 0 0 0 0 0 0 0 0 0 0 0 0 127 0" result="hardAlpha"/>
<feOffset dx="2" dy="2"/>
<feComposite in2="hardAlpha" operator="out"/>
<feColorMatrix type="matrix" values="0 0 0 0 0.129412 0 0 0 0 0.109804 0 0 0 0 0.266667 0 0 0 0.2 0"/>
<feBlend mode="normal" in2="BackgroundImageFix" result="effect1_dropShadow_3661_2587"/>
<feBlend mode="normal" in="SourceGraphic" in2="effect1_dropShadow_3661_2587" result="shape"/>
</filter>
<filter id="filter3_d_3661_2587" x="65.6719" y="65.2822" width="97.9844" height="39.4492" filterUnits="userSpaceOnUse" color-interpolation-filters="sRGB">
<feFlood flood-opacity="0" result="BackgroundImageFix"/>
<feColorMatrix in="SourceAlpha" type="matrix" values="0 0 0 0 0 0 0 0 0 0 0 0 0 0 0 0 0 0 127 0" result="hardAlpha"/>
<feOffset dx="2" dy="2"/>
<feComposite in2="hardAlpha" operator="out"/>
<feColorMatrix type="matrix" values="0 0 0 0 0.129412 0 0 0 0 0.109804 0 0 0 0 0.266667 0 0 0 0.2 0"/>
<feBlend mode="normal" in2="BackgroundImageFix" result="effect1_dropShadow_3661_2587"/>
<feBlend mode="normal" in="SourceGraphic" in2="effect1_dropShadow_3661_2587" result="shape"/>
</filter>
<filter id="filter4_d_3661_2587" x="197.02" y="65.2822" width="97.9844" height="39.4492" filterUnits="userSpaceOnUse" color-interpolation-filters="sRGB">
<feFlood flood-opacity="0" result="BackgroundImageFix"/>
<feColorMatrix in="SourceAlpha" type="matrix" values="0 0 0 0 0 0 0 0 0 0 0 0 0 0 0 0 0 0 127 0" result="hardAlpha"/>
<feOffset dx="2" dy="2"/>
<feComposite in2="hardAlpha" operator="out"/>
<feColorMatrix type="matrix" values="0 0 0 0 0.129412 0 0 0 0 0.109804 0 0 0 0 0.266667 0 0 0 0.2 0"/>
<feBlend mode="normal" in2="BackgroundImageFix" result="effect1_dropShadow_3661_2587"/>
<feBlend mode="normal" in="SourceGraphic" in2="effect1_dropShadow_3661_2587" result="shape"/>
</filter>
<filter id="filter5_d_3661_2587" x="0" y="116.557" width="97.9844" height="39.4492" filterUnits="userSpaceOnUse" color-interpolation-filters="sRGB">
<feFlood flood-opacity="0" result="BackgroundImageFix"/>
<feColorMatrix in="SourceAlpha" type="matrix" values="0 0 0 0 0 0 0 0 0 0 0 0 0 0 0 0 0 0 127 0" result="hardAlpha"/>
<feOffset dx="2" dy="2"/>
<feComposite in2="hardAlpha" operator="out"/>
<feColorMatrix type="matrix" values="0 0 0 0 0.129412 0 0 0 0 0.109804 0 0 0 0 0.266667 0 0 0 0.2 0"/>
<feBlend mode="normal" in2="BackgroundImageFix" result="effect1_dropShadow_3661_2587"/>
<feBlend mode="normal" in="SourceGraphic" in2="effect1_dropShadow_3661_2587" result="shape"/>
</filter>
<filter id="filter6_d_3661_2587" x="131.346" y="116.557" width="97.9844" height="39.4492" filterUnits="userSpaceOnUse" color-interpolation-filters="sRGB">
<feFlood flood-opacity="0" result="BackgroundImageFix"/>
<feColorMatrix in="SourceAlpha" type="matrix" values="0 0 0 0 0 0 0 0 0 0 0 0 0 0 0 0 0 0 127 0" result="hardAlpha"/>
<feOffset dx="2" dy="2"/>
<feComposite in2="hardAlpha" operator="out"/>
<feColorMatrix type="matrix" values="0 0 0 0 0.129412 0 0 0 0 0.109804 0 0 0 0 0.266667 0 0 0 0.2 0"/>
<feBlend mode="normal" in2="BackgroundImageFix" result="effect1_dropShadow_3661_2587"/>
<feBlend mode="normal" in="SourceGraphic" in2="effect1_dropShadow_3661_2587" result="shape"/>
</filter>
<filter id="filter7_d_3661_2587" x="262.693" y="116.557" width="97.9844" height="39.4492" filterUnits="userSpaceOnUse" color-interpolation-filters="sRGB">
<feFlood flood-opacity="0" result="BackgroundImageFix"/>
<feColorMatrix in="SourceAlpha" type="matrix" values="0 0 0 0 0 0 0 0 0 0 0 0 0 0 0 0 0 0 127 0" result="hardAlpha"/>
<feOffset dx="2" dy="2"/>
<feComposite in2="hardAlpha" operator="out"/>
<feColorMatrix type="matrix" values="0 0 0 0 0.129412 0 0 0 0 0.109804 0 0 0 0 0.266667 0 0 0 0.2 0"/>
<feBlend mode="normal" in2="BackgroundImageFix" result="effect1_dropShadow_3661_2587"/>
<feBlend mode="normal" in="SourceGraphic" in2="effect1_dropShadow_3661_2587" result="shape"/>
</filter>
<clipPath id="clip0_3661_2587">
<path d="M0 16C0 7.16344 7.16344 0 16 0H298C306.837 0 314 7.16344 314 16V154H0V16Z" fill="white"/>
</clipPath>
<clipPath id="clip1_3661_2587">
<rect width="45.8721" height="31.3068" fill="white" transform="translate(25.4961 17.02)"/>
</clipPath>
<clipPath id="clip2_3661_2587">
<rect width="66.966" height="17.651" fill="white" transform="translate(145.811 23.7876)"/>
</clipPath>
<clipPath id="clip3_3661_2587">
<rect width="33.0526" height="30.9948" fill="white" transform="translate(294.375 17.0723)"/>
</clipPath>
<clipPath id="clip4_3661_2587">
<rect width="63.5953" height="17.4021" fill="white" transform="translate(81.5977 75.4492)"/>
</clipPath>
<clipPath id="clip5_3661_2587">
<rect width="60.5972" height="13.2693" fill="white" transform="translate(214.152 77.2964)"/>
</clipPath>
<clipPath id="clip6_3661_2587">
<rect width="68.1711" height="23.5054" fill="white" transform="translate(13.4277 123.54)"/>
</clipPath>
<clipPath id="clip7_3661_2587">
<rect width="51.6447" height="12.7345" fill="white" transform="translate(153.9 128.803)"/>
</clipPath>
<clipPath id="clip8_3661_2587">
<rect width="79.462" height="20.3127" fill="white" transform="translate(270.689 125.452)"/>
</clipPath>
</defs>
</svg>
