<svg width="416" height="208" viewBox="0 0 416 208" fill="none" xmlns="http://www.w3.org/2000/svg">
<path d="M205.584 87.34C198.569 84.8172 193.547 78.1015 193.547 70.2215C193.547 62.3415 198.569 55.6258 205.584 53.0972V74.5026H217.887V53.0972C224.902 55.62 229.924 62.3415 229.924 70.2215C229.924 78.1015 224.902 84.8172 217.887 87.34V147.211C217.887 150.61 215.135 153.362 211.736 153.362C208.337 153.362 205.584 150.61 205.584 147.211V87.34Z" stroke="#221C46" stroke-width="4.4" stroke-miterlimit="5"/>
<path d="M266.015 96.0491L282.469 81.671L268.285 63.1177H231.031V70.2979L246.591 72.0621V96.0491H266.015ZM266.015 96.0491V88.9747L272.454 81.7122L266.015 75.3082V96.0491Z" stroke="#221C46" stroke-width="4.4" stroke-miterlimit="5"/>
<path d="M246.591 96.0488L238.629 120.747L238.688 126.91L262.14 145.234V152.585H266.362L274.048 143.07L248.867 122.012L253.195 111.291H255.312V127.375" stroke="#221C46" stroke-width="4.4" stroke-miterlimit="5"/>
<path d="M255.313 139.9V145.234L249.891 148.898V152.585H262.14" stroke="#221C46" stroke-width="4.4" stroke-miterlimit="5"/>
<path d="M263.758 134.402L266.016 108.986V96.0488" stroke="#221C46" stroke-width="4.4" stroke-miterlimit="5"/>
<path d="M255.312 145.235H262.14L267.791 137.754" stroke="#221C46" stroke-width="4.4" stroke-miterlimit="5"/>
<path d="M272.457 81.7119H282.284" stroke="#221C46" stroke-width="4.4" stroke-miterlimit="5"/>
<path d="M238.629 71.1624V63.1177" stroke="#221C46" stroke-width="4.4" stroke-miterlimit="5"/>
<path d="M255.898 44C260.314 44 263.902 47.5872 263.902 52.0035C263.902 56.4199 260.314 60.007 255.898 60.007C251.482 60.007 247.895 56.4199 247.895 52.0035C247.895 47.5872 251.482 44 255.898 44Z" stroke="#221C46" stroke-width="4.4" stroke-miterlimit="5"/>
<path d="M149.078 164.905C149.078 159.712 153.03 155.496 157.899 155.496C162.768 155.496 166.72 159.712 166.72 164.905" stroke="#221C46" stroke-width="4.4" stroke-miterlimit="3"/>
<path d="M167.027 164.905C167.027 159.712 170.979 155.496 175.848 155.496C180.717 155.496 184.669 159.712 184.669 164.905" stroke="#221C46" stroke-width="4.4" stroke-miterlimit="3"/>
<path d="M184.973 164.905C184.973 159.712 188.924 155.496 193.794 155.496C198.663 155.496 202.615 159.712 202.615 164.905" stroke="#221C46" stroke-width="4.4" stroke-miterlimit="3"/>
<path d="M202.914 164.905C202.914 159.712 206.866 155.496 211.735 155.496C216.604 155.496 220.556 159.712 220.556 164.905" stroke="#221C46" stroke-width="4.4" stroke-miterlimit="3"/>
<path d="M220.859 164.905C220.859 159.712 224.811 155.496 229.68 155.496C234.549 155.496 238.501 159.712 238.501 164.905" stroke="#221C46" stroke-width="4.4" stroke-miterlimit="3"/>
<path d="M238.805 164.905C238.805 159.712 242.756 155.496 247.626 155.496C252.495 155.496 256.447 159.712 256.447 164.905" stroke="#221C46" stroke-width="4.4" stroke-miterlimit="3"/>
<path d="M256.754 164.905C256.754 159.712 260.706 155.496 265.575 155.496C270.444 155.496 274.396 159.712 274.396 164.905" stroke="#221C46" stroke-width="4.4" stroke-miterlimit="3"/>
<path d="M152.992 81.8882L172.81 132.679" stroke="#221C46" stroke-width="4.4" stroke-miterlimit="5"/>
<path d="M182.135 158.324C182.335 158.26 182.535 158.189 182.729 158.113C185.252 157.131 187.281 155.184 188.369 152.703C189.639 149.809 191.039 146.616 192.309 143.717C194.949 137.701 195.09 130.88 192.703 124.758C188.222 113.273 181.295 95.5254 181.295 95.5254C170.392 106.863 157.149 112.185 141.395 111.097C141.395 111.097 148.322 128.839 152.803 140.33C155.19 146.452 159.918 151.374 165.934 154.014C167.81 154.837 169.804 155.713 171.762 156.572" stroke="#221C46" stroke-width="4.4" stroke-miterlimit="5"/>
<path d="M147.273 47.375L134 52.5558L150.719 95.3961L163.985 90.2153L147.273 47.375Z" stroke="#221C46" stroke-width="4.4" stroke-miterlimit="5"/>
</svg>
