<?xml version="1.0" standalone="no"?>
<!DOCTYPE svg PUBLIC "-//W3C//DTD SVG 20010904//EN"
 "http://www.w3.org/TR/2001/REC-SVG-20010904/DTD/svg10.dtd">
<svg version="1.0" xmlns="http://www.w3.org/2000/svg"
 width="700.000000pt" height="700.000000pt" viewBox="0 0 700.000000 700.000000"
 preserveAspectRatio="xMidYMid meet">
<g transform="translate(0.000000,700.000000) scale(0.100000,-0.100000)"
fill="#000000" stroke="none">
<path d="M870 5278 l0 -843 467 -467 468 -468 -468 -468 -467 -467 2 -845 3
-845 845 -3 845 -2 467 467 468 468 468 -468 467 -467 845 2 845 3 3 845 2
845 -467 467 -468 468 468 468 467 467 0 843 0 842 -852 0 -853 0 -462 -462
-463 -463 -463 463 -462 462 -853 0 -852 0 0 -842z"/>
</g>
</svg>
